<svg id="Layer_1" data-name="Layer 1" xmlns="http://www.w3.org/2000/svg" viewBox="0 0 962.02 762.832"><defs><style>.cls-1{fill:#4d4d4d;}.cls-2{fill:#0AC18E;}.cls-3{fill:#fff;}</style></defs><title>3-bitcoin-cash-logo-ot</title><path class="cls-1" d="M45.41,761.632c-7.4,0-14.8-.2-22.1-.7a161.4,161.4,0,0,1-22.9-3.2v-130.9a190.448,190.448,0,0,1,20.5-2.6q11.1-.9,20.7-.9a133.855,133.855,0,0,1,23.7,1.9,55.094,55.094,0,0,1,18.6,6.3,32.939,32.939,0,0,1,12.2,11.8c2.9,4.9,4.4,10.9,4.4,18q0,16.2-15.6,25.5c8.6,3.2,14.4,7.7,17.5,13.2a38.392,38.392,0,0,1,4.7,18.9c0,14.2-5.2,24.8-15.5,31.9C81.11,758.132,65.81,761.632,45.41,761.632Zm-15.4-83.7h14.8c9.4,0,16-1.2,20.1-3.6,4-2.4,6-6.3,6-11.6,0-5.5-2.1-9.3-6.2-11.5q-6.3-3.3-18.3-3.3c-2.6,0-5.4,0-8.4.1s-5.6.2-8,.5Zm0,23.2v34.9q3.3.45,7.2.6c2.6.1,5.5.2,8.6.2,9.1,0,16.4-1.3,22-3.9s8.4-7.4,8.4-14.4c0-6.2-2.3-10.7-7-13.3-4.7-2.7-11.4-4-20.1-4Z"/><path class="cls-1" d="M150.41,627.832c0,5.3-1.7,9.5-5.2,12.6a18.479,18.479,0,0,1-24.4,0c-3.4-3.1-5.2-7.2-5.2-12.6,0-5.3,1.7-9.5,5.2-12.6a17.963,17.963,0,0,1,12.2-4.6,17.673,17.673,0,0,1,12.2,4.6C148.71,618.332,150.41,622.532,150.41,627.832Zm-2.8,132.1h-29v-102.5h29Z"/><path class="cls-1" d="M163.21,631.932l29-4.7v30.2h34.9v24.2h-34.9v36c0,6.1,1.1,11,3.2,14.6s6.5,5.5,13,5.5a53.575,53.575,0,0,0,9.6-.9,57.538,57.538,0,0,0,9.1-2.4l4.1,22.6a80.556,80.556,0,0,1-11.7,3.7,69.986,69.986,0,0,1-15.8,1.6c-7.9,0-14.5-1.1-19.7-3.2a29.9,29.9,0,0,1-12.5-9,33.139,33.139,0,0,1-6.5-13.9,84.514,84.514,0,0,1-1.9-18.1l.1-86.2Z"/><path class="cls-1" d="M231.21,708.732a60,60,0,0,1,3.6-20.9,48.924,48.924,0,0,1,27-28.7,53.956,53.956,0,0,1,22.2-4.3,69.293,69.293,0,0,1,15,1.5,75.036,75.036,0,0,1,13.2,4.2l-6,23.2a80.82,80.82,0,0,0-9-2.7,45.5,45.5,0,0,0-10.9-1.2c-8.6,0-15,2.7-19.2,8s-6.3,12.3-6.3,21c0,9.2,2,16.4,5.9,21.4,4,5.1,10.9,7.6,20.7,7.6a65.765,65.765,0,0,0,11.3-1,47.657,47.657,0,0,0,11.1-3.1l4.1,23.8a67.551,67.551,0,0,1-12.7,3.7,87.143,87.143,0,0,1-16.8,1.6c-9.4,0-17.4-1.4-24.2-4.2a45.874,45.874,0,0,1-16.7-11.4,43.772,43.772,0,0,1-9.5-17A83.314,83.314,0,0,1,231.21,708.732Z"/><path class="cls-1" d="M413.81,708.532a67.391,67.391,0,0,1-3.5,22.1,47.036,47.036,0,0,1-10.1,17.1,45.816,45.816,0,0,1-15.9,11,56.62,56.62,0,0,1-41.3,0,45.816,45.816,0,0,1-15.9-11,49.8,49.8,0,0,1-10.3-17.1,62.91,62.91,0,0,1-3.7-22.1,61.552,61.552,0,0,1,3.8-22,48.39,48.39,0,0,1,10.5-16.9,46.9,46.9,0,0,1,16-10.9,51.577,51.577,0,0,1,20.2-3.9,52.215,52.215,0,0,1,20.4,3.9,45.562,45.562,0,0,1,15.9,10.9,48.9,48.9,0,0,1,10.3,16.9A66.312,66.312,0,0,1,413.81,708.532Zm-29.6,0c0-9-1.8-16-5.4-21.1s-8.7-7.7-15.3-7.7-11.8,2.6-15.4,7.7-5.5,12.2-5.5,21.1c0,9,1.8,16.1,5.5,21.3,3.6,5.3,8.8,7.9,15.4,7.9s11.7-2.6,15.3-7.9S384.21,717.432,384.21,708.532Z"/><path class="cls-1" d="M457.21,627.832c0,5.3-1.7,9.5-5.2,12.6a18.479,18.479,0,0,1-24.4,0c-3.4-3.1-5.2-7.2-5.2-12.6,0-5.3,1.7-9.5,5.2-12.6a17.963,17.963,0,0,1,12.2-4.6,17.673,17.673,0,0,1,12.2,4.6C455.51,618.332,457.21,622.532,457.21,627.832Zm-2.7,132.1h-29v-102.5h29Z"/><path class="cls-1" d="M471.01,660.932a159.017,159.017,0,0,1,19.1-4,161.165,161.165,0,0,1,24.5-1.9c8.7,0,15.9,1.1,21.7,3.4a32.549,32.549,0,0,1,13.7,9.6,37.228,37.228,0,0,1,7.2,14.8,80.4,80.4,0,0,1,2.1,19.1v57.9h-29v-54.4c0-9.4-1.2-16-3.7-19.9s-7.1-5.8-13.8-5.8q-3.15,0-6.6.3c-2.3.2-4.4.4-6.2.7v79.1h-29v-98.9Z"/><path class="cls-2" d="M638.61,762.632q-33,0-50.2-18.3-17.25-18.3-17.2-52a80.1,80.1,0,0,1,5.3-29.9,63.651,63.651,0,0,1,14.4-22.2,60.736,60.736,0,0,1,21.8-13.7,79,79,0,0,1,27.5-4.7,83.336,83.336,0,0,1,15.6,1.3,93.458,93.458,0,0,1,12.3,2.9,60.353,60.353,0,0,1,8.8,3.4q3.45,1.8,5.1,2.7l-8.8,24.5a71.915,71.915,0,0,0-14.5-5.6,67.7,67.7,0,0,0-18.8-2.3,42.383,42.383,0,0,0-13.7,2.3,32.458,32.458,0,0,0-11.9,7.5,38.221,38.221,0,0,0-8.3,13.3c-2.1,5.5-3.1,12.1-3.1,19.9a74.139,74.139,0,0,0,2,17.4,38.134,38.134,0,0,0,6.6,13.9,32.066,32.066,0,0,0,12,9.3c4.9,2.3,10.9,3.4,17.9,3.4a84.594,84.594,0,0,0,11.9-.8,70.782,70.782,0,0,0,9.4-1.9,50.542,50.542,0,0,0,7.2-2.4c2.1-.9,4-1.8,5.6-2.5l8.4,24.4c-4.3,2.6-10.3,4.9-18.1,7A106.518,106.518,0,0,1,638.61,762.632Z"/><path class="cls-2" d="M729.41,654.732c8.6,0,15.7,1,21.4,2.9a31.9,31.9,0,0,1,13.7,8.4,31.088,31.088,0,0,1,7.3,13.2,66.662,66.662,0,0,1,2.1,17.3v60.4c-4.2.9-9.9,2-17.3,3.2a170.308,170.308,0,0,1-26.9,1.9,83.1,83.1,0,0,1-18-1.8,40.618,40.618,0,0,1-13.9-5.7,26.633,26.633,0,0,1-9-10.4c-2.1-4.3-3.1-9.5-3.1-15.8a29.993,29.993,0,0,1,3.6-15.2,26.837,26.837,0,0,1,9.6-9.9,42.35,42.35,0,0,1,13.8-5.4,78.051,78.051,0,0,1,16.2-1.7,96.807,96.807,0,0,1,10,.5,34.884,34.884,0,0,1,7.1,1.3v-2.7c0-4.9-1.5-8.9-4.5-11.9s-8.2-4.5-15.6-4.5a101.347,101.347,0,0,0-14.6,1.1,62.015,62.015,0,0,0-12.5,3l-3.7-23.4c1.7-.5,3.8-1.1,6.3-1.7s5.3-1.1,8.3-1.6,6.1-.8,9.4-1.2C722.61,654.932,726.01,654.732,729.41,654.732Zm2.3,84.9c2.9,0,5.6-.1,8.2-.2a41.718,41.718,0,0,0,6.2-.6v-22a51.806,51.806,0,0,0-5.3-.8,49.98,49.98,0,0,0-6.4-.4,62.141,62.141,0,0,0-7.7.5,17.239,17.239,0,0,0-6.3,1.9,11.053,11.053,0,0,0-4.3,3.7,10.685,10.685,0,0,0-1.6,5.8c0,4.5,1.5,7.7,4.6,9.4,3.1,1.9,7.3,2.7,12.6,2.7Z"/><path class="cls-2" d="M819.01,739.132c5.3,0,9.1-.5,11.3-1.6,2.2-1,3.3-3.1,3.3-6,0-2.3-1.4-4.4-4.3-6.1a77.693,77.693,0,0,0-13.1-5.9,121.546,121.546,0,0,1-12.4-5.3,34.807,34.807,0,0,1-9.4-6.5,25.8,25.8,0,0,1-6-9.1,34.093,34.093,0,0,1-2.1-12.7c0-9.6,3.6-17.2,10.7-22.8s16.9-8.4,29.4-8.4a94.571,94.571,0,0,1,17.9,1.7,80.671,80.671,0,0,1,13.6,3.6l-5.1,22.6a96.393,96.393,0,0,0-11-3.1,60.315,60.315,0,0,0-13.3-1.4c-9.1,0-13.6,2.5-13.6,7.6a7.452,7.452,0,0,0,.6,3.1,6.861,6.861,0,0,0,2.3,2.6,32.831,32.831,0,0,0,4.8,2.7,69.823,69.823,0,0,0,7.7,3.2,123.614,123.614,0,0,1,15.8,7,38,38,0,0,1,9.8,7.4,23.86,23.86,0,0,1,5.1,8.8,38.174,38.174,0,0,1,1.5,11.3c0,10.1-3.8,17.8-11.4,22.9-7.6,5.2-18.3,7.8-32.2,7.8a95.622,95.622,0,0,1-22.7-2.3,113.2,113.2,0,0,1-12.6-3.9l4.9-23.6a98.764,98.764,0,0,0,15.2,4.6A66.584,66.584,0,0,0,819.01,739.132Z"/><path class="cls-2" d="M873.31,759.932v-146.5l29-4.7v49.1a66.941,66.941,0,0,1,7.5-1.9,46.342,46.342,0,0,1,8.9-.9c8.3,0,15.2,1.1,20.7,3.4a32.778,32.778,0,0,1,13.2,9.6,38.293,38.293,0,0,1,7,14.8,80.565,80.565,0,0,1,2,19.1v57.9h-29v-54.4c0-9.4-1.2-16-3.6-19.9s-6.9-5.8-13.3-5.8a34.091,34.091,0,0,0-7.3.7,60.568,60.568,0,0,0-6.1,1.5v77.9h-29v.1Z"/><path class="cls-2" d="M689.315,594.313c93.5-65.6,154.6-174.2,154.6-297.106S782.817,65.6,689.315,0h272.7V594.313Z"/><path class="cls-2" d="M118.4,297.107c0,122.9,61.1,231.5,154.6,297.106H0V0H273.006C179.5,65.6,118.4,174.2,118.4,297.107Z"/><circle class="cls-2" cx="481.01" cy="296.963" r="296.905"/><path class="cls-3" d="M620.266,309.3l-.165-.307-.028-.051c-.1-.309-.175-.632-.289-.966l-.014-.026-.014-.026-.014-.026-.014-.026-.014-.026-.014-.026-.028-.051A60.649,60.649,0,0,0,599.841,278.1l-.014-.026c-.279-.213-.572-.451-.852-.663l-.386-.287-.279-.212-.12-.1-.266-.187-.12-.1-.266-.187-.12-.1-.279-.212-.146-.087-.279-.212-.146-.087-.3-.2-.146-.087-.177-.268-.159-.112-.3-.2-.159-.112-.3-.2-.159-.112-.3-.2-.159-.112-.319-.224-.159-.112-.344-.211-.159-.112-.344-.211-.159-.112-.344-.211-.159-.112-.344-.211-.185-.1-.344-.211-.185-.1-.37-.2-.185-.1-.384-.222-.185-.1-.384-.222-.185-.1-.384-.222-.2-.124-.384-.222-.2-.124-.409-.209-.2-.124-.409-.209-.277-.148-.013-.026c-.2-.124-.409-.209-.608-.333a84.677,84.677,0,0,0-27.11-8.566,75.94,75.94,0,0,0,7.263-9.122l.348-.517.026-.014.161-.252.211-.344.112-.159.211-.344.112-.159.211-.344.112-.159.211-.344.112-.159.211-.344.112-.159.185-.331.112-.159.185-.331.087-.146.185-.331.087-.146.185-.331.086-.146.159-.317.087-.146.159-.317.087-.146.159-.317.087-.146.172-.291.087-.146.173-.291.087-.146.148-.277.087-.146.148-.277.061-.132.148-.277.061-.132.148-.277.061-.132.148-.277.061-.132.122-.264.061-.132.122-.264.061-.132.122-.264.061-.132.134-.3.183-.4c.134-.3.242-.592.376-.9l.026-.014a53.871,53.871,0,0,0,2.737-31.626l-.014-.026-.028-.051-.014-.026-.014-.026-.014-.026-.014-.026-.014-.026-.014-.026c-.061-.3-.122-.594-.208-.878V206.6l-.014-.026-.014-.026-.014-.026.014.026-.124-.23c-.09-.413-.181-.826-.311-1.251-.09-.413-.22-.838-.336-1.238l-.151-.281-.028-.051c-.087-.283-.173-.567-.26-.85l-.014-.026-.014-.026-.014-.026-.014-.026-.014-.026-.014-.026-.013-.026a53.877,53.877,0,0,0-17.641-26.4l-.013-.026c-.24-.2-.506-.388-.746-.588l-.331-.25-.266-.187-.12-.1-.226-.175-.12-.1-.227-.175-.119-.1-.253-.161-.12-.1-.265-.187-.12-.1-.266-.187-.12-.1-.266-.187-.146-.087-.266-.187-.146-.087-.266-.187-.146-.087-.291-.173-.146-.087-.291-.173-.146-.087-.291-.173-.146-.087-.291-.173-.146-.087-.305-.2-.146-.087-.305-.2-.146-.087-.331-.185-.146-.087-.33-.185-.159-.112-.331-.185-.159-.112-.33-.185-.159-.112-.344-.211-.185-.1L547,169.4l-.185-.1-.37-.2-.185-.1-.37-.2-.264-.122-.014-.026-.555-.3c-16.214-8.427-36.813-10.964-57.538-5.647l-5.391,1.384-13.636-53.1-31.6,8.1,13.591,52.89L425.2,178.5l-13.6-52.721-31.6,8.1,13.591,52.89-65.167,16.769,8.671,33.7,26.258-6.744a16.25,16.25,0,0,1,19.792,11.679l.008.032h0L419.6,384.022a10.857,10.857,0,0,1-7.8,13.206l-23.008,5.919,1.352,40.08,65.09-16.727L469,479.294l31.584-8.127-13.6-52.916,25.278-6.481,13.605,52.915,31.584-8.127L543.8,403.436c5.352-1.4,9.956-2.588,13.141-3.412,23.356-6.007,42.243-19.7,53.672-36.775l.386-.57.026-.014.187-.266.248-.4.124-.2.248-.4.124-.2.222-.384.124-.2.222-.384.1-.185.222-.384.1-.185.222-.384.1-.185.2-.37.1-.185.2-.37.1-.185.211-.344.1-.185.211-.344.1-.185.185-.331.1-.185.185-.33.1-.185.185-.33.073-.171.185-.33.073-.171.159-.317.087-.146.159-.317.087-.146.159-.317.087-.146.159-.317.087-.146.159-.317.087-.146.159-.317.087-.146.134-.3.087-.146.133-.3.061-.132.146-.342.2-.435c.146-.342.3-.659.425-.988l.012-.039a60.7,60.7,0,0,0,3.086-35.574l-.013-.026-.014-.026-.014-.026-.014-.026-.014-.026-.014-.026-.014-.026-.014-.026c-.075-.323-.149-.645-.224-.968v-.065l-.014-.026-.014-.026-.014-.026-.014-.026-.014-.026-.014-.026-.014-.026-.014-.026-.014-.026-.014-.026-.014-.026-.014-.026-.014-.026-.055-.1c-.118-.464-.21-.942-.354-1.393A11.462,11.462,0,0,1,620.266,309.3ZM434.605,214.429c5.391-1.384,27.681-6.982,35.031-8.893,11.685-2.991,23.2-1.83,32.19,2.5l.3.134h0l.132.061.185.1.092.049.185.1.092.049.185.1.092.049.185.1.092.049.185.1.092.049.185.1.092.049.185.1.092.049.185.1.092.049.185.1.092.049.159.112.092.049.159.112.092.049.159.112.092.049.146.087.092.049.146.087.092.049.146.087.092.049.146.087.092.049.146.087.067.063.146.087.053.037.146.087.053.037.146.087.053.037.146.087.053.037.12.1.053.037.146.087.2.124c.146.087.279.213.425.3h0a27.247,27.247,0,0,1,9.658,13.836h0l.041.077c.043.142.1.309.143.451l.014.026.083.153c.059.232.13.425.189.657a3.864,3.864,0,0,1,.126.724l.083.153.014.026a2.179,2.179,0,0,0,.118.464l.041.077h0a27.339,27.339,0,0,1-1.8,16.768h0l-.207.474-.11.224-.087.146-.024.079-.061.132-.024.079-.087.146-.024.079-.087.146-.024.079-.087.146-.024.079-.087.146-.024.079-.087.146-.024.079-.087.146-.049.092-.087.146-.049.092-.086.146-.05.092-.086.146-.049.092-.112.159-.05.092-.112.159-.049.092-.112.159-.049.092-.112.159-.049.092-.112.159-.049.092-.112.159-.049.092-.112.159-.049.092-.112.159-.049.092-.138.173-.049.092-.138.173-.049.092-.138.173-.049.092-.138.173-.1.12h0l-.187.266c-5.811,8.142-15.334,14.72-27.019,17.711-7.364,1.886-29.6,7.716-34.986,9.1ZM558.117,323.152l.083.153.014.026c.031.181.075.323.106.5h0l.014.026h0l.014.026.014.026.014.026h0a28.09,28.09,0,0,1-2.541,18.324h0l-.283.515-.136.238-.1.185-.049.092-.087.146-.049.092-.087.146-.049.092-.112.159-.049.092-.112.159-.049.092-.112.159-.049.092-.112.159-.049.092-.112.159-.049.092-.112.159-.049.092-.112.159-.049.092-.112.159-.049.092-.112.159-.049.092-.138.173-.049.092-.138.173-.049.092-.124.2-.049.092-.124.2-.049.092-.124.2-.075.106-.124.2-.075.106-.15.212-.075.106-.15.212-.075.106-.15.212-.075.106-.151.212-.075.106-.15.212-.126.134h0l-.238.293c-7.057,9.012-18.44,16.425-32.265,19.974-8.719,2.251-35.063,9.141-41.473,10.777L459.34,310.627c6.4-1.662,32.814-8.294,41.532-10.545,13.826-3.549,27.4-2.542,37.891,1.938l.342.146h0l.171.073.25.1.118.035.224.11.118.035.224.11.118.035.224.11.091.049.224.11.092.049.224.11.092.049.224.11.092.049.185.1.092.049.185.1.092.049.185.1.092.049.185.1.092.049.185.1.092.049.185.1.092.049.185.1.092.049.185.1.092.049.185.1.092.049.159.112.092.049.159.112.092.049.159.112.092.049.159.112.092.049.159.112.092.049.146.087.092.049.159.112.212.15c.159.112.344.211.5.323h0A28.175,28.175,0,0,1,557.5,321h0l.055.1c.057.167.1.309.157.476l.014.026.083.153c.059.232.118.464.191.722.129.057.15.342.109.694Z"/></svg>