/* XPM */
static char * bitcoin128_xpm[] = {
"128 128 3 1",
" 	c None",
".	c #F29D03",
"+	c #000000",
"                                                                                                                                ",
"                                                                                                                                ",
"                                                                                                                                ",
"                                                                                                                                ",
"                                                                                                                                ",
"                                                                                                                                ",
"                                                                                                                                ",
"                                                                                                                                ",
"                                                                                                                                ",
"                                                                                                                                ",
"                                                                                                                                ",
"                                                                                                                                ",
"                                                                                                                                ",
"                                                                                                                                ",
"                                                                                                                                ",
"                                                                                                                                ",
"                                                                                                                                ",
"                                                                                                                                ",
"                                                                                                                                ",
"                                                                                                                                ",
"                                                                                                                                ",
"                                                                                                                                ",
"                                                                                                                                ",
"                                                                                                                                ",
"                                                                                                                                ",
"                                                                                                                                ",
"                                                                                                                                ",
"                                                                                                                                ",
"                                                                                                                                ",
"                                                                                                                                ",
"                                                                                                                                ",
"                                                                                                                                ",
"                                                                                                                                ",
"                                                                                                                                ",
"                                                                                                                                ",
"                                                                                                                                ",
"                                                                                                                                ",
"                                                                                                                                ",
"                                                        ......     ......     +++++++++ ++++                     +              ",
"                                                        ......     ......     ++++++++++++++                    ++              ",
"                                                        ......     ......     +++++++++ ++++++  +++++++++++++++ ++ ++++++       ",
"                                                        .....      .....     +++++++++++++++++ +++++++++++++++++++++++++++      ",
"                                                       ......     ......     ++++++++++++++    ++      ++     ++++++    ++      ",
"                                                       ......     ......     ++++++++++++++++++++++++++++++++++++++     +       ",
"                                                       ......     ......     +++++++++ ++ +++++ +++++++ ++++++ ++++    ++       ",
"                                                       ......     ......                                                        ",
"                                                       .....      .....                                                         ",
"                             .............       ...............................               ..........................       ",
"                            ..............       ..................................        ..............................       ",
"                           ................     ....................................     ...............................        ",
"                           ................     .....................................  .................................        ",
"                          .................     ........................................................................        ",
"                         ..................     ........................................................................        ",
"                         ...................    .......................................................................         ",
"                        ....................   ........................................................................         ",
"                       .....................   ........................................................................         ",
"                       ......................  .......................................................................          ",
"                      ............ ..........  ...........                 ...................                                  ",
"                     ............  ..........  ...........                 .................                                    ",
"                     ...........   .......... ............                ................                                      ",
"                    ............   .......................               ................                                       ",
"                   ............     .....................................................                                       ",
"                   ...........      ....................................................                                        ",
"                  ............      ...................................................                                         ",
"                 ............       ...................................................                                         ",
"                 ...........         ..................................................                                         ",
"                ............         ..................................................                                         ",
"               ............          ..................................................                                         ",
"               ...........           ..................................................                                         ",
"              ............            ..................                ...............                                         ",
"             ............             ..................                ................                                        ",
"             ............             .................                 .................                                       ",
"            ............              .................                 ...................                                     ",
"           ................        ................................................................................             ",
"           ................       .................................................................................             ",
"          .................       .................................................................................             ",
"         ..................       .................................................................................             ",
"         ..................       .................................................................................             ",
"        ..................       .................................................................................              ",
"       ...................       ..............................................   ................................              ",
"       ...................       .............................................     ...............................              ",
"      ....................       ...........................................         .............................              ",
"      ...................        .......................................                 ........................               ",
"                                               ......     ......                                                                ",
"                                               ......     ......                                                                ",
"                                               ......     .....                                                                 ",
"                                              ......     ......                                                                 ",
"                                              ......     ......                                                                 ",
"                                              ......     ......                                                                 ",
"                                                                                                                                ",
"                                                                                                                                ",
"                                                                                                                                ",
"                                                                                                                                ",
"                                                                                                                                ",
"                                                                                                                                ",
"                                                                                                                                ",
"                                                                                                                                ",
"                                                                                                                                ",
"                                                                                                                                ",
"                                                                                                                                ",
"                                                                                                                                ",
"                                                                                                                                ",
"                                                                                                                                ",
"                                                                                                                                ",
"                                                                                                                                ",
"                                                                                                                                ",
"                                                                                                                                ",
"                                                                                                                                ",
"                                                                                                                                ",
"                                                                                                                                ",
"                                                                                                                                ",
"                                                                                                                                ",
"                                                                                                                                ",
"                                                                                                                                ",
"                                                                                                                                ",
"                                                                                                                                ",
"                                                                                                                                ",
"                                                                                                                                ",
"                                                                                                                                ",
"                                                                                                                                ",
"                                                                                                                                ",
"                                                                                                                                ",
"                                                                                                                                ",
"                                                                                                                                ",
"                                                                                                                                ",
"                                                                                                                                ",
"                                                                                                                                ",
"                                                                                                                                "};
