/* XPM */
static char * bitcoin16_xpm[] = {
"16 16 7 1",
" 	c None",
".	c #F29D03",
"+	c #6A3C10",
"@	c #000000",
"#	c #010000",
"$	c #2A1103",
"%	c #321605",
"                ",
"                ",
"                ",
"                ",
"                ",
"       ..+@#$$% ",
"   ............ ",
"  ..........    ",
"  .........     ",
" .............. ",
" .. ....   ...  ",
"                ",
"                ",
"                ",
"                ",
"                "};
