/* XPM */
static char *devault32[] = {
/* columns rows colors chars-per-pixel */
"32 32 195 2 ",
"   c #0A02AC",
".  c #0905AD",
"X  c #0A04AC",
"o  c #0907AD",
"O  c #070BAF",
"+  c #070CAF",
"@  c #0808AE",
"#  c #080AAE",
"$  c #070DB0",
"%  c #060EB0",
"&  c #060FB0",
"*  c #0610B1",
"=  c #0611B1",
"-  c #0512B1",
";  c #0513B2",
":  c #0514B2",
">  c #0415B2",
",  c #0416B2",
"<  c #0417B3",
"1  c #0318B3",
"2  c #0319B4",
"3  c #031AB4",
"4  c #031BB4",
"5  c #021CB4",
"6  c #021CB5",
"7  c #021DB5",
"8  c #021EB5",
"9  c #011FB6",
"0  c #0120B6",
"q  c #0121B6",
"w  c #0022B7",
"e  c #0023B7",
"r  c #0024B8",
"t  c #0126B9",
"y  c #0127BA",
"u  c #0128BB",
"i  c #0129BC",
"p  c #012ABD",
"a  c #022CBF",
"s  c #022DC0",
"d  c #022FC1",
"f  c #0330C2",
"g  c #0331C3",
"h  c #0332C4",
"j  c #0333C5",
"k  c #0334C6",
"l  c #0435C7",
"z  c #0436C8",
"x  c #0438C9",
"c  c #053ACB",
"v  c #053BCC",
"b  c #053DCD",
"n  c #063ECE",
"m  c #0640D0",
"M  c #0642D1",
"N  c #0643D2",
"B  c #0745D4",
"V  c #0746D5",
"C  c #0747D6",
"Z  c #0849D8",
"A  c #084BD9",
"S  c #094EDC",
"D  c #094FDD",
"F  c #0951DF",
"G  c #0A52E0",
"H  c #0A54E1",
"J  c #0A56E3",
"K  c #0B57E4",
"L  c #0B5AE6",
"P  c #0B5BE7",
"I  c #0C5FEA",
"U  c #0C60EB",
"Y  c #0D63EE",
"T  c #0E68F2",
"R  c #0F6CF6",
"E  c #A2A4A6",
"W  c #A3A5A7",
"Q  c #A5A7A9",
"!  c #A7A8AA",
"~  c #A8AAAC",
"^  c #AAABAD",
"/  c #ABACAE",
"(  c #ACADAE",
")  c #ADAEAF",
"_  c #AEAEB0",
"`  c #AFAFB1",
"'  c #AFB0B1",
"]  c #B0B1B2",
"[  c #B1B1B3",
"{  c #B2B2B4",
"}  c #B3B3B4",
"|  c #B4B4B5",
" . c #B5B4B6",
".. c #B5B5B6",
"X. c #B6B5B7",
"o. c #B6B6B7",
"O. c #B7B6B8",
"+. c #B7B7B8",
"@. c #B8B7B9",
"#. c #B9B8B9",
"$. c #B9B8BA",
"%. c #BAB9BA",
"&. c #BAB9BB",
"*. c #BBBABB",
"=. c #BBBABC",
"-. c #BCBBBC",
";. c #BDBBBD",
":. c #BDBCBD",
">. c #BEBCBE",
",. c #BEBDBE",
"<. c #BFBDBF",
"1. c #BFBEBF",
"2. c #C0BFC0",
"3. c #C1BFC0",
"4. c #C1BFC1",
"5. c #C2C0C1",
"6. c #C2C1C2",
"7. c #C3C1C2",
"8. c #C3C1C3",
"9. c #C4C2C3",
"0. c #C5C3C4",
"q. c #C6C4C5",
"w. c #C7C5C6",
"e. c #C8C5C6",
"r. c #C8C6C7",
"t. c #C9C6C7",
"y. c #C9C7C8",
"u. c #CAC7C8",
"i. c #CBC8C9",
"p. c #CCC9CA",
"a. c #CDCACB",
"s. c #CECBCC",
"d. c #CFCCCD",
"f. c #D0CDCE",
"g. c #D1CECF",
"h. c #D2CFD0",
"j. c #D3D0D1",
"k. c #D4D1D2",
"l. c #D5D2D3",
"z. c #D6D3D4",
"x. c #D7D4D5",
"c. c #D8D5D6",
"v. c #D9D6D7",
"b. c #DAD7D8",
"n. c #DBD8D9",
"m. c #DCD9DA",
"M. c #DDDADB",
"N. c #DEDBDC",
"B. c #DFDCDD",
"V. c #E0DDDE",
"C. c #E1DEDF",
"Z. c #E2DFE0",
"A. c #E3E0E1",
"S. c #E4E1E2",
"D. c #E5E2E3",
"F. c #E6E3E4",
"G. c #E7E4E5",
"H. c #E8E5E6",
"J. c #E9E6E7",
"K. c #EAE7E8",
"L. c #EBE8E9",
"P. c #ECE9EA",
"I. c #EDEAEB",
"U. c #EEEBEC",
"Y. c #F0EDEE",
"T. c #F1EEEF",
"R. c #F1EFF0",
"E. c #F2EFF0",
"W. c #F2F0F1",
"Q. c #F3F0F1",
"!. c #F3F1F2",
"~. c #F4F2F3",
"^. c #F6F3F4",
"/. c #F6F4F5",
"(. c #F7F4F5",
"). c #F7F5F6",
"_. c #F8F5F6",
"`. c #F8F6F7",
"'. c #F9F6F7",
"]. c #FAF7F8",
"[. c #FFF9F9",
"{. c #FCFAFB",
"}. c snow",
"|. c #FFFAFB",
" X c #FFFBFB",
".X c #FDFBFC",
"XX c #FEFBFC",
"oX c #FFFBFC",
"OX c #FFFCFC",
"+X c #FEFCFD",
"@X c #FFFCFD",
"#X c #FFFDFD",
"$X c #FFFDFE",
"%X c gray100",
"&X c None",
/* pixels */
"&X&X&X&X&X&X&X&X&X&X&X&X&X&X&X&X$X$X.X&X&X&X&X&X&X&X&X&X&X&X&X&X",
"&X&X&X&X&X&Xs.j.c.B.S.H.U.W._..X$X$X.X$X$X X&X&X&X&X&X&X&X&X&X&X",
"&X&X&X&X&X5.a.h.c.m.Z.H.P.W._..X$X$X$X.X$X{. X&X&X&X&X&X&X&X&X&X",
"&X&X&X&X&X5.a.g.x.m.C.G.P.W./.{.$X$X.X$X X{.$X X&X&X&X&X&X&X&X&X",
"&X&X&X&X&X2.a.d.x.n.&X&X&X&X&X&X&X&X$X.X$X{. X X{.&X&X&X&X&X&X&X",
"&X&X&X&X&X2.e.g.k.&X&X&X&X&X&X&X&X&X&X&X$X{. X X{.{.{.{.{.&X&X&X",
"&X&X&X&X&X>.w.s.k.&X&X&X&X&X&X&X&X&X&X&X&X{. X{. X{.{.{.&X&X&X&X",
"&X&X&X&X&X=.0.s.j.&X&X&X&X&X&X&X&X&X&X&X&X$X$X{. X{.{.&X&X&X&X&X",
"&X&X&X&X&X$.8.a.g.&X&X&X&X&X&X&X&X&X&X&X$X{..X.X X&X&X&X&X&X&X&X",
"&X&X&X&X&X$.5.a.g.&X&X&X&X&X&X&X&X&X$X$X$X$X.X.X&X&X&X&X&X&X&X&X",
"&X&X&X&X&X..2.i.g.&X&X&X&X&X&X&X&X$X$X$X{. X.X&X&X&X&X&X&X&X&X&X",
"&X&X&X&X&X..>.e.d.&X&X&X&X&X&X~.].$X$X X$X$X&X&X&XR &X&X&X&X&X&X",
"&X&X&X&X&X} =.e.a.&X&X&X&X&XU.~._..X$X$X$X&X&X&XU T &X&X&X&X&X&X",
"&X&X&X&X&X[ *.0.a.&X&X&X&XH.P.W._.$X$X$X&X&X&XH P Y &X&X&X&X&X&X",
"&X&X&X&X&X' $.8.a.&X&Xm.Z.G.P.E./.{.$X&X&X&XV F K U &X&X&X&X&X&X",
"&X&X&X&X&X_ +.2.i.g.z.n.C.F.L.T.^.&X&X&Xj v N A H K &X&X&X&X&X&X",
"&X&X&X&X&X( +.>.y.d.k.b.C.S.H.T.&X&X&Xy s z n V S H &X&X&X&X&X&X",
"&X&X&X&X&X^ | >.e.g.k.n.C.S.K.&X&X&Xe e u j v N Z G &X&X&X&X&X&X",
"&X&X&X&X&X^ } -.w.a.j.c.m.S.&X&X&X2 5 e y s l v V &X&X&X&X&X&X&X",
"&X&X&X&X&X! [ $.8.a.j.c.m.&X&X&X< 2 5 5 e u f v N &X&X&X&X&X&X&X",
"&X&X&X&X&XQ _ $.5.a.g.x.&X&X&X* < < 2 5 e r s j &X&X&X&X&X&X&X&X",
"&X&X&X&X&XW _ +.5.i.&X&X&X&X$ & * < 2 5 5 e u f &X&X&X&X&X&X&X&X",
"&X&X&X&X&XE ( ..>.&X&X&X  . # $ & * 2 2 5 e &X&X&X&X&X&X&X&X&X&X",
"&X&X&X&X&X&X&X&X&X&X&X&X  . # & & * &X&X&X&X&X&X&X&X&X&X&X&X&X&X",
"&X&X&X&X&X&X&X&X&X&X&X&X&X&X&X&X&X&X&X&X&X&X&X&X&X&X&X&X&X&X&X&X",
"&X&X&X&X&X&X&X&X&X&X&X&X&X&X&X&X&X&X&X&X&X&X&X&X&X&X&X&X&X&X&X&X",
"&X&X&X$X$X$X&X$X$X$X$X&X$X&X&X$X&X&X$X&X$X$X$X&X&X$X$X$X&X&X&X&X",
"&X&X&X$X&X&X$X$X&X&X$X&X$X&X$X$X$X&X$X&X$X$X$X&X&X&X$X&X&X&X&X&X",
"&X&X&X$X&X&X$X$X&X&X&X$X$X&X$X$X$X&X$X&X$X$X$X&X&X&X$X&X&X&X&X&X",
"&X&X&X$X$X$X&X$X$X&X&X$X&X&X$X&X$X&X$X$X$X&X$X$X&X&X$X&X&X&X&X&X",
"&X&X&X&X&X&X&X&X&X&X&X&X&X&X&X&X&X&X&X&X&X&X&X&X&X&X&X&X&X&X&X&X",
"&X&X&X&X&X&X&X&X&X&X&X&X&X&X&X&X&X&X&X&X&X&X&X&X&X&X&X&X&X&X&X&X"
};
