/* XPM */
static char * bitcoin64_xpm[] = {
"64 64 3 1",
" 	c None",
".	c #F29D03",
"+	c #000000",
"                                                                ",
"                                                                ",
"                                                                ",
"                                                                ",
"                                                                ",
"                                                                ",
"                                                                ",
"                                                                ",
"                                                                ",
"                                                                ",
"                                                                ",
"                                                                ",
"                                                                ",
"                                                                ",
"                                                                ",
"                                                                ",
"                                                                ",
"                                                                ",
"                                                                ",
"                            ...  ....  +++++++          +       ",
"                            ...  ...   ++++++++ +++++++++++++   ",
"                            ...  ...  ++++++++++++++++++++  +   ",
"                           ...   ...   ++++  ++ +++ +++ +       ",
"               ......    ..............         ............    ",
"              .......   ..................   ...............    ",
"             .........  ....................................    ",
"            ..........  ....................................    ",
"            ..........  ....................................    ",
"           ........... ......        ............               ",
"          ...................        .........                  ",
"          ......  ...........................                   ",
"         ......   ..........................                    ",
"        .......   ..........................                    ",
"        ......    ..........................                    ",
"       ......      .........................                    ",
"      .......      .........        ........                    ",
"      ......       .........       ............                 ",
"     .........   .........................................      ",
"    .........    ........................................       ",
"    .........    ........................................       ",
"   ..........   .......................   ...............       ",
"   .........     ..................          ...........        ",
"                       ...   ...                                ",
"                       ...   ...                                ",
"                       ...   ..                                 ",
"                                                                ",
"                                                                ",
"                                                                ",
"                                                                ",
"                                                                ",
"                                                                ",
"                                                                ",
"                                                                ",
"                                                                ",
"                                                                ",
"                                                                ",
"                                                                ",
"                                                                ",
"                                                                ",
"                                                                ",
"                                                                ",
"                                                                ",
"                                                                ",
"                                                                "};
