/* XPM */
static char *devault128[] = {
/* columns rows colors chars-per-pixel */
"128 128 61 1 ",
"  c #0A05AD",
". c #070CAF",
"X c #0809AE",
"o c #060EB0",
"O c #0514B2",
"+ c #021CB4",
"@ c #0121B6",
"# c #0126B9",
"$ c #012ABD",
"% c #022EC0",
"& c #0333C5",
"* c #0437C8",
"= c #053BCC",
"- c #0743D3",
"; c #0748D7",
": c #0849D7",
"> c #084CDA",
", c #0951DE",
"< c #0A55E2",
"1 c #0B59E6",
"2 c #0C5DE9",
"3 c #0D62ED",
"4 c #0E66F1",
"5 c #0E6BF4",
"6 c #0F6FF8",
"7 c #1072FB",
"8 c #A3A5A7",
"9 c #A5A7A9",
"0 c #A7A8AA",
"q c #ABABAD",
"w c #AEAFB0",
"e c #AFB0B1",
"r c #B3B3B5",
"t c #B7B6B8",
"y c #B8B7B9",
"u c #BCBBBC",
"i c #C0BEBF",
"p c #C1BFC0",
"a c #C4C2C3",
"s c #C8C6C7",
"d c #CAC7C8",
"f c #CDCACB",
"g c #D0CDCE",
"h c #D2CFD0",
"j c #D5D2D3",
"k c #D9D6D7",
"l c #DAD7D8",
"z c #DDDADB",
"x c #E1DEDF",
"c c #E2DFE0",
"v c #E5E2E3",
"b c #E8E5E6",
"n c #EAE7E8",
"m c #EDEAEB",
"M c #F0EEEF",
"N c #F2EFF0",
"B c #F5F2F3",
"V c #F8F6F7",
"C c #F9F7F8",
"Z c #FFFDFD",
"A c None",
/* pixels */
"AAAAAAAAAAAAAAAAAAAAAAAAAAAAAAAAAAAAAAAAAAAAAAAAAAAAAAAAAAAAAAAAAAAAAAAAAAAAAAAAAAAAAAAAAAAAAAAAAAAAAAAAAAAAAAAAAAAAAAAAAAAAAAAA",
"AAAAAAAAAAAAAAAAAAAAAAAAAAAAAAAAAAAAAAAAAAAAAAAAAAAAAAAAAAAAAAAAAAAAAAAAAAAAAAAAAAAAAAAAAAAAAAAAAAAAAAAAAAAAAAAAAAAAAAAAAAAAAAAA",
"AAAAAAAAAAAAAAAAAAAAAAAAAAAAAAAAAAAAAAAAAAAAAAAAAAAAAAAAAAAAAAAAAAAAAAAAAAAAAAAAAAAAAAAAAAAAAAAAAAAAAAAAAAAAAAAAAAAAAAAAAAAAAAAA",
"AAAAAAAAAAAAAAAAAAAAAAAAAAAAAAAAAAAAAAAAAAAAAAAAAAAAAAAAAAAAAAAAAAAAAAAAAAAAAAAAAAAAAAAAAAAAAAAAAAAAAAAAAAAAAAAAAAAAAAAAAAAAAAAA",
"AAAAAAAAAAAAAAAAAAAAAAAAAAAAAjjjkklzzxxcvvvbbbnmmmNNNBBBVCCZZZZZZZZZZZZZZZZZZAAAAAAAAAAAAAAAAAAAAAAAAAAAAAAAAAAAAAAAAAAAAAAAAAAA",
"AAAAAAAAAAAAAAAAAAAAAAAAAAgghhjkjkllzzzxxvvvbbnmmMmNBBBVVCZCZZZZZZZZZZZZZZZCZZZZAAAAAAAAAAAAAAAAAAAAAAAAAAAAAAAAAAAAAAAAAAAAAAAA",
"AAAAAAAAAAAAAAAAAAAAAAAAAffghhjjkkllzzxcxvvvbbnmmMMMNBBVCCCZCZZZZZZZZZZZZCZZZZZZZCZAAAAAAAAAAAAAAAAAAAAAAAAAAAAAAAAAAAAAAAAAAAAA",
"AAAAAAAAAAAAAAAAAAAAAAAAffgghhjjkklzzzzxcvvvvbnnmmMNNBBBVCCCZZZZZZZZZZZZZZZZZZZZZZZZZAAAAAAAAAAAAAAAAAAAAAAAAAAAAAAAAAAAAAAAAAAA",
"AAAAAAAAAAAAAAAAAAAAAAAddffgghjjkkklzzxxccvvbbnmmmNNNBBBVCCZZZZZZZZZZZZZZZZZZCZZZZZZZZCAAAAAAAAAAAAAAAAAAAAAAAAAAAAAAAAAAAAAAAAA",
"AAAAAAAAAAAAAAAAAAAAAAaddffghhjjjkklzzzxxxvvvbnnmmmMNNBBBCCCCZZZZZZZZZZZZZZZZZZZZCCZZCZZZAAAAAAAAAAAAAAAAAAAAAAAAAAAAAAAAAAAAAAA",
"AAAAAAAAAAAAAAAAAAAAAAadffffghhjjkklzzzxxvvvbbbnmmMMNBBBCBCZZZZZZZZZZZCZZZZZZZZCZZZZZZZZZZAAAAAAAAAAAAAAAAAAAAAAAAAAAAAAAAAAAAAA",
"AAAAAAAAAAAAAAAAAAAAAAasdffgghjjjkkllzzcxxvvvbnnmmmMNNBBBCCCCZZZZZZZZZZZZZZZZZZZZZCZZCZCCZZAAAAAAAAAAAAAAAAAAAAAAAAAAAAAAAAAAAAA",
"AAAAAAAAAAAAAAAAAAAAAaasdffgggjjjkkllzzzxcvvvbbnmmMMNNBBBCCCZZZZZZZZZZZZZZZZZZZCCZZCZZZZZZCZZAAAAAAAAAAAAAAAAAAAAAAAAAAAAAAAAAAA",
"AAAAAAAAAAAAAAAAAAAAAaaaddfggghhjkkklzxxxccvvbbnnmmmNNBBBCCCCZZZZZZZZZZZZCZZZZZZZZZZZZCZCZZCCZAAAAAAAAAAAAAAAAAAAAAAAAAAAAAAAAAA",
"AAAAAAAAAAAAAAAAAAAAApasddffggjjjkkkzzzzzcvcvvbnnmmMNNNBBCCCZZZZZZZZZZZCZZZZZZZZZZZZCZZCZZZCZZZAAAAAAAAAAAAAAAAAAAAAAAAAAAAAAAAA",
"AAAAAAAAAAAAAAAAAAAAAiaaddffgghhjjklllzxxxcvvbbnnmmMMNNBBCVCCZZZZZZZZZZZZZZZZZZCCZZCZZZCZCZZCZZAAAAAAAAAAAAAAAAAAAAAAAAAAAAAAAAA",
"AAAAAAAAAAAAAAAAAAAAApaasdgfgghhjkkklzzzxxvAAAAAAAAAAAAAAAAAAAAZZZZZZZZZZZZZZZZZZZZZZZZCZZCZZCZZAAAAAAAAAAAAAAAAAAAAAAAAAAAAAAAA",
"AAAAAAAAAAAAAAAAAAAAApaasddffghhjjjkllzAAAAAAAAAAAAAAAAAAAAAAAAAAAAAAZZZZZZZZZZCZCZCCZZZCZZCCZCZZAAAAAAAAAAAAAAAAAAAAAAAAAAAAAAA",
"AAAAAAAAAAAAAAAAAAAAApiassdfgghjjjkklzAAAAAAAAAAAAAAAAAAAAAAAAAAAAAAAAAAAZZZZZZZZZCZZZZZZCZZZZCCZCAAAAAAAAAAAAAAAAAAAAAAAAAAAAAA",
"AAAAAAAAAAAAAAAAAAAAAupaadfffghhjjjkkAAAAAAAAAAAAAAAAAAAAAAAAAAAAAAAAAAAAAAZZZZZZZZZCZZCZZCCZCZZCZAAAAAAAAAAAAAAAAAAAAAAAAAAAAAA",
"AAAAAAAAAAAAAAAAAAAAAupaaddffgghjjjkkAAAAAAAAAAAAAAAAAAAAAAAAAAAAAAAAAAAAAAAAZZZZZZZZCZZZZCZZZZZZZCAAAAAAAAAAAAAAAAAAAAAAAAAAAAA",
"AAAAAAAAAAAAAAAAAAAAAuiaaddffgghjjjkkAAAAAAAAAAAAAAAAAAAAAAAAAAAAAAAAAAAAAAAAAZZCZZCZZCZZZZCCZCCZCZAAAAAAAAAAAAAAAAAAAAAAAAAAAAA",
"AAAAAAAAAAAAAAAAAAAAApaaaddfffhhhjkjlAAAAAAAAAAAAAAAAAAAAAAAAAAAAAAAAAAAAAAAAAAZZZZZCZZZZCZZZZZZZCZCAAAAAAAAAACCZZAAAAAAAAAAAAAA",
"AAAAAAAAAAAAAAAAAAAAAuuaaddffgghhjjkkAAAAAAAAAAAAAAAAAAAAAAAAAAAAAAAAAAAAAAAAAAAZZZZZZZCZZCCZCZCCZCZAAAAAAZZCZCZCAAAAAAAAAAAAAAA",
"AAAAAAAAAAAAAAAAAAAAAuuiaadfffggjjjkkAAAAAAAAAAAAAAAAAAAAAAAAAAAAAAAAAAAAAAAAAAAAZZZZZZZZCZCZCZZZZCZCAZZCZCZCZZCAAAAAAAAAAAAAAAA",
"AAAAAAAAAAAAAAAAAAAAAupaasddffgghhjkkAAAAAAAAAAAAAAAAAAAAAAAAAAAAAAAAAAAAAAAAAAAAAZZCZZCZZZZCZZCZCZCZCZCZCZCZCAAAAAAAAAAAAAAAAAA",
"AAAAAAAAAAAAAAAAAAAAAuuaaadfffgghjjjkAAAAAAAAAAAAAAAAAAAAAAAAAAAAAAAAAAAAAAAAAAAAAAZZZCZZZCZCZZZZCZZZCCZZCCZCAAAAAAAAAAAAAAAAAAA",
"AAAAAAAAAAAAAAAAAAAAAuuppaddffgghjjjkAAAAAAAAAAAAAAAAAAAAAAAAAAAAAAAAAAAAAAAAAAAAAAZCZZZZZZCZCZCZCZCZZCCCZCZAAAAAAAAAAAAAAAAAAAA",
"AAAAAAAAAAAAAAAAAAAAAuuaaasdfffghhjkkAAAAAAAAAAAAAAAAAAAAAAAAAAAAAAAAAAAAAAAAAAAAAAAZZCZCZZCZCZZCZZCCCZCCCZAAAAAAAAAAAAAAAAAAAAA",
"AAAAAAAAAAAAAAAAAAAAAuuupaadfffghjjjkAAAAAAAAAAAAAAAAAAAAAAAAAAAAAAAAAAAAAAAAAAAAAAAZZZZZZZCZZCZZCZZZCCZZZAAAAAAAAAAAAAAAAAAAAAA",
"AAAAAAAAAAAAAAAAAAAAAuuipasdffggghjjkAAAAAAAAAAAAAAAAAAAAAAAAAAAAAAAAAAAAAAAAAAAAAAAZCZCZZZZCZZZZZZCZCCZZAAAAAAAAAAAAAAAAAAAAAAA",
"AAAAAAAAAAAAAAAAAAAAAuuipaaddffghhhjkAAAAAAAAAAAAAAAAAAAAAAAAAAAAAAAAAAAAAAAAAAAAAAAZZZZCZCZZCCZZCCZCZCZAAAAAAAAAAAAAAAAAAAAAAAA",
"AAAAAAAAAAAAAAAAAAAAAuuuaaasfffgghjjkAAAAAAAAAAAAAAAAAAAAAAAAAAAAAAAAAAAAAAAAAAAAAAZZZCZZCCZZZZCZCCZCZAAAAAAAAAAAAAAAAAAAAAAAAAA",
"AAAAAAAAAAAAAAAAAAAAAuuupaasdffgghhjjAAAAAAAAAAAAAAAAAAAAAAAAAAAAAAAAAAAAAAAAAAAAAZZZZZZZZZZCCZZZZZZZAAAAAAAAAAAAAAAAAAAAAAAAAAA",
"AAAAAAAAAAAAAAAAAAAAAuuuuaasddffghhjjAAAAAAAAAAAAAAAAAAAAAAAAAAAAAAAAAAAAAAAAAAAZZZZCZZCZCCZZZCZZZCCAAAAAAAAAAAAAAAAAAAAAAAAAAAA",
"AAAAAAAAAAAAAAAAAAAAAytuupasdffgghhjkAAAAAAAAAAAAAAAAAAAAAAAAAAAAAAAAAAAAAAAAAAZZZCZZZZZZZZZCZZCCZZAAAAAAAAAAAAAAAAAAAAAAAAAAAAA",
"AAAAAAAAAAAAAAAAAAAAAtyupaaasdfggghjjAAAAAAAAAAAAAAAAAAAAAAAAAAAAAAAAAAAAAAAAZZZZZZZZZZZZZZZZCZZZZAAAAAAAAAAAAAAAAAAAAAAAAAAAAAA",
"AAAAAAAAAAAAAAAAAAAAAtyuupasddffgggjjAAAAAAAAAAAAAAAAAAAAAAAAAAAAAAAAAAAAAAAZZZZZZZZCZZCZCZCZCCZZAAAAAAAAAAAAAAAAAAAAAAAAAAAAAAA",
"AAAAAAAAAAAAAAAAAAAAAyuuuaaaddffgghjjAAAAAAAAAAAAAAAAAAAAAAAAAAAAAAAAAAAAAZZCZZZZZZZZZZZZZZZZZZZAAAAAAAAAAAAAAAAAAAAAAAAAAAAAAAA",
"AAAAAAAAAAAAAAAAAAAAAryupppasdffgghhjAAAAAAAAAAAAAAAAAAAAAAAAAAAAAAAAAAAAZZZZZZZZZZCCZZZCZCZZZAAAAAAAAAAAAAAAAAAAAAAAAAAAAAAAAAA",
"AAAAAAAAAAAAAAAAAAAAAyyuupaasddggghhjAAAAAAAAAAAAAAAAAAAAAAAAAAAAAAAAAAZZZZZZZZZZZZCZZZCZZCCZAAAAAAAAAAAAAAAAAAAAAAAAAAAAAAAAAAA",
"AAAAAAAAAAAAAAAAAAAAArruuupasddffggjjAAAAAAAAAAAAAAAAAAAAAAAAAAAAAAAAAZZZZZZZZCZZZZZZZZZZCZZAAAAAAAAAAAAAAAAAAAAAAAAAAAAAAAAAAAA",
"AAAAAAAAAAAAAAAAAAAAAruuuppassdgfghhjAAAAAAAAAAAAAAAAAAAAAAAAAAAAAAAZZZZZZZZZZZZZZZZZZZCZZZAAAAAAAAAAAAAAAAAAAAAAAAAAAAAAAAAAAAA",
"AAAAAAAAAAAAAAAAAAAAAryyuuppssddfgggjAAAAAAAAAAAAAAAAAAAAAAAAAAAAAAZZZZZZZZZZZZZCZZZZZZZZZAAAAAAAAAAAAAAAAAAAAAAAAAAAAAAAAAAAAAA",
"AAAAAAAAAAAAAAAAAAAAAryyuppaassgfgghhAAAAAAAAAAAAAAAAAAAAAAAAAAAAZCZZZZZZZZZZZZZZZZZZZZZZAAAAAAAAAAAAA77AAAAAAAAAAAAAAAAAAAAAAAA",
"AAAAAAAAAAAAAAAAAAAAArryuuuaasddgfghhAAAAAAAAAAAAAAAAAAAAAAAAAAAVCZZZZZZZZZZZZZZCZZZZCZZAAAAAAAAAAAAA777AAAAAAAAAAAAAAAAAAAAAAAA",
"AAAAAAAAAAAAAAAAAAAAAryyuupaasdgfgggjAAAAAAAAAAAAAAAAAAAAAAAAABVVCZZZZZZZZZCZZZZZZZZZZAAAAAAAAAAAAAA6677AAAAAAAAAAAAAAAAAAAAAAAA",
"AAAAAAAAAAAAAAAAAAAAArryuuupasddfggghAAAAAAAAAAAAAAAAAAAAAAAABBVCCCZZZZZZZZZZZZZZZZZZAAAAAAAAAAAAA455667AAAAAAAAAAAAAAAAAAAAAAAA",
"AAAAAAAAAAAAAAAAAAAAArrtyuupaaddffgghAAAAAAAAAAAAAAAAAAAAAAANBBCCCZZZZZZZZZZZZZZZZZZAAAAAAAAAAAAA4455567AAAAAAAAAAAAAAAAAAAAAAAA",
"AAAAAAAAAAAAAAAAAAAAArrtyupaasddffgghAAAAAAAAAAAAAAAAAAAAANNNBBVCCZCZZZZZZZZZZZZZZZAAAAAAAAAAAAA33445566AAAAAAAAAAAAAAAAAAAAAAAA",
"AAAAAAAAAAAAAAAAAAAAArrtuuuppasdffgghAAAAAAAAAAAAAAAAAAAANmNBBBBVVCZZZZZZZZZZZZZZZAAAAAAAAAAAAA223445566AAAAAAAAAAAAAAAAAAAAAAAA",
"AAAAAAAAAAAAAAAAAAAAArrryuuppasddfgghAAAAAAAAAAAAAAAAAAmmmNNNBBVVVZCZZZZZZZZZZZZZAAAAAAAAAAAAA1223344456AAAAAAAAAAAAAAAAAAAAAAAA",
"AAAAAAAAAAAAAAAAAAAAAerryuuppassfffghAAAAAAAAAAAAAAAAAnmmMNNNBBVVVVZZZZZZZZZZZZZAAAAAAAAAAAAA11222344446AAAAAAAAAAAAAAAAAAAAAAAA",
"AAAAAAAAAAAAAAAAAAAAAerrruuupasddfgggAAAAAAAAAAAAAAAbbnnmmmNNBBBVVVZCZZZZZZZZZAAAAAAAAAAAAAA<<112333444AAAAAAAAAAAAAAAAAAAAAAAAA",
"AAAAAAAAAAAAAAAAAAAAAerrtuuppassdffggAAAAAAAAAAAAAAvbbnnmmmMNNBBVVVCZZZZZZZZZAAAAAAAAAAAAAA,<<112223446AAAAAAAAAAAAAAAAAAAAAAAAA",
"AAAAAAAAAAAAAAAAAAAAAerrruuuuaasfffghAAAAAAAAAAAAvvvvbnnmmmNNBBBVVVZCZZZZZZZAAAAAAAAAAAAA>,,,<<11223344AAAAAAAAAAAAAAAAAAAAAAAAA",
"AAAAAAAAAAAAAAAAAAAAAweryuuupaasddfggAAAAAAAAAAAxcvvbbbnmmmMNNBBBVVZZZZZZZZAAAAAAAAAAAAA;>>,,<<11122334AAAAAAAAAAAAAAAAAAAAAAAAA",
"AAAAAAAAAAAAAAAAAAAAAwertyuuuaasdfffgAAAAAAAAAzxxcvvvbbbmmmMNNBBVVVVCZZZZZAAAAAAAAAAAAA;;;>>,,<<1112334AAAAAAAAAAAAAAAAAAAAAAAAA",
"AAAAAAAAAAAAAAAAAAAAAwerryyuppaadffggAAAAAAAAzzxxccvvbbnmmmMNNBBBVVZZZZZZAAAAAAAAAAAAA--;;>>,,,<1112233AAAAAAAAAAAAAAAAAAAAAAAAA",
"AAAAAAAAAAAAAAAAAAAAAwerrtuuuaasdfffgAAAAAAkzzzzxxcvvbbnnmmMMNBBBVVVVZZZAAAAAAAAAAAAA---;;;>,>,<<112233AAAAAAAAAAAAAAAAAAAAAAAAA",
"AAAAAAAAAAAAAAAAAAAAAwerryyuupaaddffgAAAAAkklzzxxxvvvvbnnmmMNNNBBVVCCZAAAAAAAAAAAAAA==---;::>,,<<<11223AAAAAAAAAAAAAAAAAAAAAAAAA",
"AAAAAAAAAAAAAAAAAAAAAweerytuuaaaddffgAAAjjkklzzxxxccvvbbnmmMMNNBBVVCZAAAAAAAAAAAAAA====---::>>>,<<11123AAAAAAAAAAAAAAAAAAAAAAAAA",
"AAAAAAAAAAAAAAAAAAAAAqerryuuupaaaddffAAhjjkkllzzxxvvvbbnnmmmmNNBBVVCAAAAAAAAAAAAA&**==-=--;:>>>,<<<1122AAAAAAAAAAAAAAAAAAAAAAAAA",
"AAAAAAAAAAAAAAAAAAAAAqwerrtuuppaddffgghjjkjkllzzzcxvvvvbnmmmNMNBBVVAAAAAAAAAAAAA&&***===---;;>>,,,<1112AAAAAAAAAAAAAAAAAAAAAAAAA",
"AAAAAAAAAAAAAAAAAAAAAqwerrruuppasddfggghjjjkllzzxxxvvvvbnnmmMMNNBBAAAAAAAAAAAAA%&&&**===---->>>>,,<<112AAAAAAAAAAAAAAAAAAAAAAAAA",
"AAAAAAAAAAAAAAAAAAAAAqwerryyuupaaddffggjjjkkklzzxxxcvvbbnmmmMMNBBAAAAAAAAAAAAA$%$&&&**===---->>>,,<<<1AAAAAAAAAAAAAAAAAAAAAAAAAA",
"AAAAAAAAAAAAAAAAAAAAAqwweryuuupaadfffgghhjkkkllzxxxvcvbbnmmmMMNBAAAAAAAAAAAAA$$%%&%&&*===--->-:>>,,<11AAAAAAAAAAAAAAAAAAAAAAAAAA",
"AAAAAAAAAAAAAAAAAAAAAqqwrrruuiipaddffgghjjjkklzzzxxxvvvbnnmmmMNAAAAAAAAAAAAA###$$%%&*&*====---->>>,,,1AAAAAAAAAAAAAAAAAAAAAAAAAA",
"AAAAAAAAAAAAAAAAAAAAAqqwrrruuuuaaadffgghhjjkklzzzxxxvvvbnnmmMAAAAAAAAAAAAAA@@##$$%&&&**===---->:>>,,,,AAAAAAAAAAAAAAAAAAAAAAAAAA",
"AAAAAAAAAAAAAAAAAAAAAqqwerryuupaaddfffgghjjkkllzzxxxvvvbbnnmAAAAAAAAAAAAA@@@@###$$$&&&**===---->:>>,,1AAAAAAAAAAAAAAAAAAAAAAAAAA",
"AAAAAAAAAAAAAAAAAAAAA0qwerruyuuaadddfgghgjjkkklzxxxxcvvbbnnAAAAAAAAAAAAA+@@@@@##$$$%%&&*=====---:>>,,AAAAAAAAAAAAAAAAAAAAAAAAAAA",
"AAAAAAAAAAAAAAAAAAAAA0qwerrruuipaaddffgggjjjkklzlxxxcvvvbmAAAAAAAAAAAAA++@@@@#@#$$$%%&&*====----;:>,,AAAAAAAAAAAAAAAAAAAAAAAAAAA",
"AAAAAAAAAAAAAAAAAAAAA0qqwrryuuuapaddfffhhjjkkkkzzxxxxvvvnAAAAAAAAAAAAA+++@@@@@@#$$$$%&&***==-=-;;:>>,AAAAAAAAAAAAAAAAAAAAAAAAAAA",
"AAAAAAAAAAAAAAAAAAAAA0qqwrrryuupaadddffhghjjkkkzzzxxxvvbAAAAAAAAAAAAA++++++@@@@@###$$%$&***==-=--;:>AAAAAAAAAAAAAAAAAAAAAAAAAAAA",
"AAAAAAAAAAAAAAAAAAAAA0qqwerytuuppaddffgghjjjjkklzzxxxvvAAAAAAAAAAAAA++++@+@@+@@@@$@$$$&&&*====--;-:>AAAAAAAAAAAAAAAAAAAAAAAAAAAA",
"AAAAAAAAAAAAAAAAAAAAA0qqwerryuuuaaadfffgghjjkklzlxxxcAAAAAAAAAAAAAAO+++++++@@@@#@@$$$&&&&&*====---;;AAAAAAAAAAAAAAAAAAAAAAAAAAAA",
"AAAAAAAAAAAAAAAAAAAAA00qwerrtyuppaadfffggjjjkkklzzxxAAAAAAAAAAAAA+O++++O+@+@+@@@@##$$%$&&&**====---AAAAAAAAAAAAAAAAAAAAAAAAAAAAA",
"AAAAAAAAAAAAAAAAAAAAA00qqerrtuuuiaaddffgghjjjkkzlzxAAAAAAAAAAAAAOOOOO+++++++@@+@#@@$$$$%&&&**==-=--AAAAAAAAAAAAAAAAAAAAAAAAAAAAA",
"AAAAAAAAAAAAAAAAAAAAA80qwwrrruuupaaddfffghjjjkklzzAAAAAAAAAAAAAOOO+OO+O+++@+@+@@@@@#$$$%%&&***==--AAAAAAAAAAAAAAAAAAAAAAAAAAAAAA",
"AAAAAAAAAAAAAAAAAAAAA000qwrrrtuuiaaddffgghhjjkkllAAAAAAAAAAAAAOOOOO++O+++++++@+@@@@###$$%%&**====-AAAAAAAAAAAAAAAAAAAAAAAAAAAAAA",
"AAAAAAAAAAAAAAAAAAAAA80qqwerruuuipadddfgghhjjkklAAAAAAAAAAAAAoOOOO+OO+O+O++++@+@@@@@#$$$%%&&***==AAAAAAAAAAAAAAAAAAAAAAAAAAAAAAA",
"AAAAAAAAAAAAAAAAAAAAA800qwwrryuuipasdfffghhjkjAAAAAAAAAAAAAAOoOoOOOO+OO+++++++@+@@@@@$#$$%%&&**=AAAAAAAAAAAAAAAAAAAAAAAAAAAAAAAA",
"AAAAAAAAAAAAAAAAAAAAA800qqwrruuuippsddfffghjjAAAAAAAAAAAAAAooOoOOOOOO++OO+O++@+@@@@@@##$$%%&&**=AAAAAAAAAAAAAAAAAAAAAAAAAAAAAAAA",
"AAAAAAAAAAAAAAAAAAAAA800qweerryuuiaadfffghhjAAAAAAAAAAAAAAooooOoOOOOOOO+++++++@++@@@@@@$$$%&&&*AAAAAAAAAAAAAAAAAAAAAAAAAAAAAAAAA",
"AAAAAAAAAAAAAAAAAAAAA880qqweryyuipaaadffgghAAAAAAAAAAAAAX..ooooOOOOOOOO+O+++++++@+@@@#@$$$$%&&AAAAAAAAAAAAAAAAAAAAAAAAAAAAAAAAAA",
"AAAAAAAAAAAAAAAAAAAAA880qqwrrtyuupaadddffgAAAAAAAAAAAAAX...oooOoooOOO+OOO++++++++@+@@@@@#$$%%AAAAAAAAAAAAAAAAAAAAAAAAAAAAAAAAAAA",
"AAAAAAAAAAAAAAAAAAAAA880qqwerryyuppasdffgAAAAAAAAAAAAAXXXX..ooooOoOOO++OO+O+++++@+@@@@###$$$AAAAAAAAAAAAAAAAAAAAAAAAAAAAAAAAAAAA",
"AAAAAAAAAAAAAAAAAAAAAA800qwerryuuppaadffAAAAAAAAAAAAAXXXXo..oooooOOOOOOO+O+++++++@@@@@@@##$AAAAAAAAAAAAAAAAAAAAAAAAAAAAAAAAAAAAA",
"AAAAAAAAAAAAAAAAAAAAAA80qqwerrruuipaadAAAAAAAAAAAAAA XXXXX...oooooOOOOOOOO+++++++@+@@@@@#AAAAAAAAAAAAAAAAAAAAAAAAAAAAAAAAAAAAAAA",
"AAAAAAAAAAAAAAAAAAAAAAA00qqerrruuuiaaAAAAAAAAAAAAAA    X X.o..oooOoOOOOOO++O+O++++@++@@AAAAAAAAAAAAAAAAAAAAAAAAAAAAAAAAAAAAAAAAA",
"AAAAAAAAAAAAAAAAAAAAAAAA0qqerrruuupaAAAAAAAAAAAAAA    XX.. X..oooooOOOOOO+OO+++++@++@AAAAAAAAAAAAAAAAAAAAAAAAAAAAAAAAAAAAAAAAAAA",
"AAAAAAAAAAAAAAAAAAAAAAAAAAqwerrtuupAAAAAAAAAAAAA     X  . .....oooOoOOOOOOO+O++++++AAAAAAAAAAAAAAAAAAAAAAAAAAAAAAAAAAAAAAAAAAAAA",
"AAAAAAAAAAAAAAAAAAAAAAAAAAAAArruuAAAAAAAAAAAAAA          . .ooooooOoOOOOOO+O+OAAAAAAAAAAAAAAAAAAAAAAAAAAAAAAAAAAAAAAAAAAAAAAAAAA",
"AAAAAAAAAAAAAAAAAAAAAAAAAAAAAAAAAAAAAAAAAAAAAAAAAAAAAAAAAAAAAAAAAAAAAAAAAAAAAAAAAAAAAAAAAAAAAAAAAAAAAAAAAAAAAAAAAAAAAAAAAAAAAAAA",
"AAAAAAAAAAAAAAAAAAAAAAAAAAAAAAAAAAAAAAAAAAAAAAAAAAAAAAAAAAAAAAAAAAAAAAAAAAAAAAAAAAAAAAAAAAAAAAAAAAAAAAAAAAAAAAAAAAAAAAAAAAAAAAAA",
"AAAAAAAAAAAAAAAAAAAAAAAAAAAAAAAAAAAAAAAAAAAAAAAAAAAAAAAAAAAAAAAAAAAAAAAAAAAAAAAAAAAAAAAAAAAAAAAAAAAAAAAAAAAAAAAAAAAAAAAAAAAAAAAA",
"AAAAAAAAAAAAAAAAAAAAAAAAAAAAAAAAAAAAAAAAAAAAAAAAAAAAAAAAAAAAAAAAAAAAAAAAAAAAAAAAAAAAAAAAAAAAAAAAAAAAAAAAAAAAAAAAAAAAAAAAAAAAAAAA",
"AAAAAAAAAAAAAAAAAAAAAAAAAAAAAAAAAAAAAAAAAAAAAAAAAAAAAAAAAAAAAAAAAAAAAAAAAAAAAAAAAAAAAAAAAAAAAAAAAAAAAAAAAAAAAAAAAAAAAAAAAAAAAAAA",
"AAAAAAAAAAAAAAAAAAAAAAAAAAAAAAAAAAAAAAAAAAAAAAAAAAAAAAAAAAAAAAAAAAAAAAAAAAAAAAAAAAAAAAAAAAAAAAAAAAAAAAAAAAAAAAAAAAAAAAAAAAAAAAAA",
"AAAAAAAAAAAAAAAAAAAAAAAAAAAAAAAAAAAAAAAAAAAAAAAAAAAAAAAAAAAAAAAAAAAAAAAAAAAAAAAAAAAAAAAAAAAAAAAAAAAAAAAAAAAAAAAAAAAAAAAAAAAAAAAA",
"AAAAAAAAAAAAAAAAAAAAAAAAAAAAAAAAAAAAAAAAAAAAAAAAAAAAAAAAAAAAAAAAAAAAAAAAAAAAAAAAAAAAAAAAAAAAAAAAAAAAAAAAAAAAAAAAAAAAAAAAAAAAAAAA",
"AAAAAAAAAAAAAAAAAAAAAAAAAAAAAAAAAAAAAAAAAAAAAAAAAAAAAAAAAAAAAAAAAAAAAAAAAAAAAAAAAAAAAAAAAAAAAAAAAAAAAAAAAAAAAAAAAAAAAAAAAAAAAAAA",
"AAAAAAAAAAAAAAAZZZZZZZZAAAAAAAAZZZZZZZZAZZZZAAAAAAAZZZAAAAAAZZZZAAAAAAAZZZZAAAAAAZZZAAAZZZZAAAAAAZZZZZZZZZZZZAAAAAAAAAAAAAAAAAAA",
"AAAAAAAAAAAAAAAZZAAAAAZZZAAAAAAZZAAAAAAAZZZZAAAAAAZZZZAAAAAZZZZZZAAAAAAZZZZAAAAAAZZZAAAZZZZAAAAAAZZZZZZZZZZZZAAAAAAAAAAAAAAAAAAA",
"AAAAAAAAAAAAAAAZZAAAAAAAZZAAAAAZZAAAAAAAAZZZAAAAAAZZZAAAAAAZZZZZZAAAAAAZZZZAAAAAAZZZAAAZZZZAAAAAAZZZZZZZZZZZZAAAAAAAAAAAAAAAAAAA",
"AAAAAAAAAAAAAAAZZAAAAAAAAZZAAAAZZAAAAAAAAZZZZAAAAAZZZAAAAAAZZZZZZAAAAAAZZZZAAAAAAZZZAAAZZZZAAAAAAAAAAZZZZAAAAAAAAAAAAAAAAAAAAAAA",
"AAAAAAAAAAAAAAAZZAAAAAAAAZZAAAAZZAAAAAAAAZZZZAAAAZZZZAAAAAZZZZZZZZAAAAAZZZZAAAAAAZZZAAAZZZZAAAAAAAAAAZZZZAAAAAAAAAAAAAAAAAAAAAAA",
"AAAAAAAAAAAAAAAZZAAAAAAAAAZZAAAZZAAAAAAAAAZZZAAAAZZZAAAAAAZZZAAZZZAAAAAZZZZAAAAAAZZZAAAZZZZAAAAAAAAAAZZZZAAAAAAAAAAAAAAAAAAAAAAA",
"AAAAAAAAAAAAAAAZZAAAAAAAAAZZAAAZZAAAAAAAAAZZZZAAAZZZAAAAAAZZZAAZZZAAAAAZZZZAAAAAAZZZAAAZZZZAAAAAAAAAAZZZZAAAAAAAAAAAAAAAAAAAAAAA",
"AAAAAAAAAAAAAAAZZAAAAAAAAAZZAAAZZAAAAAAAAAAZZZAAZZZZAAAAAZZZAAAZZZZAAAAZZZZAAAAAAZZZAAAZZZZAAAAAAAAAAZZZZAAAAAAAAAAAAAAAAAAAAAAA",
"AAAAAAAAAAAAAAAZZAAAAAAAAAZZAAAZZZZZZZAAAAAZZZAAZZZAAAAAAZZZAAAAZZZAAAAZZZZAAAAAAZZZAAAZZZZAAAAAAAAAAZZZZAAAAAAAAAAAAAAAAAAAAAAA",
"AAAAAAAAAAAAAAAZZAAAAAAAAAZAAAAZZAAAAAAAAAAZZZAAZZZAAAAAZZZZZZZZZZZZAAAZZZZAAAAAAZZZAAAZZZZAAAAAAAAAAZZZZAAAAAAAAAAAAAAAAAAAAAAA",
"AAAAAAAAAAAAAAAZZAAAAAAAAZZAAAAZZAAAAAAAAAAAZZZZZZZAAAAAZZZZZZZZZZZZAAAAZZZAAAAAZZZZAAAZZZZAAAAAAAAAAZZZZAAAAAAAAAAAAAAAAAAAAAAA",
"AAAAAAAAAAAAAAAZZAAAAAAAAZZAAAAZZAAAAAAAAAAAZZZZZZAAAAAAZZZZZZZZZZZZAAAAZZZZAAAZZZZZAAAZZZZAAAAAAAAAAZZZZAAAAAAAAAAAAAAAAAAAAAAA",
"AAAAAAAAAAAAAAAZZAAAAAAAZZAAAAAZZAAAAAAAAAAAZZZZZZAAAAAZZZZAAAAAAZZZZAAAZZZZZZZZZZZAAAAZZZZZZZZZAAAAAZZZZAAAAAAAAAAAAAAAAAAAAAAA",
"AAAAAAAAAAAAAAAZZAAAAAZZZAAAAAAZZAAAAAAAAAAAAZZZZZAAAAAZZZZAAAAAAZZZZAAAAZZZZZZZZZAAAAAZZZZZZZZZAAAAAZZZZAAAAAAAAAAAAAAAAAAAAAAA",
"AAAAAAAAAAAAAAAZZZZZZZZAAAAAAAAZZZZZZZZAAAAAAZZZZAAAAAAZZZAAAAAAAAZZZAAAAAAZZZZZAAAAAAAZZZZZZZZZAAAAAZZZZAAAAAAAAAAAAAAAAAAAAAAA",
"AAAAAAAAAAAAAAAAAAAAAAAAAAAAAAAAAAAAAAAAAAAAAAAAAAAAAAAAAAAAAAAAAAAAAAAAAAAAAAAAAAAAAAAAAAAAAAAAAAAAAAAAAAAAAAAAAAAAAAAAAAAAAAAA",
"AAAAAAAAAAAAAAAAAAAAAAAAAAAAAAAAAAAAAAAAAAAAAAAAAAAAAAAAAAAAAAAAAAAAAAAAAAAAAAAAAAAAAAAAAAAAAAAAAAAAAAAAAAAAAAAAAAAAAAAAAAAAAAAA",
"AAAAAAAAAAAAAAAAAAAAAAAAAAAAAAAAAAAAAAAAAAAAAAAAAAAAAAAAAAAAAAAAAAAAAAAAAAAAAAAAAAAAAAAAAAAAAAAAAAAAAAAAAAAAAAAAAAAAAAAAAAAAAAAA",
"AAAAAAAAAAAAAAAAAAAAAAAAAAAAAAAAAAAAAAAAAAAAAAAAAAAAAAAAAAAAAAAAAAAAAAAAAAAAAAAAAAAAAAAAAAAAAAAAAAAAAAAAAAAAAAAAAAAAAAAAAAAAAAAA",
"AAAAAAAAAAAAAAAAAAAAAAAAAAAAAAAAAAAAAAAAAAAAAAAAAAAAAAAAAAAAAAAAAAAAAAAAAAAAAAAAAAAAAAAAAAAAAAAAAAAAAAAAAAAAAAAAAAAAAAAAAAAAAAAA",
"AAAAAAAAAAAAAAAAAAAAAAAAAAAAAAAAAAAAAAAAAAAAAAAAAAAAAAAAAAAAAAAAAAAAAAAAAAAAAAAAAAAAAAAAAAAAAAAAAAAAAAAAAAAAAAAAAAAAAAAAAAAAAAAA",
"AAAAAAAAAAAAAAAAAAAAAAAAAAAAAAAAAAAAAAAAAAAAAAAAAAAAAAAAAAAAAAAAAAAAAAAAAAAAAAAAAAAAAAAAAAAAAAAAAAAAAAAAAAAAAAAAAAAAAAAAAAAAAAAA",
"AAAAAAAAAAAAAAAAAAAAAAAAAAAAAAAAAAAAAAAAAAAAAAAAAAAAAAAAAAAAAAAAAAAAAAAAAAAAAAAAAAAAAAAAAAAAAAAAAAAAAAAAAAAAAAAAAAAAAAAAAAAAAAAA",
"AAAAAAAAAAAAAAAAAAAAAAAAAAAAAAAAAAAAAAAAAAAAAAAAAAAAAAAAAAAAAAAAAAAAAAAAAAAAAAAAAAAAAAAAAAAAAAAAAAAAAAAAAAAAAAAAAAAAAAAAAAAAAAAA",
"AAAAAAAAAAAAAAAAAAAAAAAAAAAAAAAAAAAAAAAAAAAAAAAAAAAAAAAAAAAAAAAAAAAAAAAAAAAAAAAAAAAAAAAAAAAAAAAAAAAAAAAAAAAAAAAAAAAAAAAAAAAAAAAA",
"AAAAAAAAAAAAAAAAAAAAAAAAAAAAAAAAAAAAAAAAAAAAAAAAAAAAAAAAAAAAAAAAAAAAAAAAAAAAAAAAAAAAAAAAAAAAAAAAAAAAAAAAAAAAAAAAAAAAAAAAAAAAAAAA"
};
