/* XPM */
static char *devault64[] = {
/* columns rows colors chars-per-pixel */
"64 64 60 1 ",
"  c #0A04AC",
". c #070CAF",
"X c #0809AE",
"o c #070EB0",
"O c #0514B2",
"+ c #021CB5",
"@ c #0021B6",
"# c #0025B9",
"$ c #012ABD",
"% c #022EC1",
"& c #0333C5",
"* c #0437C8",
"= c #053CCC",
"- c #0743D3",
"; c #0748D7",
": c #0849D7",
"> c #084CDB",
", c #0951DE",
"< c #0A55E2",
"1 c #0B5AE6",
"2 c #0C5EE9",
"3 c #0D62ED",
"4 c #0E66F1",
"5 c #0F6BF5",
"6 c #0F6FF9",
"7 c #1072FA",
"8 c #A2A4A6",
"9 c #A5A6A8",
"0 c #A7A8AA",
"q c #ABABAD",
"w c #AEAFB0",
"e c #AFB0B1",
"r c #B3B3B5",
"t c #B7B7B8",
"y c #B8B7B9",
"u c #BCBBBC",
"i c #C0BFC0",
"p c #C4C2C3",
"a c #C8C6C7",
"s c #CAC7C8",
"d c #CDCACB",
"f c #D0CDCE",
"g c #D2CFD0",
"h c #D5D2D3",
"j c #D8D5D6",
"k c #DAD7D8",
"l c #DDDADB",
"z c #E1DEDF",
"x c #E2DFE0",
"c c #E5E2E3",
"v c #E9E6E7",
"b c #EAE7E8",
"n c #EDEAEB",
"m c #F0EEEF",
"M c #F2EFF0",
"N c #F5F2F3",
"B c #F8F6F7",
"V c #F9F7F8",
"C c #FFFDFD",
"Z c None",
/* pixels */
"ZZZZZZZZZZZZZZZZZZZZZZZZZZZZZZZZZZZZZZZZZZZZZZZZZZZZZZZZZZZZZZZZ",
"ZZZZZZZZZZZZZZZZZZZZZZZZZZZZZZZCCCCCCZZZZZZZZZZZZZZZZZZZZZZZZZZZ",
"ZZZZZZZZZZZZdfghjklzccvbnmMBBCCCCCCCCCCCCZZZZZZZZZZZZZZZZZZZZZZZ",
"ZZZZZZZZZZZadfghjklxxcvbnmMNBVCCCCCCCCCCCCCZZZZZZZZZZZZZZZZZZZZZ",
"ZZZZZZZZZZZaddghhkklxcvbnmMNBVCCCCCCCCCCCCVCCZZZZZZZZZZZZZZZZZZZ",
"ZZZZZZZZZZiaddfhjklzzccbbmMNBVVCCCCVCCCCCCCCCCZZZZZZZZZZZZZZZZZZ",
"ZZZZZZZZZZipsdfhhkklxccbnmmNBVVCCCCCCCCCCVVCCCCZZZZZZZZZZZZZZZZZ",
"ZZZZZZZZZZppsdfhjkklzxcvbnmMNBCCCCCCCCCCCCCCCVCVZZZZZZZZZZZZZZZZ",
"ZZZZZZZZZZupsddhhjkZZZZZZZZZZZZZZZZCCCCCCCCCCVCCCZZZZZZZZZZZZZZZ",
"ZZZZZZZZZZupsddghjZZZZZZZZZZZZZZZZZZZCCCCCCCCVVCCCZZZZZZZZZZZZZZ",
"ZZZZZZZZZZupaddghhZZZZZZZZZZZZZZZZZZZZZCCCCVCCVCCVZZZZZZZCZZZZZZ",
"ZZZZZZZZZZupaddghjZZZZZZZZZZZZZZZZZZZZZZVCCCCVCCCCCZZCCVCZZZZZZZ",
"ZZZZZZZZZZuipsdgghZZZZZZZZZZZZZZZZZZZZZZZCCCVCCVVCVCVVCCZZZZZZZZ",
"ZZZZZZZZZZuipsdfhhZZZZZZZZZZZZZZZZZZZZZZZZCCCCVCCVCVCCVZZZZZZZZZ",
"ZZZZZZZZZZuupadfghZZZZZZZZZZZZZZZZZZZZZZZZCCCCVVCCVCCZZZZZZZZZZZ",
"ZZZZZZZZZZyupadfghZZZZZZZZZZZZZZZZZZZZZZZZCCVCCCVVCVZZZZZZZZZZZZ",
"ZZZZZZZZZZtupaddghZZZZZZZZZZZZZZZZZZZZZZZCVCCCCCCCVZZZZZZZZZZZZZ",
"ZZZZZZZZZZtuppsdfhZZZZZZZZZZZZZZZZZZZZZCCCCCCVCVVCZZZZZZZZZZZZZZ",
"ZZZZZZZZZZyyuasdfgZZZZZZZZZZZZZZZZZZZZCCCCCCCVCCCZZZZZZZZZZZZZZZ",
"ZZZZZZZZZZtuipsdfgZZZZZZZZZZZZZZZZZZCCCCCCVCCCCCZZZZZZZZZZZZZZZZ",
"ZZZZZZZZZZtuipadfgZZZZZZZZZZZZZZZZZCCCCCCCCCCCCZZZZZZZZZZZZZZZZZ",
"ZZZZZZZZZZrtuiaddgZZZZZZZZZZZZZZZCCCCCCCCCCCCZZZZZZZZZZZZZZZZZZZ",
"ZZZZZZZZZZryuipdfgZZZZZZZZZZZZZZBCCCCCCCCCVCZZZZZZZ7ZZZZZZZZZZZZ",
"ZZZZZZZZZZryuiaddgZZZZZZZZZZZZZNBCCCCCCCCCCZZZZZZZ56ZZZZZZZZZZZZ",
"ZZZZZZZZZZrtuipsdfZZZZZZZZZZZmMBBVCCCCCCCCZZZZZZ3455ZZZZZZZZZZZZ",
"ZZZZZZZZZZwtyipadfZZZZZZZZZZnmNNBCCCCCCCCZZZZZZ12345ZZZZZZZZZZZZ",
"ZZZZZZZZZZwtyiiadfZZZZZZZZvbnmMNNVCCCCCCZZZZZZ<12345ZZZZZZZZZZZZ",
"ZZZZZZZZZZwrtupaddZZZZZZZccbnmMNBVCCCCCZZZZZZ,<<1234ZZZZZZZZZZZZ",
"ZZZZZZZZZZwrtuiasdZZZZZzxcvvnnmNNBCCCZZZZZZZ:>,<<233ZZZZZZZZZZZZ",
"ZZZZZZZZZZwrtyiaddZZZZkzzccvbmmNBVVCZZZZZZZ-::><<123ZZZZZZZZZZZZ",
"ZZZZZZZZZZwrtuipsdZZhjkllxcvbnmNNVCZZZZZZZ==-::,<<13ZZZZZZZZZZZZ",
"ZZZZZZZZZZqwttupsdfghjklzccvnnmMNBZZZZZZ&&==--:>,<12ZZZZZZZZZZZZ",
"ZZZZZZZZZZqetyupadfghjkkzxcvbnmNNZZZZZZ$%&*==-;>,,<2ZZZZZZZZZZZZ",
"ZZZZZZZZZZqertuppdffhjkzzzccbnnMZZZZZZ#$$&&==--:>,<ZZZZZZZZZZZZZ",
"ZZZZZZZZZZ0ertupasdfhhjkkzccvnmZZZZZZ@@#$&&*==--:>,ZZZZZZZZZZZZZ",
"ZZZZZZZZZZ0qetyipsdfhhjkzzccvZZZZZZZ+@@##$&&*=--:>,ZZZZZZZZZZZZZ",
"ZZZZZZZZZZ0wwtyipsdfhhjkkzxcZZZZZZZ+@+@##$%&&==-->,ZZZZZZZZZZZZZ",
"ZZZZZZZZZZ9qrryipadfghjjzzxZZZZZZZ+++@@@##$&&===-;ZZZZZZZZZZZZZZ",
"ZZZZZZZZZZ9qetyupaddghjkkzZZZZZZOO+++@+@@#$$&&==--ZZZZZZZZZZZZZZ",
"ZZZZZZZZZZ90etyuipdffhjkkZZZZZZOO+O++++@@##$&&&==ZZZZZZZZZZZZZZZ",
"ZZZZZZZZZZ80wrtyiaddfhhjZZZZZZOOOOO+++++@@#$$&&==ZZZZZZZZZZZZZZZ",
"ZZZZZZZZZZ80qrtuipadfgZZZZZZZoooOOOO+++@@@@#$%&*ZZZZZZZZZZZZZZZZ",
"ZZZZZZZZZZ80qrruupadfZZZZZZZ.oooOOO+O++++@@##%&ZZZZZZZZZZZZZZZZZ",
"ZZZZZZZZZZ89qwryipadZZZZZZZ ..ooOOOOO++++@@@#$ZZZZZZZZZZZZZZZZZZ",
"ZZZZZZZZZZZ9qwrtupaZZZZZZZ .X.ooOOOOOO+++@@@@ZZZZZZZZZZZZZZZZZZZ",
"ZZZZZZZZZZZZqwrtupZZZZZZZ  XX..oooOOO+O+++@ZZZZZZZZZZZZZZZZZZZZZ",
"ZZZZZZZZZZZZZZrtZZZZZZZ    XXXoo.OOOOO+ZZZZZZZZZZZZZZZZZZZZZZZZZ",
"ZZZZZZZZZZZZZZZZZZZZZZZZZZZZZZZZZZZZZZZZZZZZZZZZZZZZZZZZZZZZZZZZ",
"ZZZZZZZZZZZZZZZZZZZZZZZZZZZZZZZZZZZZZZZZZZZZZZZZZZZZZZZZZZZZZZZZ",
"ZZZZZZZZZZZZZZZZZZZZZZZZZZZZZZZZZZZZZZZZZZZZZZZZZZZZZZZZZZZZZZZZ",
"ZZZZZZZZZZZZZZZZZZZZZZZZZZZZZZZZZZZZZZZZZZZZZZZZZZZZZZZZZZZZZZZZ",
"ZZZZZZZCCCCCZZZCCCCZCCZZZCCZZZCCZZZCCZZZCCZZCCZZZCCCCCCZZZZZZZZZ",
"ZZZZZZZCZZZCCZZCZZZZCCZZZCCZZCCCZZZCCZZZCCZZCCZZZZZCCZZZZZZZZZZZ",
"ZZZZZZZCZZZZCZZCZZZZZCZZZCZZZCZCCZZCCZZZCCZZCCZZZZZCCZZZZZZZZZZZ",
"ZZZZZZZCZZZZCZZCCCCZZCCZCCZZZCZZCZZCCZZZCCZZCCZZZZZCCZZZZZZZZZZZ",
"ZZZZZZZCZZZZCZZCZZZZZCCZCCZZCCZZCZZCCZZZCCZZCCZZZZZCCZZZZZZZZZZZ",
"ZZZZZZZCZZZZCZZCZZZZZZCCCZZZCCCCCCZZCZZZCCZZCCZZZZZCCZZZZZZZZZZZ",
"ZZZZZZZCZZZCCZZCZZZZZZCCCZZZCZZZCCZZCCZZCCZZCCZZZZZCCZZZZZZZZZZZ",
"ZZZZZZZCCCCCZZZCCCCZZZCCCZZCCZZZZCZZZCCCCZZZCCCCCZZCCZZZZZZZZZZZ",
"ZZZZZZZZZZZZZZZZZZZZZZZZZZZZZZZZZZZZZZZZZZZZZZZZZZZZZZZZZZZZZZZZ",
"ZZZZZZZZZZZZZZZZZZZZZZZZZZZZZZZZZZZZZZZZZZZZZZZZZZZZZZZZZZZZZZZZ",
"ZZZZZZZZZZZZZZZZZZZZZZZZZZZZZZZZZZZZZZZZZZZZZZZZZZZZZZZZZZZZZZZZ",
"ZZZZZZZZZZZZZZZZZZZZZZZZZZZZZZZZZZZZZZZZZZZZZZZZZZZZZZZZZZZZZZZZ",
"ZZZZZZZZZZZZZZZZZZZZZZZZZZZZZZZZZZZZZZZZZZZZZZZZZZZZZZZZZZZZZZZZ"
};
