/* XPM */
static char * bitcoin32_xpm[] = {
"32 32 3 1",
" 	c None",
".	c #F29D03",
"+	c #000000",
"                                ",
"                                ",
"                                ",
"                                ",
"                                ",
"                                ",
"                                ",
"                                ",
"                                ",
"              .  .  +++         ",
"              . .. ++++++++++++ ",
"             .. ..              ",
"       .... ..................  ",
"      ..... ..................  ",
"     ..........   ......        ",
"     ... .............          ",
"    ...  .............          ",
"   ....  .....    ....          ",
"   ....  ....................   ",
"  ..... .....................   ",
" .....  ...........  .......    ",
"           .. ..                ",
"                                ",
"                                ",
"                                ",
"                                ",
"                                ",
"                                ",
"                                ",
"                                ",
"                                ",
"                                "};
