<svg id="Layer_1" data-name="Layer 1" xmlns="http://www.w3.org/2000/svg" viewBox="0 0 256 256"><defs><style>.cls-1{fill:#fff;}</style></defs><path class="cls-1" d="M128,0A128,128,0,1,0,256,128,128,128,0,0,0,128,0Zm17.1,97.86-13-7.42a8.36,8.36,0,0,0-8.48,0c-8.73,5.06-17.53,10.11-26.25,15.17a8.35,8.35,0,0,0-4.16,7.26v30.24a8.3,8.3,0,0,0,4.24,7.34l26.17,15.17a8.31,8.31,0,0,0,8.48,0l58.62-33.92v24.7A13.31,13.31,0,0,1,184,168.23l-49.24,28.45a13.54,13.54,0,0,1-13.62,0L71.89,168.23A13.45,13.45,0,0,1,65,156.4c.08-18.91,0-37.83,0-56.82a13.45,13.45,0,0,1,6.85-11.83l49.24-28.37a13.17,13.17,0,0,1,13.62,0L184,87.75c9.3,5.38,9.3,20.88,0,26.26L129.2,145.56a2.36,2.36,0,0,1-2.53,0l-13.28-7.66a2.48,2.48,0,0,1-1.31-2.21V120.37a2.61,2.61,0,0,1,1.31-2.29L145.1,99.82A1.14,1.14,0,0,0,145.1,97.86Z"/></svg>