<?xml version="1.0" encoding="utf-8"?>
<!-- Generator: Adobe Illustrator 24.3.0, SVG Export Plug-In . SVG Version: 6.00 Build 0)  -->
<svg version="1.1" id="Layer_1" xmlns="http://www.w3.org/2000/svg" xmlns:xlink="http://www.w3.org/1999/xlink" x="0px" y="0px"
	 viewBox="0 0 358.5 96.5" style="enable-background:new 0 0 358.5 96.5;" xml:space="preserve">
<style type="text/css">
	.st0{fill:#231F20;}
</style>
<path class="st0" d="M154.8,54.9h-30.3c0.5,2.4,1.9,4.5,3.9,5.9c2.2,1.5,4.9,2.3,7.6,2.2c1.9,0,3.8-0.3,5.6-0.9
	c1.7-0.7,3.3-1.7,4.6-3l6.2,6.7c-3.8,4.3-9.3,6.5-16.6,6.5c-4.2,0.1-8.3-0.8-12-2.7c-3.3-1.6-6.1-4.2-8-7.3
	c-1.9-3.2-2.9-6.9-2.8-10.7c-0.1-3.7,0.9-7.4,2.7-10.6c1.8-3.1,4.5-5.7,7.7-7.4c3.4-1.8,7.1-2.7,10.9-2.6c3.7-0.1,7.4,0.8,10.7,2.5
	c3.1,1.7,5.7,4.2,7.5,7.3c1.9,3.4,2.8,7.2,2.7,11C155,51.9,154.9,53,154.8,54.9z M127.6,42c-1.8,1.6-3,3.7-3.3,6.1H144
	c-0.3-2.4-1.5-4.5-3.3-6.1c-1.8-1.5-4.2-2.3-6.6-2.3C131.8,39.7,129.4,40.5,127.6,42z"/>
<path class="st0" d="M177.8,69.1c-4.2-2.2-7.7-5.5-10.1-9.6c-2.5-4.2-3.8-9-3.7-13.9c-0.1-4.9,1.2-9.7,3.7-13.9
	c2.4-4.1,5.9-7.4,10.1-9.6c4.5-2.4,9.4-3.5,14.5-3.5c4.2-0.1,8.4,0.8,12.3,2.4c3.6,1.5,6.7,3.9,9.2,6.9L206,35
	c-3.2-3.9-8-6.2-13.1-6.1c-3,0-6,0.7-8.6,2.1c-2.5,1.4-4.6,3.5-5.9,6c-1.4,2.6-2.2,5.6-2.1,8.7c-0.1,3,0.7,6,2.1,8.6
	c1.4,2.5,3.4,4.6,5.9,5.9c2.7,1.4,5.6,2.2,8.6,2.1c5.1,0,9.9-2.3,13.1-6.2l7.8,7.2c-2.5,3-5.6,5.4-9.2,6.9
	c-3.9,1.6-8.1,2.4-12.3,2.4C187.2,72.6,182.3,71.5,177.8,69.1z"/>
<path class="st0" d="M255,35.4c3.3,3,5,7.4,5,13.4v22.9h-10.9v-5c-2.2,3.7-6.3,5.6-12.2,5.6c-2.7,0.1-5.5-0.5-8-1.6
	c-2.1-0.9-3.9-2.4-5.2-4.3c-1.2-1.9-1.8-4-1.8-6.3c-0.1-3.4,1.4-6.7,4.2-8.8c2.8-2.1,7.1-3.2,13-3.2h9.2c0.1-2.2-0.7-4.3-2.3-5.8
	c-1.5-1.4-3.8-2.1-6.9-2c-2.1,0-4.3,0.3-6.3,1c-1.9,0.6-3.7,1.5-5.3,2.8l-4.2-8.1c2.4-1.6,5.1-2.8,7.9-3.6c3.1-0.9,6.2-1.3,9.4-1.3
	C246.9,31,251.7,32.5,255,35.4z M245.1,63.1c1.5-0.9,2.7-2.4,3.3-4.1v-4.1h-8c-4.8,0-7.2,1.6-7.2,4.7c0,1.4,0.6,2.7,1.8,3.5
	c1.4,0.9,3.1,1.4,4.8,1.3C241.7,64.5,243.5,64,245.1,63.1L245.1,63.1z"/>
<path class="st0" d="M278,71c-2.7-0.6-5.2-1.7-7.6-3.1l3.9-8.3c2,1.2,4.2,2.2,6.5,2.8c2.4,0.7,4.9,1.1,7.5,1.1
	c4.9,0,7.4-1.2,7.4-3.7c0-1.2-0.9-2.2-2-2.5c-2-0.6-4.1-1.1-6.2-1.3c-2.7-0.4-5.5-1-8.1-1.7c-2.1-0.6-4.1-1.8-5.6-3.4
	c-1.6-1.6-2.4-4-2.4-7c0-2.4,0.7-4.8,2.2-6.8c1.7-2.1,3.9-3.7,6.4-4.6c3.2-1.2,6.6-1.7,10-1.7c2.8,0,5.7,0.3,8.5,0.9
	c2.5,0.5,4.8,1.3,7,2.6l-3.9,8.3c-3.5-2-7.5-3-11.5-3c-1.9-0.1-3.8,0.2-5.6,1c-1.1,0.5-1.8,1.5-1.9,2.7c0,1.2,0.8,2.3,2,2.6
	c2.1,0.7,4.2,1.1,6.4,1.4c2.7,0.4,5.4,1,8,1.8c2.1,0.6,4,1.8,5.4,3.4c1.6,1.9,2.5,4.4,2.3,6.9c0,2.4-0.8,4.7-2.2,6.6
	c-1.7,2.1-4,3.7-6.5,4.5c-3.3,1.1-6.7,1.7-10.2,1.6C284.5,72.2,281.2,71.9,278,71z"/>
<path class="st0" d="M354,35.5c3,3,4.6,7.4,4.6,13.3v23h-11.7V50.5c0-3.2-0.7-5.6-2.1-7.1c-1.6-1.6-3.8-2.5-6-2.3
	c-2.6-0.1-5.2,0.9-7,2.7c-1.7,1.8-2.6,4.5-2.6,8.1v19.8h-11.7V16.4h11.6v19.4c1.6-1.6,3.5-2.8,5.6-3.5c2.3-0.8,4.7-1.2,7.1-1.2
	C346.9,31,350.9,32.5,354,35.5z"/>
<path class="st0" d="M48.3,0C21.6,0,0,21.6,0,48.3s21.6,48.3,48.3,48.3s48.3-21.6,48.3-48.3S74.9,0,48.3,0C48.3,0,48.3,0,48.3,0z
	 M54.7,36.9l-4.9-2.8c-1-0.6-2.2-0.6-3.2,0c-3.3,1.9-6.6,3.8-9.9,5.7c-1,0.6-1.6,1.6-1.6,2.7V54c0,1.1,0.6,2.2,1.6,2.8l9.9,5.7
	c1,0.6,2.2,0.6,3.2,0l22.1-12.8V59c0,1.8-0.9,3.6-2.6,4.5L50.8,74.2c-1.6,0.9-3.5,0.9-5.1,0L27.1,63.4c-1.6-0.9-2.6-2.6-2.6-4.4
	c0-7.1,0-14.3,0-21.4c0-1.8,1-3.5,2.6-4.5l18.6-10.7c1.6-0.9,3.6-0.9,5.1,0l18.6,10.7c3.5,2,3.5,7.9,0,9.9L48.7,54.9
	c-0.3,0.2-0.7,0.2-1,0l-5-2.9c-0.3-0.2-0.5-0.5-0.5-0.8v-5.8c0-0.4,0.2-0.7,0.5-0.9l12-6.9c0.2-0.1,0.3-0.4,0.2-0.6
	C54.8,37,54.8,36.9,54.7,36.9z"/>
</svg>
