<?xml version="1.0" encoding="utf-8"?>
<!-- Generator: Adobe Illustrator 24.3.0, SVG Export Plug-In . SVG Version: 6.00 Build 0)  -->
<svg version="1.1" id="Layer_1" xmlns="http://www.w3.org/2000/svg" xmlns:xlink="http://www.w3.org/1999/xlink" x="0px" y="0px"
	 viewBox="0 0 272.5 183.3" style="enable-background:new 0 0 272.5 183.3;" xml:space="preserve">
<style type="text/css">
	.st0{fill:#231F20;}
</style>
<path class="st0" d="M46.6,163.7H12.9c0.5,2.6,2.1,5,4.3,6.5c2.5,1.7,5.4,2.5,8.4,2.4c2.1,0,4.2-0.3,6.2-1c1.9-0.7,3.6-1.8,5-3.3
	l6.9,7.4c-4.2,4.8-10.3,7.2-18.3,7.2c-4.6,0.1-9.2-1-13.3-3c-3.7-1.8-6.8-4.6-8.9-8.1c-2.1-3.6-3.2-7.7-3.1-11.8
	c-0.1-4.1,1-8.2,3.1-11.8c2-3.5,5-6.3,8.5-8.2c3.7-2,7.9-3,12.1-2.9c4.1-0.1,8.1,0.9,11.8,2.8c3.5,1.8,6.4,4.6,8.3,8.1
	c2.1,3.7,3.1,7.9,3,12.2C46.8,160.4,46.7,161.6,46.6,163.7z M16.4,149.4c-2,1.7-3.3,4.1-3.6,6.8h21.9c-0.3-2.6-1.6-5-3.6-6.7
	c-2-1.7-4.6-2.6-7.3-2.5C21.1,146.9,18.5,147.7,16.4,149.4z"/>
<path class="st0" d="M72.1,179.5c-4.7-2.5-8.5-6.1-11.2-10.7c-5.5-9.6-5.5-21.3,0-30.8c2.7-4.5,6.6-8.2,11.2-10.7
	c5-2.6,10.5-3.9,16.1-3.8c4.7-0.1,9.3,0.8,13.6,2.7c4,1.7,7.5,4.3,10.2,7.6l-8.6,7.9c-3.6-4.4-8.9-6.9-14.6-6.8
	c-3.3-0.1-6.7,0.8-9.6,2.4c-2.8,1.5-5,3.8-6.6,6.6c-3.1,6-3.1,13.2,0,19.2c1.5,2.8,3.8,5,6.6,6.6c2.9,1.6,6.2,2.4,9.6,2.4
	c5.7,0.1,11-2.5,14.6-6.9l8.6,7.9c-2.7,3.4-6.3,6-10.2,7.7c-4.3,1.8-9,2.7-13.6,2.7C82.6,183.4,77.1,182.1,72.1,179.5z"/>
<path class="st0" d="M157.7,142.1c3.7,3.3,5.5,8.2,5.5,14.8v25.4h-12.1v-5.5c-2.4,4.1-7,6.2-13.6,6.2c-3.1,0.1-6.1-0.5-8.9-1.7
	c-2.3-1-4.3-2.7-5.7-4.8c-1.3-2.1-2-4.5-2-6.9c-0.1-3.8,1.6-7.5,4.7-9.8c3.1-2.4,7.9-3.6,14.4-3.6h10.2c0.2-2.4-0.8-4.8-2.6-6.5
	c-1.7-1.5-4.3-2.3-7.7-2.3c-2.4,0-4.7,0.4-7,1.1c-2.1,0.6-4.1,1.7-5.8,3l-4.6-9c2.7-1.8,5.6-3.2,8.7-4c3.4-0.9,6.9-1.4,10.5-1.4
	C148.8,137.2,154.1,138.8,157.7,142.1z M146.7,172.8c1.7-1,3-2.6,3.6-4.5v-4.6h-8.8c-5.3,0-7.9,1.7-7.9,5.2c-0.1,1.6,0.7,3,1.9,3.9
	c1.6,1,3.4,1.6,5.3,1.4C142.9,174.3,145,173.8,146.7,172.8L146.7,172.8z"/>
<path class="st0" d="M183.2,181.6c-3-0.7-5.8-1.8-8.4-3.4l4.3-9.3c2.2,1.4,4.7,2.4,7.2,3.1c2.7,0.8,5.5,1.2,8.3,1.2
	c5.5,0,8.2-1.4,8.2-4.1c0-1.3-0.7-2.2-2.2-2.7c-2.2-0.7-4.5-1.2-6.9-1.4c-3-0.4-6-1.1-9-1.9c-2.4-0.7-4.5-2-6.2-3.8
	c-1.7-1.8-2.6-4.4-2.6-7.8c0-2.7,0.8-5.3,2.4-7.5c1.8-2.3,4.3-4.1,7.1-5.1c3.5-1.3,7.3-1.9,11-1.8c3.2,0,6.3,0.3,9.4,1
	c2.7,0.5,5.3,1.5,7.7,2.9l-4.3,9.2c-3.9-2.2-8.3-3.3-12.8-3.3c-2.1-0.1-4.3,0.3-6.2,1.2c-1.2,0.5-2,1.7-2.1,3c0,1.4,0.9,2.6,2.2,2.9
	c2.3,0.7,4.7,1.3,7.1,1.6c3,0.5,6,1.1,8.9,1.9c2.3,0.7,4.4,2,6,3.8c1.7,1.8,2.6,4.4,2.6,7.6c0,2.7-0.8,5.3-2.5,7.4
	c-1.9,2.3-4.4,4-7.2,5c-3.6,1.3-7.4,1.9-11.2,1.8C190.4,183,186.7,182.5,183.2,181.6z"/>
<path class="st0" d="M267.5,142.1c3.4,3.3,5.1,8.2,5.1,14.7v25.5h-12.9v-23.5c0-3.5-0.8-6.2-2.3-7.9c-1.7-1.8-4.2-2.8-6.7-2.6
	c-2.9-0.1-5.7,0.9-7.8,3c-1.9,2-2.9,5-2.9,9v22h-12.8V121H240v21.5c1.8-1.7,3.9-3.1,6.2-3.9c2.5-0.9,5.2-1.4,7.9-1.4
	C259.6,137.2,264.1,138.8,267.5,142.1z"/>
<path class="st0" d="M135.9,0c-29.6,0-53.5,24-53.5,53.5s24,53.5,53.5,53.5c29.6,0,53.5-24,53.5-53.5c0,0,0,0,0,0
	C189.4,24,165.4,0,135.9,0z M143,40.9l-5.4-3.1c-1.1-0.6-2.5-0.6-3.6,0c-3.6,2.1-7.3,4.2-11,6.3c-1.1,0.6-1.7,1.8-1.7,3v12.7
	c0,1.3,0.7,2.5,1.8,3.1l10.9,6.3c1.1,0.6,2.5,0.6,3.6,0l24.5-14.2v10.3c0.1,2.1-1,4-2.8,5l-20.6,11.8c-1.8,1-3.9,1-5.7,0l-20.6-11.9
	c-1.8-1-2.9-2.9-2.9-5c0-7.9,0-15.8,0-23.8c0-2,1.1-3.9,2.9-4.9L133,24.8c1.8-1.1,3.9-1.1,5.7,0l20.6,11.9c3.9,2.2,3.9,8.7,0,11
	l-22.9,13.2c-0.3,0.2-0.7,0.2-1.1,0l-5.6-3.2c-0.3-0.2-0.6-0.5-0.6-0.9v-6.4c0-0.4,0.2-0.8,0.6-1l13.3-7.6
	C143.2,41.5,143.3,41.2,143,40.9C143.1,41,143.1,40.9,143,40.9z"/>
</svg>
