<svg id="Layer_1" data-name="Layer 1" xmlns="http://www.w3.org/2000/svg" viewBox="0 0 226.32 253.52"><defs><style>.cls-1{fill:#fff;fill-rule:evenodd;}</style></defs><path class="cls-1" d="M58.13,86.51c15.69-9.09,31.51-18.18,47.2-27.26a14.92,14.92,0,0,1,15.24,0l23.3,13.33a2.06,2.06,0,0,1,0,3.52l-57,32.83A4.68,4.68,0,0,0,84.51,113v27.55a4.45,4.45,0,0,0,2.35,4l23.89,13.78a4.23,4.23,0,0,0,4.54,0l98.5-56.73c16.71-9.67,16.71-37.52,0-47.19l-88.53-51a23.7,23.7,0,0,0-24.48,0l-88.52,51A24.19,24.19,0,0,0,0,75.66c0,34.15.14,68.16,0,102.16a24.19,24.19,0,0,0,12.31,21.25l88.52,51.15a24.35,24.35,0,0,0,24.48,0l88.53-51.15A23.88,23.88,0,0,0,226,177.82V133.41l-105.38,61a14.92,14.92,0,0,1-15.24,0l-47-27.26a14.89,14.89,0,0,1-7.62-13.19V99.55a15,15,0,0,1,7.47-13Z"/></svg>