<svg id="Layer_1" data-name="Layer 1" xmlns="http://www.w3.org/2000/svg" viewBox="0 0 226.37 253.53"><defs><style>.cls-1{fill:#0074c2;fill-rule:evenodd;}</style></defs><path class="cls-1" d="M58.19,86.51c15.68-9.09,31.51-18.17,47.19-27.26a15,15,0,0,1,15.25,0l23.3,13.34a2.06,2.06,0,0,1,0,3.52l-57,32.83a4.68,4.68,0,0,0-2.34,4.1V140.6a4.45,4.45,0,0,0,2.34,4l23.9,13.78a4.23,4.23,0,0,0,4.54,0l98.49-56.72c16.71-9.68,16.71-37.52,0-47.2l-88.52-51a23.66,23.66,0,0,0-24.48,0l-88.53,51A24.2,24.2,0,0,0,0,75.67c0,34.15.15,68.15,0,102.15a24.22,24.22,0,0,0,12.31,21.26l88.53,51.15a24.4,24.4,0,0,0,24.48,0l88.52-51.15A23.92,23.92,0,0,0,226,177.82V133.41l-105.38,61a15,15,0,0,1-15.25,0l-47-27.27a14.91,14.91,0,0,1-7.62-13.19V99.56a15,15,0,0,1,7.48-13Z"/></svg>