<svg id="Layer_1" data-name="Layer 1" xmlns="http://www.w3.org/2000/svg" viewBox="0 0 111.77 111.77"><defs><style>.cls-1{fill:#fff;}.cls-2{fill:#0074c2;fill-rule:evenodd;}</style></defs><rect class="cls-1" width="111.77" height="111.77" rx="11.37"/><path class="cls-2" d="M40.38,44.54l13.31-7.69a4.23,4.23,0,0,1,4.29,0l6.57,3.76a.58.58,0,0,1,0,1L48.48,50.86A1.33,1.33,0,0,0,47.82,52v7.77a1.26,1.26,0,0,0,.66,1.11l6.73,3.89a1.25,1.25,0,0,0,1.29,0l27.76-16c4.71-2.72,4.71-10.57,0-13.3l-25-14.38a6.7,6.7,0,0,0-6.91,0L27.45,35.49a6.82,6.82,0,0,0-3.47,6c0,9.63,0,19.21,0,28.8a6.82,6.82,0,0,0,3.47,6l25,14.42a6.88,6.88,0,0,0,6.91,0l25-14.42a6.74,6.74,0,0,0,3.43-6V57.76L58,75a4.18,4.18,0,0,1-4.29,0L40.42,67.26a4.19,4.19,0,0,1-2.15-3.71V48.22a4.24,4.24,0,0,1,2.11-3.68Z"/></svg>