<?xml version="1.0" encoding="utf-8"?>
<!-- Generator: Adobe Illustrator 24.3.0, SVG Export Plug-In . SVG Version: 6.00 Build 0)  -->
<svg version="1.1" id="Layer_1" xmlns="http://www.w3.org/2000/svg" xmlns:xlink="http://www.w3.org/1999/xlink" x="0px" y="0px"
	 viewBox="0 0 273.9 195.6" style="enable-background:new 0 0 273.9 195.6;" xml:space="preserve">
<style type="text/css">
	.st0{fill:#231F20;}
	.st1{fill-rule:evenodd;clip-rule:evenodd;fill:#231F20;}
</style>
<path class="st0" d="M46.9,175.8H13.1c0.5,2.7,2.1,5,4.3,6.6c2.5,1.7,5.5,2.5,8.5,2.4c2.1,0.1,4.2-0.3,6.2-1c1.9-0.7,3.6-1.9,5-3.3
	L44,188c-4.2,4.8-10.4,7.2-18.4,7.2c-4.6,0.1-9.2-0.9-13.4-3c-3.7-1.8-6.8-4.6-9-8.2c-2.1-3.6-3.2-7.7-3.1-11.9
	c0-4.2,1.1-8.3,3.2-11.9c2-3.5,5-6.3,8.5-8.2c3.7-2,7.9-3,12.2-3c4.1-0.1,8.2,0.9,11.9,2.8c3.5,1.8,6.4,4.7,8.3,8.1
	c2.1,3.7,3.1,8,3,12.2C47.1,172.5,47,173.7,46.9,175.8z M16.6,161.5c-2,1.7-3.3,4.2-3.6,6.8h22c-0.3-2.6-1.6-5-3.6-6.8
	c-2-1.7-4.6-2.6-7.3-2.5C21.3,158.9,18.7,159.8,16.6,161.5z"/>
<path class="st0" d="M72.6,191.7c-4.7-2.5-8.6-6.2-11.3-10.7c-5.5-9.6-5.5-21.4,0-31c2.7-4.5,6.6-8.2,11.3-10.6
	c9.3-4.7,20.2-5.1,29.8-1.2c4,1.7,7.5,4.3,10.2,7.6l-8.6,8c-3.6-4.4-9-6.9-14.6-6.8c-3.4-0.1-6.7,0.8-9.6,2.4
	c-2.8,1.5-5.1,3.8-6.6,6.6c-3.2,6-3.2,13.2,0,19.3c1.5,2.8,3.8,5.1,6.6,6.6c3,1.6,6.3,2.4,9.6,2.4c5.7,0.1,11.1-2.5,14.6-6.9l8.6,8
	c-2.8,3.4-6.3,6-10.3,7.7c-4.3,1.8-9,2.7-13.7,2.6C83,195.7,77.5,194.3,72.6,191.7z"/>
<path class="st0" d="M158.5,154.1c3.7,3.3,5.6,8.3,5.6,14.9v25.5H152V189c-2.4,4.2-7,6.2-13.6,6.2c-3.1,0.1-6.1-0.5-8.9-1.7
	c-2.3-1-4.3-2.7-5.8-4.8c-1.3-2.1-2-4.5-2-7c-0.2-3.8,1.6-7.5,4.7-9.8c3.1-2.4,8-3.6,14.5-3.6h10.4c0.2-2.4-0.8-4.8-2.6-6.5
	c-1.7-1.5-4.3-2.3-7.7-2.3c-2.4,0-4.7,0.4-7,1.1c-2.1,0.6-4.1,1.7-5.9,3l-4.6-9c2.7-1.8,5.6-3.2,8.8-4c3.4-0.9,7-1.4,10.5-1.4
	C149.5,149.2,154.8,150.8,158.5,154.1z M147.5,184.9c1.7-1,3-2.6,3.6-4.5v-4.6h-8.9c-5.3,0-8,1.7-8,5.2c0,1.6,0.7,3.1,2,4
	c1.6,1,3.5,1.6,5.4,1.4C143.7,186.5,145.7,186,147.5,184.9L147.5,184.9z"/>
<path class="st0" d="M184.1,193.8c-3-0.7-5.9-1.8-8.5-3.5l4.3-9.3c2.2,1.4,4.7,2.4,7.2,3.1c2.7,0.8,5.5,1.2,8.3,1.2
	c5.5,0,8.2-1.4,8.2-4.1c0-1.3-0.8-2.2-2.2-2.7c-2.2-0.7-4.5-1.2-6.9-1.4c-3.1-0.4-6.1-1.1-9.1-1.9c-2.4-0.7-4.5-2-6.2-3.8
	c-1.7-1.8-2.6-4.4-2.6-7.8c0-2.7,0.8-5.3,2.4-7.5c1.9-2.3,4.3-4.1,7.1-5.1c3.6-1.3,7.3-1.9,11.1-1.8c3.2,0,6.3,0.3,9.4,1
	c2.7,0.5,5.3,1.5,7.8,2.9l-4.3,9.3c-3.9-2.2-8.4-3.4-12.9-3.3c-2.1-0.1-4.3,0.3-6.2,1.2c-1.2,0.5-2,1.7-2.1,3c0,1.4,0.9,2.6,2.2,2.9
	c2.3,0.7,4.7,1.3,7.1,1.6c3,0.5,6,1.1,9,2c2.3,0.7,4.4,2,6,3.7c1.7,1.8,2.6,4.4,2.6,7.6c0,2.7-0.8,5.3-2.5,7.4
	c-1.9,2.3-4.4,4.1-7.3,5c-3.6,1.3-7.5,1.9-11.3,1.8C191.3,195.2,187.7,194.7,184.1,193.8z"/>
<path class="st0" d="M268.8,154.2c3.4,3.3,5.1,8.3,5.1,14.8v25.6h-13V171c0-3.5-0.8-6.2-2.3-7.9c-1.5-1.8-3.8-2.6-6.7-2.6
	c-2.9-0.1-5.7,0.9-7.8,3c-1.9,2-2.9,5-2.9,9v22.1h-12.9v-61.6h13v21.6c1.8-1.7,3.9-3.1,6.2-4c2.6-0.9,5.3-1.4,8-1.4
	C260.9,149.2,265.4,150.8,268.8,154.2z"/>
<path class="st1" d="M115.4,38.1c7.2-4.2,14.5-8.3,21.6-12.5c2.2-1.3,4.8-1.3,7,0l10.7,6.1c0.4,0.3,0.5,0.9,0.2,1.4
	c-0.1,0.1-0.1,0.2-0.2,0.2l-26.1,15c-0.7,0.4-1.1,1.2-1.1,2v12.6c0,0.8,0.4,1.5,1.1,1.8l11,6.3c0.6,0.4,1.4,0.4,2.1,0l45.2-26
	c7.7-4.4,7.7-17.2,0-21.6L146.1,0c-3.5-2.1-7.8-2.1-11.2,0L94.3,23.4c-3.5,2-5.7,5.7-5.7,9.7c0,15.7,0.1,31.2,0,46.8
	c0,4,2.1,7.8,5.7,9.8l40.6,23.4c3.5,2,7.8,2,11.2,0l40.6-23.4c3.5-2,5.6-5.7,5.6-9.8V59.6l-48.3,28c-2.2,1.3-4.8,1.3-7,0l-21.6-12.5
	c-2.2-1.2-3.5-3.5-3.5-6v-25C111.9,41.6,113.2,39.3,115.4,38.1L115.4,38.1z"/>
</svg>
