<svg enable-background="new 0 0 272.6 183" viewBox="0 0 272.6 183" xmlns="http://www.w3.org/2000/svg" xmlns:xlink="http://www.w3.org/1999/xlink"><linearGradient id="a" gradientTransform="matrix(1 0 0 -1 0 183.3498)" gradientUnits="userSpaceOnUse" x1="70.9868" x2="199.5468" y1="207.7477" y2="53.4777"><stop offset="0" stop-color="#273498"/><stop offset=".53" stop-color="#0074c2"/><stop offset="1" stop-color="#00abe7"/></linearGradient><g fill="#fff"><path d="m46.6 163.7h-33.6c.5 2.7 2.1 5 4.3 6.5 2.5 1.7 5.4 2.5 8.4 2.4 2.1 0 4.2-.3 6.2-1 1.9-.7 3.6-1.9 5-3.3l6.9 7.4c-4.2 4.8-10.3 7.2-18.4 7.2-4.6.1-9.2-.9-13.3-3-3.7-1.8-6.8-4.6-8.9-8.1-4.2-7.3-4.2-16.3 0-23.6 2-3.5 5-6.3 8.5-8.2 3.7-2 7.9-3 12.1-2.9 4.1-.1 8.2.9 11.8 2.8 3.5 1.8 6.4 4.6 8.3 8.1 2.1 3.7 3.1 7.9 3 12.2 0 .2-.1 1.4-.3 3.5zm-30.2-14.3c-2 1.7-3.3 4.1-3.6 6.8h21.9c-.3-2.6-1.6-5-3.7-6.7-2-1.7-4.6-2.6-7.3-2.5-2.6-.1-5.2.7-7.3 2.4z"/><path d="m72.2 179.5c-4.7-2.5-8.5-6.1-11.2-10.7-5.5-9.5-5.5-21.3 0-30.8 2.7-4.5 6.6-8.2 11.2-10.7 5-2.6 10.5-3.9 16.1-3.8 4.7-.1 9.3.8 13.6 2.6 3.9 1.7 7.4 4.3 10.2 7.6l-8.6 7.9c-3.6-4.4-8.9-6.8-14.6-6.8-3.3-.1-6.6.7-9.6 2.4-2.8 1.5-5 3.8-6.6 6.6-3.1 6-3.1 13.2 0 19.2 1.5 2.8 3.8 5 6.6 6.6 2.9 1.6 6.2 2.4 9.6 2.4 5.6.1 11-2.5 14.6-6.9l8.6 7.9c-2.7 3.4-6.3 6-10.2 7.7-4.3 1.8-9 2.7-13.6 2.6-5.7.1-11.2-1.2-16.1-3.8z"/><path d="m157.8 142.1c3.7 3.3 5.5 8.2 5.5 14.8v25.4h-12.1v-5.5c-2.4 4.1-6.9 6.2-13.6 6.2-3.1.1-6.1-.5-8.9-1.7-2.3-1-4.3-2.7-5.7-4.8-1.3-2.1-2-4.5-2-6.9-.2-3.8 1.6-7.5 4.7-9.8 3.1-2.4 7.9-3.5 14.4-3.6h10.2c.1-2.4-.8-4.8-2.6-6.5-1.7-1.5-4.3-2.3-7.7-2.3-2.4 0-4.7.4-7 1.1-2.1.6-4.1 1.7-5.8 3l-4.6-9c2.7-1.8 5.6-3.2 8.7-4 3.4-.9 6.9-1.4 10.5-1.4 7 .1 12.3 1.7 16 5zm-11 30.7c1.7-1 3-2.6 3.6-4.5v-4.5h-8.8c-5.3 0-7.9 1.7-7.9 5.2 0 1.6.7 3 1.9 3.9 1.6 1 3.4 1.5 5.3 1.4 2.1 0 4.1-.5 5.9-1.5z"/><path d="m183.2 181.6c-3-.7-5.8-1.8-8.4-3.4l4.3-9.3c2.2 1.4 4.7 2.4 7.2 3.1 2.7.8 5.5 1.2 8.3 1.2 5.5 0 8.2-1.3 8.2-4.1 0-1.3-.9-2.4-2.2-2.7-2.2-.7-4.5-1.2-6.9-1.4-3-.4-6-1.1-9-1.9-2.4-.7-4.5-2-6.2-3.8s-2.6-4.4-2.6-7.8c0-2.7.8-5.3 2.4-7.5 1.8-2.3 4.3-4.1 7.1-5.1 3.5-1.3 7.3-1.9 11-1.8 3.2 0 6.3.3 9.4 1 2.7.5 5.3 1.5 7.7 2.9l-4.3 9.2c-3.9-2.2-8.3-3.3-12.8-3.3-2.1-.1-4.3.3-6.2 1.2-1.2.5-2 1.7-2.1 3 0 1.4.9 2.5 2.2 2.9 2.3.7 4.7 1.3 7.1 1.6 3 .5 6 1.1 8.9 1.9 2.3.7 4.4 2 6 3.8 1.7 1.8 2.6 4.4 2.6 7.6 0 2.7-.8 5.3-2.5 7.4-1.9 2.3-4.4 4.1-7.2 5-3.6 1.3-7.4 1.9-11.2 1.8-3.6-.1-7.2-.6-10.8-1.5z"/><path d="m267.5 142.1c3.4 3.3 5.1 8.2 5.1 14.7v25.5h-12.9v-23.5c0-3.5-.8-6.2-2.3-7.9-1.7-1.8-4.2-2.8-6.7-2.6-2.9-.1-5.7.9-7.8 3-1.9 2-2.9 5-2.9 9v22h-12.9v-61.3h12.9v21.5c1.8-1.7 3.9-3.1 6.2-3.9 2.5-.9 5.2-1.4 7.9-1.4 5.6 0 10 1.6 13.4 4.9z"/></g><path d="m135.9 0c-29.6 0-53.5 24-53.5 53.5s24 53.5 53.5 53.5 53.5-24 53.5-53.5-23.9-53.5-53.5-53.5zm7.1 40.9-5.4-3.1c-1.1-.6-2.4-.6-3.5 0l-11 6.3c-1.1.6-1.7 1.8-1.7 3v12.7c0 1.3.7 2.4 1.8 3.1l10.9 6.3c1.1.6 2.4.6 3.5 0l24.5-14.2v10.3c0 2-1.1 3.9-2.8 4.9l-20.6 11.9c-1.8 1-3.9 1-5.7 0l-20.6-11.9c-1.8-1-2.9-2.9-2.9-4.9 0-7.9 0-15.8 0-23.8 0-2 1.1-3.9 2.9-4.9l20.6-11.8c1.7-1.1 3.9-1.1 5.7 0l20.6 11.9c3.9 2.2 3.9 8.7 0 11l-22.9 13.2c-.3.2-.7.2-1.1 0l-5.6-3.2c-.3-.2-.6-.5-.5-.9v-6.5c0-.4.2-.8.5-1l13.2-7.6c.2-.1.3-.4.1-.7.2 0 .1 0 0-.1z" fill="url(#a)"/></svg>