<?xml version="1.0" encoding="utf-8"?>
<!-- Generator: Adobe Illustrator 16.0.0, SVG Export Plug-In . SVG Version: 6.00 Build 0)  -->
<!DOCTYPE svg PUBLIC "-//W3C//DTD SVG 1.1//EN" "http://www.w3.org/Graphics/SVG/1.1/DTD/svg11.dtd">
<svg version="1.1" id="Layer_1" xmlns="http://www.w3.org/2000/svg" xmlns:xlink="http://www.w3.org/1999/xlink" x="0px" y="0px"
	 width="249.553px" height="309.122px" viewBox="0 0 249.553 309.122" enable-background="new 0 0 249.553 309.122"
	 xml:space="preserve">
<g id="VM3YWc.tif">
	
		<image overflow="visible" width="1024" height="1024" id="Layer_0_1_" xlink:href="BAE1798302874AFB.png"  transform="matrix(0.4382 0 0 0.4382 -947.2231 -73.2114)">
	</image>
</g>
<g id="YpnODz.tif">
	
		<image overflow="visible" width="420" height="512" id="Layer_0_2_" xlink:href="BAE1798302874AF9.png"  transform="matrix(1 0 0 1 -847.0186 -560.8555)">
	</image>
</g>
<path d="M248.686,139.521c8.057-68.52-40.959-130.598-109.478-138.654C70.688-7.19,8.611,41.824,0.555,110.345
	c-0.235,1.993-0.416,3.98-0.555,5.961l89.803,78.08l-27.413-3.224L49.979,296.71l105.548,12.412l12.41-105.549l-25.021-2.942
	l105.354-57.929C248.421,141.646,248.56,140.586,248.686,139.521z M140.004,289.461l-70.366-8.273l8.274-70.365l70.366,8.273
	L140.004,289.461z M136.603,17.93c21.269,2.501,17.834,92.839,17.834,92.839s-23.843-21.37-58.193-6.842
	C96.244,103.927,115.334,15.43,136.603,17.93z M152.213,129.674l-35.235,55.153l-20.89-61.752
	C96.089,123.075,123.072,104.985,152.213,129.674z M108.419,18.21c-17.002,18.204-29.308,83.702-29.308,83.702
	c-27.629-19.72-57.724-8.285-57.724-8.285C42.808,26.068,108.419,18.21,108.419,18.21z M77.914,124.832l17.049,51.12L23.96,112.498
	C23.96,112.498,53.394,96.493,77.914,124.832z M139.862,181.23l28.772-46.031c0,0,26.341-20.262,55.639,0.553L139.862,181.23z
	 M172.751,112.922c0,0,5.105-48.514-8.208-88.113c0,0,57.69,18.763,66.278,93.444C230.822,118.253,207.258,99.61,172.751,112.922z"
	/>
<path d="M-169.542-694.849c-115.98,0-210,94.02-210,210c0,3.374,0.087,6.727,0.245,10.062l189.755,129.438l49-5L40.39-479.456
	c0.045-1.792,0.068-3.59,0.068-5.393C40.458-600.829-53.562-694.849-169.542-694.849z M-170.542-665.849c36,0,48,151.5,48,151.5
	s-44-31-98.5,0C-221.042-514.349-206.542-665.849-170.542-665.849z M-217.542-659.849c-24.813,33.73-32.5,145.5-32.5,145.5
	c-50-27.5-98-2.5-98-2.5C-325.542-633.849-217.542-659.849-217.542-659.849z M-340.042-485.849c0,0,46-32.5,92.5,10l38.5,82
	L-340.042-485.849z M-170.542-383.349l-47-99c0,0,41.5-35.5,95,0L-170.542-383.349z M-133.042-393.849l39-82.5c0,0,40-39,93-10
	L-133.042-393.849z M-91.542-514.349c0,0-1-82-31-145.5c0,0,100,20,129,143C6.458-516.849-36.542-543.349-91.542-514.349z"/>
<path d="M-260.556-361.878v179h179v-179H-260.556z M-111.556-212.878h-119v-120h119V-212.878z"/>
</svg>
