<?xml version="1.0" encoding="UTF-8"?>
<svg width="128pt" height="128pt" version="1.1" viewBox="0 0 128 128" xmlns="http://www.w3.org/2000/svg">
 <path d="m88.066 61.719c-7.5391 0-14.77 2.9961-20.102 8.3281-5.3281 5.3281-8.3242 12.559-8.3242 20.102 0 7.5391 3 14.77 8.3281 20.102 5.3359 5.3281 12.566 8.3242 20.105 8.3242 7.5391-0.003907 14.77-3 20.102-8.3359 5.3281-5.3359 8.3203-12.566 8.3203-20.105-0.011719-7.5352-3.0117-14.758-8.3398-20.086s-12.555-8.3242-20.09-8.3281zm11.586 36.238h0.003906c0.53906 0.48828 0.85938 1.1797 0.875 1.9102 0.019531 0.73047-0.26172 1.4336-0.77344 1.9492-0.51562 0.51953-1.2188 0.80078-1.9492 0.78516-0.73047-0.015624-1.4219-0.32812-1.9102-0.87109l-7.8242-7.8242-7.8281 7.8242c-0.5 0.5-1.1758 0.78125-1.8789 0.78516-0.71094 0-1.3906-0.28516-1.8945-0.78516-0.5-0.5-0.78125-1.1797-0.78125-1.8906 0-0.70312 0.28125-1.3867 0.78125-1.8867l7.8242-7.8164-7.8242-7.8242c-1.0391-1.0391-1.0391-2.7305 0-3.7734 1.0469-1.0391 2.7344-1.0391 3.7734 0l7.8242 7.8242 7.8242-7.8242h0.003907c1.0547-0.94922 2.6719-0.91016 3.6758 0.10156 1.0039 1.0039 1.0391 2.625 0.085937 3.6758l-7.8164 7.8242zm-48.867-24.562c0 0.70312-0.28125 1.3867-0.78125 1.8867s-1.1797 0.78125-1.8867 0.78125h-21.066c-1.4766 0-2.6719-1.1914-2.6719-2.6641 0-1.4766 1.1953-2.6641 2.6719-2.6641h21.066c0.70312 0 1.3867 0.28125 1.8867 0.78125s0.78125 1.1797 0.78125 1.8867zm-26.398-9.5586c0-1.4766 1.1953-2.6641 2.6719-2.6641h11.52c1.4688 0 2.6641 1.1914 2.6641 2.6641 0 1.4766-1.1953 2.6641-2.6641 2.6641h-11.52c-1.4766 0-2.6719-1.1914-2.6719-2.6641zm16.855 19.105c0 0.71094-0.28125 1.3867-0.78125 1.8867s-1.1797 0.78516-1.8867 0.78516h-11.52c-1.4766 0-2.6719-1.1953-2.6719-2.6719 0-1.4688 1.1953-2.6641 2.6719-2.6641h11.52c1.4688 0 2.6641 1.1953 2.6641 2.6641zm-1.3984-52.84h-26.895l10.07-19.238c0.44922-0.86328 1.3398-1.4102 2.3203-1.4258h18.488l-3.9297 19.441c-0.019532 0.17578-0.019532 0.35547 0 0.53516zm16.785 11.559-11.449 6.3359v-12.559h25.488v12.559l-11.465-6.3203c-0.80078-0.44531-1.7695-0.44922-2.5742-0.015625zm14.039-11.559h-25.488v-0.42578l4.1602-20.238h17.336l3.9961 20.238zm5.3359-1.2266-4-19.441h18.465c0.98828 0 1.8984 0.55078 2.3594 1.4258l10.078 19.238h-26.906v-0.69531 0.003906c0.015625-0.17969 0.015625-0.35547 0-0.53516zm12.105 27.504c5.6914-0.003906 11.289 1.4336 16.27 4.1914v-25.137h-28.375v17.066c0 0.71094-0.28125 1.3867-0.78125 1.8867s-1.1797 0.78516-1.8867 0.78516c-0.46875 0.003906-0.92578-0.10938-1.3359-0.33594l-14.137-7.8008-14.137 7.8008h0.003907c-0.82422 0.47656-1.8438 0.47656-2.6719 0-0.82422-0.47656-1.3281-1.3555-1.3281-2.3047v-17.094h-28.23v59.773c0 0.70312 0.28516 1.3867 0.78516 1.8867s1.1758 0.78125 1.8867 0.78125h41.039c-2.3789-10.039-0.03125-20.613 6.375-28.707 6.4062-8.0898 16.16-12.801 26.477-12.789zm-61.051 4.7891h11.52c1.4688 0 2.6641 1.1914 2.6641 2.6641 0 1.4766-1.1953 2.6641-2.6641 2.6641h-11.52c-1.4766 0-2.6719-1.1914-2.6719-2.6641 0-1.4766 1.1953-2.6641 2.6719-2.6641zm11.52 24.441h-11.52c-1.4766 0-2.6719-1.1953-2.6719-2.6719 0-1.4688 1.1953-2.6641 2.6719-2.6641h11.52c1.4688 0 2.6641 1.1953 2.6641 2.6641 0 1.4766-1.1953 2.6719-2.6641 2.6719zm9.5469-9.5469-21.066-0.003906c-1.4766 0-2.6719-1.1914-2.6719-2.6641 0-1.4766 1.1953-2.6641 2.6719-2.6641h21.066c1.4766 0 2.6641 1.1914 2.6641 2.6641 0 1.4766-1.1914 2.6641-2.6641 2.6641z" fill="#00abe6"/>
</svg>
