<?xml version="1.0" encoding="UTF-8"?>
<svg width="128pt" height="128pt" version="1.1" viewBox="0 0 128 128" xmlns="http://www.w3.org/2000/svg">
 <path d="m113.27 48.602c-0.40625 0-0.82422-0.050781-1.2461-0.12891-1.5859-0.32422-2.9258-1.2461-3.8086-2.5859l-16.914-25.746c-1.7461-2.6484-1.0938-6.2031 1.4688-8.0742l11.227-8.1758c0.82422-0.57812 1.9688-0.40625 2.5859 0.40625 0.60156 0.80859 0.42188 1.9531-0.40625 2.5703l-11.211 8.1562c-0.98438 0.72656-1.2461 2.1016-0.56641 3.1211l16.914 25.75c0.33984 0.51562 0.87109 0.87109 1.4688 1 0.62891 0.12891 1.2461 0 1.7617-0.33984l7.6758-5.0117c0.85547-0.55078 2.0039-0.32422 2.5703 0.51562 0.55078 0.85547 0.32422 1.9844-0.53516 2.5352l-7.6758 5.0234c-0.98438 0.64453-2.1289 0.98437-3.3086 0.98437" fill="#00abe6"/>
 <path d="m19.023 47.035c-1.0195 0-2.0703-0.26172-3.0039-0.78906l-12.066-6.8633c-0.89062-0.50391-1.1953-1.6367-0.67969-2.5039 0.5-0.875 1.6367-1.1797 2.5195-0.67969l12.066 6.8633c1.0664 0.61328 2.4414 0.28906 3.1211-0.74609l16.961-25.715c0.33984-0.51562 0.44922-1.1289 0.32422-1.7461-0.12891-0.60156-0.48438-1.1133-1.0195-1.4531l-13.258-7.9609c-0.89062-0.53516-1.1641-1.6641-0.62891-2.5195s1.6641-1.1445 2.5352-0.61328l13.309 7.9961c1.4062 0.89062 2.3398 2.2305 2.6797 3.7969 0.33984 1.5664 0.03125 3.1641-0.85547 4.5039l-16.945 25.715c-1.1641 1.7617-3.0859 2.7148-5.0547 2.7148" fill="#00abe6"/>
 <path d="m100.47 53.203c-0.39062 0-0.77344-0.11328-1.1016-0.35547l-28.426-20.898-8.0312 0.33594c-4.8594 6.5117-11.422 9.5156-15.492 9.0781-2.1016-0.21094-3.6484-1.2734-4.3594-2.9688-1.2891-3.1016 0.5-7.7852 5.1836-13.555 0.26172-0.30469 0.48437-0.61328 0.71094-0.92188 1.0781-1.4414 2.3086-3.0703 4.5234-3.6641l18.234-4.9453c1.7969-0.48438 3.7305-0.33984 5.4609 0.42188 7.2695 3.2148 15.199 1.6289 15.281 1.6133 1-0.21094 1.9844 0.42188 2.1953 1.4219 0.21094 0.98438-0.43359 1.9531-1.4414 2.1641-0.37109 0.066406-9.1914 1.8398-17.547-1.8398-0.95312-0.43359-2.0195-0.51562-2.9883-0.23828l-18.215 4.9258c-0.93359 0.26172-1.5859 1.0508-2.5352 2.3398-0.26172 0.33984-0.51562 0.67969-0.78906 1.0195-4.2812 5.2656-5.1836 8.5938-4.6484 9.8555 0.050781 0.16016 0.26172 0.62891 1.3086 0.74609 2.6992 0.26172 8.3203-2.1133 12.613-8.2695 0.33984-0.48438 0.87109-0.77344 1.4531-0.80859l9.5781-0.39062c0.43359-0.015625 0.83984 0.11328 1.1797 0.35547l27.879 20.5 8.1914-5.7344c0.83984-0.57812 1.9844-0.39062 2.5703 0.43359 0.60156 0.82422 0.40625 1.9688-0.43359 2.5508l-9.2891 6.5117c-0.32422 0.21094-0.69531 0.32422-1.0664 0.32422" fill="#00abe6"/>
 <path d="m52.316 24.723c-0.12891 0-0.27344-0.015625-0.40625-0.050781-1.0195-0.23828-10-2.3398-13.68-5.7188-0.76172-0.69531-0.80859-1.8594-0.11328-2.6016 0.71094-0.74609 1.875-0.77344 2.6133-0.09375 2.5195 2.3086 9.5156 4.2812 12 4.8281 1 0.23828 1.6133 1.2109 1.3906 2.2148-0.19531 0.83984-0.95312 1.4219-1.8086 1.4219" fill="#00abe6"/>
 <path d="m28.039 53.203c-0.51562 0-1.0352-0.21094-1.4062-0.64453l-6.2188-7.2539c-0.66016-0.77344-0.56641-1.9219 0.21094-2.5859 0.78906-0.64453 1.9531-0.56641 2.6133 0.21094l6.2188 7.2695c0.66016 0.76172 0.55078 1.9219-0.22656 2.5703-0.33984 0.28906-0.77344 0.43359-1.1953 0.43359" fill="#00abe6"/>
 <path d="m36.035 49.586c-0.80859 0-1.6016 0.32422-2.1641 0.96875l-4.7656 5.3789c-0.5 0.56641-0.76172 1.3086-0.71094 2.0508 0.050781 0.76172 0.39062 1.4531 0.96875 1.9688 0.57812 0.5 1.3242 0.74609 2.0859 0.69531 0.77344-0.050782 1.4688-0.39063 1.9844-0.96875l4.7656-5.3633c1.0352-1.1953 0.92188-3.0039-0.27344-4.0391-0.55078-0.46875-1.2109-0.69531-1.8906-0.69531zm-4.7812 14.73c-1.6016 0-3.1211-0.56641-4.3281-1.6133-1.3086-1.1445-2.1016-2.7305-2.2305-4.4766-0.09375-1.7305 0.46875-3.4102 1.6289-4.7148l4.7656-5.3789c2.3906-2.6992 6.5586-2.9531 9.2695-0.60156 1.3242 1.1445 2.1133 2.7305 2.2305 4.4766 0.11328 1.7305-0.46875 3.4102-1.6289 4.7148l-4.75 5.3789c-1.1641 1.3086-2.7617 2.0859-4.5234 2.1953-0.14453 0.015625-0.28906 0.015625-0.43359 0.015625" fill="#00abe6"/>
 <path d="m45.66 53.48c-0.066406 0-0.12891 0.015625-0.19531 0.015625-0.77344 0.050781-1.4688 0.39062-1.9844 0.95312l-7.6914 8.6914c-0.5 0.56641-0.76172 1.3086-0.69531 2.0703 0.050781 0.76172 0.39062 1.4531 0.96875 1.9531s1.3242 0.74609 2.0859 0.69531c0.76172-0.050781 1.4688-0.39062 1.9688-0.96875l7.6914-8.6758c0.51562-0.56641 0.76172-1.3086 0.71094-2.0703s-0.39062-1.4531-0.96875-1.9531c-0.53516-0.46875-1.1953-0.71094-1.8906-0.71094zm-7.7031 18.047c-1.5352 0-3.0859-0.53516-4.3281-1.6133-1.3242-1.1445-2.1133-2.7305-2.2305-4.4766-0.11328-1.7305 0.44922-3.4102 1.6133-4.7148l7.6914-8.6758c1.1641-1.3086 2.7617-2.1016 4.5234-2.2148 1.7617-0.11328 3.4414 0.46875 4.75 1.6133 1.3398 1.1445 2.1133 2.7305 2.2461 4.4609 0.11328 1.7461-0.46875 3.4258-1.6289 4.7344l-7.6914 8.6758c-1.2891 1.4688-3.1211 2.2148-4.9453 2.2148" fill="#00abe6"/>
 <path d="m52.27 59.973h-0.19531c-0.76172 0.050782-1.4688 0.39062-1.9688 0.96875l-6.9961 7.8984c-0.5 0.56641-0.76172 1.2891-0.71094 2.0508 0.050781 0.76172 0.39062 1.4531 0.96875 1.9531 0.57812 0.51562 1.3398 0.76172 2.0859 0.71094 0.77344-0.050782 1.4688-0.40625 1.9844-0.96875l6.9961-7.8867c0.5-0.57812 0.76172-1.3086 0.71094-2.0703-0.066406-0.76172-0.40625-1.4531-0.98438-1.9688-0.53516-0.44922-1.1953-0.69531-1.8906-0.69531zm-7.0117 17.25c-1.6016 0-3.1211-0.56641-4.3281-1.6133-1.3242-1.1445-2.1016-2.7305-2.2305-4.4766-0.09375-1.7305 0.46875-3.4102 1.6289-4.7148l6.9961-7.8984c2.3906-2.6992 6.5586-2.9688 9.2695-0.60156 2.7305 2.375 3.0039 6.4961 0.61328 9.1914l-6.9961 7.8984c-1.1641 1.3086-2.7617 2.0859-4.5234 2.1953-0.14453 0.015625-0.28906 0.015625-0.43359 0.015625" fill="#00abe6"/>
 <path d="m57.73 67.68c-0.78906 0-1.6016 0.32422-2.1641 0.96875l-4.0391 4.5391c-1.0352 1.1953-0.92188 2.9883 0.27344 4.0195 1.1953 1.0508 3.0039 0.92188 4.0547-0.26172l4.0391-4.5547c0.5-0.56641 0.76172-1.3086 0.71094-2.0508-0.066407-0.77344-0.40625-1.4531-0.96875-1.9688-0.55078-0.46875-1.2305-0.69531-1.9062-0.69531zm-4.0391 13.906c-1.5352 0-3.0859-0.53516-4.3281-1.6133-2.7305-2.375-3.0039-6.4961-0.61328-9.1914l4.0391-4.5547c1.1641-1.3086 2.7617-2.0859 4.5039-2.1953 1.7734-0.11328 3.4531 0.44922 4.7656 1.6016 1.3242 1.1445 2.1133 2.7305 2.2305 4.4766 0.11328 1.7305-0.44922 3.4102-1.6133 4.7148l-4.0391 4.5547c-1.2891 1.4531-3.1211 2.2148-4.9453 2.2148" fill="#00abe6"/>
 <path d="m95.945 62.48c-1.4062 0-2.7969-0.39062-4.0039-1.1641l-17.09-10.695c-0.87109-0.53516-1.1289-1.6641-0.57812-2.5195 0.55078-0.85547 1.6953-1.1133 2.5508-0.56641l17.09 10.695c0.87109 0.53516 1.9062 0.72656 2.9102 0.48438 1-0.21094 1.8594-0.80859 2.4062-1.6797 0.96875-1.5195 0.72656-3.5391-0.60156-4.7812-0.74609-0.71094-1.6133-1.2891-2.5703-1.7109-0.93359-0.40625-1.3555-1.5-0.93359-2.4258 0.42188-0.92188 1.5195-1.3242 2.4531-0.92188 1.3242 0.60156 2.5352 1.4062 3.6016 2.3906 2.6016 2.4531 3.0859 6.4141 1.1641 9.4141-1.0664 1.6797-2.7461 2.8594-4.7148 3.2969-0.55078 0.12891-1.1133 0.17969-1.6797 0.17969" fill="#00abe6"/>
 <path d="m89.309 67.391c-1.5352 0-3.1016-0.33984-4.5898-1.0664l-14.086-6.8867c-0.90625-0.44922-1.2891-1.5508-0.83984-2.4531 0.44922-0.90625 1.5508-1.2734 2.4883-0.82422l14.086 6.8789c3.0547 1.4844 6.7344 0.46875 8.5469-2.3906 0.55078-0.85547 1.6953-1.1133 2.5508-0.56641 0.87109 0.53516 1.1289 1.6641 0.57812 2.5195-1.9531 3.0703-5.3008 4.7812-8.7383 4.7812" fill="#00abe6"/>
 <path d="m80.969 72.301c-1.1641 0-2.3398-0.23828-3.4414-0.76172l-5.8633-2.7305c-0.92187-0.43359-1.3086-1.5195-0.89062-2.4414 0.43359-0.90625 1.5352-1.3086 2.4688-0.87109l5.8516 2.7305c2.0195 0.92188 4.4258 0.22656 5.6211-1.6289l1.4062-2.1797c0.55078-0.85547 1.6797-1.1133 2.5508-0.56641 0.85547 0.53516 1.1133 1.6641 0.56641 2.5195l-1.3906 2.1797c-1.5352 2.4062-4.1719 3.75-6.8789 3.75" fill="#00abe6"/>
 <path d="m72.332 79.129c-1.5508 0-3.1211-0.28906-4.6211-0.90625l-7.1406-2.9258c-0.93359-0.39062-1.3906-1.4531-1-2.3906 0.39063-0.93359 1.4688-1.375 2.4258-1l7.125 2.9258c3.3594 1.375 7.125 0.46875 9.1758-2.1484 0.16016-0.22656 0.30469-0.43359 0.44922-0.66016l1.2305-1.9062c0.55078-0.85547 1.6797-1.1133 2.5508-0.57813 0.85547 0.55078 1.1133 1.6797 0.56641 2.5352l-1.2109 1.9062c-0.21094 0.33984-0.43359 0.64453-0.66016 0.95312-2.1133 2.7148-5.4297 4.1992-8.8867 4.1992" fill="#00abe6"/>
 <path d="m42.227 124.61h-32.086c-3.6719 0-6.6602-2.9844-6.6602-6.6602v-18.648c0-3.6719 2.9844-6.6602 6.6602-6.6602l32.086 0.003906c3.6719 0 6.6602 2.9883 6.6602 6.6602v18.648c0 3.6758-2.9844 6.6602-6.6602 6.6602zm-32.086-28.922c-1.9883 0-3.6094 1.6211-3.6094 3.6133v18.648c0 1.9883 1.6211 3.6094 3.6094 3.6094h32.086c1.9883 0 3.6094-1.6211 3.6094-3.6094l0.003906-18.656c0-1.9961-1.6211-3.6133-3.6094-3.6133z" fill="#00abe6"/>
 <path d="m38.676 105.92h-24.984c-0.83984 0-1.5234-0.67969-1.5234-1.5234 0-0.83984 0.67969-1.5234 1.5234-1.5234h24.988c0.83984 0 1.5234 0.67969 1.5234 1.5234 0 0.83984-0.67969 1.5234-1.5234 1.5234z" fill="#00abe6"/>
 <path d="m27.129 114.38h-13.441c-0.83984 0-1.5234-0.67969-1.5234-1.5234 0-0.83984 0.67969-1.5234 1.5234-1.5234l13.441 0.003907c0.83984 0 1.5234 0.67969 1.5234 1.5234 0 0.83984-0.67969 1.5234-1.5234 1.5234z" fill="#00abe6"/>
 <path d="m38.676 114.38h-2.4609c-0.83984 0-1.5234-0.67969-1.5234-1.5234 0-0.83984 0.67969-1.5234 1.5234-1.5234h2.4609c0.83984 0 1.5234 0.67969 1.5234 1.5234 0 0.83984-0.67969 1.5234-1.5234 1.5234z" fill="#00abe6"/>
 <path d="m83.129 110.15h-28.031c-0.83984 0-1.5234-0.67969-1.5234-1.5234 0-0.83984 0.67969-1.5234 1.5234-1.5234h28.031c0.83984 0 1.5234 0.67969 1.5234 1.5234 0 0.83984-0.67969 1.5234-1.5234 1.5234z" fill="#00abe6"/>
 <path d="m106.6 125.89c-9.5156 0-17.254-7.7461-17.254-17.266 0-9.5156 7.7383-17.254 17.254-17.254 9.5195 0 17.266 7.7383 17.266 17.254 0 9.5195-7.7461 17.266-17.266 17.266zm0-31.477c-7.8359 0-14.211 6.375-14.211 14.211 0 7.8398 6.375 14.219 14.211 14.219 7.8398 0 14.219-6.375 14.219-14.219 0-7.8359-6.375-14.211-14.219-14.211z" fill="#00abe6"/>
 <path d="m106.52 118.96c-3.2656 0-5.9258-2.6602-5.9258-5.9297 0-0.69922 0.56641-1.2656 1.2656-1.2656s1.2656 0.56641 1.2656 1.2656c0 1.875 1.5195 3.3984 3.3906 3.3984s3.3906-1.5234 3.3906-3.3984c0-1.8711-1.5195-3.3906-3.3906-3.3906-3.2656 0-5.9258-2.6602-5.9258-5.9297 0-3.2656 2.6562-5.9258 5.9258-5.9258 3.2656 0 5.9258 2.6562 5.9258 5.9258 0 0.69922-0.56641 1.2656-1.2656 1.2656s-1.2656-0.56641-1.2656-1.2656c0-1.8711-1.5195-3.3906-3.3906-3.3906-1.8711 0-3.3906 1.5195-3.3906 3.3906 0 1.875 1.5195 3.3984 3.3906 3.3984 3.2656 0 5.9258 2.6562 5.9258 5.9258 0 3.2695-2.6602 5.9297-5.9258 5.9297z" fill="#00abe6"/>
 <path d="m106.52 121.41c-0.69922 0-1.2656-0.56641-1.2656-1.2656v-2.4453c0-0.69922 0.56641-1.2656 1.2656-1.2656s1.2656 0.56641 1.2656 1.2656v2.4453c0 0.69922-0.56641 1.2656-1.2656 1.2656z" fill="#00abe6"/>
 <path d="m106.52 100.33c-0.69922 0-1.2656-0.56641-1.2656-1.2656v-2.4453c0-0.69922 0.56641-1.2656 1.2656-1.2656s1.2656 0.56641 1.2656 1.2656v2.4453c0 0.69922-0.56641 1.2656-1.2656 1.2656z" fill="#00abe6"/>
</svg>
