<?xml version="1.0" encoding="UTF-8"?>
<svg width="128pt" height="128pt" version="1.1" viewBox="0 0 128 128" xmlns="http://www.w3.org/2000/svg">
 <path d="m24.387 87.551 0.078125-4.2812c0-0.050781-0.019532-0.09375-0.050782-0.12891s-0.074218-0.054687-0.11328-0.054687l-13.359-0.25391c-0.050781 0-0.09375 0.019531-0.12891 0.050781s-0.054688 0.074219-0.054688 0.11328l-0.67578 35.426c0 0.03125 0.003907 0.058594 0.003907 0.089844h-0.003907v0.019531c0 0.050781 0.019531 0.09375 0.050781 0.12891 0.023438 0.023438 0.050782 0.039063 0.078126 0.050782h0.015624v0.003906l0.019532 0.003906 13.25 0.25c0.03125 0 0.058594-0.003906 0.089844-0.003906v0.003906h0.019531c0.050781 0 0.09375-0.019531 0.12891-0.050781 0.023437-0.023438 0.039063-0.050781 0.050781-0.078125v-0.015625h0.003906l0.003907-0.019531 0.59375-31.25zm15.969-4.0234v-41.305c0-0.73047 0.58984-1.3203 1.3203-1.3203h49.469c0.73047 0 1.3203 0.58984 1.3203 1.3203v33.91c1.8008-0.62891 3.6484-0.48047 5.2969 0.20313 1 0.42187 1.9219 1.0391 2.6953 1.8047 0.77344 0.76562 1.4102 1.6758 1.8398 2.6719 1.1406 2.6211 0.91406 5.7891-1.7266 8.4688l-26.703 27.156c-2.0586 2.1094-6 3.4883-10.227 4.1914-4.8008 0.79688-10.066 0.73047-13.32-0.15625l-17.52-4.7695-6.3203-0.12109-0.058594 3.2383h0.003906c0 0.066407-0.003906 0.125-0.015625 0.18359-0.054687 0.71094-0.37109 1.3438-0.85156 1.8047-0.51172 0.49609-1.2109 0.78906-1.9688 0.78516v0.003906c-0.046875 0-0.09375-0.003906-0.14062-0.011718l-13.219-0.25v0.003906c-0.066407 0-0.125-0.003906-0.18359-0.015625-0.71094-0.054688-1.3438-0.37109-1.8047-0.85156-0.49609-0.51172-0.78906-1.2109-0.78516-1.9688h-0.003906c0-0.046875 0.003906-0.09375 0.011719-0.14062l0.67578-35.41c0.015625-0.77344 0.34375-1.4766 0.85938-1.9688 0.51562-0.49609 1.2188-0.80078 1.9961-0.78516l13.359 0.25391c0.77344 0.015625 1.4766 0.34375 1.9688 0.85938 0.49609 0.51562 0.80078 1.2188 0.78516 1.9961l-0.054687 2.9688 6.1953 0.12109c2.8633-1.3203 5.1406-2.2539 7.1211-2.875zm51.609-4.1719c-0.023438 0.019531-0.050782 0.039062-0.078125 0.058593-0.23828 0.17969-0.46875 0.38672-0.69922 0.61328l-12.246 12.414c-0.046875 0.875-0.26172 1.7383-0.64062 2.5234-0.95312 1.9766-2.9102 3.4453-5.8359 3.3906l-15.09-0.28906c-0.72656-0.011718-1.3047-0.60938-1.2969-1.3359 0.011719-0.72656 0.60938-1.3047 1.3359-1.2969l15.09 0.28906c1.7383 0.035156 2.8867-0.79688 3.4219-1.9102 0.23828-0.48828 0.36328-1.0352 0.39062-1.5898 0.003906-0.089844 0.003906-0.18359 0-0.27344v-0.039063s-0.003906-0.050781-0.003906-0.050781c-0.011719-0.054687-0.011719-0.11328-0.011719-0.17188-0.035156-0.37891-0.12109-0.75391-0.25391-1.1133-0.48047-1.2539-1.625-2.2812-3.4492-2.4102l-14.582-1.0234c-0.074219-0.003906-0.14453-0.015625-0.21094-0.03125-1.0664-0.23047-1.7188-0.37109-2.3281-0.50391-8.9102-1.9492-11.172-2.4453-21.41 2.3047-0.21094 0.10156-0.44141 0.13672-0.65625 0.11328l-6.4258-0.125-0.46094 24.043 6.5 0.125c0.10937 0 0.21875 0.019532 0.32422 0.046875v-0.003906l17.66 4.8086c2.9297 0.79688 7.7539 0.83984 12.203 0.10547 3.7305-0.61328 7.1289-1.7617 8.7617-3.4297l26.715-27.164c1.7656-1.7891 1.9297-3.8711 1.1914-5.5742-0.30078-0.68359-0.73438-1.3164-1.2734-1.8438-0.53906-0.53125-1.1719-0.96094-1.8594-1.25-1.4648-0.61328-3.2031-0.55859-4.7812 0.58594zm-42.016 0.050781h10.496c0.73047 0 1.3203-0.58984 1.3203-1.3203 0-0.73047-0.58984-1.3203-1.3203-1.3203h-10.496c-0.73047 0-1.3203 0.58984-1.3203 1.3203 0 0.73047 0.58984 1.3203 1.3203 1.3203zm20.414-21.559-3.9609-3.9609-3.9609 3.9609c-0.039062 0.046875-0.089844 0.085938-0.13672 0.125-0.023438 0.019532-0.050782 0.039063-0.078126 0.058594-0.023437 0.019531-0.054687 0.035156-0.085937 0.050781-0.19141 0.10547-0.41016 0.16406-0.64062 0.16406-0.23438 0-0.44922-0.058594-0.64062-0.16406-0.03125-0.015625-0.054687-0.035156-0.085937-0.050781-0.023438-0.019531-0.054688-0.039062-0.078126-0.058594-0.089843-0.070312-0.17187-0.14844-0.23828-0.23828-0.019531-0.023437-0.039062-0.050781-0.058593-0.078125-0.019532-0.03125-0.035157-0.054688-0.050782-0.085938-0.10547-0.19141-0.16406-0.41016-0.16406-0.64453v-13.391h-17.195v39.309c4.0547-0.78125 7.2344-0.085938 13.039 1.1836 0.81641 0.17969 1.6719 0.36328 2.2539 0.48828l14.48 1.0195c2.8438 0.19922 4.7031 1.7695 5.5898 3.7461l10.949-11.102c0.17188-0.17188 0.33984-0.33594 0.51562-0.48438v-34.164h-17.195v13.391c0 0.23438-0.058594 0.44922-0.16406 0.64062-0.015625 0.03125-0.035156 0.054688-0.050781 0.085938-0.019531 0.03125-0.035156 0.054687-0.058594 0.078124-0.070312 0.089844-0.14844 0.17188-0.23828 0.23828-0.023437 0.019531-0.050781 0.039062-0.078125 0.058594-0.023438 0.019531-0.054688 0.035156-0.085938 0.050781-0.19141 0.10547-0.41016 0.16406-0.64062 0.16406-0.23438 0-0.44922-0.058593-0.64063-0.16406-0.03125-0.015625-0.054687-0.035157-0.085937-0.050781-0.023437-0.019532-0.054687-0.039063-0.078125-0.058594-0.050781-0.035156-0.09375-0.078125-0.13672-0.125zm-7.5391-4.1055 2.6484-2.6484c0.51562-0.51562 1.3516-0.51562 1.8633 0l2.6484 2.6484v-10.203h-7.1719v10.203zm1.3555-46.02c0-0.73047 0.58984-1.3203 1.3203-1.3203s1.3203 0.58984 1.3203 1.3203v14.711c0 0.73047-0.58984 1.3203-1.3203 1.3203s-1.3203-0.58984-1.3203-1.3203zm-26.121 8.1914c-0.35938-0.62891-0.14453-1.4297 0.48438-1.7969 0.62891-0.35938 1.4297-0.14453 1.7969 0.48437l7.3555 12.738c0.35938 0.62891 0.14453 1.4297-0.48437 1.7969-0.62891 0.35938-1.4297 0.14453-1.7969-0.48438zm-18.527 20.156 12.738 7.3555c0.62891 0.36328 1.4336 0.14844 1.8008-0.48047 0.36328-0.62891 0.14844-1.4336-0.48047-1.8008l-12.738-7.3555c-0.62891-0.36328-1.4336-0.14844-1.8008 0.48047-0.36328 0.62891-0.14844 1.4336 0.48047 1.8008zm-5.9648 26.715h14.711c0.72656 0 1.3164-0.58984 1.3164-1.3164s-0.58984-1.3164-1.3164-1.3164h-14.711c-0.72656 0-1.3164 0.58984-1.3164 1.3164s0.58984 1.3164 1.3164 1.3164zm105.68-4.4453h-14.711c-0.72656 0-1.3164 0.58984-1.3164 1.3164s0.58984 1.3164 1.3164 1.3164h14.711c0.72656 0 1.3164-0.58984 1.3164-1.3164s-0.58984-1.3164-1.3164-1.3164zm-8.1914-26.125-12.738 7.3555c-0.62891 0.35938-0.84375 1.1641-0.48438 1.7969 0.35938 0.62891 1.1641 0.84375 1.7969 0.48437l12.738-7.3555c0.62891-0.35938 0.84375-1.1641 0.48438-1.7969-0.35938-0.62891-1.1641-0.84375-1.7969-0.48438zm-20.156-18.527c0.36328-0.62891 1.1719-0.84375 1.8008-0.48047 0.62891 0.36328 0.84375 1.1719 0.48047 1.8008l-7.3555 12.738c-0.36328 0.62891-1.1719 0.84375-1.8008 0.48047-0.62891-0.36328-0.84375-1.1719-0.48047-1.8008z" fill="#00abe6" fill-rule="evenodd"/>
</svg>
