<?xml version="1.0" encoding="UTF-8"?>
<svg width="128pt" height="128pt" version="1.1" viewBox="0 0 128 128" xmlns="http://www.w3.org/2000/svg">
 <path d="m72.281 30.234h20.676c0.92578-0.078125 1.6406-0.85547 1.6406-1.7852 0-0.93359-0.71484-1.7109-1.6406-1.7891h-20.676c-0.92578 0.078125-1.6406 0.85547-1.6406 1.7891 0 0.92969 0.71484 1.7031 1.6406 1.7852zm24.707-14.949c0.26953-2.3711-0.35938-4.6094-2.9961-4.9141-3.1992-0.35938-5.2109 1.3711-7.4492 3.2891l-1.1641 0.98438c2.8945 1.3789 5.9883 1.625 10.238 0.87109 0.46094-0.074219 0.93359-0.16406 1.4219-0.23047zm-4.5781 8.3203h-19.559c-1.7969-1.5859-3.1719-3.5898-3.9961-5.8398-1.0117-2.8047-1.2812-6.9766 2.3945-7.3984 3.1992-0.35938 5.2109 1.3711 7.4492 3.2891 4.2734 3.6602 8.1797 6.5312 17.395 4.875v0.003906c-0.84375 1.9531-2.1016 3.6992-3.6836 5.1211zm-8.2617 41.586c0.039062 0.42969-0.10156 0.85547-0.39453 1.1758-0.28906 0.32031-0.69922 0.5-1.1289 0.5-0.43359 0-0.84375-0.17969-1.1367-0.5-0.29688-0.32031-0.43359-0.74609-0.39453-1.1758-1.9219-0.66016-3.2109-2.4648-3.2148-4.4883-0.039062-0.42969 0.10547-0.85938 0.39453-1.1797 0.28906-0.31641 0.70312-0.5 1.1367-0.5 0.42969 0 0.84375 0.18359 1.1367 0.5 0.28906 0.32031 0.43359 0.75 0.39453 1.1797 0 0.67969 0.41016 1.2969 1.0391 1.5586 0.63672 0.26172 1.3594 0.11328 1.8438-0.37109 0.48047-0.48047 0.625-1.2109 0.36328-1.8398-0.26172-0.62891-0.87891-1.0391-1.5586-1.0391-1.9219 0-3.6562-1.1562-4.3906-2.9297-0.73438-1.7695-0.33594-3.8164 1.0234-5.1758 0.51562-0.51172 1.1406-0.89844 1.8281-1.1406-0.039063-0.42969 0.10156-0.85547 0.39453-1.1758 0.28906-0.32031 0.69922-0.5 1.1367-0.5 0.42969 0 0.83984 0.17969 1.1289 0.5 0.29688 0.32031 0.43359 0.74609 0.39453 1.1758 1.9258 0.65625 3.2188 2.4609 3.2305 4.4961 0 0.85156-0.69141 1.5352-1.5391 1.5352-0.84375 0-1.5352-0.68359-1.5352-1.5352 0-0.68359-0.41016-1.3008-1.0469-1.5664-0.63672-0.26172-1.3594-0.10937-1.8438 0.375-0.48047 0.48438-0.62109 1.2148-0.35547 1.8438 0.26562 0.62891 0.88672 1.0391 1.5703 1.0352 1.8945 0.019531 3.5938 1.1719 4.3242 2.9219s0.34375 3.7695-0.96875 5.1289c-0.51953 0.51172-1.1445 0.89844-1.8359 1.1406zm4.8906-15.566c-1.5-2.0312-3.875-3.2266-6.3984-3.2266-2.5195 0-4.8945 1.1953-6.3984 3.2266-3.7266 4.8398-3.7266 11.578 0 16.426 1.5039 2.0195 3.8789 3.2148 6.3984 3.2148 2.5234 0 4.8945-1.1953 6.3984-3.2148 3.7266-4.8438 3.7266-11.586 0-16.426zm-6.3984-6.3242c-3.4336 0.054688-6.6602 1.6602-8.7812 4.3633-4.6758 5.9688-4.6758 14.359 0 20.332 2.0781 2.75 5.3242 4.3711 8.7734 4.3711 3.4492 0 6.6953-1.6211 8.7734-4.3711 4.6758-5.9688 4.6758-14.359 0-20.332-2.1133-2.7031-5.3359-4.3086-8.7695-4.3633zm-60.465 39.129-9.7812 5.6602c-0.87891 0.52344-1.1914 1.6562-0.70312 2.5586l15.27 26.512c0.53516 0.91016 1.7031 1.2266 2.625 0.69922l9.7812-5.6602v0.003906c0.87891-0.53125 1.1914-1.6562 0.70312-2.5586l-15.27-26.445c-0.53125-0.87891-1.6562-1.1914-2.5586-0.70312zm5.9414 0.33594 16.359-9.4453c2.1641-1.2812 6.2695-2.4297 8.7305-1.2812l25.035 11.855v-0.003906c2.3867 1.1484 3.4062 4 2.2891 6.3984-1.2266 2.3594-4.0859 3.3438-6.5039 2.2383l-16.84-6.6055c-0.76953-0.23438-1.5938 0.16016-1.8867 0.91016-0.29688 0.75 0.039063 1.6016 0.76953 1.9453l16.895 6.6211c1.9258 0.76953 4.0703 0.82031 6.0312 0.14062 3.375-1.1719 5.4961-4.5156 5.1211-8.0664l23.984-13.629c1.3164-0.73828 2.8633-0.92578 4.3164-0.51562 2.2109 0.625 3.8359 2.5117 4.1094 4.7891 0.28125 2.2812-0.83594 4.5039-2.8281 5.6445l-38.398 21.762c-2.0859 1.1992-4.5195 1.6484-6.8984 1.2812l-18.945-2.5586c-3.2383-0.43359-4.875 0.93359-7.4609 2.5586l-13.824-24.039zm30.77-28.711-0.44922 1.2812c-1.8047 4.9961-2.0156 10.43-0.60156 15.551l21.672 10.238c1.5234 0.70312 2.7812 1.8789 3.5859 3.3555l23.398-13.234 0.94531-0.47656c1.3438-5.1055 1.1016-10.5-0.70312-15.461-2.0586-5.9531-5.5781-11.301-10.238-15.539-1.8906-1.7539-3.2539-4.0039-3.9414-6.4883h-19.93c-0.68359 2.4805-2.0391 4.7188-3.9141 6.4766-4.3398 3.9414-7.6992 8.8359-9.8203 14.301zm-12.801-1.9961v-27.738c0-0.85156-0.69141-1.5352-1.5352-1.5352h-3.7148l10.715-12.906 10.715 12.906h-3.7266c-0.85156 0-1.5352 0.68359-1.5352 1.5352v26.371c-0.20312 0.44922-0.39453 0.91016-0.58984 1.3711z" fill="#00abe6" fill-rule="evenodd"/>
</svg>
