<?xml version="1.0" encoding="UTF-8"?>
<svg width="128pt" height="128pt" version="1.1" viewBox="0 0 128 128" xmlns="http://www.w3.org/2000/svg">
 <path d="m58.504 74.941-33.625-36.773c-0.59375-0.65234-0.76562-1.543-0.52734-2.3281 2.6289-8.7344 7.9844-16.094 14.957-21.27 6.9727-5.1758 15.566-8.168 24.688-8.168s17.715 2.9922 24.688 8.168c6.9727 5.1758 12.324 12.535 14.969 21.266 0.28125 0.92969-0.023438 1.8945-0.69531 2.5039l-33.469 36.605h7.5195c2.8398 0 5.4219 1.1602 7.2891 3.0312 1.8672 1.8711 3.0312 4.4531 3.0312 7.2891v26.02c0 2.8398-1.1641 5.4219-3.0312 7.2891-1.8672 1.8672-4.4492 3.0312-7.2891 3.0312h-26.016c-2.8359 0-5.418-1.1641-7.2891-3.0312-1.8672-1.8672-3.0312-4.4492-3.0312-7.2891v-26.02c0-2.8359 1.1602-5.418 3.0312-7.2891 1.8711-1.8672 4.4531-3.0312 7.2891-3.0312h7.5195zm12.801 18.211c-0.10938-1.5195-0.69141-2.9297-1.6094-4.0703-0.83984-1.0391-1.9648-1.8516-3.2734-2.3086v-0.69531c0-1.3398-1.0859-2.4258-2.4258-2.4258s-2.4258 1.0859-2.4258 2.4258l-0.019531 0.70703c-1.3477 0.48438-2.543 1.3477-3.4258 2.5352-0.91016 1.2305-1.3945 2.6836-1.4336 4.1445-0.046875 1.457 0.34766 2.9297 1.1797 4.207 1.5273 2.3398 3.6406 2.6641 5.7539 2.9922 1.043 0.16016 2.0938 0.32422 2.4375 0.85156 0.28516 0.4375 0.42188 0.94531 0.40625 1.4375-0.011719 0.48828-0.17969 0.98047-0.48828 1.3945-0.30859 0.41406-0.73047 0.71484-1.1992 0.87109-0.47266 0.16016-0.99219 0.17578-1.4922 0.035156-0.49219-0.14453-0.92187-0.43359-1.2305-0.81641s-0.50781-0.86719-0.54297-1.3828c-0.09375-1.332-1.2539-2.3398-2.5859-2.2461-1.332 0.09375-2.3398 1.2539-2.2461 2.5859 0.10938 1.5234 0.6875 2.9375 1.6055 4.0703 0.83594 1.0391 1.9648 1.8516 3.2734 2.3086v0.69531c0 1.3398 1.0859 2.4258 2.4258 2.4258 1.3398 0 2.4258-1.0859 2.4258-2.4258v-0.69922c1.3477-0.47656 2.5586-1.3438 3.4453-2.543 0.91016-1.2266 1.3906-2.6797 1.4375-4.1445 0.039063-1.457-0.34766-2.9297-1.1836-4.207-1.5273-2.3359-3.6445-2.6641-5.7539-2.9922-1.043-0.16016-2.0938-0.32422-2.4375-0.85156-0.28516-0.4375-0.41797-0.94531-0.40625-1.4375 0.015625-0.48828 0.17969-0.98047 0.48828-1.3945 0.29297-0.39453 0.6875-0.68359 1.1641-0.85938 0.51172-0.17188 1.0312-0.1875 1.5234-0.046875 0.49219 0.14062 0.92188 0.43359 1.2383 0.82812 0.30469 0.37891 0.5 0.85547 0.53516 1.3711 0.09375 1.332 1.2539 2.3398 2.5859 2.2461s2.3398-1.2539 2.2461-2.5859zm-9.7344-28.566v-26.652c-1.9688-0.875-4.0898-1.3125-6.2148-1.3125-1.7617 0-3.5195 0.30078-5.1914 0.90234zm4.8516-26.652v26.652l11.406-27.062c-1.6719-0.60156-3.4297-0.90234-5.1914-0.90234-2.125 0-4.2422 0.4375-6.2148 1.3125zm16.273 0.49219-11.664 27.668 25.555-27.949c-2.0977-1.0156-4.3828-1.5234-6.668-1.5234-2.4922 0-4.9766 0.60156-7.2266 1.8047zm-25.73 27.672-11.664-27.672c-2.25-1.2031-4.7344-1.8047-7.2266-1.8047-2.2891 0-4.5703 0.50781-6.668 1.5234z" fill="#00abe6"/>
</svg>
