<?xml version="1.0" encoding="UTF-8"?>
<svg width="128pt" height="128pt" version="1.1" viewBox="0 0 128 128" xmlns="http://www.w3.org/2000/svg">
 <g fill="#00abe6">
  <path d="m62.301 23.199h5.6992c0.60156 0 1-0.39844 1-1 0-0.60156-0.39844-1-1-1h-3v-1.8008c0-0.60156-0.39844-1-1-1s-1 0.39844-1 1v1.8008h-0.69922c-1.8008 0-3.1992 1.3984-3.1992 3.1992 0 1.8008 1.3984 3.1992 3.1992 3.1992h3.5c0.60156 0 1.1992 0.5 1.1992 1.1992s-0.5 1.1992-1.1992 1.1992h-5.6992c-0.60156 0-1 0.39844-1 1 0 0.60156 0.39844 1 1 1h2.8984v1.8008c0 0.60156 0.39844 1 1 1s1-0.39844 1-1v-1.8008h0.69922c1.8008 0 3.1992-1.3984 3.1992-3.1992s-1.3984-3.1992-3.1992-3.1992h-3.5c-0.60156 0-1.1992-0.5-1.1992-1.1992 0-0.69922 0.60156-1.1992 1.3008-1.1992z"/>
  <path d="m80.102 25c-2.1992 0-4 1.8008-4 4s1.8008 4 4 4c2.1992 0 4-1.8008 4-4s-1.8008-4-4-4zm0 6c-1.1016 0-2-0.89844-2-2s0.89844-2 2-2c1.1016 0 2 0.89844 2 2s-0.89844 2-2 2z"/>
  <path d="m47.898 25c-2.1992 0-4 1.8008-4 4s1.8008 4 4 4c2.1992 0 4-1.8008 4-4s-1.8008-4-4-4zm0 6c-1.1016 0-2-0.89844-2-2s0.89844-2 2-2c1.1016 0 2 0.89844 2 2s-0.89844 2-2 2z"/>
  <path d="m67.5 52c-0.60156 0-1 0.39844-1 1v40c0 0.60156 0.39844 1 1 1s1-0.39844 1-1v-40c0-0.60156-0.39844-1-1-1z"/>
  <path d="m60.5 52c-0.60156 0-1 0.39844-1 1v40c0 0.60156 0.39844 1 1 1s1-0.39844 1-1v-40c0-0.60156-0.5-1-1-1z"/>
  <path d="m34.5 52c-0.60156 0-1 0.39844-1 1v40c0 0.60156 0.39844 1 1 1s1-0.39844 1-1v-40c0-0.60156-0.39844-1-1-1z"/>
  <path d="m27.5 52c-0.60156 0-1 0.39844-1 1v40c0 0.60156 0.39844 1 1 1s1-0.39844 1-1v-40c0-0.60156-0.5-1-1-1z"/>
  <path d="m110.2 47c0.5 0 0.89844-0.30078 1-0.80078l1.6016-7.1992h1.1992c0.60156 0 1-0.39844 1-1v-10c0-0.39844-0.30078-0.80078-0.69922-1l-50-14h-0.5l-50 14c-0.39844 0.10156-0.69922 0.5-0.69922 1v10c0 0.60156 0.39844 1 1 1h1.1992l1.6016 7.1992c0.10156 0.5 0.5 0.80078 1 0.80078h1.6016v52h-1.6016c-0.5 0-0.89844 0.30078-1 0.80078l-1.6016 7.1992h-1.3008c-0.60156 0-1 0.39844-1 1v6c0 0.60156 0.39844 1 1 1h100c0.60156 0 1-0.39844 1-1v-6c0-0.60156-0.39844-1-1-1h-1.1992l-1.6016-7.1992c-0.10156-0.5-0.5-0.80078-1-0.80078h-1.6016v-52zm-0.80078-2h-24.801l-1.3008-6h27.5zm-25.602 54c-0.5 0-0.89844 0.30078-1 0.80078l-1.6016 7.1992h-1.3984l-1.6016-7.1992c-0.10156-0.5-0.5-0.80078-1-0.80078h-1.6016v-52h1.6016c0.5 0 0.89844-0.30078 1-0.80078l1.6016-7.1992h1.3984l1.6016 7.1992c0.10156 0.5 0.5 0.80078 1 0.80078h1.6016v52zm-37 8-1.6016-7.1992c-0.10156-0.5-0.5-0.80078-1-0.80078h-1.6016v-52h1.6016c0.5 0 0.89844-0.30078 1-0.80078l1.6016-7.1992h1.3984l1.6016 7.1992c0.10156 0.5 0.5 0.80078 1 0.80078h1.6016v52h-1.6016c-0.5 0-0.89844 0.30078-1 0.80078l-1.6016 7.1992zm7.6016-8v-52h19.199v52zm-2.8008-54-1.3008-6h27.5l-1.3008 6zm0 56h24.898l1.3008 6h-27.598zm-36.602-72.199 49-13.801 49 13.699v8.3008h-98zm2.1992 10.199h27.5l-1.3008 6h-24.801zm4.1992 8h19.199v52h-19.199zm-2.8008 54h24.898l1.3008 6h-27.598zm94.398 12h-98v-4h98zm-2.1992-6h-27.598l1.3008-6h24.898zm-4.1992-8h-19.199v-52h19.199z"/>
  <path d="m93.5 94c0.60156 0 1-0.39844 1-1v-40c0-0.60156-0.39844-1-1-1s-1 0.39844-1 1v40c0 0.60156 0.39844 1 1 1z"/>
  <path d="m100.5 94c0.60156 0 1-0.39844 1-1v-40c0-0.60156-0.39844-1-1-1s-1 0.39844-1 1v40c0 0.60156 0.5 1 1 1z"/>
 </g>
</svg>
