<?xml version="1.0" encoding="UTF-8"?>
<svg width="1200pt" height="1200pt" version="1.1" viewBox="0 0 1200 1200" xmlns="http://www.w3.org/2000/svg">
 <path d="m475 1150c-7.75 0-15.059-3.5977-19.793-9.7344-4.7305-6.1367-6.3516-14.121-4.3828-21.617l118.55-450.52-275.43-68.875c-7.0117-1.7461-12.926-6.4375-16.219-12.867-3.293-6.4336-3.6406-13.977-0.95703-20.684l200-500c1.8594-4.6367 5.0664-8.6133 9.207-11.41 4.1406-2.8008 9.0234-4.293 14.02-4.2891h350c5.9258 0 11.66 2.1094 16.18 5.9453 4.5156 3.8359 7.5234 9.1523 8.4844 15 0.96094 5.8477-0.1875 11.848-3.2383 16.93l-207.5 346.05 267.25 66.824c8.1055 2.0586 14.641 8.0352 17.418 15.922 2.7812 7.8906 1.4297 16.645-3.5938 23.328l-450 600c-4.7227 6.2969-12.133 10-20 10zm-141.15-592.3 272.2 68.051c6.4805 1.6172 12.047 5.7656 15.453 11.516s4.3672 12.621 2.6719 19.086l-92.5 351.38 350.82-467.6-263.55-65.875c-7.6875-1.918-14.008-7.3711-17.039-14.688-3.0312-7.3203-2.4141-15.645 1.6641-22.438l202.25-337.12h-288.9z" fill="#00abe6"/>
</svg>
