<?xml version="1.0" encoding="UTF-8"?>
<svg width="128pt" height="128pt" version="1.1" viewBox="0 0 128 128" xmlns="http://www.w3.org/2000/svg">
 <path d="m24 102h80c7.7188 0 14-6.2812 14-14v-48c0-7.7188-6.2812-14-14-14h-80c-7.7188 0-14 6.2812-14 14v48c0 7.7188 6.2812 14 14 14zm86-14c0 3.3086-2.6914 6-6 6h-80c-3.3086 0-6-2.6914-6-6v-48c0-0.15625 0.035156-0.30078 0.046875-0.45312l38.43 31.371c2.1797 1.7812 4.8516 2.6719 7.5195 2.6719 2.6719 0 5.3398-0.89062 7.5195-2.6719l38.43-31.371c0.011719 0.14844 0.046876 0.30078 0.046876 0.45312v48zm-6-54c0.03125 0 0.058594 0.011719 0.089844 0.011719l-37.625 30.711c-1.4258 1.1641-3.5 1.1641-4.9258 0l-37.625-30.711c0.03125 0 0.058594-0.011719 0.089844-0.011719h80z" fill="#00abe6"/>
</svg>
