<?xml version="1.0" encoding="UTF-8"?>
<svg width="1200pt" height="1200pt" version="1.1" viewBox="0 0 1200 1200" xmlns="http://www.w3.org/2000/svg">
 <g fill="#00abe6">
  <path d="m1122.8 366.05h-311.9v-85.641c0-41.25-33.562-74.812-74.812-74.812h-659.02c-41.203 0-74.766 33.562-74.766 74.812v322.22c0 41.25 33.562 74.812 74.812 74.812h25.219v138.94c0 7.5 4.7812 14.203 11.906 16.641 1.875 0.65625 3.7969 0.9375 5.6719 0.9375 5.3438 0 10.5-2.4375 13.922-6.8438l115.69-149.68h139.5v85.688c0 41.25 33.562 74.812 74.812 74.812h486.61l115.73 149.68c3.375 4.4062 8.5781 6.8438 13.922 6.8438 1.875 0 3.7969-0.32812 5.6719-0.9375 7.125-2.4375 11.906-9.0938 11.906-16.641v-138.94h25.172c41.25 0 74.812-33.562 74.812-74.812l-0.046875-322.26c0-41.25-33.562-74.812-74.812-74.812zm-881.95 276.24c-5.4375 0-10.594 2.5312-13.922 6.8438l-89.484 115.78v-105.05c0-9.7031-7.875-17.578-17.578-17.578h-42.797c-21.844 0-39.656-17.766-39.656-39.656l0.046875-322.22c0-21.844 17.766-39.656 39.656-39.656h659.02c21.844 0 39.656 17.812 39.656 39.656v85.641h-574.4c-9.7031 0-17.578 7.875-17.578 17.578s7.875 17.578 17.578 17.578h199.03c-7.2188 11.484-11.438 25.078-11.438 39.656v40.969l-187.55-0.046875c-9.7031 0-17.578 7.875-17.578 17.578s7.875 17.578 17.578 17.578h187.6v125.34zm921.61 120.84c0 21.844-17.766 39.656-39.656 39.656h-42.75c-9.7031 0-17.578 7.875-17.578 17.578v105.05l-89.484-115.78c-3.3281-4.3125-8.4844-6.8438-13.922-6.8438l-495.24-0.046875c-21.844 0-39.656-17.766-39.656-39.656v-322.22c0-21.844 17.766-39.656 39.656-39.656h659.02c21.844 0 39.656 17.766 39.656 39.656z"/>
  <path d="m998.58 526.5h-410.39c-9.7031 0-17.578 7.875-17.578 17.578s7.875 17.578 17.578 17.578h410.39c9.7031 0 17.578-7.875 17.578-17.578s-7.875-17.578-17.578-17.578z"/>
  <path d="m998.58 642.28h-410.39c-9.7031 0-17.578 7.875-17.578 17.578s7.875 17.578 17.578 17.578h410.39c9.7031 0 17.578-7.875 17.578-17.578s-7.875-17.578-17.578-17.578z"/>
 </g>
</svg>
