<?xml version="1.0" encoding="UTF-8"?>
<svg width="128pt" height="128pt" version="1.1" viewBox="0 0 128 128" xmlns="http://www.w3.org/2000/svg">
 <g fill="#00abe6">
  <path d="m35.297 101.13v-78.402h-4c-4.418 0-8 3.582-8 8v78.402c0 2.1211 0.84375 4.1562 2.3438 5.6562s3.5352 2.3438 5.6562 2.3438h53.602-0.003907c2.125 0 4.1562-0.84375 5.6602-2.3438 1.5-1.5 2.3398-3.5352 2.3398-5.6562v-4h-53.598c-1.0625 0-2.0781-0.42188-2.8281-1.1719s-1.1719-1.7695-1.1719-2.8281z"/>
  <path d="m93.852 8.7617v13.238h13.242z"/>
  <path d="m91.852 26c-1.1055 0-2-0.89453-2-2v-17.238h-42.52c-4.418 0-8 3.5781-8 8v78.398c0 2.1211 0.84375 4.1562 2.3438 5.6562s3.5352 2.3438 5.6562 2.3438h53.602c2.1211 0 4.1562-0.84375 5.6562-2.3438s2.3438-3.5352 2.3438-5.6562v-67.16z"/>
 </g>
</svg>
