<?xml version="1.0" encoding="UTF-8"?>
<svg width="1200pt" height="1200pt" version="1.1" viewBox="0 0 1200 1200" xmlns="http://www.w3.org/2000/svg">
 <path d="m573.61 648v384c0 38.391-31.219 69.609-69.609 69.609h-384c-38.391 0-69.609-31.219-69.609-69.609v-384c0-38.391 31.219-69.609 69.609-69.609h384c38.391 0 69.609 31.219 69.609 69.609zm-43.219 0c0-14.578-11.812-26.391-26.391-26.391h-384c-14.578 0-26.391 11.812-26.391 26.391v384c0 14.578 11.812 26.391 26.391 26.391h384c14.578 0 26.391-11.812 26.391-26.391zm-218.39 122.39c38.391 0 69.609 31.219 69.609 69.609s-31.219 69.609-69.609 69.609c-38.391 0-69.609-31.219-69.609-69.609s31.219-69.609 69.609-69.609zm0 43.219c-14.578 0-26.391 11.812-26.391 26.391s11.812 26.391 26.391 26.391c14.578 0 26.391-11.812 26.391-26.391s-11.812-26.391-26.391-26.391zm120 76.781c38.391 0 69.609 31.219 69.609 69.609s-31.219 69.609-69.609 69.609c-38.391 0-69.609-31.219-69.609-69.609s31.219-69.609 69.609-69.609zm0 43.219c-14.578 0-26.391 11.812-26.391 26.391s11.812 26.391 26.391 26.391c14.578 0 26.391-11.812 26.391-26.391s-11.812-26.391-26.391-26.391zm-240-283.22c38.391 0 69.609 31.219 69.609 69.609 0 38.391-31.219 69.609-69.609 69.609-38.391 0-69.609-31.219-69.609-69.609 0-38.391 31.219-69.609 69.609-69.609zm0 43.219c-14.578 0-26.391 11.812-26.391 26.391 0 14.578 11.812 26.391 26.391 26.391 14.578 0 26.391-11.812 26.391-26.391 0-14.578-11.812-26.391-26.391-26.391zm896.81-346.78-192 332.58c-19.219 33.281-61.781 44.719-95.109 25.5l-332.58-192c-33.281-19.219-44.719-61.781-25.5-95.109l192-332.58c19.219-33.281 61.781-44.719 95.109-25.5l332.58 192c33.281 19.219 44.719 61.781 25.5 95.109zm-37.406-21.609c7.3125-12.609 3-28.781-9.7031-36.094l-332.58-192c-12.609-7.3125-28.781-3-36.094 9.7031l-192 332.58c-7.3125 12.609-3 28.781 9.7031 36.094l332.58 192c12.609 7.3125 28.781 3 36.094-9.7031zm-388.78 135.79c-19.219 33.281-61.781 44.719-95.109 25.5-33.281-19.219-44.719-61.781-25.5-95.109 19.219-33.281 61.781-44.719 95.109-25.5 33.281 19.219 44.719 61.781 25.5 95.109zm-37.406-21.609c7.3125-12.609 3-28.781-9.7031-36.094-12.609-7.3125-28.781-3-36.094 9.7031-7.3125 12.609-3 28.781 9.7031 36.094 12.609 7.3125 28.781 3 36.094-9.7031zm365.29-66.188c-19.219 33.281-61.781 44.719-95.109 25.5-33.281-19.219-44.719-61.781-25.5-95.109 19.219-33.281 61.781-44.719 95.109-25.5 33.281 19.219 44.719 61.781 25.5 95.109zm-37.406-21.609c7.3125-12.609 3-28.781-9.7031-36.094-12.609-7.3125-28.781-3-36.094 9.7031-7.3125 12.609-3 28.781 9.7031 36.094 12.609 7.3125 28.781 3 36.094-9.7031zm-108.09 134.39c33.281 19.219 44.719 61.781 25.5 95.109-19.219 33.281-61.781 44.719-95.109 25.5-33.281-19.219-44.719-61.781-25.5-95.109 19.219-33.281 61.781-44.719 95.109-25.5zm-21.609 37.406c-12.609-7.3125-28.781-3-36.094 9.7031-7.3125 12.609-3 28.781 9.7031 36.094 12.609 7.3125 28.781 3 36.094-9.7031 7.3125-12.609 3-28.781-9.7031-36.094zm-22.312-201.28c33.281 19.219 44.719 61.781 25.5 95.109-19.219 33.281-61.781 44.719-95.109 25.5-33.281-19.219-44.719-61.781-25.5-95.109 19.219-33.281 61.781-44.719 95.109-25.5zm-21.609 37.406c-12.609-7.3125-28.781-3-36.094 9.7031-7.3125 12.609-3 28.781 9.7031 36.094 12.609 7.3125 28.781 3 36.094-9.7031 7.3125-12.609 3-28.781-9.7031-36.094zm-22.312-201.28c33.281 19.219 44.719 61.781 25.5 95.109-19.219 33.281-61.781 44.719-95.109 25.5-33.281-19.219-44.719-61.781-25.5-95.109 19.219-33.281 61.781-44.719 95.109-25.5zm-21.609 37.406c-12.609-7.3125-28.781-3-36.094 9.7031-7.3125 12.609-3 28.781 9.7031 36.094 12.609 7.3125 28.781 3 36.094-9.7031 7.3125-12.609 3-28.781-9.7031-36.094z" fill="#00abe6" fill-rule="evenodd"/>
</svg>
