<?xml version="1.0" encoding="UTF-8"?>
<svg width="128pt" height="128pt" version="1.1" viewBox="0 0 128 128" xmlns="http://www.w3.org/2000/svg">
 <path d="m36.148 75.105c0.58203-0.19922 2.707-0.19531-0.24219-3.3008 3.9961 4.4219 12.273-5.3359 1.3398-8.4297-2.9453-0.83203-11.113-0.53125-9.9453 4.7539 0.23438 0.55078 2.7539 2.8711 2.832 2.6445-3.2656-0.48438-1.0859 4.3047 2.2461 4.7305 0.64062 0.085938 3.1523-0.1875 3.7695-0.39844zm0.18359 6.1602c-5.8594-4.1055-11.75 1.3164-5.6836 3.5625 4.3047 1.5898 4.8203 0.82422 8.7227 1.4414 2.6094 0.41406 17.641 1.2188 17.898-3.4531-0.62109 0.054688-0.066406 1.2383 0 0-4.6328 0.41797-9.4141 1.4023-11.434 1.793-1.5 0.28906-3.0547-1.2656-4.918-1.9102zm26.41-30.266c4.0742-0.23438 7.4883 4.9648 7.4883 4.9648s-3.4141 5.4688-7.1367 5.3555c-3.7266-0.11719-3.5547-1.4336-6.168-2.0547-2.6016-0.625 1.7422-8.0352 5.8164-8.2656zm-1.1602 2.6055c0.55469-0.71875 2.0703 2.1641 2.2969 0.22656 0.078125-0.66016-0.15625-0.96875-2.6758-0.93359-2.5234 0.039062-3.6484 5.4961-2.0547 6.4023 1.2266 0.69922 2.1172 1.8984 1.7305 0.35156-0.33203-1.2891-0.10938-4.9922 0.70312-6.0469zm-25.039-7.1289c3.1055 0 4.1133 2.0156 4.1875 3.1406 0.078125 1.125-1.9414 5.5469-3.957 5.5469-0.94531 0-3.4688-1.3203-3.7266-3.3555-0.28125-2.293 1.8477-5.332 3.4961-5.332zm-0.42969 1.3594c0.58203-0.83203-2.2266 0.59375-2.0312 3.1523 0.19531 2.5586 2.8125 3.707 2.2383 2.9258-2.1172-2.8828-0.55469-6.5977-1.125-5.5312 0.57031 0.42969 1.7734-0.5 0.41797-0.72266-0.082031-0.011718 0.44922 0.25 0.5 0.17578zm3.2852 0.71094c-0.3125 0-0.5625 0.26953-0.5625 0.60156 0 0.33203 0.25391 0.60156 0.5625 0.60156 0.30859 0 0.5625-0.26953 0.5625-0.60156 0-0.33203-0.25391-0.60156-0.5625-0.60156zm5.8242-36.707c1.6719 0 4.0312 2.1445 7.0117 6.3672 2.168 3.0742 4.1641 6.5898 4.4414 7.832 0.15625 0.69141 1.457 2.1523 2.082 2.3359 0.007813 0 0.054688 0.007812 0.16016 0.007812 0.1875 0 0.45312-0.019531 0.76172-0.039062 0.48047-0.035156 1.0781-0.078125 1.7734-0.078125 2.4648 0 4.7969 0.59766 7.0508 1.1758 2.1406 0.54688 4.1602 1.0664 6.1875 1.0664 0.19531 0 0.39453-0.007812 0.58594-0.015624 0.29688-0.015626 1.1992-0.44922 1.6641-0.79688 1.4727-1.1055 3.707-3.5312 6.0742-6.0977 4.9922-5.4219 8.1758-8.7148 10.277-8.7148 0.60938 0 1.1328 0.26953 1.4727 0.76563 1.1133 1.6016 1.5625 2.7773 1.7852 4.6602 0.023438 0.20703 0.054688 0.43359 0.085938 0.6875 0.39453 3.0547 1.2148 9.3906-1.625 17.824 0.14062 1.0938 0.58594 3.5586 1.3516 4.5508 5.3516 6.9062 8.8086 17.598 8.8086 27.246 0 11.316-4.5508 21.953-12.816 29.953-8.2578 7.9922-19.23 12.395-30.906 12.395-11.672 0-22.648-4.4023-30.906-12.395-8.2656-8-12.816-18.637-12.816-29.953 0-7.9453 2.1445-15.594 6.2031-22.121 0.51562-0.82812 0.86328-1.7578 1.2305-2.7461 0.53906-1.4453 1.0977-2.9336 2.2266-4.1523 1.2148-1.3086 2.9453-2.2227 4.6172-3.1055 1.0469-0.55469 2.0352-1.0742 2.8555-1.6641 2.2109-1.5898 4.6016-2.9805 7.1133-4.1367 0.55078-0.64844 0.35938-4.6289 0.23438-7.2695-0.25391-5.3711-0.51953-10.926 1.6445-13.027 0.37891-0.36328 0.85156-0.55469 1.3711-0.55469m0-6.3984c-2.1914 0-4.2617 0.83984-5.8281 2.3633-4.2305 4.1133-3.8945 11.129-3.5742 17.914 0.03125 0.67188 0.085938 1.8047 0.11328 2.8672-1.6641 0.92578-3.2734 1.9453-4.8008 3.0469-0.46094 0.33203-1.2539 0.75-2.0977 1.1953-1.9648 1.0391-4.3828 2.3125-6.3359 4.418-1.9883 2.1445-2.8789 4.5234-3.5273 6.2617-0.25 0.66016-0.49609 1.3242-0.67188 1.6055-4.6914 7.5469-7.168 16.363-7.168 25.504 0 13.066 5.2461 25.336 14.766 34.551 9.457 9.1523 22.012 14.195 35.359 14.195 13.344 0 25.898-5.0391 35.355-14.195 9.5195-9.2148 14.766-21.484 14.766-34.551 0-10.957-3.7578-22.684-9.832-30.754-0.046875-0.15625-0.10156-0.36328-0.15625-0.60156 2.6953-9.0547 1.7969-16.016 1.3984-19.086-0.03125-0.24609-0.054687-0.43359-0.074219-0.59766-0.34375-2.9336-1.1797-5.125-2.8867-7.582-1.5273-2.1992-4.043-3.5117-6.7305-3.5117-5.0586 0-9.0078 4.2891-14.984 10.777-1.5469 1.6797-3.4102 3.7031-4.5781 4.7773-1.0391-0.13281-2.2617-0.44531-3.6211-0.79297-2.4219-0.62109-5.1289-1.3164-8.2148-1.375-1.457-3.0703-3.8398-6.5195-4.4258-7.3516-3.1719-4.4883-7.1055-9.0781-12.25-9.0781z" fill="#00abe6"/>
</svg>
