<?xml version="1.0" encoding="UTF-8"?>
<svg width="128pt" height="128pt" version="1.1" viewBox="0 0 128 128" xmlns="http://www.w3.org/2000/svg">
 <g fill="#00abe6">
  <path d="m64 8c-30.926 0-56 25.074-56 56 0 30.922 25.074 56 56 56 30.922 0 56-25.078 56-56 0-30.926-25.078-56-56-56zm0 104c-26.469 0-48-21.531-48-48s21.531-48 48-48 48 21.531 48 48-21.531 48-48 48z"/>
  <path d="m64 42.285c5.4219 0 9.832 3.7227 9.832 8.2969 0 2.207 1.793 4 4 4s4-1.793 4-4c0-7.7227-5.9258-14.18-13.832-15.848v-4.7344c0-2.207-1.793-4-4-4s-4 1.793-4 4v4.7344c-7.9062 1.668-13.832 8.125-13.832 15.848 0 7.2031 4.2734 13.113 11.16 15.414l10.816 3.5859c3.668 1.2305 5.6875 4.0078 5.6875 7.8281 0 4.5781-4.4102 8.2969-9.832 8.2969s-9.832-3.7227-9.832-8.2969c0-2.207-1.793-4-4-4s-4 1.793-4 4c0 7.7266 5.9258 14.18 13.832 15.852v4.7383c0 2.207 1.793 4 4 4s4-1.793 4-4v-4.7344c7.9062-1.6719 13.832-8.125 13.832-15.852 0-7.2031-4.2695-13.109-11.16-15.414l-10.816-3.5898c-3.668-1.2266-5.6875-4.0078-5.6875-7.8281 0-4.5742 4.4102-8.2969 9.832-8.2969z"/>
 </g>
</svg>
