<?xml version="1.0" encoding="UTF-8"?>
<svg width="1200pt" height="1200pt" version="1.1" viewBox="0 0 1200 1200" xmlns="http://www.w3.org/2000/svg">
 <path d="m857.28 1177c138.85 0 252.69-112.79 229.93-236.34-19.836-107.71-124.52-403.17-315.47-550.09h-343.48c-190.95 146.92-295.64 442.41-315.47 550.09-22.754 123.52 91.082 236.34 229.93 236.34zm-257.26-1153.9h-130.46c-14.688 0-27.504 5.6523-37.117 16.344l57.457 214.45c3.3125 12.383-4.0664 25.129-16.453 28.441-12.383 3.3125-25.129-4.0312-28.441-16.453l-33.984-126.87-56.414 15.121c-17.82 4.7891-30.781 17.75-35.531 35.566-4.7891 17.82-0.035156 35.531 12.996 48.566l105.8 105.8h324.22l105.8-105.8c13.066-13.066 17.785-30.746 13.031-48.566-4.7891-17.82-17.75-30.781-35.566-35.566l-56.375-15.121-33.984 126.87c-3.3125 12.383-16.055 19.766-28.441 16.453-12.383-3.3125-19.766-16.055-16.453-28.441l57.457-214.45c-9.6133-10.656-22.43-16.344-37.117-16.344h-130.46zm-165.75 864.98c0-12.852 10.402-23.258 23.258-23.258 12.852 0 23.258 10.402 23.258 23.258 0 24.012 12.562 46.043 32.941 62.281 16.738 13.355 38.52 22.824 63.074 26.531v-180.69c-35.496-4.1406-67.465-17.531-91.945-37.082-31.25-24.949-50.543-59.797-50.543-98.641s19.332-73.691 50.543-98.641c24.48-19.547 56.449-32.977 91.945-37.082v-33.984c0-12.852 10.402-23.258 23.258-23.258 12.852 0 23.258 10.402 23.258 23.258v33.984c35.496 4.1406 67.465 17.531 91.945 37.082 31.25 24.949 50.543 59.797 50.543 98.641 0 12.852-10.402 23.258-23.258 23.258-12.852 0-23.258-10.402-23.258-23.258 0-24.012-12.602-46.082-32.941-62.316-16.738-13.355-38.52-22.824-63.074-26.531v180.69c35.496 4.1406 67.465 17.531 91.945 37.082 31.25 24.949 50.543 59.797 50.543 98.641s-19.332 73.691-50.543 98.641c-24.48 19.547-56.449 32.941-91.945 37.082v33.984c0 12.852-10.402 23.258-23.258 23.258-12.852 0-23.258-10.402-23.258-23.258v-33.984c-35.496-4.1406-67.465-17.531-91.945-37.082-31.25-24.949-50.543-59.797-50.543-98.641zm189 88.812c24.551-3.707 46.332-13.141 63.074-26.531 20.34-16.234 32.941-38.305 32.941-62.281 0-24.012-12.602-46.082-32.941-62.316-16.738-13.355-38.52-22.824-63.074-26.531zm-46.512-405.22c-24.516 3.707-46.332 13.141-63.074 26.531-20.34 16.234-32.941 38.305-32.941 62.316s12.562 46.043 32.906 62.281c16.738 13.355 38.52 22.824 63.074 26.531v-177.62z" fill="#00abe6" fill-rule="evenodd"/>
</svg>
