<?xml version="1.0" encoding="UTF-8"?>
<svg width="128pt" height="128pt" version="1.1" viewBox="0 0 128 128" xmlns="http://www.w3.org/2000/svg">
 <path d="m103.93 30.188c6.2695-1.9688 10.828-7.832 10.828-14.738 0-8.5156-6.9297-15.449-15.449-15.449-8.5156 0-15.445 6.9336-15.445 15.449 0 6.9062 4.5586 12.77 10.824 14.738l-10.18 10.184c-0.86328 0.86328-0.86328 2.2578 0 3.1211 0.42969 0.42969 0.99609 0.64453 1.5625 0.64453 0.5625 0 1.1289-0.21484 1.5586-0.64453l8.9219-8.9219c-2.7891 15.453-16.309 27.223-32.551 27.223-14.32 0-26.781 8.0703-33.102 19.898v-47.676l9.4727 9.4766c0.42969 0.42969 0.99609 0.64453 1.5586 0.64453 0.56641 0 1.1328-0.21484 1.5625-0.64453 0.86328-0.86328 0.86328-2.2578 0-3.1211l-10.18-10.184c6.2656-1.9688 10.824-7.832 10.824-14.738 0-8.5156-6.9297-15.449-15.445-15.449-8.5195 0-15.449 6.9336-15.449 15.449 0 6.9062 4.5586 12.77 10.828 14.738l-10.184 10.184c-0.86328 0.86328-0.86328 2.2578 0 3.1211 0.42969 0.42969 0.99609 0.64453 1.5625 0.64453 0.5625 0 1.1289-0.21484 1.5586-0.64453l9.4766-9.4766v63.266c-7.4766 1.0742-13.242 7.5039-13.242 15.27 0 8.5156 6.9297 15.449 15.449 15.449 8.5156 0 15.445-6.9336 15.445-15.449 0-7.7305-5.7148-14.133-13.137-15.254 1.0469-17.316 15.426-31.09 33-31.09 19 0 34.711-14.211 37.152-32.555l9.8398 9.8398c0.42969 0.42969 0.99609 0.64453 1.5586 0.64453 0.56641 0 1.1328-0.21484 1.5625-0.64453 0.86328-0.86328 0.86328-2.2578 0-3.1211l-10.184-10.184" fill="#00abe6" fill-rule="evenodd"/>
</svg>
