<?xml version="1.0" encoding="UTF-8"?>
<svg width="128pt" height="128pt" version="1.1" viewBox="0 0 128 128" xmlns="http://www.w3.org/2000/svg">
 <path d="m110.96 52.965c-0.015626-0.10938-0.058594-0.20312-0.09375-0.30859-0.023438-0.078125-0.039063-0.15625-0.070313-0.23047-0.10156-0.22656-0.23047-0.42969-0.40625-0.60547l-9.8555-9.8555 1.9219-1.9219c0.77344-0.77344 1.2031-1.8047 1.2031-2.8984s-0.42969-2.125-1.2031-2.8984l-8.6953-8.6953c-1.5508-1.5508-4.2539-1.5469-5.8008 0l-1.9219 1.9219-9.8555-9.8555c-0.17578-0.17578-0.38672-0.30469-0.60547-0.39844-0.074219-0.035156-0.15625-0.050781-0.23438-0.070312-0.10547-0.03125-0.19922-0.078126-0.30859-0.09375l-7.5742-1.0195c-0.61328-0.085937-1.2383 0.12891-1.6797 0.57031l-14.266 14.266c-0.44141 0.44141-0.64844 1.0586-0.57031 1.6797l1.0195 7.5742c0.015625 0.10938 0.058594 0.20312 0.09375 0.30859 0.023437 0.078125 0.039062 0.15625 0.070312 0.23047 0.10156 0.22656 0.23047 0.42969 0.40625 0.60547l9.8555 9.8555-37.398 37.395-5.9766 5.9766c-1.9336 1.9336-3.0039 4.5117-3.0039 7.25 0 2.7383 1.0703 5.3086 3.0039 7.25s4.5117 3 7.25 3 5.3164-1.0664 7.25-3l43.375-43.375 9.8555 9.8555c0.17578 0.17578 0.38672 0.30469 0.60547 0.39844 0.074219 0.035156 0.15625 0.050781 0.23438 0.070312 0.10547 0.03125 0.19922 0.078126 0.30859 0.09375l7.5742 1.0195c0.089844 0.011718 0.17969 0.019531 0.26562 0.019531 0.53125 0 1.0391-0.21094 1.4141-0.58594l14.266-14.266c0.44141-0.44141 0.64844-1.0586 0.57031-1.6797l-1.0195-7.5742zm-22.805 18.262-31.379-31.379 17.996-17.992 31.379 31.379-17.996 17.996zm2.7734-42.852 8.6953 8.8398-1.9219 1.9219-8.8086-8.8086 2.0352-1.9453zm-23.02-8.2539 2.5898 0.35156-15.105 15.105-0.35156-2.5898zm-29.836 78.648-8.8398-8.8398 5.2266-5.2266 8.8398 8.8398zm-7.3906 7.3906c-2.4336 2.4336-6.3984 2.4414-8.8398 0-1.1797-1.1797-1.8281-2.75-1.8281-4.4219s0.64844-3.2383 1.8281-4.4219l4.5586-4.5586 8.8398 8.8398zm15.438-15.438-8.8398-8.8398 27.934-27.934 8.8398 8.8398zm48.891-17.762-2.5898-0.35156 15.105-15.105 0.35156 2.5898z" fill="#00abe6"/>
</svg>
