<?xml version="1.0" encoding="UTF-8"?>
<svg width="128pt" height="128pt" version="1.1" viewBox="0 0 128 128" xmlns="http://www.w3.org/2000/svg">
 <g fill="#00abe6">
  <path d="m92.969 24.766-18.598-18.602c-2.5469-2.5234-6.6523-2.5234-9.1992 0l-33.406 33.438c-2.5273 2.5469-2.5273 6.6523 0 9.1992l18.598 18.559v0.003906c2.5547 2.5156 6.6562 2.5156 9.2109 0l33.391-33.391c2.5312-2.5508 2.5312-6.6602 0.003906-9.207z"/>
  <path d="m49.578 15.738-3.0938-3.0938c-0.88281-0.83984-2.2734-0.83984-3.1562 0l-5.082 5.082c-0.87109 0.875-0.87109 2.2891 0 3.1602l3.0898 3.0938z"/>
  <path d="m113.81 96.426c1.0898 1.0977 2.5742 1.7109 4.1172 1.707 1.8945 0.011719 3.6719-0.92187 4.7422-2.4883 1.6367-2.2969 1.3672-5.4453-0.64062-7.4336l-38.613-38.645-8.25 8.2461z"/>
  <path d="m13.883 107.95 10.668 6.0391h-0.003906c0.65625 0.36719 1.4531 0.36719 2.1055 0l10.668-6.0391c0.66797-0.37891 1.0781-1.0859 1.0781-1.8555v-11.637c0-0.76953-0.41016-1.4805-1.0781-1.8594l-10.668-6.0391v0.003906c-0.65234-0.36719-1.4492-0.36719-2.1055 0l-10.668 6.0391 0.003906-0.003906c-0.66797 0.37891-1.082 1.0898-1.082 1.8594v11.633-0.003907c-0.003906 0.76953 0.41016 1.4844 1.082 1.8633z"/>
  <path d="m4.2656 108.67c-0.007813 2.3398 1.2344 4.5039 3.2578 5.6758l14.934 8.5508c1.9492 1.1133 4.3359 1.1133 6.2852 0l14.934-8.5547c2.0234-1.1719 3.2656-3.3359 3.2578-5.6719v-16.809c0.007812-2.3398-1.2344-4.5039-3.2578-5.6758l-14.934-8.5508v-0.003907c-1.9492-1.1094-4.3359-1.1094-6.2852 0l-14.934 8.5547c-2.0234 1.1719-3.2656 3.3359-3.2578 5.6758zm4.2656-14.223 0.003906 0.003906c0-2.3086 1.2383-4.4336 3.2461-5.5703l10.668-6.0391-0.003907 0.003906c1.9609-1.1016 4.3516-1.1016 6.3086 0l10.668 6.0391-0.003906-0.003907c2.0078 1.1367 3.25 3.2617 3.25 5.5703v11.633-0.003907c0 2.3047-1.2422 4.4336-3.25 5.5664l-10.668 6.0391h0.003906c-1.957 1.1016-4.3477 1.1016-6.3086 0l-10.668-6.0391h0.003906c-2.0078-1.1328-3.2461-3.2617-3.2461-5.5664z"/>
 </g>
</svg>
