<?xml version="1.0" encoding="UTF-8"?>
<svg width="1200pt" height="1200pt" version="1.1" viewBox="0 0 1200 1200" xmlns="http://www.w3.org/2000/svg">
 <path d="m914.11 712.5v-225c-0.046875-38.344-20.672-73.688-54-92.625l-207.98-117c-32.438-17.859-71.812-17.859-104.25 0l-207.98 117.14c-33.281 18.891-53.906 54.188-54 92.484v225c0.046875 38.344 20.672 73.688 54 92.625l207.98 117.14c32.391 18.141 71.859 18.141 104.25 0l207.98-117.28c33.281-18.891 53.906-54.188 54-92.484zm-37.5 0c0 24.797-13.359 47.672-34.969 59.859l-207.89 117.14c-21.047 11.484-46.453 11.484-67.5 0l-207.89-117.23c-21.562-12.188-34.922-35.016-34.969-59.766v-225c0-24.797 13.359-47.672 34.969-59.859l207.89-117.14c21-11.672 46.5-11.672 67.5 0l207.89 117.23c21.562 12.188 34.922 35.016 34.969 59.766zm-59.484-241.26-207.89-117.09c-5.7188-3.2812-12.75-3.2812-18.469 0l-207.89 117.09c-5.8125 3.375-9.4688 9.5625-9.5156 16.266v225c0 6.75 3.6562 13.031 9.5156 16.359l207.89 117.14c5.7656 3.1406 12.703 3.1406 18.469 0l207.89-117.23c5.8125-3.375 9.4688-9.5625 9.5156-16.266v-225c-0.046875-6.7031-3.7031-12.891-9.5156-16.266zm-27.984 230.16-189.14 106.59-189.14-106.59v-202.78l189.14-106.59 189.14 106.64zm298.36-552.37-72.234-40.641c-13.406-7.4062-29.625-7.4062-43.031 0l-72.234 40.641c-13.734 7.875-22.172 22.594-21.984 38.484v3.375h-556.03v-3.375c0.1875-15.891-8.25-30.609-21.984-38.484l-72.234-40.641c-13.406-7.4062-29.625-7.4062-43.031 0l-72.234 40.641c-13.734 7.875-22.172 22.594-21.984 38.484v75c0.23438 15.562 8.6719 29.812 22.219 37.5l72 40.641c1.875 0.84375 3.7969 1.5938 5.7656 2.25v512.48c-1.9688 0.65625-3.8906 1.4062-5.7656 2.25l-72.234 41.391c-13.547 7.6406-22.031 21.938-22.266 37.5v75.984c0.23438 15.562 8.7188 29.812 22.266 37.5l72 40.641c13.406 7.3125 29.625 7.3125 42.984 0l72.516-39.656c13.547-7.6406 22.031-21.938 22.266-37.5v-3.375h555.74v2.3906c0.23438 15.562 8.6719 29.812 22.219 37.5l72 40.641c13.406 7.3125 29.625 7.3125 43.031 0l72.234-39.656c13.547-7.6406 22.031-21.938 22.266-37.5v-75.984c-0.23437-15.562-8.7188-29.812-22.266-37.5l-72-40.641c-1.875-0.84375-3.7969-1.5938-5.7656-2.25v-512.48c1.9688-0.65625 3.8906-1.4062 5.7656-2.25l72-41.391c13.547-7.6406 22.031-21.938 22.266-37.5v-75.984c0.09375-15.938-8.3906-30.656-22.266-38.484zm-96.516-7.875c0.89062-0.60938 1.9688-0.89062 3-0.89062 1.125 0 2.2031 0.28125 3.1406 0.89062l59.859 33.844-63.234 35.625-63.234-35.625zm-787.5 0c0.89062-0.60938 1.9688-0.89062 3-0.89062 1.125 0 2.2031 0.28125 3.1406 0.89062l59.859 33.844-63.234 35.625-63.234-35.625zm-72.375 127.13c-1.9688-1.0781-3.1875-3.1406-3.0938-5.3906v-53.391l69 39c5.7656 3.1875 12.703 3.1875 18.469 0l69-39v53.016c0.09375 2.25-1.125 4.3125-3.0938 5.3906l-72.141 40.641v-0.046875c-1.875 1.125-4.2188 1.125-6.1406 0zm72.141 622.87c0.89062-0.60938 1.9219-0.89062 3-0.89062 1.125 0 2.2031 0.28125 3.1406 0.89062l60.094 33.844-63.234 35.625-63.234-35.625zm78.141 127.13-72.141 40.641v-0.046875c-1.875 1.125-4.2188 1.125-6.1406 0l-72-40.641v0.046875c-1.9688-1.0781-3.1875-3.1406-3.0938-5.3906v-53.391l69 39c5.7656 3.1875 12.703 3.1875 18.469 0l69-39v53.016c0.23438 2.3906-0.98438 4.6406-3.0938 5.7656zm40.641-46.266-0.046875-34.5c-0.23438-15.562-8.6719-29.812-22.219-37.5l-71.766-40.359v-518.26l72-40.406c13.547-7.6406 22.031-21.938 22.266-37.5v-35.484h555.74v34.5c0.23438 15.562 8.6719 29.812 22.219 37.5l71.766 40.359v518.26l-72 40.406c-13.547 7.6406-22.031 21.938-22.266 37.5v34.875zm746.86 46.266-72.141 40.641v-0.046875c-1.875 1.125-4.2188 1.125-6.1406 0l-72-40.641v0.046875c-1.9688-1.0781-3.1875-3.1406-3.0938-5.3906v-53.391l69 39c5.7656 3.1875 12.703 3.1875 18.469 0l69-39v53.016c0.23438 2.3906-0.98438 4.6406-3.0938 5.7656zm-12.516-93.234-62.625 35.578-63.234-35.625 60.234-33.891v0.046875c0.89062-0.60938 1.9219-0.89062 3-0.89062 1.125 0 2.2031 0.28125 3.1406 0.89062zm12.516-656.76-72.141 40.641v-0.046875c-1.875 1.125-4.2188 1.125-6.1406 0l-72-40.641v0.046875c-1.9688-1.0781-3.1875-3.1406-3.0938-5.3906v-53.391l69 39c5.7656 3.1875 12.703 3.1875 18.469 0l69-39v53.016c0.23438 2.3906-0.98438 4.6406-3.0938 5.7656zm-481.4 256.74h36.516c10.359 0 18.75 8.3906 18.75 18.75 0 10.359-8.3906 18.75-18.75 18.75h-17.766v12.516h17.766c10.359 0 18.75 8.3906 18.75 18.75 0 10.359-8.3906 18.75-18.75 18.75h-17.766v44.484c0 10.359-8.3906 18.75-18.75 18.75s-18.75-8.3906-18.75-18.75v-113.77c0.32812-10.125 8.625-18.188 18.75-18.234zm-36 18.75v113.48c-0.14062 8.3906-5.8594 15.656-13.969 17.766-1.5938 0.1875-3.1875 0.1875-4.7812 0-6.7969-0.046876-13.031-3.7031-16.359-9.6094l-28.125-50.016v41.391c0 10.359-8.3906 18.75-18.75 18.75s-18.75-8.3906-18.75-18.75v-113.53c0-8.5312 5.7656-15.984 14.016-18.141 8.2969-2.1094 16.969 1.5938 21.094 9.0469l28.125 50.016v-40.922c0-10.359 8.3906-18.75 18.75-18.75s18.75 8.3906 18.75 18.75zm99.984 0h0.046875c0-10.359 8.3906-18.75 18.75-18.75h60c10.359 0 18.75 8.3906 18.75 18.75 0 10.359-8.3906 18.75-18.75 18.75h-11.25v94.734c0 10.359-8.3906 18.75-18.75 18.75s-18.75-8.3906-18.75-18.75v-94.734h-11.25c-5.0156-0.046876-9.7969-2.1562-13.312-5.7656-3.4688-3.6094-5.3438-8.4844-5.2031-13.5z" fill="#00abe5"/>
</svg>
