<svg width="199" height="226" viewBox="0 0 199 226" fill="none" xmlns="http://www.w3.org/2000/svg">
<path d="M169.724 96.4483V13H135.241V26.7931H155.931V40.5862H135.241V54.3793H155.931V96.4483C144.207 99.2069 135.241 110.241 135.241 123.345C135.241 138.517 147.655 150.931 162.828 150.931C178 150.931 190.414 138.517 190.414 123.345C190.414 110.241 181.448 99.8966 169.724 96.4483ZM162.828 137.138C155.241 137.138 149.034 130.931 149.034 123.345C149.034 115.759 155.241 109.552 162.828 109.552C170.414 109.552 176.621 115.759 176.621 123.345C176.621 130.931 170.414 137.138 162.828 137.138Z" fill="url(#paint0_linear_177_2)"/>
<path d="M93.8621 213L55.931 190.931C32.4828 177.138 18 152.31 18 125.414V26.7931C18 19.2069 24.2069 13 31.7931 13H114.552V26.7931H31.7931V125.414C31.7931 147.483 43.5172 168.172 62.8276 179.207L93.8621 197.828L124.897 179.207C132.483 174.379 139.379 168.862 144.207 161.276L155.241 168.862C149.034 177.828 140.759 185.414 131.103 190.931L93.8621 213Z" fill="white"/>
<path d="M105.333 114C108.781 114 112.088 115.37 114.526 117.808C116.964 120.246 118.333 123.552 118.333 127C118.333 130.448 116.964 133.754 114.526 136.192C112.088 138.63 108.781 140 105.333 140C101.886 140 98.5789 138.63 96.1409 136.192C93.703 133.754 92.3333 130.448 92.3333 127C92.3333 123.552 93.703 120.246 96.1409 117.808C98.5789 115.37 101.886 114 105.333 114ZM66.3333 96.6667C70.9304 96.6667 75.3392 98.4929 78.5899 101.743C81.8405 104.994 83.6667 109.403 83.6667 114C83.6667 118.597 81.8405 123.006 78.5899 126.257C75.3392 129.507 70.9304 131.333 66.3333 131.333C61.7362 131.333 57.3274 129.507 54.0768 126.257C50.8262 123.006 49 118.597 49 114C49 109.403 50.8262 104.994 54.0768 101.743C57.3274 98.4929 61.7362 96.6667 66.3333 96.6667ZM105.333 62C111.08 62 116.591 64.2827 120.654 68.346C124.717 72.4093 127 77.9203 127 83.6667C127 89.413 124.717 94.924 120.654 98.9873C116.591 103.051 111.08 105.333 105.333 105.333C99.587 105.333 94.076 103.051 90.0127 98.9873C85.9494 94.924 83.6667 89.413 83.6667 83.6667C83.6667 77.9203 85.9494 72.4093 90.0127 68.346C94.076 64.2827 99.587 62 105.333 62Z" fill="white"/>
<defs>
<linearGradient id="paint0_linear_177_2" x1="162.828" y1="13" x2="162.828" y2="150.931" gradientUnits="userSpaceOnUse">
<stop stop-color="#FFBF00"/>
<stop offset="0.7" stop-color="white"/>
</linearGradient>
</defs>
</svg>
