<?xml version="1.0" encoding="UTF-8"?>
<svg width="1200pt" height="1200pt" version="1.1" viewBox="0 0 1200 1200" xmlns="http://www.w3.org/2000/svg">
 <path d="m83.512 699.64h47.426c19.289 0 41.074 10.688 41.074 30.289v28.961l163.3-58.125c46.148-16.426 91.262-12.773 137.74-0.3125l75 20.102c-7.6875-122.04 21.75-240.36 79.512-325.94 17.086-25.312 36.426-47.387 57.539-65.551l-68.688-201.49c-2.0742-6.1133 0.46094-12.676 5.7383-15.914 4.6367-3.0234 7.5625-6.2734 13.289-6.2617l-0.003906-0.046876h385.31c5.5391 0 9.0391 3.375 13.875 6.7109 5.1016 3.5234 7.0391 9.9141 5.1367 15.5h0.011719l-37.949 111.2-29.812 91.086c91.176 79.102 137.35 218.04 137.35 352.76l-1.5 42.164c18.113 0.61328 34.438 7.9883 43.438 23.461l0.023438-0.011719c17.352 29.414-4.1133 67.586-33.789 83.512l-388.37 223.77c-68.586 39.512-142.12 49.176-218.54 28.699l-208.49-55.863c-20.75-5.5508-37.926-7.8125-59.461-7.8125l-70.648-0.0625v35.574c0 19.602-21.789 30.289-41.074 30.289h-47.441c-19.289 0-41.074-10.699-41.074-30.289v-326.12c0-19.586 21.789-30.273 41.074-30.273zm492.25 28.34 257.27 68.938c17.949 4.8125 32.137 16.977 40.137 32.512l190.51-94.301c5.5-2.7266 11.113-4.9258 16.711-6.5859 9.3008-117.31-17.523-234.65-74.289-318.75-99.113-146.84-256.91-146.84-356.02 0-56.621 83.922-83.496 201.01-74.32 318.19zm132.06-416.45c76.086-52.363 165.57-52.074 241.46 0.61328 19.75-60.102 39.676-119.61 60.137-179.59h-362.61zm118.98 96.965c-2.1484 0-0.60156 0.011719 0 0.023438v0.023437l-1.4375 0.011719c-86.875 0.9375-156 70.977-156 157.36h0.050781v1.4375c0.39844 87.023 72.301 158.65 160.01 158.65 2.1641 0 0.60156-0.011719 0-0.023438v-0.023437l1.4375-0.011719c86.875-0.9375 156-70.977 156-157.35h-0.050781v-1.4492c-0.38672-87.023-72.289-158.65-160.01-158.65zm93.461 65.723c-51.625-51.164-134.98-51.648-186.1-0.050782-23.273 23.488-37.613 55.887-37.613 91.75l-0.046875 0.003906c0.35156 73.738 59.812 132.89 132.93 132.89 69.789 0 130.25-55.613 130.25-130.21h0.050781c-0.16406-37.016-14.891-70.027-39.465-94.379zm-90.836 251.74c-0.32422 0.011719-0.22656 0.011719 0 0.023437zm-2.625-317.43c0.32422-0.011719 0.23828-0.011719 0-0.023438zm14.91 251.28v-25.875c6.8125-1.9141 12.977-5.1992 18.012-9.4883 29.301-24.977 10.801-70.539-31.551-70.75-16.5-0.074219-24.398-14.211-14.023-23.051 11.363-9.6758 32.352-3.6641 32.664 9.4375 0.17578 7.4766 6.375 13.398 13.863 13.227 7.4883-0.17578 13.398-6.3867 13.227-13.863-0.44922-19-14.352-33.898-32.176-38.898v-25.887c0-7.5117-6.0859-13.602-13.602-13.602-7.5117 0-13.602 6.0859-13.602 13.602v25.887c-6.8125 1.8984-12.977 5.1875-18.012 9.4883-29.301 24.977-10.801 70.539 31.562 70.75 16.488 0.074218 24.398 14.199 14.023 23.051-11.352 9.6758-32.352 3.6641-32.648-9.4375-0.17578-7.4766-6.3867-13.398-13.863-13.227-7.4766 0.17578-13.398 6.3867-13.227 13.863 0.44922 19 14.352 33.898 32.176 38.898v25.887c0 7.5117 6.0859 13.602 13.602 13.602 7.4883-0.015624 13.574-6.1016 13.574-13.613zm-669.69 127.91v205.69l70.648-0.0625c23.125 0 44.074 2.7617 66.477 8.7734l208.5 55.863c69.586 18.648 135.64 10 198.02-25.938l389.05-224.19c10.914-6.3008 18.852-15.137 22.852-24.289 3.2891-7.5234 3.9141-15.875 0.39844-21.539l0.023438-0.011719c-3.2383-5.7383-9.7266-8.9609-17.773-9.8633-10.262-1.1484-22.562 1.3867-34.523 7.3125l-192.35 95.211c-1.0117 0.5-2.0625 0.86328-3.125 1.0859 1.9609 42.875-38.863 75.414-80.188 64.352l-152.04-40.738c-7.25-1.9375-11.551-9.3867-9.6133-16.625 1.9375-7.25 9.375-11.551 16.625-9.6133l152.02 40.738c31.148 8.3516 57.551-25.273 41.148-53.676-4.6758-8.1016-12.449-14.426-22.188-17.039l-359.99-96.449c-41.574-11.137-80.762-14.887-121.7-0.32422zm-41.086-60.887h-47.426c-5.1016 0-9.4609 1.1133-12.398 2.8867-0.91406 0.55078-1.4883-0.25-1.4883 0.19922v326.12c0 0.46094 0.57422-0.35156 1.4883 0.21094 2.9258 1.7734 7.3008 2.8867 12.398 2.8867h47.426c5.1016 0 9.4609-1.1016 12.398-2.8867 0.91406-0.55078 1.4883 0.25 1.4883-0.21094v-326.12c0-0.46094-0.57422 0.35156-1.4883-0.19922-2.9219-1.7734-7.2969-2.8867-12.398-2.8867z" fill="#00abe6" fill-rule="evenodd"/>
</svg>
