<?xml version="1.0" encoding="utf-8"?>
<!-- Generator: Adobe Illustrator 16.0.0, SVG Export Plug-In . SVG Version: 6.00 Build 0)  -->
<!DOCTYPE svg PUBLIC "-//W3C//DTD SVG 1.1//EN" "http://www.w3.org/Graphics/SVG/1.1/DTD/svg11.dtd">
<svg version="1.1" id="Layer_1" xmlns="http://www.w3.org/2000/svg" xmlns:xlink="http://www.w3.org/1999/xlink" x="0px" y="0px"
	 width="475px" height="446px" viewBox="0 0 475 446" enable-background="new 0 0 475 446" xml:space="preserve">
<g id="ThhD88.tif" display="none">
</g>
<path d="M291,10.8C291,4.835,286.165,0,280.2,0h-84.4C189.835,0,185,4.835,185,10.8v205.4c0,5.964,4.835,10.8,10.8,10.8h84.4
	c5.965,0,10.8-4.835,10.8-10.8V10.8z"/>
<path d="M362.338,168c16.366,0,20.56,9.899,9.319,21.795l-113.462,120.16c-11.239,11.896-29.633,11.938-40.873,0.042
	L103.861,189.774C92.621,177.878,96.814,168,113.18,168H362.338z"/>
<path d="M475,376c0-9.941-8.059-18-18-18H18c-9.941,0-18,8.059-18,18v52c0,9.941,8.059,18,18,18h439c9.941,0,18-8.059,18-18V376z"/>
</svg>
