<?xml version="1.0" encoding="UTF-8"?>
<svg width="128pt" height="128pt" version="1.1" viewBox="0 0 128 128" xmlns="http://www.w3.org/2000/svg">
 <path d="m116 113.2c-1.0234-0.003907-2.043-0.13281-3.0312-0.39453-3.8438-1-6.9336-3.8203-8.4727-7.7109-1.6133-4.0781-4.4414-7-8.9062-9.1719-5.7031-2.7852-12.219-4.2969-20.5-4.75-4.0742-0.22656-8.2891-0.23438-12.363-0.25h-1.5156c0 3.2148 0 6.5156-0.019532 9.75 0.003906 1.3438-0.1875 2.6797-0.57031 3.9648-1.2695 4.0391-4.5469 7.125-8.6562 8.1484-4.2148 1.043-8.5156-0.28516-11.82-3.6055-9.25-9.3164-18.699-18.75-27.844-27.852l-7.5508-7.5195c-1.7734-1.7773-3.7148-4.0234-4.5859-7.1914l-0.16406-0.60156v-4.0156l0.15625-0.58984c0.84375-3.1602 2.75-5.3828 4.6836-7.3047 4.8047-4.7891 9.6836-9.6641 14.41-14.379l10-10c3.6289-3.6289 7.3867-7.3828 11.094-11.066 3.8672-3.8438 8.7852-4.8633 13.488-2.8086 4.7852 2.0938 7.4062 6.2305 7.3828 11.641-0.015625 3 0 6.0742 0 9.0352v0.65625c8.3398 0.28906 15.75 1.3086 22.602 3.1016 11.133 2.9219 19.969 7.6211 27.02 14.367 9.1211 8.7266 14.5 20.066 16.422 34.664 0.20703 1.5586 0.36328 3.1172 0.5 4.6211 0.066407 0.67969 0.13672 1.3594 0.20703 2.0391l0.023437 0.25v7.0898l-0.27734 0.76562c-0.75 2.0938-1.7656 4.4883-4.1055 6.3828h-0.003907c-2.1445 1.7578-4.8281 2.7227-7.6016 2.7344zm-58.727-31.57h0.066406c1.7969 0.019532 3.6328 0.023438 5.4102 0.027344 4.1992 0 8.5391 0.015625 12.859 0.25 9.5586 0.52734 17.203 2.3281 24.059 5.6758 6.5781 3.2109 10.98 7.8242 13.461 14.094 0.44922 1.1328 1.2305 1.8984 2.2031 2.1523h-0.003906c0.86328 0.21484 1.7773-0.003906 2.4492-0.58594 0.34766-0.28125 0.62891-0.80859 0.94531-1.6016v-4.9336c-0.066406-0.61719-0.12891-1.2383-0.1875-1.8555-0.14844-1.5-0.28906-2.9141-0.47656-4.3242-1.6406-12.426-6.1016-21.969-13.637-29.176-5.8828-5.6328-13.391-9.6016-22.961-12.102-6.8984-1.8086-14.516-2.75-23.301-2.8711h-0.95703-5.25v-5.9375-3.9141-9.0859c0-1.9219-0.66406-2.5938-1.8281-3.1016-0.85156-0.37109-1.75-0.58594-3.2305 0.89062-3.6992 3.6719-7.4492 7.4219-11.074 11.047l-10 10c-4.7422 4.7227-9.625 9.6055-14.434 14.398-1.0195 1.0156-1.75 1.8477-2.1094 2.6797v1.2695c0.36719 0.84375 1.0859 1.6719 2.0312 2.6133l7.5391 7.5117c9.1523 9.1211 18.617 18.555 27.879 27.887 0.6875 0.69141 1.7734 1.4531 3.043 1.1445 0.94922-0.24609 1.7031-0.96094 2-1.8945 0.11328-0.41406 0.16406-0.84375 0.15234-1.2734 0.023437-3.5 0.023437-7.1016 0.015625-10.578v-3.6914l0.003906-4.0469 4.0234-0.53906 0.097656-0.015624c0.39844-0.074219 0.80469-0.11328 1.2109-0.11328z" fill="#00abe6"/>
</svg>
