<?xml version="1.0" encoding="UTF-8"?>
<svg width="128pt" height="128pt" version="1.1" viewBox="0 0 128 128" xmlns="http://www.w3.org/2000/svg">
 <g fill="#00abe6">
  <path d="m27.461 105.71h25.48v7.543h-25.48z"/>
  <path d="m29.926 94.867v8.8359h20.84v-12.016c0-2.7148-1.2812-5.3164-3.4336-6.9688l-6.582-5.0586c-0.52734-0.40625-1.1523-0.62109-1.8086-0.62109-0.13281 0-0.26562 0.007813-0.40234 0.027344-0.78906 0.10547-1.4922 0.51172-1.9766 1.1484-0.85547 1.1172-0.8125 2.6992 0.10938 3.7656l5.6406 6.5156 0.011719 0.023437 1.3203 1.5273c0.17578 0.20312 0.26172 0.46484 0.23828 0.73438-0.019531 0.26562-0.14062 0.51172-0.34766 0.6875-0.23438 0.19922-0.48438 0.24219-0.65234 0.24219-0.29297 0-0.57031-0.12891-0.76562-0.35547l-9.0195-10.438-7.4219-5.625c-0.24609-0.1875-0.39844-0.48828-0.39844-0.80078l0.003906-16.293c0-1.6797-1.3711-3.0508-3.0508-3.0508-1.6328 0-2.9727 1.2773-3.0469 2.9062l-0.96484 20.211 11.48 13.965c0.14844 0.17578 0.22656 0.40625 0.22656 0.63672z"/>
  <path d="m85.117 93.703c-0.16797 0-0.42188-0.042969-0.65625-0.24609-0.20313-0.17578-0.32422-0.41797-0.34766-0.6875-0.023437-0.26953 0.066407-0.52734 0.23828-0.73047l1.1719-1.3594 0.14453-0.14844 0.019531-0.039062 5.6406-6.5234c0.91797-1.0664 0.96484-2.6484 0.10938-3.7656-0.48438-0.63672-1.1875-1.043-1.9805-1.1484-0.13281-0.015626-0.26172-0.027344-0.39453-0.027344-0.66016 0-1.2891 0.21484-1.8125 0.61719l-6.5859 5.0625c-2.1484 1.6523-3.4336 4.2578-3.4336 6.9688v12.016h20.84v-8.8359c0-0.23047 0.082032-0.46094 0.22656-0.63672l11.48-13.961-0.96484-20.211c-0.074219-1.6289-1.4141-2.9062-3.0469-2.9062-1.6797 0-3.0508 1.3711-3.0508 3.0508v16.289c0 0.3125-0.14844 0.61328-0.39844 0.80078l-7.418 5.6289-9.0234 10.441c-0.1875 0.22266-0.46484 0.35156-0.75781 0.35156z"/>
  <path d="m75.059 105.71h25.48v7.543h-25.48z"/>
  <path d="m37.586 67.723c0 2.2227 1.8008 4.0234 4.0234 4.0234h20.379v-28.926h-24.402z"/>
  <path d="m90.414 67.723v-24.902h-24.402v28.93h20.379c2.2227-0.003906 4.0234-1.8047 4.0234-4.0273z"/>
  <path d="m61.977 30.426c0.03125-0.29297 0.03125-0.61328 0.007813-0.9375-0.23047-3.3086-3.6055-8.0078-6.8164-10.934-2.7109-2.4922-5.3672-3.8125-7.6875-3.8125-1.5664 0-2.9219 0.57812-3.9102 1.6602-0.94922 1.0195-1.418 2.3203-1.3594 3.7734 0.097656 2.3906 1.6523 5.0234 4.4883 7.6133 0.85938 0.78906 1.8203 1.5234 2.8086 2.2188h-11.719c-1.8516 0-3.3594 1.5078-3.3594 3.3789v5.4102h27.559v-7.9531c0-0.089844-0.023437-0.16797-0.050781-0.25 0.011719-0.058594 0.03125-0.10547 0.039062-0.16797zm-5.9648-1.3438c-2.1055-0.83594-4.6562-2.4766-6.5977-4.2617-2.8047-2.5547-3.1602-4.2148-3.1875-4.8086-0.019531-0.48047 0.15234-0.72656 0.29688-0.87891 0.14453-0.15625 0.39844-0.36719 0.95312-0.36719 0.59375 0 2.2695 0.26562 4.9727 2.7578 2.7266 2.4844 4.8242 5.6953 5.3828 7.5625z"/>
  <path d="m66.055 30.637c-0.019532 0.066406-0.042969 0.13281-0.042969 0.20703v7.9531h27.559v-5.4102c0-1.8711-1.5078-3.3789-3.3594-3.3789h-11.715c0.98438-0.69141 1.9453-1.4258 2.8008-2.2109 2.8438-2.5938 4.3984-5.2305 4.4961-7.6172 0.058593-1.4492-0.41016-2.7539-1.3477-3.7578-2.4883-2.7266-7.0781-2.043-11.609 2.1289-3.2148 2.9297-6.5938 7.6289-6.8203 10.918-0.027344 0.34766-0.027344 0.66797 0.03125 1.1602 0.003906 0 0.003906 0.003906 0.007813 0.007813zm9.5-9.1211c2.6953-2.4844 4.3711-2.75 4.9648-2.75 0.55469 0 0.8125 0.20703 0.96875 0.38281 0.12891 0.14062 0.30078 0.38281 0.28125 0.86328-0.027343 0.59375-0.38281 2.2539-3.1914 4.8164-1.9375 1.7812-4.4883 3.4219-6.5938 4.2578h-1.8242c0.55078-1.8516 2.6562-5.0781 5.3945-7.5703z"/>
 </g>
</svg>
