<?xml version="1.0" encoding="UTF-8"?>
<svg width="128pt" height="128pt" version="1.1" viewBox="0 0 128 128" xmlns="http://www.w3.org/2000/svg">
 <path d="m121.16 72.23c0.43359-2.6016 0.43359-5.6289 0.43359-8.2305s0-5.1953-0.43359-7.7969l-13.426-3.0352c-1.3047-4.3242-3.0352-8.2305-5.1953-12.121l7.3594-11.699c-3.0352-4.3242-6.9258-8.2305-11.266-11.266l-11.699 7.3594c-3.4688-2.1641-7.7969-3.9062-12.121-4.7617l-3.0352-13.859c-2.6016 0-5.1953-0.43359-7.7969-0.43359s-5.1953 0.43359-8.2305 0.43359l-3.0352 13.859c-3.9062 0.87109-8.2305 2.6016-11.699 4.7617l-11.699-7.3594c-4.3242 3.0352-8.2305 6.9258-11.266 11.266l7.3594 11.699c-2.1641 3.9062-3.9062 7.7969-5.1953 12.121l-13.426 3.0352c-0.43359 2.6016-0.43359 5.1953-0.43359 7.7969s0 5.6289 0.43359 8.2305l13.426 3.0352c1.3047 4.3242 3.0352 8.2305 5.1953 11.699l-7.3594 11.699c3.0352 4.3242 6.9258 8.2305 11.266 11.266l11.699-7.3594c3.4688 2.1641 7.7969 3.9062 11.699 5.1953l3.0352 13.426c3.0352 0.43359 5.6289 0.43359 8.2305 0.43359s5.1953 0 7.7969-0.43359l3.0352-13.426c4.3242-1.3047 8.6641-3.0352 12.121-5.1953l11.699 7.3594c4.3242-3.0352 8.2305-6.9258 11.266-11.266l-7.3594-11.699c2.1641-3.4688 3.9062-7.3594 5.1953-11.699zm-57.164 22.516c-16.895 0-30.309-13.859-30.309-30.746s13.426-30.309 30.309-30.309c16.887 0 30.309 13.426 30.309 30.309 0 16.887-13.426 30.746-30.309 30.746zm0-51.789c-11.738 0-20.852 9.5859-20.852 20.898 0 11.316 9.125 20.898 20.852 20.898s20.852-9.1484 20.852-20.898-9.125-20.898-20.852-20.898zm0 33.098c-6.9492 0-12.176-5.2188-12.176-12.199 0-6.5312 5.2109-12.199 12.176-12.199s12.176 5.6602 12.176 12.199c0 6.9648-5.2109 12.199-12.176 12.199z" fill="#00abe6" fill-rule="evenodd"/>
</svg>
