<?xml version="1.0" encoding="UTF-8"?>
<svg width="1200pt" height="1200pt" version="1.1" viewBox="0 0 1200 1200" xmlns="http://www.w3.org/2000/svg">
 <g fill="#00abe6">
  <path d="m1002.2 497.9-184.66-196.3v0.003906c-5.3945-5.7305-12.867-9.0508-20.738-9.2109-7.8711-0.16016-15.473 2.8516-21.098 8.3594-5.625 5.5039-8.7969 13.043-8.8047 20.914v84.887h-155.18v58.586h184.49c7.7852 0.023438 15.262-3.0469 20.777-8.5391 5.5156-5.4961 8.6172-12.957 8.625-20.742v-40.297l115.2 122.4-115.2 122.4v-40.363c0-7.7734-3.0898-15.227-8.5859-20.723-5.4922-5.4922-12.949-8.582-20.719-8.582h-172.8v-0.16797h-190.39v-84.793c-0.007813-7.8711-3.1797-15.406-8.8047-20.914-5.625-5.5078-13.227-8.5195-21.098-8.3594-7.8711 0.16016-15.344 3.4805-20.738 9.2109l-184.66 196.3c-5.1133 5.4336-7.957 12.613-7.957 20.074 0 7.4609 2.8438 14.641 7.957 20.078l184.66 196.27v-0.003906c5.3945 5.7305 12.867 9.0508 20.738 9.2109 7.8711 0.16016 15.473-2.8516 21.098-8.3594 5.625-5.5039 8.7969-13.043 8.8047-20.914v-84.887h155.18v-58.586h-184.49c-7.7891-0.023438-15.27 3.0508-20.785 8.5508-5.5156 5.4961-8.6172 12.965-8.6172 20.754v40.273l-115.2-122.4 115.2-122.4v40.363c0 7.7734 3.0898 15.227 8.5859 20.723 5.4922 5.4922 12.949 8.582 20.719 8.582h172.8v0.16797h190.34v84.887c0.011719 5.875 1.7852 11.613 5.0938 16.469 3.3047 4.8594 7.9961 8.6094 13.457 10.773 3.4414 1.3516 7.1055 2.0508 10.801 2.0625 8.082-0.007812 15.805-3.3516 21.336-9.2383l184.66-196.27c5.1406-5.4414 8.0039-12.641 8.0039-20.125s-2.8633-14.684-8.0039-20.125z"/>
  <path d="m506.26 406.56h70.32v58.586h-70.32z"/>
  <path d="m623.45 734.86h70.32v58.586h-70.32z"/>
 </g>
</svg>
