<?xml version="1.0" encoding="UTF-8"?>
<svg width="128pt" height="128pt" version="1.1" viewBox="0 0 128 128" xmlns="http://www.w3.org/2000/svg">
 <path d="m34.664 16c-4.2695 0-8.1914 2.4219-10.102 6.2383-2.7656 5.5234-5.5234 11.051-8.2852 16.574-0.16406 0.34375-0.25391 0.72656-0.26953 0.95312-0.003906 0.023437-0.011718 58.895-0.011718 58.895 0 7.3359 6 13.336 13.336 13.336h69.328c7.3359 0 13.336-6 13.336-13.336l-0.011719-58.887c-0.003906-0.21875-0.09375-0.60938-0.26953-0.96484-2.7617-5.5234-5.5195-11.051-8.2852-16.574-1.9102-3.8203-5.8281-6.2383-10.102-6.2383zm0 5.3359h26.672v16h-38.355l6.3555-12.711c1.0117-2.0234 3.0664-3.2891 5.3281-3.2891zm32 0h26.672c2.2656 0 4.3203 1.2656 5.3281 3.2891l6.3555 12.711h-38.355zm18.672 42.664c0.70312 0 1.3867 0.28125 1.8867 0.78125l8 8c1.0391 1.0469 1.0391 2.7305 0 3.7695l-8 8c-1.0469 1.0469-2.7305 1.0469-3.7695 0-1.0469-1.0391-1.0469-2.7266 0-3.7695l3.4453-3.4453h-52.23c-1.4688 0-2.6641-1.1953-2.6641-2.6719 0-1.4688 1.1953-2.6641 2.6641-2.6641h52.23l-3.4453-3.4492c-1.0469-1.0391-1.0469-2.7266 0-3.7695 0.5-0.5 1.1758-0.78125 1.8867-0.78125z" fill="#00abe6"/>
</svg>
