<?xml version="1.0" encoding="UTF-8"?>
<svg width="128pt" height="128pt" version="1.1" viewBox="0 0 128 128" xmlns="http://www.w3.org/2000/svg">
 <path d="m121.37 89.91c0.074218-0.10156 0.15625-0.19531 0.23047-0.28906v6.0742c0 6.7344-12.691 12.43-27.703 12.43-11.371 0-21.48-3.1328-25.715-7.8867l5.582-3.2227c0.36328-0.21484 0.70703-0.4375 1.0312-0.67969 0.11328-0.074219 0.21484-0.15625 0.31641-0.24219 0.12891-0.10156 0.26172-0.19531 0.39062-0.30859 0.26953 0.10156 0.54688 0.19531 0.82812 0.29688 0.30859 0.10156 0.60547 0.21484 0.92188 0.31641 0.38281 0.12891 0.76953 0.24219 1.1602 0.35156 0.32422 0.09375 0.64844 0.19531 0.98438 0.28906 0.39844 0.10156 0.80859 0.20313 1.2188 0.29688 0.34375 0.082031 0.67969 0.16797 1.0195 0.24219 0.41797 0.09375 0.85547 0.17578 1.2812 0.26172 0.35156 0.066406 0.69531 0.12891 1.0508 0.19531 0.44531 0.074219 0.90234 0.14062 1.3555 0.20312 0.35156 0.046875 0.69531 0.10156 1.0508 0.14844 0.48438 0.066406 0.96484 0.11328 1.457 0.15625 0.33594 0.027343 0.66797 0.074219 1.0039 0.10156 0.54688 0.046875 1.1055 0.074219 1.6641 0.10156 0.28906 0.019531 0.56641 0.039062 0.85547 0.054687 0.84375 0.027344 1.6914 0.046875 2.5469 0.046875 11.391 0 21.867-3.168 26.691-8.082 0.21484-0.21484 0.41797-0.4375 0.61328-0.66016 0.054687-0.074219 0.11328-0.14062 0.16797-0.20312zm-0.16797-10.926c-0.19531 0.22266-0.39844 0.44531-0.61328 0.66016-2.3125 2.3789-5.9648 4.3945-10.555 5.8242-0.019531 0-0.046875 0.007812-0.074219 0.019531-4.793 1.4688-10.348 2.2383-16.062 2.2383-0.64062 0-1.293-0.007812-1.9336-0.027343-0.20313-0.007813-0.41797-0.019531-0.63281-0.027344-0.42578-0.019531-0.85547-0.039063-1.2812-0.066406-0.24219-0.007813-0.49219-0.039063-0.74219-0.054688-0.38281-0.027343-0.76953-0.054687-1.1523-0.09375-0.26172-0.019531-0.51172-0.046875-0.76953-0.074219-0.37109-0.046874-0.73437-0.082031-1.0938-0.12891-0.26172-0.027344-0.51953-0.066406-0.78906-0.10156-0.34375-0.054688-0.69531-0.10156-1.0391-0.15625-0.26172-0.046875-0.53125-0.09375-0.78906-0.12891-0.33594-0.066407-0.67969-0.12891-1.0117-0.19531-0.25-0.046875-0.51172-0.10156-0.76172-0.14844-0.33594-0.074219-0.66016-0.14844-0.99609-0.22266-0.25-0.066406-0.49219-0.12109-0.74219-0.17578-0.09375-0.027344-0.19531-0.046875-0.29688-0.074219v0.41016c0 0.39844-0.027343 0.78906-0.066406 1.1875-0.007813 0.12109-0.027344 0.25-0.046875 0.37109-0.039062 0.26953-0.074219 0.53125-0.12891 0.78906-0.027344 0.14844-0.054688 0.28906-0.09375 0.4375-0.054688 0.24219-0.12109 0.47266-0.19531 0.71484-0.039062 0.14062-0.082031 0.28906-0.12891 0.42578-0.082031 0.23047-0.17578 0.46484-0.26953 0.69531-0.054688 0.12891-0.10156 0.26953-0.16797 0.39844-0.11328 0.24219-0.23047 0.48438-0.36328 0.72266-0.054688 0.10156-0.11328 0.21484-0.16797 0.31641-0.19531 0.34375-0.39844 0.66797-0.63281 0.99609-0.019531 0.027344-0.039062 0.046875-0.054687 0.074219-0.1875 0.26172-0.38281 0.51172-0.58594 0.75391 0.12109 0.039062 0.23047 0.082031 0.35156 0.12109 0.26953 0.10156 0.55859 0.1875 0.84375 0.27734 0.37109 0.12109 0.75391 0.23047 1.1328 0.34375 0.29688 0.082031 0.59375 0.16797 0.89063 0.24219 0.39844 0.10156 0.79687 0.20312 1.1992 0.29688 0.30469 0.074219 0.61328 0.14062 0.92969 0.20312 0.41797 0.09375 0.83594 0.16797 1.2539 0.25 0.31641 0.054687 0.63281 0.11328 0.94531 0.16797 0.4375 0.074218 0.88281 0.12891 1.3281 0.19531 0.31641 0.046875 0.63281 0.09375 0.94531 0.12891 0.46484 0.054688 0.9375 0.10156 1.4102 0.14844 0.30859 0.027344 0.61328 0.066406 0.92188 0.082031 0.51953 0.046875 1.0508 0.074219 1.5781 0.10156 0.26953 0.019531 0.53125 0.039062 0.78906 0.046875 0.79688 0.027343 1.5977 0.046875 2.4062 0.046875 10.914 0 20.875-2.9531 25.371-7.5234 1.5469-1.5664 2.3359-3.2227 2.3359-4.9023v-6.0742c-0.074219 0.09375-0.15625 0.1875-0.23047 0.27734-0.054687 0.074218-0.11328 0.14062-0.16797 0.21484zm0-11.121c-0.19531 0.22266-0.39844 0.44531-0.61328 0.66797-2.3242 2.3711-5.9648 4.375-10.555 5.8047-0.019531 0-0.046875 0.007812-0.074219 0.019531-4.793 1.4688-10.348 2.2383-16.062 2.2383-0.64062 0-1.293-0.007812-1.9336-0.027344-0.20313-0.007812-0.41797-0.019531-0.63281-0.027344-0.42578-0.019531-0.85547-0.039062-1.2812-0.066406-0.24219-0.007812-0.49219-0.039062-0.74219-0.054687-0.38281-0.027344-0.76953-0.054688-1.1523-0.09375-0.26172-0.019531-0.51172-0.046875-0.76953-0.074219-0.37109-0.046875-0.73437-0.082031-1.0938-0.12891-0.26172-0.027344-0.51953-0.066406-0.78906-0.10156-0.34375-0.054687-0.69531-0.10156-1.0391-0.15625-0.26172-0.046875-0.53125-0.082031-0.78906-0.12891-0.33594-0.066406-0.67969-0.12891-1.0117-0.19531-0.25-0.046874-0.51172-0.10156-0.76172-0.14844-0.33594-0.074219-0.66016-0.14844-0.99609-0.22266-0.25-0.054688-0.49219-0.12109-0.74219-0.17578-0.09375-0.027344-0.19531-0.046876-0.29688-0.074219v9.1953c0.17578 0.054688 0.36328 0.10156 0.53906 0.14844 0.26172 0.066406 0.51172 0.12891 0.76953 0.1875 0.30859 0.074219 0.62109 0.14062 0.92969 0.21484 0.26172 0.054688 0.51172 0.11328 0.76953 0.15625 0.32422 0.066407 0.66016 0.12891 0.98438 0.1875 0.26172 0.046876 0.51172 0.09375 0.76953 0.12891 0.34375 0.054687 0.6875 0.11328 1.0312 0.15625 0.25 0.039062 0.51172 0.074219 0.76172 0.11328 0.36328 0.039062 0.72266 0.082031 1.0859 0.12109 0.25 0.027344 0.49219 0.054687 0.74219 0.082031 0.38281 0.027344 0.76953 0.054687 1.1523 0.09375 0.24219 0.019531 0.47266 0.039063 0.71484 0.046875 0.41797 0.027344 0.84766 0.046875 1.2734 0.066406 0.20312 0.007813 0.41016 0.019532 0.61328 0.027344 0.63281 0.019531 1.2617 0.027344 1.8945 0.027344 5.5547 0 10.945-0.75391 15.582-2.1836 0.027344 0 0.046876-0.007812 0.074219-0.019531 4.2656-1.3359 7.6172-3.1758 9.707-5.3242 1.5508-1.5625 2.3438-3.2188 2.3438-4.8984v-6.0586c-0.074218 0.09375-0.15625 0.1875-0.23047 0.27734-0.054688 0.0625-0.11328 0.13672-0.16797 0.20313zm0-11.129c-0.19531 0.22266-0.39844 0.44531-0.61328 0.66797-2.3242 2.3711-5.9648 4.375-10.555 5.8047-0.019531 0.007813-0.046875 0.007813-0.074219 0.019531-4.793 1.4688-10.348 2.2383-16.062 2.2383-0.64062 0-1.293-0.007813-1.9336-0.027344-0.20313-0.007812-0.41797-0.019531-0.63281-0.027344-0.42578-0.019531-0.85547-0.039062-1.2812-0.066406-0.24219-0.007812-0.49219-0.027344-0.74219-0.046875-0.38281-0.039063-0.76953-0.066406-1.1523-0.10156-0.26172-0.019531-0.51172-0.046874-0.76953-0.074218-0.37109-0.046875-0.73437-0.082032-1.0938-0.12891-0.26172-0.027344-0.51953-0.066407-0.78906-0.10156-0.34375-0.054687-0.69531-0.10156-1.0391-0.15625-0.26172-0.046875-0.53125-0.082031-0.78906-0.12891-0.33594-0.066407-0.67969-0.12891-1.0117-0.19531-0.25-0.046875-0.51172-0.10156-0.76172-0.14844-0.33594-0.074219-0.66016-0.14844-0.99609-0.22266-0.25-0.054687-0.49219-0.12109-0.74219-0.17578-0.09375-0.027343-0.19531-0.046875-0.29688-0.074219v9.1953c0.17578 0.054687 0.36328 0.10156 0.53906 0.14844 0.26172 0.066407 0.51172 0.12891 0.76953 0.1875 0.30859 0.074219 0.62109 0.14844 0.92969 0.21484 0.26172 0.054688 0.51172 0.11328 0.76953 0.15625 0.32422 0.066406 0.66016 0.12891 0.98438 0.1875 0.26172 0.046875 0.51172 0.09375 0.76953 0.12891 0.34375 0.054688 0.6875 0.11328 1.0312 0.15625 0.25 0.039063 0.51172 0.074219 0.76172 0.11328 0.36328 0.039062 0.72266 0.082031 1.0859 0.12109 0.25 0.027343 0.49219 0.054687 0.74219 0.082031 0.38281 0.039062 0.76953 0.066406 1.1523 0.09375 0.24219 0.019531 0.47266 0.039062 0.71484 0.054687 0.41797 0.019532 0.84766 0.039063 1.2734 0.054688 0.20312 0.007812 0.41016 0.019531 0.61328 0.027344 0.63281 0.019531 1.2617 0.027343 1.8945 0.027343 5.5547 0 10.945-0.75391 15.582-2.1836 0.027344 0 0.046876-0.007813 0.074219-0.019532 4.2539-1.3281 7.6172-3.168 9.7188-5.3164 1.543-1.5664 2.332-3.2109 2.332-4.9023v-6.0664c-0.074218 0.09375-0.15625 0.1875-0.23047 0.27734-0.054688 0.066406-0.11328 0.14062-0.16797 0.20312zm0-11.129c-0.19531 0.22266-0.39844 0.44531-0.61328 0.66797-2.3125 2.3594-5.9727 4.3672-10.582 5.8047-4.8008 1.4766-10.367 2.2656-16.109 2.2656-0.6875 0-1.375-0.019531-2.0625-0.039062-0.23047-0.007813-0.45703-0.027344-0.6875-0.039063-0.45703-0.019531-0.90234-0.039063-1.3555-0.066406-0.26953-0.019531-0.53906-0.046875-0.80859-0.066407-0.39844-0.039062-0.80859-0.066406-1.207-0.10156-0.27734-0.027344-0.55859-0.066406-0.83594-0.09375-0.39062-0.046875-0.76953-0.09375-1.1445-0.14062-0.28906-0.046875-0.56641-0.082031-0.84766-0.12891-0.37109-0.054688-0.74219-0.11328-1.1055-0.17578-0.27734-0.046876-0.54688-0.09375-0.82812-0.14844-0.36328-0.066406-0.72266-0.14062-1.0781-0.21484-0.26953-0.054687-0.53906-0.11328-0.79688-0.17578-0.36328-0.074219-0.71484-0.16797-1.0703-0.25-0.25-0.066406-0.5-0.12891-0.74219-0.19531-0.12891-0.039062-0.26172-0.066406-0.38281-0.09375 0.007813 0.039063 0.027344 0.074219 0.039063 0.11328 0.12891 0.31641 0.24219 0.63281 0.34375 0.95703 0 0.019531 0.007812 0.027344 0.019531 0.046875 0.10156 0.34375 0.1875 0.6875 0.25 1.0391 0.019531 0.09375 0.039062 0.19531 0.054688 0.29688 0.046874 0.26172 0.082031 0.51953 0.12109 0.78906 0.007813 0.10156 0.019531 0.20312 0.027344 0.30859 0.039063 0.35156 0.054687 0.71484 0.054687 1.0781v4.8008c0.17578 0.054688 0.36328 0.10156 0.53906 0.14844 0.26172 0.066406 0.51172 0.12891 0.76953 0.1875 0.30859 0.074218 0.62109 0.14844 0.92969 0.21484 0.26172 0.054688 0.51172 0.11328 0.76953 0.15625 0.32422 0.066407 0.66016 0.12891 0.98438 0.1875 0.26172 0.046875 0.51172 0.09375 0.76953 0.12891 0.34375 0.054687 0.6875 0.11328 1.0312 0.15625 0.25 0.039062 0.51172 0.074218 0.76172 0.11328 0.36328 0.046875 0.72266 0.082031 1.0859 0.12109 0.25 0.027344 0.49219 0.054688 0.74219 0.082032 0.38281 0.039062 0.76953 0.066406 1.1523 0.09375 0.24219 0.019531 0.47266 0.039062 0.71484 0.054687 0.41797 0.019531 0.84766 0.039063 1.2734 0.054688 0.20312 0.007812 0.41016 0.027343 0.61328 0.027343 0.63281 0.019532 1.2617 0.027344 1.8945 0.027344 5.5664 0 10.945-0.75391 15.582-2.1719 0.027344-0.007812 0.046875-0.019531 0.074218-0.027343 4.2539-1.3281 7.6172-3.168 9.7188-5.3047 1.543-1.5781 2.332-3.2227 2.332-4.9141l0.011718-6.0547c-0.074218 0.09375-0.15625 0.1875-0.23047 0.27734-0.054688 0.0625-0.11328 0.13672-0.16797 0.20312zm-11.195-4.6523c-4.8008 1.4766-10.367 2.2656-16.105 2.2656-5.7422 0-11.316-0.78906-16.109-2.2656-4.6016-1.4336-8.2578-3.4492-10.59-5.8086-0.375-0.37891-0.70703-0.76172-1.0039-1.1406v8.1289l7.5703 4.3672c0.39844 0.23047 0.78125 0.48438 1.1445 0.75391 0.12891 0.09375 0.24219 0.19531 0.36328 0.29688 0.24219 0.1875 0.47266 0.37109 0.69531 0.58594 0.14062 0.12109 0.26172 0.26172 0.39062 0.39062 0.19531 0.20312 0.39062 0.39844 0.56641 0.60547 0.12891 0.14844 0.24219 0.30859 0.36328 0.45703 0.12891 0.16797 0.26953 0.33594 0.39063 0.5 0.21484 0.074218 0.42578 0.14844 0.66016 0.22266 4.6172 1.4219 9.9961 2.1836 15.562 2.1836 5.5547 0 10.934-0.76172 15.551-2.1836 4.3203-1.3477 7.7188-3.1953 9.8203-5.332 1.543-1.5781 2.332-3.2227 2.332-4.9141l-0.003907-6.0742c-0.29687 0.39062-0.64062 0.76953-1.0117 1.1523-2.3125 2.3594-5.9727 4.3672-10.582 5.8086zm-31.668-1.7773c4.6172 1.4219 9.9961 2.1836 15.559 2.1836 5.5547 0 10.934-0.76172 15.551-2.1836 4.3203-1.3477 7.7188-3.1953 9.8203-5.332 1.543-1.5781 2.332-3.2227 2.332-4.9141 0-6.7344-12.691-12.422-27.703-12.422-7.5078 0-14.438 1.4219-19.48 3.6875-5.043 2.2578-8.2227 5.3594-8.2227 8.7344 0 1.6836 0.78906 3.3359 2.332 4.9141 2.1094 2.1445 5.5 3.9844 9.8086 5.332zm-5.5 56.234-6.5234 3.7539c0 0.007813-0.007812 0.007813-0.007812 0.019532l-18.941 10.934c-3.1875 1.832-7.1328 1.832-10.32 0l-25.477-14.707c-3.1875-1.8477-5.168-5.2773-5.168-8.9531v-29.402c0-3.6875 1.9805-7.1055 5.168-8.9375l25.48-14.711c1.5898-0.92969 3.3711-1.3828 5.1484-1.3828 1.7852 0 3.5664 0.45703 5.1641 1.3828l17.793 10.266 0.39844 0.24219h0.007813l7.2812 4.1992c0.58594 0.33594 1.1445 0.75391 1.6523 1.207 0.082031 0.074219 0.17578 0.14063 0.26172 0.21484 0.57422 0.54688 1.1055 1.1719 1.5508 1.8477 1.1055 1.6836 1.6914 3.6406 1.6914 5.668v29.402c0 0.36328-0.019532 0.72266-0.054688 1.0781-0.26172 2.4805-1.4219 4.8125-3.2695 6.5117-0.56641 0.52734-1.1602 0.97656-1.8398 1.3633zm-0.88281-35.199c0-3.4766-1.8672-6.7188-4.875-8.4531l-19.996-11.539c-3.0117-1.7383-6.7539-1.7383-9.7656 0l-19.992 11.539c-3.0117 1.7344-4.8867 4.9766-4.8867 8.4531v23.086c0 3.4766 1.875 6.7188 4.8867 8.4531l19.992 11.547c1.5039 0.86328 3.1953 1.3008 4.8867 1.3008 1.6836 0 3.3711-0.4375 4.875-1.3008l19.992-11.547c3.0117-1.7383 4.875-4.9805 4.875-8.4531v-23.086zm-1.8594 0v23.086c0 2.8164-1.5156 5.4453-3.9492 6.8477l-19.992 11.547c-2.4453 1.4023-5.4648 1.4023-7.9062 0l-19.992-11.547c-2.4336-1.4023-3.957-4.0312-3.957-6.8477v-23.086c0-2.8164 1.5234-5.4336 3.957-6.8477l19.992-11.539c1.2188-0.70703 2.582-1.0586 3.957-1.0586 1.3672 0 2.7305 0.35156 3.9492 1.0586l19.992 11.539c2.4336 1.4102 3.9492 4.0312 3.9492 6.8477zm-36.621-9.7188 1.2188 3.3555c0.14062 0.38281 0.5 0.61328 0.87109 0.61328 0.11328 0 0.21484-0.019532 0.32422-0.054688 0.47266-0.17578 0.72266-0.71484 0.54688-1.1875l-1.2188-3.3555c-0.17578-0.48438-0.70703-0.73438-1.1875-0.55859-0.48438 0.17578-0.73438 0.71484-0.55859 1.1875zm-14.801 17.113c-0.09375 0.51172 0.25 0.98438 0.75391 1.0781l3.5117 0.62109c0.054688 0.007812 0.11328 0.007812 0.15625 0.007812 0.44531 0 0.83594-0.31641 0.92188-0.76172 0.082031-0.51172-0.25-0.99609-0.75391-1.0781l-3.5117-0.62109c-0.51172-0.09375-0.99609 0.25-1.0781 0.75391zm1.0781 9.0469 3.5117-0.61328c0.50391-0.09375 0.83594-0.57422 0.75391-1.0781-0.09375-0.50781-0.57812-0.84375-1.0781-0.75l-3.5117 0.62109c-0.5 0.082031-0.84766 0.56641-0.75391 1.0703 0.074219 0.45703 0.47266 0.76953 0.91016 0.76953 0.054688 0 0.11328-0.007813 0.16797-0.019531zm6.457 4.3398c-0.26172-0.44531-0.82812-0.59375-1.2734-0.34375l-3.0859 1.7852c-0.44531 0.26172-0.59375 0.82812-0.34375 1.2734 0.17578 0.29688 0.49219 0.46484 0.80859 0.46484 0.15625 0 0.31641-0.046875 0.46484-0.12891l3.0859-1.7852c0.44531-0.25 0.60547-0.81641 0.34375-1.2617zm-0.34375-19.742-3.0859-1.7812c-0.44531-0.25-1.0117-0.10156-1.2734 0.34375-0.25 0.44531-0.10156 1.0117 0.34375 1.2734l3.0859 1.7734c0.14844 0.09375 0.30859 0.12891 0.46484 0.12891 0.32422 0 0.63281-0.16797 0.80859-0.46484 0.25781-0.44531 0.10156-1.0117-0.34375-1.2734zm4.4688 24.656c-0.39844-0.33594-0.98438-0.27734-1.3086 0.11328l-2.2969 2.7305c-0.32422 0.39062-0.27734 0.97656 0.11328 1.3086 0.17578 0.14062 0.39062 0.21484 0.60547 0.21484 0.26172 0 0.53125-0.11328 0.70703-0.33594l2.2969-2.7305c0.33203-0.39062 0.27734-0.97656-0.11328-1.3008zm0.11328-29.609-2.2969-2.7305c-0.32422-0.39062-0.91016-0.44531-1.3086-0.11328-0.39062 0.32422-0.4375 0.91016-0.11328 1.3086l2.2969 2.7305c0.1875 0.21484 0.44531 0.32422 0.71484 0.32422 0.20312 0 0.41797-0.066406 0.59375-0.21484 0.39062-0.33594 0.44531-0.91797 0.10938-1.3086zm5.4453 32.812c-0.48438-0.17578-1.0195 0.074219-1.1875 0.54688l-1.2266 3.3555c-0.17578 0.48438 0.074219 1.0117 0.55859 1.1875 0.10156 0.039062 0.21484 0.054687 0.31641 0.054687 0.38281 0 0.73438-0.23047 0.87109-0.60547l1.2188-3.3555c0.17578-0.48438-0.0625-1.0117-0.54688-1.1875zm7.2461 2.043c0-0.51953-0.41797-0.92969-0.92969-0.92969-0.51953 0-0.92969 0.41016-0.92969 0.92969v3.5586c0 0.51953 0.41016 0.92969 0.92969 0.92969 0.51172 0 0.92969-0.41016 0.92969-0.92969zm0-42.363c0-0.51172-0.41797-0.92969-0.92969-0.92969-0.51953 0-0.92969 0.41797-0.92969 0.92969v3.5664c0 0.51172 0.41016 0.92969 0.92969 0.92969 0.51172 0 0.92969-0.41797 0.92969-0.92969zm15.059 13.73c0.17578 0.29688 0.48438 0.46484 0.80859 0.46484 0.15625 0 0.31641-0.039063 0.46484-0.12891l3.0859-1.7734c0.44531-0.26172 0.59375-0.82812 0.34375-1.2734-0.26172-0.44531-0.82813-0.59375-1.2734-0.34375l-3.0859 1.7852c-0.44531 0.26172-0.60547 0.82422-0.34375 1.2734zm-7.2656 30.492-1.2188-3.3555c-0.17578-0.47266-0.71484-0.72266-1.1992-0.54688s-0.72266 0.70703-0.54688 1.1875l1.2188 3.3555c0.14062 0.37109 0.49219 0.60547 0.87109 0.60547 0.10156 0 0.21484-0.019531 0.31641-0.054687 0.48438-0.17578 0.73438-0.70703 0.55859-1.1875zm-0.55859-43.711c-0.48438-0.17578-1.0117 0.074219-1.1875 0.55859l-1.2188 3.3555c-0.17578 0.47266 0.066406 1.0117 0.54688 1.1875 0.11328 0.039062 0.21484 0.054687 0.32422 0.054687 0.37109 0 0.73437-0.23047 0.87109-0.61328l1.2188-3.3516c0.17969-0.47266-0.074219-1.0117-0.55859-1.1875zm7.3008 39.445-2.2969-2.7305c-0.32422-0.39062-0.91016-0.44531-1.3086-0.11328-0.39062 0.32422-0.44531 0.91016-0.11328 1.3008l2.2969 2.7305c0.17578 0.22266 0.44531 0.33594 0.70703 0.33594 0.21484 0 0.42578-0.074219 0.59375-0.21484 0.39844-0.33594 0.44531-0.91797 0.11719-1.3086zm-0.12109-35.293c-0.39062-0.33594-0.97656-0.27734-1.3008 0.11328l-2.2969 2.7305c-0.33594 0.39062-0.27734 0.97656 0.11328 1.3086 0.17578 0.14844 0.39062 0.21484 0.60547 0.21484 0.26172 0 0.51953-0.11328 0.70703-0.32422l2.2969-2.7305c0.32422-0.39844 0.27734-0.98438-0.12109-1.3086zm5 28.977-3.0859-1.7852c-0.44531-0.25-1.0117-0.10156-1.2734 0.34375-0.26172 0.44531-0.10156 1.0117 0.34375 1.2617l3.0859 1.7852c0.14844 0.082032 0.30859 0.12891 0.46484 0.12891 0.31641 0 0.63281-0.16797 0.80859-0.46484 0.25-0.44531 0.10156-1.0156-0.34375-1.2734zm3.1758-6.5312c0.09375-0.5-0.25-0.98438-0.75391-1.0703l-3.5117-0.62109c-0.51172-0.09375-0.98438 0.24219-1.0781 0.75391-0.082031 0.5 0.25 0.98437 0.75391 1.0781l3.5117 0.61328c0.054687 0.007812 0.11328 0.019531 0.16797 0.019531 0.4375 0 0.83594-0.31641 0.91016-0.77344zm0-8.2969c-0.082031-0.5-0.57422-0.84766-1.0781-0.75391l-3.5117 0.62109c-0.5 0.082031-0.83594 0.56641-0.75391 1.0781 0.082032 0.44531 0.47266 0.76172 0.92188 0.76172 0.046874 0 0.10156 0 0.15625-0.007813l3.5117-0.62109c0.5-0.09375 0.84766-0.56641 0.75391-1.0781z" fill="#00abe6"/>
</svg>
