<?xml version="1.0" encoding="UTF-8"?>
<svg width="128pt" height="128pt" version="1.1" viewBox="0 0 128 128" xmlns="http://www.w3.org/2000/svg">
 <path d="m106.74 41.895v-5.7188c0-3.293-2.2031-6.0898-5.207-7v12.723h5.207zm-91.453-12.668c-3.2344 0.28125-5.7891 3.0195-5.7891 6.3203s2.5586 6.0391 5.7891 6.3203zm3.8438 77.727h16.559c0.92969 0 1.6875-0.75781 1.6875-1.6875v-3.3164c0-0.92969-0.75781-1.6875-1.6875-1.6875h-16.559c-0.92969 0-1.6875 0.75781-1.6875 1.6875v3.3164c0 0.92969 0.75781 1.6875 1.6875 1.6875zm53.27-19.934h41.836c2.3477 0 4.2656-1.9219 4.2656-4.2656v-8.375c0-2.3477-1.9219-4.2656-4.2656-4.2656h-41.836c-2.3477 0-4.2656 1.9219-4.2656 4.2656v8.375c0 2.3477 1.9219 4.2656 4.2656 4.2656zm4.793-12.441c2.2031 0 3.9883 1.7852 3.9883 3.9883s-1.7852 3.9883-3.9883 3.9883c-2.2031 0-3.9883-1.7852-3.9883-3.9883s1.7852-3.9883 3.9883-3.9883zm-59.902 38.402c-4.0234 0-7.3164-3.293-7.3164-7.3164v-63.832c1.5391 1.4375 3.6055 2.3242 5.8672 2.3242h91.078c4.0234 0 7.3164 3.293 7.3164 7.3164v16.383h-41.836c-3.5938 0-6.5273 2.9336-6.5273 6.5273v8.375c0 3.5938 2.9336 6.5273 6.5273 6.5273h41.836v16.383c0 4.0234-3.293 7.3164-7.3164 7.3164zm1.8398-3.7656c-2.1758 0-3.9492-1.7734-3.9492-3.9492v-3.3164c0-2.1758 1.7734-3.9492 3.9492-3.9492h16.559c2.1758 0 3.9492 1.7734 3.9492 3.9492v3.3164c0 2.1758-1.7734 3.9492-3.9492 3.9492zm70.008-82.672c0 2.4023 1.9688 4.3711 4.3711 4.3711v10.98h5.7617v-21.113l-75.887-0.003906v21.113h5.7617v-10.98c2.4023 0 4.3711-1.9688 4.3711-4.3711h55.621zm-71.516 15.352h3.5l0.003906-23.375h72.387v-3.5l-75.891-0.003906zm73.629 0v-9.1172c-1.8398-0.66797-3.3008-2.1328-3.9727-3.9727l-51.898-0.003907c-0.66797 1.8398-2.1328 3.3008-3.9727 3.9727v9.1172h18.82v-0.019531c0-6.1328 4.9688-11.102 11.102-11.102 6.1328 0 11.102 4.9688 11.102 11.102v0.019531h18.82zm-26.387 0c-0.73828-0.90625-1.9766-1.1758-3.1914-1.4453-0.96094-0.21094-1.9023-0.41797-1.9023-1.2461 0-0.30078 0.15234-0.58203 0.39453-0.79297 0.28906-0.25 0.69922-0.40234 1.1641-0.40234 0.46484 0 0.875 0.15234 1.1641 0.40234 0.24609 0.21094 0.39453 0.49219 0.39453 0.79297 0 0.625 0.50781 1.1289 1.1289 1.1289 0.625 0 1.1289-0.50781 1.1289-1.1289 0-0.98438-0.44922-1.8672-1.1797-2.4961-0.42188-0.36328-0.9375-0.64453-1.5078-0.80469v-0.67969c0-0.625-0.50781-1.1289-1.1289-1.1289-0.625 0-1.1289 0.50781-1.1289 1.1289v0.67969c-0.57031 0.16016-1.0898 0.44141-1.5078 0.80469-0.73047 0.63281-1.1797 1.5117-1.1797 2.4961 0 1.4492 0.55078 2.2227 1.3555 2.6953h6z" fill="#00abe6" fill-rule="evenodd"/>
</svg>
