<?xml version="1.0" encoding="UTF-8" standalone="no"?>
<svg
   xmlns:dc="http://purl.org/dc/elements/1.1/"
   xmlns:cc="http://creativecommons.org/ns#"
   xmlns:rdf="http://www.w3.org/1999/02/22-rdf-syntax-ns#"
   xmlns:svg="http://www.w3.org/2000/svg"
   xmlns="http://www.w3.org/2000/svg"
   id="Layer_1"
   data-name="Layer 1"
   viewBox="0 0 304.31 304"
   version="1.1"
   width="304.31"
   height="304">
  <metadata
     id="metadata27">
    <rdf:RDF>
      <cc:Work
         rdf:about="">
        <dc:format>image/svg+xml</dc:format>
        <dc:type
           rdf:resource="http://purl.org/dc/dcmitype/StillImage" />
        <dc:title></dc:title>
      </cc:Work>
    </rdf:RDF>
  </metadata>
  <defs
     id="defs4">
    <style
       id="style2">.cls-1{fill:#00abe7;}.cls-2{fill:none;}.cls-3{fill:#fff;fill-rule:evenodd;}</style>
  </defs>
  <path
     class="cls-1"
     d="m 59.92,227.54 c -1.28,-1.48 -2.53,-3 -3.73,-4.52 -1.2,-1.52 -2.38,-3.1 -3.51,-4.69 -1.13,-1.59 -2.23,-3.22 -3.29,-4.87 A 121.38,121.38 0 0 1 35.65,184 q -0.88,-2.86 -1.64,-5.78 c -0.75,-2.93 -1.4,-5.89 -1.94,-8.9 a 122.87,122.87 0 0 1 -1.9,-21.59 c 0,-1 0,-2.1 0,-3.15 q 0.08,-3.14 0.32,-6.24 a 121.05,121.05 0 0 1 9.23,-38.09 c 1.15,-2.74 2.41,-5.43 3.75,-8.06 1.34,-2.63 2.79,-5.2 4.32,-7.71 q 1.53,-2.52 3.17,-5 3.3,-4.87 7,-9.4 c 1.24,-1.5 2.52,-3 3.83,-4.42 v 0 H 0 v 166.66 h 64.29 l -0.44,-0.45 c -1.34,-1.41 -2.66,-2.87 -3.93,-4.33 z"
     id="path6" />
  <path
     class="cls-1"
     d="m 304.31,65.65 h -61.89 v 0 c 1.31,1.44 2.59,2.92 3.84,4.42 2.48,3 4.83,6.15 7,9.4 q 1.63,2.43 3.17,5 2.29,3.76 4.32,7.71 c 1.34,2.63 2.6,5.32 3.75,8.06 a 121.34,121.34 0 0 1 9.24,38.09 c 0.15,2.07 0.26,4.15 0.31,6.24 0,1 0,2.1 0,3.15 a 122.87,122.87 0 0 1 -1.9,21.59 c -0.54,3 -1.19,6 -1.94,8.9 q -0.75,2.91 -1.64,5.78 a 121.38,121.38 0 0 1 -13.74,29.48 c -1,1.65 -2.15,3.27 -3.28,4.87 -1.13,1.6 -2.31,3.16 -3.52,4.69 -1.21,1.53 -2.45,3 -3.73,4.52 -1.28,1.52 -2.59,2.92 -3.93,4.33 l -0.44,0.45 h 64.29 z"
     id="path8" />
  <path
     class="cls-1"
     d="m 232.05,69.09 c -0.74,-0.73 -1.48,-1.45 -2.23,-2.16 a 113,113 0 0 0 -155.33,0 c -0.75,0.71 -1.49,1.43 -2.23,2.16 a 113,113 0 0 0 0,159.79 c 1.63,1.63 3.31,3.2 5,4.72 a 113,113 0 0 0 149.75,0 c 1.71,-1.52 3.39,-3.09 5,-4.72 a 113,113 0 0 0 0,-159.79 z"
     id="path10" />
  <path
     class="cls-1"
     d="M 61.89,66.93 Z"
     id="path12" />
  <path
     class="cls-1"
     d="m 59.92,228.82 c 1.27,1.47 2.59,2.92 3.93,4.33 -1.34,-1.41 -2.66,-2.86 -3.93,-4.33 z"
     id="path14" />
  <path
     class="cls-1"
     d="M 242.45,67 Z"
     id="path16" />
  <path
     class="cls-1"
     d="m 253.31,80.78 q 1.63,2.43 3.17,4.95 -1.48,-2.52 -3.17,-4.95 z"
     id="path18" />
  <circle
     class="cls-2"
     cx="152.16"
     cy="148.98999"
     r="88.5"
     id="circle20" />
  <path
     class="cls-3"
     d="m 125.19,129.25 c 7.69,-4.45 15.45,-8.91 23.14,-13.37 a 7.35,7.35 0 0 1 7.47,0 l 11.43,6.54 a 1,1 0 0 1 0,1.73 l -28,16.1 a 2.31,2.31 0 0 0 -1.15,2 v 13.51 a 2.2,2.2 0 0 0 1.15,1.94 l 11.77,6.76 a 2.09,2.09 0 0 0 2.23,0 l 48.29,-27.81 c 8.19,-4.74 8.19,-18.39 0,-23.14 l -43.41,-25 a 11.6,11.6 0 0 0 -12,0 l -43.4,25 a 11.87,11.87 0 0 0 -6,10.42 c 0,16.75 0.07,33.42 0,50.09 a 11.87,11.87 0 0 0 6,10.42 l 43.4,25.08 a 11.92,11.92 0 0 0 12,0 l 43.41,-25.08 a 11.73,11.73 0 0 0 6,-10.42 v -21.77 l -51.72,29.89 a 7.3,7.3 0 0 1 -7.47,0 l -23.07,-13.37 a 7.3,7.3 0 0 1 -3.74,-6.46 v -26.66 a 7.37,7.37 0 0 1 3.67,-6.4 z"
     id="path22" />
</svg>
