<?xml version="1.0" encoding="UTF-8" standalone="no"?>
<svg
   xmlns:dc="http://purl.org/dc/elements/1.1/"
   xmlns:cc="http://creativecommons.org/ns#"
   xmlns:rdf="http://www.w3.org/1999/02/22-rdf-syntax-ns#"
   xmlns:svg="http://www.w3.org/2000/svg"
   xmlns="http://www.w3.org/2000/svg"
   xmlns:xlink="http://www.w3.org/1999/xlink"
   xmlns:sodipodi="http://sodipodi.sourceforge.net/DTD/sodipodi-0.dtd"
   xmlns:inkscape="http://www.inkscape.org/namespaces/inkscape"
   id="Layer_1"
   data-name="Layer 1"
   viewBox="0 0 304.72016 284.26886"
   version="1.1"
   sodipodi:docname="electrumABC-update.svg"
   inkscape:version="1.0.2 (e86c870879, 2021-01-15)"
   width="304.72015"
   height="284.26886">
  <path
     class="cls-1"
     d="m 232.71972,91.235777 c -0.74,-0.73 -1.48,-1.45 -2.23,-2.16 a 113,113 0 0 0 -155.33,0 c -0.75,0.71 -1.49,1.43 -2.23,2.16 a 113,113 0 0 0 0,159.789993 c 1.63,1.63 3.31,3.2 5,4.72 a 113,113 0 0 0 149.75,0 c 1.71,-1.52 3.39,-3.09 5,-4.72 a 113,113 0 0 0 0,-159.789993 z"
     id="path10"
     style="fill:#00abe7" />
  <path
     class="cls-3"
     d="m 125.85972,151.39577 c 7.69,-4.45 15.45,-8.91 23.14,-13.37 a 7.35,7.35 0 0 1 7.47,0 l 11.43,6.54 a 1,1 0 0 1 0,1.73 l -28,16.1 a 2.31,2.31 0 0 0 -1.15,2 v 13.51 a 2.2,2.2 0 0 0 1.15,1.94 l 11.77,6.76 a 2.09,2.09 0 0 0 2.23,0 l 48.29,-27.81 c 8.19,-4.74 8.19,-18.39 0,-23.14 l -43.41,-25 a 11.6,11.6 0 0 0 -12,0 l -43.4,25 a 11.87,11.87 0 0 0 -6,10.42 c 0,16.75 0.07,33.42 0,50.09 a 11.87,11.87 0 0 0 6,10.42 l 43.4,25.08 a 11.92,11.92 0 0 0 12,0 l 43.41,-25.08 a 11.73,11.73 0 0 0 6,-10.42 v -21.77 l -51.72,29.89 a 7.3,7.3 0 0 1 -7.47,0 l -23.07,-13.37 a 7.3,7.3 0 0 1 -3.74,-6.46 v -26.66 a 7.37,7.37 0 0 1 3.67,-6.4 z"
     id="path22"
     style="fill:#ffffff;fill-rule:evenodd" />
  <metadata
     id="metadata40">
    <rdf:RDF>
      <cc:Work
         rdf:about="">
        <dc:format>image/svg+xml</dc:format>
        <dc:type
           rdf:resource="http://purl.org/dc/dcmitype/StillImage" />
        <dc:title />
      </cc:Work>
    </rdf:RDF>
  </metadata>
  <sodipodi:namedview
     pagecolor="#ffffff"
     bordercolor="#666666"
     borderopacity="1"
     objecttolerance="10"
     gridtolerance="10"
     guidetolerance="10"
     inkscape:pageopacity="0"
     inkscape:pageshadow="2"
     inkscape:window-width="2088"
     inkscape:window-height="1362"
     id="namedview38"
     showgrid="false"
     inkscape:zoom="2.1606257"
     inkscape:cx="98.481801"
     inkscape:cy="89.146418"
     inkscape:window-x="1401"
     inkscape:window-y="636"
     inkscape:window-maximized="0"
     inkscape:current-layer="Layer_1"
     inkscape:document-rotation="0"
     fit-margin-top="0"
     fit-margin-left="0"
     fit-margin-right="0"
     fit-margin-bottom="0" />
  <defs
     id="defs17">
    <style
       id="style2">.cls-1{fill:url(#New_Gradient_Swatch_2);}.cls-2{fill:url(#New_Gradient_Swatch_2-2);}.cls-3{fill:url(#New_Gradient_Swatch_2-3);}.cls-4{fill:url(#New_Gradient_Swatch_2-4);}.cls-5{fill:url(#New_Gradient_Swatch_2-5);}.cls-6{fill:url(#New_Gradient_Swatch_2-6);}.cls-7{fill:url(#New_Gradient_Swatch_2-7);}.cls-8{fill:none;}.cls-9{fill:#fff;fill-rule:evenodd;}</style>
    <linearGradient
       id="New_Gradient_Swatch_2"
       x1="-46.880001"
       y1="58.060001"
       x2="236.37"
       y2="257.97"
       gradientUnits="userSpaceOnUse">
      <stop
         offset="0"
         stop-color="#273498"
         id="stop4" />
      <stop
         offset="0.53"
         stop-color="#0074c2"
         id="stop6" />
      <stop
         offset="1"
         stop-color="#00abe7"
         id="stop8" />
    </linearGradient>
    <linearGradient
       id="New_Gradient_Swatch_2-2"
       x1="33.330002"
       y1="-55.580002"
       x2="316.57999"
       y2="144.33"
       xlink:href="#New_Gradient_Swatch_2" />
    <linearGradient
       id="New_Gradient_Swatch_2-3"
       x1="-6.5700002"
       y1="0.95999998"
       x2="276.67999"
       y2="200.86"
       xlink:href="#New_Gradient_Swatch_2" />
    <linearGradient
       id="New_Gradient_Swatch_2-4"
       x1="2.0599999"
       y1="-11.27"
       x2="45.66"
       y2="19.5"
       xlink:href="#New_Gradient_Swatch_2" />
    <linearGradient
       id="New_Gradient_Swatch_2-5"
       x1="-75.220001"
       y1="98.220001"
       x2="208.03"
       y2="298.13"
       xlink:href="#New_Gradient_Swatch_2" />
    <linearGradient
       id="New_Gradient_Swatch_2-6"
       x1="62.09"
       y1="-96.330002"
       x2="345.34"
       y2="103.57"
       xlink:href="#New_Gradient_Swatch_2" />
    <linearGradient
       id="New_Gradient_Swatch_2-7"
       x1="58.549999"
       y1="-91.32"
       x2="341.79999"
       y2="108.59"
       xlink:href="#New_Gradient_Swatch_2" />
  </defs>
  <path
     class="cls-1"
     d="m 60.58972,249.68577 c -1.28,-1.48 -2.53,-3 -3.73,-4.52 -1.2,-1.52 -2.38,-3.1 -3.51,-4.69 -1.13,-1.59 -2.23,-3.22 -3.29,-4.87 a 121.38,121.38 0 0 1 -13.74,-29.46 q -0.88,-2.86 -1.64,-5.78 c -0.75,-2.93 -1.4,-5.89 -1.94,-8.9 a 122.87,122.87 0 0 1 -1.9,-21.59 c 0,-1 0,-2.1 0,-3.15 q 0.08,-3.14 0.32,-6.24 a 121.05,121.05 0 0 1 9.23,-38.09 c 1.15,-2.74 2.41,-5.43 3.75,-8.06 1.34,-2.63 2.79,-5.2 4.32,-7.71 q 1.53,-2.52 3.17,-4.99999 3.3,-4.870003 7,-9.400003 c 1.24,-1.5 2.52,-3 3.83,-4.42 v 0 H 0.66972024 V 254.46577 H 64.95972 l -0.44,-0.45 c -1.34,-1.41 -2.66,-2.87 -3.93,-4.33 z"
     id="path6"
     style="fill:#00abe7" />
  <path
     class="cls-1"
     d="m 304.97972,87.795777 h -61.89 v 0 c 1.31,1.44 2.59,2.92 3.84,4.42 2.48,3 4.83,6.15 7,9.400003 q 1.63,2.42999 3.17,4.99999 2.29,3.76 4.32,7.71 c 1.34,2.63 2.6,5.32 3.75,8.06 a 121.34,121.34 0 0 1 9.24,38.09 c 0.15,2.07 0.26,4.15 0.31,6.24 0,1 0,2.1 0,3.15 a 122.87,122.87 0 0 1 -1.9,21.59 c -0.54,3 -1.19,6 -1.94,8.9 q -0.75,2.91 -1.64,5.78 a 121.38,121.38 0 0 1 -13.74,29.48 c -1,1.65 -2.15,3.27 -3.28,4.87 -1.13,1.6 -2.31,3.16 -3.52,4.69 -1.21,1.53 -2.45,3 -3.73,4.52 -1.28,1.52 -2.59,2.92 -3.93,4.33 l -0.44,0.45 h 64.29 z"
     id="path8"
     style="fill:#00abe7" />
  <g
     id="g4763"
     inkscape:label="Badge_Group"
     transform="matrix(0.37397958,0,0,0.39393263,-70.738139,1.5576098)"
     style="display:inline">
    <ellipse
       inkscape:label="badge_circle"
       ry="183.55431"
       rx="190.45483"
       cy="196.05431"
       cx="797.04517"
       id="path3808"
       style="display:inline;opacity:1;fill:#ff2222;fill-opacity:1;fill-rule:nonzero;stroke:#ffffff;stroke-width:32.908;stroke-linecap:round;stroke-linejoin:round;stroke-miterlimit:4.2;stroke-dasharray:none;stroke-opacity:1;paint-order:markers fill stroke" />
    <text
       id="text4758"
       y="280.96396"
       x="717.65588"
       style="font-style:normal;font-variant:normal;font-weight:bold;font-stretch:normal;font-size:266.667px;line-height:1.25;font-family:Helvetica;-inkscape-font-specification:'Helvetica, Bold';font-variant-ligatures:normal;font-variant-caps:normal;font-variant-numeric:normal;font-feature-settings:normal;text-align:start;letter-spacing:0px;word-spacing:0px;writing-mode:lr-tb;text-anchor:start;fill:#000000;fill-opacity:1;stroke:none"
       xml:space="preserve"><tspan
         style="font-style:normal;font-variant:normal;font-weight:bold;font-stretch:normal;font-size:266.667px;font-family:Helvetica;-inkscape-font-specification:'Helvetica, Bold';font-variant-ligatures:normal;font-variant-caps:normal;font-variant-numeric:normal;font-feature-settings:normal;text-align:start;writing-mode:lr-tb;text-anchor:start;fill:#ffffff;fill-opacity:1"
         y="280.96396"
         x="717.65588"
         id="tspan4756"
         sodipodi:role="line">1</tspan></text>
  </g>
  <path
     class="cls-1"
     d="M 62.55972,89.075777 Z"
     id="path12"
     style="fill:#00abe7" />
  <path
     class="cls-1"
     d="m 60.58972,250.96577 c 1.27,1.47 2.59,2.92 3.93,4.33 -1.34,-1.41 -2.66,-2.86 -3.93,-4.33 z"
     id="path14"
     style="fill:#00abe7" />
  <path
     class="cls-1"
     d="M 243.11972,89.145777 Z"
     id="path16"
     style="fill:#00abe7" />
  <path
     class="cls-1"
     d="m 253.97972,102.92578 q 1.63,2.42999 3.17,4.94999 -1.48,-2.52 -3.17,-4.94999 z"
     id="path18"
     style="fill:#00abe7" />
  <circle
     class="cls-2"
     cx="152.82973"
     cy="171.13577"
     r="88.5"
     id="circle20"
     style="fill:none" />
</svg>
