<?xml version="1.0" encoding="UTF-8" standalone="no"?>
<svg
   xmlns:dc="http://purl.org/dc/elements/1.1/"
   xmlns:cc="http://creativecommons.org/ns#"
   xmlns:rdf="http://www.w3.org/1999/02/22-rdf-syntax-ns#"
   xmlns:svg="http://www.w3.org/2000/svg"
   xmlns="http://www.w3.org/2000/svg"
   xmlns:xlink="http://www.w3.org/1999/xlink"
   id="Layer_1"
   data-name="Layer 1"
   viewBox="0 0 304.31 225.97"
   version="1.1">
  <metadata
     id="metadata40">
    <rdf:RDF>
      <cc:Work
         rdf:about="">
        <dc:format>image/svg+xml</dc:format>
        <dc:type
           rdf:resource="http://purl.org/dc/dcmitype/StillImage" />
        <dc:title></dc:title>
      </cc:Work>
    </rdf:RDF>
  </metadata>
  <defs
     id="defs17">
    <style
       id="style2">.cls-1{fill:url(#New_Gradient_Swatch_2);}.cls-2{fill:url(#New_Gradient_Swatch_2-2);}.cls-3{fill:url(#New_Gradient_Swatch_2-3);}.cls-4{fill:url(#New_Gradient_Swatch_2-4);}.cls-5{fill:url(#New_Gradient_Swatch_2-5);}.cls-6{fill:url(#New_Gradient_Swatch_2-6);}.cls-7{fill:url(#New_Gradient_Swatch_2-7);}.cls-8{fill:none;}.cls-9{fill:#fff;fill-rule:evenodd;}</style>
    <linearGradient
       id="New_Gradient_Swatch_2"
       x1="-46.88"
       y1="58.06"
       x2="236.37"
       y2="257.97"
       gradientUnits="userSpaceOnUse">
      <stop
         offset="0"
         stop-color="#273498"
         id="stop4" />
      <stop
         offset="0.53"
         stop-color="#0074c2"
         id="stop6" />
      <stop
         offset="1"
         stop-color="#00abe7"
         id="stop8" />
    </linearGradient>
    <linearGradient
       id="New_Gradient_Swatch_2-2"
       x1="33.33"
       y1="-55.58"
       x2="316.58"
       y2="144.33"
       xlink:href="#New_Gradient_Swatch_2" />
    <linearGradient
       id="New_Gradient_Swatch_2-3"
       x1="-6.57"
       y1="0.96"
       x2="276.68"
       y2="200.86"
       xlink:href="#New_Gradient_Swatch_2" />
    <linearGradient
       id="New_Gradient_Swatch_2-4"
       x1="2.06"
       y1="-11.27"
       x2="45.66"
       y2="19.5"
       xlink:href="#New_Gradient_Swatch_2" />
    <linearGradient
       id="New_Gradient_Swatch_2-5"
       x1="-75.22"
       y1="98.22"
       x2="208.03"
       y2="298.13"
       xlink:href="#New_Gradient_Swatch_2" />
    <linearGradient
       id="New_Gradient_Swatch_2-6"
       x1="62.09"
       y1="-96.33"
       x2="345.34"
       y2="103.57"
       xlink:href="#New_Gradient_Swatch_2" />
    <linearGradient
       id="New_Gradient_Swatch_2-7"
       x1="58.55"
       y1="-91.32"
       x2="341.8"
       y2="108.59"
       xlink:href="#New_Gradient_Swatch_2" />
  </defs>
  <path
     class="cls-1"
     d="M59.92,191.54c-1.28-1.48-2.53-3-3.73-4.52s-2.38-3.1-3.51-4.69-2.23-3.22-3.29-4.87A121.38,121.38,0,0,1,35.65,148q-.88-2.86-1.64-5.78c-.75-2.93-1.4-5.89-1.94-8.9a122.87,122.87,0,0,1-1.9-21.59c0-1,0-2.1,0-3.15q.08-3.14.32-6.24a121.05,121.05,0,0,1,9.23-38.09c1.15-2.74,2.41-5.43,3.75-8.06s2.79-5.2,4.32-7.71q1.53-2.52,3.17-5,3.3-4.87,7-9.4c1.24-1.5,2.52-3,3.83-4.42l0,0H0V196.32H64.29l-.44-.45C62.51,194.46,61.19,193,59.92,191.54Z"
     id="path19"
     style="fill:#4d4d4d;fill-opacity:1" />
  <path
     class="cls-2"
     d="M304.31,29.65H242.42l0,0c1.31,1.44,2.59,2.92,3.84,4.42,2.48,3,4.83,6.15,7,9.4q1.63,2.43,3.17,5,2.29,3.76,4.32,7.71c1.34,2.63,2.6,5.32,3.75,8.06a121.34,121.34,0,0,1,9.24,38.09c.15,2.07.26,4.15.31,6.24,0,1,0,2.1,0,3.15a122.87,122.87,0,0,1-1.9,21.59c-.54,3-1.19,6-1.94,8.9q-.75,2.91-1.64,5.78a121.38,121.38,0,0,1-13.74,29.48c-1,1.65-2.15,3.27-3.28,4.87s-2.31,3.16-3.52,4.69-2.45,3-3.73,4.52-2.59,2.92-3.93,4.33l-.44.45h64.29Z"
     id="path21"
     style="fill:#4d4d4d;fill-opacity:1" />
  <path
     class="cls-3"
     d="M232.05,33.09c-.74-.73-1.48-1.45-2.23-2.16a113,113,0,0,0-155.33,0c-.75.71-1.49,1.43-2.23,2.16a113,113,0,0,0,0,159.79c1.63,1.63,3.31,3.2,5,4.72a113,113,0,0,0,149.75,0c1.71-1.52,3.39-3.09,5-4.72a113,113,0,0,0,0-159.79Z"
     id="path23"
     style="fill:#4d4d4d;fill-opacity:1" />
  <path
     class="cls-4"
     d="M61.89,30.93h0l0,0Z"
     id="path25" />
  <path
     class="cls-5"
     d="M59.92,192.82c1.27,1.47,2.59,2.92,3.93,4.33C62.51,195.74,61.19,194.29,59.92,192.82Z"
     id="path27" />
  <path
     class="cls-6"
     d="M242.45,31l0,0h0Z"
     id="path29" />
  <path
     class="cls-7"
     d="M253.31,44.78q1.63,2.43,3.17,4.95Q255,47.21,253.31,44.78Z"
     id="path31" />
  <circle
     class="cls-8"
     cx="152.16"
     cy="112.99"
     r="88.5"
     id="circle33" />
  <path
     class="cls-9"
     d="M125.19,93.25c7.69-4.45,15.45-8.91,23.14-13.37a7.35,7.35,0,0,1,7.47,0l11.43,6.54a1,1,0,0,1,0,1.73l-28,16.1a2.31,2.31,0,0,0-1.15,2v13.51a2.2,2.2,0,0,0,1.15,1.94L151,128.46a2.09,2.09,0,0,0,2.23,0l48.29-27.81c8.19-4.74,8.19-18.39,0-23.14l-43.41-25a11.6,11.6,0,0,0-12,0l-43.4,25a11.87,11.87,0,0,0-6,10.42c0,16.75.07,33.42,0,50.09a11.87,11.87,0,0,0,6,10.42l43.4,25.08a11.92,11.92,0,0,0,12,0l43.41-25.08a11.73,11.73,0,0,0,6-10.42V116.25L155.8,146.14a7.3,7.3,0,0,1-7.47,0l-23.07-13.37a7.3,7.3,0,0,1-3.74-6.46V99.65a7.37,7.37,0,0,1,3.67-6.4Z"
     id="path35" />
</svg>
