<?xml version="1.0" encoding="UTF-8" standalone="no"?>
<svg
   xmlns:dc="http://purl.org/dc/elements/1.1/"
   xmlns:cc="http://creativecommons.org/ns#"
   xmlns:rdf="http://www.w3.org/1999/02/22-rdf-syntax-ns#"
   xmlns:svg="http://www.w3.org/2000/svg"
   xmlns="http://www.w3.org/2000/svg"
   xmlns:sodipodi="http://sodipodi.sourceforge.net/DTD/sodipodi-0.dtd"
   xmlns:inkscape="http://www.inkscape.org/namespaces/inkscape"
   id="a5dc4270-06a2-4ef5-9d68-96cca65c057c"
   data-name="Layer 1"
   viewBox="0 0 256 256"
   version="1.1"
   sodipodi:docname="tab_converter_red.svg"
   inkscape:version="0.92.5 (2060ec1f9f, 2020-04-08)">
  <metadata
     id="metadata47">
    <rdf:RDF>
      <cc:Work
         rdf:about="">
        <dc:format>image/svg+xml</dc:format>
        <dc:type
           rdf:resource="http://purl.org/dc/dcmitype/StillImage" />
        <dc:title>Cash Addr Final Blue</dc:title>
      </cc:Work>
    </rdf:RDF>
  </metadata>
  <sodipodi:namedview
     pagecolor="#ffffff"
     bordercolor="#666666"
     borderopacity="1"
     objecttolerance="10"
     gridtolerance="10"
     guidetolerance="10"
     inkscape:pageopacity="0"
     inkscape:pageshadow="2"
     inkscape:window-width="1729"
     inkscape:window-height="753"
     id="namedview45"
     showgrid="false"
     inkscape:zoom="1.84375"
     inkscape:cx="14.372884"
     inkscape:cy="128"
     inkscape:window-x="2054"
     inkscape:window-y="32"
     inkscape:window-maximized="0"
     inkscape:current-layer="a5dc4270-06a2-4ef5-9d68-96cca65c057c" />
  <defs
     id="defs9">
    <style
       id="style2">.b743d51b-5f45-43ce-a2e3-63f6a8ebdbb1{fill:#283996;}.f7819f2c-cf76-46f6-af2f-61b85c26547a{fill:#2b2f83;}.eb115cac-7054-4299-9db9-17ca8bc49cc9{fill:#2d2871;}.b8c0e245-f7ee-462b-b267-7ec3d4df2d5d{fill:#ccc;}.a585e440-02ed-4cd6-99aa-9eddfe3b64d6{fill:#f9f9f9;}.feebc8bb-fb88-44a7-9444-a806e1e6a928{fill:#f2f2f2;}.b20664df-8d6c-41e1-9f98-00e0676416d2{fill:#020202;}.a61e32d7-ba65-44f1-a0f5-f7f2542ef93a{fill:#ebf0f2;}.b3d01f7e-69b1-49f3-bb38-5f047c94140c{opacity:0.64;isolation:isolate;fill:url(#bd6aca50-a75b-4206-96e0-657cd4f67850);}.a4fdf0c2-4094-412e-81b0-e5b57cc803ce{fill-opacity:0.05;}.abecb7c7-2367-4ade-b031-5b175c388474{fill:#40bdf4;}.be6eceb8-d995-402a-bc0a-30bbc6e6839e{fill:#2e599c;}.fd06155a-1f77-4d86-ac61-d1d1d8479c19{fill:#7ec3ec;}.b4c872e2-a570-42ec-be9b-abf953a7f686{fill:#ace0f3;}.a1ab1c70-5190-4d72-855c-db80227623e6{fill:#4e96dd;}</style>
    <radialGradient
       id="bd6aca50-a75b-4206-96e0-657cd4f67850"
       cx="-554.13"
       cy="482.57"
       r="5.4"
       gradientTransform="matrix(-35.85, 5.08, -2.53, -17.91, -18555.39, 11512.67)"
       gradientUnits="userSpaceOnUse">
      <stop
         offset="0"
         stop-color="#fff"
         id="stop4" />
      <stop
         offset="1"
         stop-color="#fff"
         stop-opacity="0"
         id="stop6" />
    </radialGradient>
    <radialGradient
       gradientUnits="userSpaceOnUse"
       gradientTransform="matrix(-26.403365,1.899913,-1.2925069,-18.041574,-13916.818,9815.6092)"
       r="5.4000001"
       cy="482.57001"
       cx="-554.13"
       id="bd6aca50-a75b-4206-96e0-657cd4f67850-3"
       fx="-554.13"
       fy="482.57001">
      <stop
         id="stop4-6"
         stop-color="#fff"
         offset="0" />
      <stop
         id="stop6-7"
         stop-opacity="0"
         stop-color="#fff"
         offset="1" />
    </radialGradient>
  </defs>
  <title
     id="title11">Cash Addr Final Blue</title>
  <path
     style="display:inline;fill:#c63618;fill-opacity:1"
     inkscape:connector-curvature="0"
     d="m 73.384746,9.6271182 h 51.000004 a 22,22 0 0 1 21.46,19.7299998 l 17.53999,200.540002 a 22,22 0 0 0 21.4,19.73 h -50.94999 a 22,22 0 0 1 -21.46,-19.73 L 94.834746,29.357118 a 22,22 0 0 0 -21.45,-19.7299998 z"
     class="b743d51b-5f45-43ce-a2e3-63f6a8ebdbb1"
     data-name="Back"
     id="f3096610-0a9b-4cd8-9978-98384fe952c8" />
  <path
     style="display:inline;fill:#a83618;fill-opacity:1"
     inkscape:connector-curvature="0"
     d="M 94.834746,29.357118 112.37475,229.89712 c 0,0.25 0.07,0.49 0.1,0.73 h 50.99999 c 0,-0.24 -0.08,-0.48 -0.1,-0.73 L 145.79475,29.357118 c 0,-0.25 -0.07,-0.49 -0.1,-0.73 H 94.694746 c 0.07,0.24 0.12,0.48 0.14,0.73 z"
     class="f7819f2c-cf76-46f6-af2f-61b85c26547a"
     data-name="Shadow Back 2"
     id="fbb771cb-517e-4dc7-a34c-cbeee455f000" />
  <g
     transform="translate(1.0847459,1.6271182)"
     style="display:inline"
     data-name="QR"
     id="a35e4b24-d92b-44a4-92ab-ea2768bc4251">
    <rect
       style="fill:#cccccc"
       transform="rotate(90,128,128)"
       rx="16"
       height="186"
       width="186"
       y="35"
       x="35"
       class="b8c0e245-f7ee-462b-b267-7ec3d4df2d5d"
       data-name="QR6"
       id="bea88864-998d-421f-ac43-6b9b9a67ef27" />
    <rect
       style="fill:#f9f9f9"
       rx="8"
       height="170"
       width="170"
       y="43"
       x="43"
       class="a585e440-02ed-4cd6-99aa-9eddfe3b64d6"
       data-name="QR5"
       id="a18dfb44-4814-4c58-a46e-1efd540c3da3" />
    <rect
       style="fill:#f2f2f2"
       transform="rotate(90,128,128)"
       height="154"
       width="154"
       y="51"
       x="51"
       class="feebc8bb-fb88-44a7-9444-a806e1e6a928"
       data-name="QR4"
       id="e13cba9c-7bab-4f34-9b43-4615df73cfaf" />
    <rect
       style="fill:#020202"
       transform="rotate(90,128,128)"
       rx="10"
       height="130"
       width="130"
       y="63"
       x="63"
       class="b20664df-8d6c-41e1-9f98-00e0676416d2"
       data-name="QR3"
       id="bce50cef-dff3-4dba-8f3d-5217e2cc3c05" />
    <rect
       style="fill:#ebf0f2"
       transform="rotate(90,128,128)"
       height="110"
       width="110"
       y="73"
       x="73"
       class="a61e32d7-ba65-44f1-a0f5-f7f2542ef93a"
       data-name="QR2"
       id="a33d7262-5d45-44b1-a5c1-e8fa87d7f5be" />
    <rect
       style="fill:#020202"
       transform="rotate(90,128,128)"
       height="70"
       width="70"
       y="93"
       x="93"
       class="b20664df-8d6c-41e1-9f98-00e0676416d2"
       data-name="QR1"
       id="f3c0e034-54f1-4196-be6c-193c6bf9dafb" />
  </g>
  <path
     style="display:inline;opacity:0.63999999;isolation:isolate;fill:url(#bd6aca50-a75b-4206-96e0-657cd4f67850-3)"
     inkscape:connector-curvature="0"
     d="M 62.084746,74.627118 V 184.62712 a 12,12 0 0 0 12,12 H 184.08474 a 12,12 0 0 0 12,-12 V 74.627118 a 12,12 0 0 0 -12,-12 H 74.084746 a 12,12 0 0 0 -12,12 z"
     class="b3d01f7e-69b1-49f3-bb38-5f047c94140c"
     data-name="Bright"
     id="b4895472-0d86-49c0-863e-d0f6ecc7bbf5" />
  <path
     style="display:inline;fill-opacity:0.05"
     inkscape:connector-curvature="0"
     d="m 74.174746,9.6271182 a 22,22 0 0 1 20.66,19.7299998 l 0.63,7.270001 h -43.38 a 15.75,15.75 0 0 0 -4.37,0.62 l -11.63,32.719999 v 88.130002 l 64.000004,-68.620002 10.62,-11.38 H 84.154746 l 12,-33.739999 3.2,-9 C 103.21475,24.457118 115.19475,15.627118 126.08475,15.627118 h 12.93 a 22.24,22.24 0 0 0 -4.88,-3.51 v 0 c -0.55,-0.3 -1.12,-0.56 -1.7,-0.81 l -0.13,-0.06 q -0.81,-0.33 -1.65,-0.6 l -0.26,-0.09 c -0.52,-0.16 -1,-0.29 -1.58,-0.41 l -0.39,-0.1 c -0.51,-0.1 -1,-0.1699998 -1.56,-0.2399998 -0.15,0 -0.3,-0.05 -0.46,-0.06 a 19.81,19.81 0 0 0 -2,-0.11 H 73.384746 c 0.26,0 0.52,0 0.79,0 z"
     class="a4fdf0c2-4094-412e-81b0-e5b57cc803ce"
     data-name="Shadow Up Back"
     id="a5450d5f-b68f-4967-9926-50b993dddac1" />
  <path
     style="display:inline;fill:#ff3618;fill-opacity:1"
     inkscape:connector-curvature="0"
     d="m 93.344746,29.357118 c 3.87,-10.9 15.850004,-19.7299998 26.740004,-19.7299998 H 69.084746 c -10.85,0 -22.82,8.8299998 -26.7,19.7299998 l -15.19,42.74 h -15.61 l 15.79,71.180002 66.4,-71.180002 h -15.62 z"
     class="abecb7c7-2367-4ade-b031-5b175c388474"
     data-name="Arrow Up"
     id="fb049fd2-2471-44e9-b480-fa7c7df90fdf" />
  <polygon
     transform="translate(1.0847459,1.6271182)"
     style="display:inline;fill:#d0402b;fill-opacity:1"
     points="2.3,70.47 21.77,158.22 103.63,70.47 92.69,70.47 26.29,141.65 10.5,70.47 "
     class="be6eceb8-d995-402a-bc0a-30bbc6e6839e"
     data-name="Shadow Up"
     id="eb873af7-0e18-460d-b83e-2971ba11dfc2" />
  <path
     style="display:inline;fill:#ff6f18;fill-opacity:1"
     inkscape:connector-curvature="0"
     d="m 83.924746,9.6271182 h -14.84 c -7.76,0 -16,4.4899998 -21.58,10.9999998 h 51 c 5.580004,-6.51 13.820004,-10.9999998 21.580004,-10.9999998 z"
     class="fd06155a-1f77-4d86-ac61-d1d1d8479c19"
     data-name="Light Up 3"
     id="acc7233e-26ae-4434-900e-66e46942b5f2" />
  <path
     style="display:inline;fill:#ff9418;fill-opacity:1"
     inkscape:connector-curvature="0"
     d="m 83.924746,9.6271182 h -14.84 a 25.59,25.59 0 0 0 -11.49,2.9999998 h 51.000004 a 25.59,25.59 0 0 1 11.49,-2.9999998 z"
     class="b4c872e2-a570-42ec-be9b-abf953a7f686"
     data-name="Light Up 2"
     id="b171c287-7e91-41a7-a3ca-9285a773a1c3" />
  <g
     transform="translate(1.0847459,1.6271182)"
     style="display:inline"
     data-name="Light Up 1"
     id="b95100e1-bbe6-4584-abaf-6b80a1ab8863">
    <polygon
       style="fill:#f19318;fill-opacity:1"
       id="polygon29"
       points="12.27,78.47 23.27,78.47 26.11,70.47 2.3,70.47 "
       class="b4c872e2-a570-42ec-be9b-abf953a7f686" />
    <polygon
       style="fill:#f19318;fill-opacity:1"
       id="polygon31"
       points="77.14,70.47 74.3,78.47 85.22,78.47 103.63,70.47 "
       class="b4c872e2-a570-42ec-be9b-abf953a7f686" />
  </g>
  <path
     style="display:inline;fill-opacity:0.05"
     inkscape:connector-curvature="0"
     d="m 183.99474,249.62712 a 22,22 0 0 1 -20.66,-19.69 l -0.63,-7.27 h 43.38 a 15.75,15.75 0 0 0 4.37,-0.62 l 11.63,-32.76 v -88.13 l -64,68.62 -10.61999,11.38 h 26.55999 l -12,33.74 -3.2,9 c -3.86999,10.9 -15.84999,19.73 -26.73999,19.73 h -12.93 a 22.42,22.42 0 0 0 4.87,3.51 v 0 c 0.55,0.3 1.12,0.56 1.7,0.81 l 0.13,0.06 c 0.54,0.23 1.09,0.42 1.65,0.6 l 0.26,0.09 c 0.52,0.16 1.05,0.29 1.58,0.41 l 0.39,0.1 c 0.51,0.1 1,0.17 1.56,0.24 0.15,0 0.3,0 0.46,0.06 a 19.81,19.81 0 0 0 2.05,0.11 h 50.97999 c -0.26,0 -0.52,0 -0.79,0 z"
     class="a4fdf0c2-4094-412e-81b0-e5b57cc803ce"
     data-name="Shadoe Down Back"
     id="ec01801a-95b6-4a01-a86e-9159ce4c25ef" />
  <path
     style="display:inline;fill:#ff3618;fill-opacity:1"
     inkscape:connector-curvature="0"
     d="m 164.82474,229.89712 c -3.87,10.9 -15.84999,19.73 -26.73999,19.73 h 50.99999 c 10.89,0 22.86,-8.83 26.74,-19.73 l 15.19,-42.74 h 15.57 l -15.79,-71.18 -66.4,71.18 h 15.62 z"
     class="abecb7c7-2367-4ade-b031-5b175c388474"
     data-name="Arrow Down"
     id="b559a8df-f8b2-4e56-8c60-84cd218f4283" />
  <polygon
     transform="translate(1.0847459,1.6271182)"
     style="display:inline;fill:#f19318;fill-opacity:1"
     points="253.7,185.53 234.23,97.78 152.37,185.53 163.31,185.53 229.71,114.35 245.5,185.53 "
     class="b4c872e2-a570-42ec-be9b-abf953a7f686"
     data-name="Light Down"
     id="a23dc8e7-8408-4ddf-91bd-34817650345a" />
  <path
     style="display:inline;fill:#ed3618;fill-opacity:1"
     inkscape:connector-curvature="0"
     d="m 174.24474,249.62712 h 14.84 c 7.76,0 16,-4.49 21.58,-11 h -51 c -5.53999,6.51 -13.81999,11 -21.57999,11 z"
     class="a1ab1c70-5190-4d72-855c-db80227623e6"
     data-name="Shadow Down 3"
     id="b6f1733e-8f51-45f1-9c3a-964d62539b07" />
  <path
     style="display:inline;fill:#c63618;fill-opacity:1"
     inkscape:connector-curvature="0"
     d="m 174.24474,249.62712 h 14.84 a 25.59,25.59 0 0 0 11.49,-3 h -50.99999 a 25.59,25.59 0 0 1 -11.49,3 z"
     class="be6eceb8-d995-402a-bc0a-30bbc6e6839e"
     data-name="Shadow Down 2"
     id="eb0320e6-cd69-4439-8ea1-0d9629c8acd7" />
  <g
     transform="translate(1.0847459,1.6271182)"
     style="display:inline"
     data-name="Shadow Down 1"
     id="b18b7705-0008-42e3-94a6-acb6e31e4c47">
    <polygon
       style="fill:#ba2118;fill-opacity:1"
       id="polygon39"
       points="229.89,185.53 232.73,177.53 243.73,177.53 253.7,185.53 "
       class="be6eceb8-d995-402a-bc0a-30bbc6e6839e" />
    <polyline
       style="fill:#ba2118;fill-opacity:1"
       id="polyline41"
       points="152.37 185.53 178.86 185.53 181.7 177.53 170.78 177.53"
       class="be6eceb8-d995-402a-bc0a-30bbc6e6839e" />
  </g>
</svg>
