<?xml version="1.0" encoding="UTF-8"?>
<svg xmlns="http://www.w3.org/2000/svg" viewBox="0 0 1024 1024">
  <defs>
    <style>
      .cls-1 {
        fill: #fff;
      }

      .cls-2 {
        opacity: .5;
      }
    </style>
  </defs>
  <g id="Calque_6" data-name="Calque 6">
    <g class="cls-2">
      <path class="cls-1" d="M918.02,550.89l-355.79,200.13s-13.9,33.91-12.23,53.37c1.67,19.46,28.35,121.19,45.59,123.41,23.35-14.45,287.97-165.11,287.97-165.11,0,0,37.25-22.24,36.69-59.48-.56-37.25-2.22-152.32-2.22-152.32Z"/>
      <path class="cls-1" d="M467.17,813.84s14.73,80.05,82.69,139.54c0,0-48.78,15.01-74.35,0-25.57-15.01-240.71-136.2-240.71-136.2l157.53-28.35c16.6,9.34,37.35,18.19,62.02,22.97,4.38.85,8.66,1.52,12.82,2.05Z"/>
      <polygon class="cls-1" points="191.8 649.48 218.21 618.62 98.13 652.81 98.13 681.16 191.8 649.48"/>
      <path class="cls-1" d="M96.74,546.07l1.39,56.7s-.28-20.57,40.03-40.03c40.3-19.46,118.97-59.48,118.97-59.48,0,0,7.5-5.28,4.17-13.06-8.89,2.5-164.55,55.87-164.55,55.87Z"/>
      <path class="cls-1" d="M824.99,225.77s-28.17,10.38-46.7,11.12c-18.53.74-168.26,0-168.26,0,0,0-128.23-120.82-167.52-108.22,2.68,16.32,5.92,49.86-7.41,88.72-11.95,34.8-31.64,57.69-43.08,69.21-12.79,5.28-292.51,134.76-292.51,134.76l-2.78-103.96s6.49-35.53,31.69-54.8c43.73-25.2,350.6-197.91,350.6-197.91,22.05-15.61,42.36-11.62,57.82-2.96,154.36,86.39,221.07,124.11,288.15,164.04Z"/>
      <path class="cls-1" d="M882.99,264.83l-50.59,30.58,78.94,5.56s-1.11-22.79-28.35-36.13Z"/>
      <path class="cls-1" d="M919.13,324.87s15.01,75.05-43.92,107.29c-58.93,32.24-107.85,58.05-107.85,58.05,0,0-29.46-44.15-53.37-54.16,33.91-18.9,200.69-118.41,205.13-111.18Z"/>
      <path class="cls-1" d="M710.29,522.03s-16.31-34.1-68.93-48.18c-8.68.67-18.31,1.9-28.65,4.03-16.29,3.35-30.29,8.08-41.76,12.83-17.1,7.14-35.6,16.64-55.36,27.93-30.3,17.33-65.83,41.37-86.77,68.24l79.68,46.33s.56,3.34,10.56,1.11c9.82-5.93,191.24-112.3,191.24-112.3Z"/>
    </g>
  </g>
  <g id="Calque_2" data-name="Calque 2">
    <path class="cls-1" d="M334.77,438.09s61.71-97.47,116.28-131.29c54.57-33.82,121.75-70.99,137.96-67.07s-115.63-100.36-131.06-91.02c0,0-2.08,97.26-53.97,139.47,0,0-4.26,18.21-18.99,24.83,0,0-21.4,47.86-36.6,48.92,0,0-.19,23.67-13.62,35.16v41Z"/>
    <circle class="cls-1" cx="750.18" cy="270.94" r="13.48"/>
    <path class="cls-1" d="M832.4,244.19s-7.76,2.15-38.89,6.9c-18.24,2.78-32.28,3.74-40.78,4.06,6.46,4.43,10.74,12.07,10.74,20.76,0,13.71-10.62,24.82-23.72,24.82s-23.72-11.11-23.72-24.82c0-8.9,4.49-16.69,11.22-21.07l-24.91-.67-30.02-3.08-30.02-2.48h-28.91s-38.36.37-80.61,24.37c-42.25,24-63.24,34-102.22,67.91,0,0-54.46,45.49-90.59,115.26,0,0-31.97,58.65-26.96,136.2,3.58,14.25,7.17,28.49,10.75,42.74-2.63-14.33-4.16-31.15-2.95-49.8.64-9.88,1.9-18.02,2.95-23.65,1.35-7.27,5-24.52,15.17-47.44,13.86-31.24,32.06-55.43,42.19-67.99,44.38-55.02,95.68-87.41,125.32-103.52,20.22-10.99,49.88-24.99,88.04-35.9,2.47,3.54,4.94,7.07,7.41,10.61.01,9.64,1.19,46.49,28.64,71.61,44,40.26,112.23,10.82,123.51,4.72,15.99-8.66,78.19-50.62,84.12-54.7,5.93-4.08,31.87-19.97,47.44-25.36-20.21-1.69-40.41-3.38-60.62-5.07-8.7-1.03-23.56-1.69-38.73,3.61-6.17,2.16-9.8,3.43-13.93,6.69-4.73,3.74-9.77,9.87-14.7,13.32-5.1,3.57-6.25,4.64-7.92,5.74,0,0-.77.49-1.53.94-1.5.86-8.13,3.77-18.62,2.78-8.29-.78-14.25-3.54-15.57-4.17-13.97-6.66-23.43-20.29-21.68-22.24.91-1.02,7.71,6.21,21.68,11.4,0,0,8.03,2.98,16.96,4.17,20.19,2.68,44.68-26.33,72.76-47.76,16.43-12.55,95.99-48.92,95.99-48.92l38.91-18.9,45.73-21.43-151.93,50.36Z"/>
    <path class="cls-1" d="M394.99,641.3c1.37,8.42,3.96,18.89,9.01,30.18,2.55,5.7,5.32,10.71,8.04,15.03-1.36-9.54-2.03-20.38-2.15-32.3-.19-18.3,1.38-40.91,8.45-58.12l-23.35,45.21Z"/>
    <path class="cls-1" d="M646.13,459.7s91.91,36.32,125.27,108.96c0,0,6.67-24.46-15.57-63.75,0,0-26.68-44.43-65.97-62.98-37.06,14.06-43.73,17.77-43.73,17.77Z"/>
    <path class="cls-1" d="M499.41,752.85c4.57-12.01,12.02-28.56,24.16-46.49,7.21-10.66,13.54-18.05,17.79-22.98,10.02-11.63,24.52-28.23,47.37-43.57,9.49-6.37,23.14-14.35,40.95-21.12,0,0-61.52,52.26-71.9,108.22l-20.75,52.63s-5,20.75-4.08,25.57c.93,4.82,6.67,18.9,6.67,18.9,0,0,5.37,13.53,7.78,26.68,2.41,13.16,9.27,33.91,9.27,33.91,0,0,6.86,23.35,15.01,35.39s22.98,35.39,30.39,43.36c0,0-59.11-21.31-88.02-83.76-28.91-62.45-34.47-78.01-46.14-84.5-10.29-3.22-24.76-8.59-40.78-17.62-12.37-6.98-79.83-45.03-98.98-122.84-7.88-32.02-4.54-58.14-2.56-71.76,4.68-32.26,19.12-66.94,51.16-112.8,55.92-80.05,183.41-145.28,216.02-156.4-.57,10.83.23,25.76,6.16,42.09,3.14,8.64,12,32.04,35.02,47.25,10.17,6.72,19.99,9.78,27.75,12.21,17.23,5.38,35.64,7.29,35.67,7.11,0-.01-.09-.04-.09-.04l-63,29.25-31.13,11.12s-63.65,17.79-142.27,71.9c-9.88,7.38-20.59,16.63-31.17,28.15-27.16,29.57-41.12,60.71-48.49,82.37-5.21,15.32-5.56,27.3-5.84,31.39-.82,11.96.07,22.03,1.11,29.21,1.59,4.7,3.75,9.99,6.74,15.57,1.62,3.03,3.3,5.78,4.96,8.27-6.71-21.89-5.7-37.71-3.2-48.34,4.68-19.85,7.34-26.52,7.34-26.52,5.72,23.36,13.86,39.7,19.71,49.66,4.66,7.94,8.23,12.43,10.01,14.57,9.72,11.73,19.87,18.37,27.43,23.23,9.71,6.25,18.49,10.06,23.41,12.4,1.61.76,4.73,3.21,9.43,3.91,3.09.46,17.09-5.56,17.09-5.56Z"/>
    <path class="cls-1" d="M299.28,610.93l-77.27,27.8,43.36-31.13s7.78-13.9,1.67-20.01c-6.12-6.12-30.02,5-30.02,5L15.76,658.18l-3.34-2.78,259.61-96.17s9.45-6.12,7.23-19.46c-10.56-6.12-110.07,31.69-110.07,31.69l99.51-52.26s27.24-22.24,24.46-37.25c-2.78-15.01.56-13.9-11.67-20.57-19.46,6.12-199.57,70.6-199.57,70.6l242.38-110.63v29.46s-34.47,66.15-25.02,160.1Z"/>
    <path class="cls-1" d="M378.75,771.27l-118.69,20.92c-2.95.52-4.04-3.73-1.2-4.69l75.75-25.65c.54-.18.99-.54,1.29-1.02,2.37-3.86,11.45-21.46-16.11-27.49-.33-.07-.67-.08-.99-.01-52.86,10.09-120.99,24.49-164.59,33.86-2.99.64-4.18-3.7-1.28-4.67l140.53-46.99c.18-.06.35-.14.51-.24,2.2-1.38,17.57-12.07,3.08-34.31-15.25-23.42-71.08-3.61-73.31-2.8-.05.02-.1.03-.15.05l-208.43,58.98c-3.02.85-4.42-3.59-1.46-4.63l287.02-100.02c1.48-.52,3.06.48,3.21,2.04,1.26,12.67,10.36,63.25,76.15,132.61,1.33,1.41.58,3.73-1.33,4.07Z"/>
    <path class="cls-1" d="M313.18,404.69l-88.39,37.25-2.78-4.45,78.38-46.7s7.23-10.56,2.22-17.79c-5-7.23-179.56,68.93-179.56,68.93l-4.45-4.45,246.27-120.08s3.34,13.34-26.13,36.69l-5.56,8.89s13.93,4.45-20.01,41.69Z"/>
  </g>
</svg>