<?xml version="1.0" encoding="UTF-8"?>
<svg id="Layer_2" xmlns="http://www.w3.org/2000/svg" viewBox="0 0 264.42 49.08">
  <defs>
    <style>
      .cls-1 {
        fill: #fff;
      }
    </style>
  </defs>
  <g id="Layer_1-2" data-name="Layer_1">
    <rect class="cls-1" width="90.65" height="49.08" rx="9.99" ry="9.99"/>
    <g>
      <path d="M32.96,21.62c-.61,1.1-1.55,1.99-2.81,2.66-1.26.68-2.83,1.01-4.7,1.01h-3.46v8.23h-5.58V10.6h9.05c1.83,0,3.38.32,4.64.95,1.26.63,2.21,1.5,2.84,2.61s.95,2.38.95,3.82c0,1.33-.31,2.54-.92,3.64h-.01ZM27.41,20.1c.52-.5.78-1.21.78-2.12s-.26-1.62-.78-2.12c-.52-.5-1.32-.75-2.38-.75h-3.04v5.75h3.04c1.07,0,1.86-.25,2.38-.75h0Z"/>
      <path d="M36.73,19.45c.71-1.42,1.67-2.5,2.89-3.27,1.22-.76,2.58-1.14,4.08-1.14,1.28,0,2.41.26,3.38.78.97.52,1.71,1.21,2.24,2.06v-2.58h5.58v18.22h-5.58v-2.58c-.54.85-1.3,1.54-2.27,2.06s-2.1.78-3.38.78c-1.48,0-2.83-.39-4.05-1.16-1.22-.77-2.18-1.87-2.89-3.3-.71-1.43-1.06-3.08-1.06-4.95s.35-3.52,1.06-4.93h0ZM48.16,21.12c-.77-.8-1.71-1.21-2.83-1.21s-2.05.4-2.83,1.19c-.77.79-1.16,1.89-1.16,3.28s.39,2.5,1.16,3.31c.77.82,1.71,1.22,2.83,1.22s2.05-.4,2.83-1.21c.77-.81,1.16-1.91,1.16-3.3s-.39-2.49-1.16-3.3v.02Z"/>
      <path d="M77.57,15.3l-11.43,26.88h-6.01l4.18-9.28-7.41-17.6h6.24l4.21,11.4,4.18-11.4s6.04,0,6.04,0Z"/>
    </g>
    <g>
      <path class="cls-1" d="M128.29,26.78c1.25,1.58,1.88,3.4,1.88,5.44,0,1.85-.45,3.47-1.36,4.87-.91,1.4-2.22,2.5-3.93,3.29s-3.74,1.19-6.08,1.19h-14.88V7.05h14.24c2.34,0,4.36.38,6.06,1.14s2.98,1.81,3.86,3.17,1.31,2.88,1.31,4.6c0,2.01-.54,3.69-1.61,5.04-1.07,1.35-2.5,2.31-4.28,2.87,1.94.36,3.54,1.34,4.8,2.92h0ZM110.83,21.29h6.33c1.65,0,2.92-.37,3.81-1.11s1.33-1.8,1.33-3.19-.44-2.46-1.33-3.21c-.89-.76-2.16-1.14-3.81-1.14h-6.33v8.65ZM121.73,34.74c.94-.79,1.41-1.91,1.41-3.36s-.49-2.65-1.48-3.49-2.32-1.26-4-1.26h-6.82v9.3h6.97c1.68,0,2.99-.4,3.93-1.19h-.01Z"/>
      <path class="cls-1" d="M161.56,14.17v27.4h-6.97v-3.46c-.89,1.19-2.05,2.12-3.49,2.79-1.43.68-2.99,1.01-4.67,1.01-2.14,0-4.04-.45-5.69-1.36-1.65-.91-2.94-2.24-3.88-4.01-.94-1.76-1.41-3.86-1.41-6.3V14.17h6.92v15.08c0,2.18.54,3.85,1.63,5.02,1.09,1.17,2.57,1.76,4.45,1.76s3.41-.58,4.5-1.76c1.09-1.17,1.63-2.84,1.63-5.02v-15.08h6.98Z"/>
      <path class="cls-1" d="M176.45,19.86v13.25c0,.92.22,1.59.67,2s1.19.62,2.25.62h3.21v5.83h-4.35c-5.83,0-8.75-2.83-8.75-8.5v-13.2h-3.26v-5.69h3.26v-6.77h6.97v6.77h6.13v5.69h-6.13Z"/>
      <path class="cls-1" d="M195.63,19.86v13.25c0,.92.22,1.59.67,2s1.19.62,2.25.62h3.21v5.83h-4.35c-5.83,0-8.75-2.83-8.75-8.5v-13.2h-3.26v-5.69h3.26v-6.77h6.97v6.77h6.13v5.69h-6.13Z"/>
      <path class="cls-1" d="M211.8,40.26c-2.11-1.17-3.77-2.83-4.97-4.97-1.2-2.14-1.8-4.61-1.8-7.42s.62-5.27,1.85-7.42c1.24-2.14,2.93-3.8,5.07-4.97,2.14-1.17,4.53-1.76,7.17-1.76s5.03.59,7.17,1.76,3.83,2.83,5.07,4.97,1.85,4.62,1.85,7.42-.63,5.27-1.9,7.42c-1.27,2.14-2.98,3.8-5.14,4.97-2.16,1.17-4.57,1.76-7.24,1.76s-5.01-.58-7.12-1.76h-.01ZM222.46,35.07c1.1-.61,1.99-1.52,2.65-2.74.66-1.22.99-2.7.99-4.45,0-2.6-.68-4.61-2.05-6.01-1.37-1.4-3.04-2.1-5.02-2.1s-3.63.7-4.97,2.1-2,3.4-2,6.01.65,4.61,1.95,6.01,2.94,2.1,4.92,2.1c1.25,0,2.43-.3,3.54-.92h0Z"/>
      <path class="cls-1" d="M261.4,16.87c2.01,2.06,3.02,4.94,3.02,8.63v16.07h-6.92v-15.13c0-2.17-.54-3.85-1.63-5.02s-2.57-1.76-4.45-1.76-3.42.59-4.52,1.76-1.66,2.84-1.66,5.02v15.13h-6.92V14.17h6.92v3.41c.92-1.19,2.1-2.12,3.54-2.79,1.43-.68,3.01-1.01,4.72-1.01,3.26,0,5.9,1.03,7.91,3.09h0Z"/>
    </g>
  </g>
</svg>