<svg xmlns="http://www.w3.org/2000/svg" xmlns:xlink="http://www.w3.org/1999/xlink" version="1.1" width="32" height="32" viewBox="0 0 2000 2000" x="0" y="0" shape-rendering="crispEdges"><defs></defs><rect x="0" y="0" width="2000" height="2000" fill="none"></rect><rect x="815" y="223" width="74" height="74" fill="#fff"></rect><rect x="963" y="223" width="74" height="74" fill="#fff"></rect><rect x="1037" y="223" width="74" height="74" fill="#fff"></rect><rect x="1111" y="223" width="74" height="74" fill="#fff"></rect><rect x="963" y="297" width="74" height="74" fill="#fff"></rect><rect x="1037" y="297" width="74" height="74" fill="#fff"></rect><rect x="815" y="371" width="74" height="74" fill="#fff"></rect><rect x="889" y="371" width="74" height="74" fill="#fff"></rect><rect x="1037" y="371" width="74" height="74" fill="#fff"></rect><rect x="815" y="445" width="74" height="74" fill="#fff"></rect><rect x="889" y="445" width="74" height="74" fill="#fff"></rect><rect x="1111" y="445" width="74" height="74" fill="#fff"></rect><rect x="815" y="519" width="74" height="74" fill="#fff"></rect><rect x="1037" y="519" width="74" height="74" fill="#fff"></rect><rect x="889" y="593" width="74" height="74" fill="#fff"></rect><rect x="963" y="593" width="74" height="74" fill="#fff"></rect><rect x="1037" y="593" width="74" height="74" fill="#fff"></rect><rect x="1111" y="593" width="74" height="74" fill="#fff"></rect><rect x="815" y="667" width="74" height="74" fill="#fff"></rect><rect x="963" y="667" width="74" height="74" fill="#fff"></rect><rect x="1111" y="667" width="74" height="74" fill="#fff"></rect><rect x="1037" y="741" width="74" height="74" fill="#fff"></rect><rect x="1111" y="741" width="74" height="74" fill="#fff"></rect><rect x="223" y="815" width="74" height="74" fill="#fff"></rect><rect x="297" y="815" width="74" height="74" fill="#fff"></rect><rect x="371" y="815" width="74" height="74" fill="#fff"></rect><rect x="445" y="815" width="74" height="74" fill="#fff"></rect><rect x="667" y="815" width="74" height="74" fill="#fff"></rect><rect x="815" y="815" width="74" height="74" fill="#fff"></rect><rect x="889" y="815" width="74" height="74" fill="#fff"></rect><rect x="963" y="815" width="74" height="74" fill="#fff"></rect><rect x="1037" y="815" width="74" height="74" fill="#fff"></rect><rect x="1111" y="815" width="74" height="74" fill="#fff"></rect><rect x="1185" y="815" width="74" height="74" fill="#fff"></rect><rect x="1407" y="815" width="74" height="74" fill="#fff"></rect><rect x="1481" y="815" width="74" height="74" fill="#fff"></rect><rect x="1555" y="815" width="74" height="74" fill="#fff"></rect><rect x="1703" y="815" width="74" height="74" fill="#fff"></rect><rect x="223" y="889" width="74" height="74" fill="#fff"></rect><rect x="371" y="889" width="74" height="74" fill="#fff"></rect><rect x="593" y="889" width="74" height="74" fill="#fff"></rect><rect x="741" y="889" width="74" height="74" fill="#fff"></rect><rect x="1037" y="889" width="74" height="74" fill="#fff"></rect><rect x="1111" y="889" width="74" height="74" fill="#fff"></rect><rect x="1185" y="889" width="74" height="74" fill="#fff"></rect><rect x="1259" y="889" width="74" height="74" fill="#fff"></rect><rect x="1333" y="889" width="74" height="74" fill="#fff"></rect><rect x="1481" y="889" width="74" height="74" fill="#fff"></rect><rect x="1555" y="889" width="74" height="74" fill="#fff"></rect><rect x="1629" y="889" width="74" height="74" fill="#fff"></rect><rect x="297" y="963" width="74" height="74" fill="#fff"></rect><rect x="445" y="963" width="74" height="74" fill="#fff"></rect><rect x="667" y="963" width="74" height="74" fill="#fff"></rect><rect x="741" y="963" width="74" height="74" fill="#fff"></rect><rect x="815" y="963" width="74" height="74" fill="#fff"></rect><rect x="889" y="963" width="74" height="74" fill="#fff"></rect><rect x="1037" y="963" width="74" height="74" fill="#fff"></rect><rect x="1481" y="963" width="74" height="74" fill="#fff"></rect><rect x="1555" y="963" width="74" height="74" fill="#fff"></rect><rect x="1629" y="963" width="74" height="74" fill="#fff"></rect><rect x="1703" y="963" width="74" height="74" fill="#fff"></rect><rect x="223" y="1037" width="74" height="74" fill="#fff"></rect><rect x="371" y="1037" width="74" height="74" fill="#fff"></rect><rect x="445" y="1037" width="74" height="74" fill="#fff"></rect><rect x="593" y="1037" width="74" height="74" fill="#fff"></rect><rect x="741" y="1037" width="74" height="74" fill="#fff"></rect><rect x="815" y="1037" width="74" height="74" fill="#fff"></rect><rect x="889" y="1037" width="74" height="74" fill="#fff"></rect><rect x="963" y="1037" width="74" height="74" fill="#fff"></rect><rect x="1037" y="1037" width="74" height="74" fill="#fff"></rect><rect x="1259" y="1037" width="74" height="74" fill="#fff"></rect><rect x="1407" y="1037" width="74" height="74" fill="#fff"></rect><rect x="1481" y="1037" width="74" height="74" fill="#fff"></rect><rect x="1629" y="1037" width="74" height="74" fill="#fff"></rect><rect x="371" y="1111" width="74" height="74" fill="#fff"></rect><rect x="445" y="1111" width="74" height="74" fill="#fff"></rect><rect x="519" y="1111" width="74" height="74" fill="#fff"></rect><rect x="593" y="1111" width="74" height="74" fill="#fff"></rect><rect x="667" y="1111" width="74" height="74" fill="#fff"></rect><rect x="815" y="1111" width="74" height="74" fill="#fff"></rect><rect x="889" y="1111" width="74" height="74" fill="#fff"></rect><rect x="963" y="1111" width="74" height="74" fill="#fff"></rect><rect x="1111" y="1111" width="74" height="74" fill="#fff"></rect><rect x="1333" y="1111" width="74" height="74" fill="#fff"></rect><rect x="1481" y="1111" width="74" height="74" fill="#fff"></rect><rect x="1555" y="1111" width="74" height="74" fill="#fff"></rect><rect x="815" y="1185" width="74" height="74" fill="#fff"></rect><rect x="1037" y="1185" width="74" height="74" fill="#fff"></rect><rect x="1259" y="1185" width="74" height="74" fill="#fff"></rect><rect x="1703" y="1185" width="74" height="74" fill="#fff"></rect><rect x="963" y="1259" width="74" height="74" fill="#fff"></rect><rect x="1037" y="1259" width="74" height="74" fill="#fff"></rect><rect x="1111" y="1259" width="74" height="74" fill="#fff"></rect><rect x="889" y="1333" width="74" height="74" fill="#fff"></rect><rect x="963" y="1333" width="74" height="74" fill="#fff"></rect><rect x="1333" y="1333" width="74" height="74" fill="#fff"></rect><rect x="1407" y="1333" width="74" height="74" fill="#fff"></rect><rect x="1555" y="1333" width="74" height="74" fill="#fff"></rect><rect x="1703" y="1333" width="74" height="74" fill="#fff"></rect><rect x="889" y="1407" width="74" height="74" fill="#fff"></rect><rect x="1111" y="1407" width="74" height="74" fill="#fff"></rect><rect x="1185" y="1407" width="74" height="74" fill="#fff"></rect><rect x="1259" y="1407" width="74" height="74" fill="#fff"></rect><rect x="1333" y="1407" width="74" height="74" fill="#fff"></rect><rect x="1555" y="1407" width="74" height="74" fill="#fff"></rect><rect x="815" y="1481" width="74" height="74" fill="#fff"></rect><rect x="889" y="1481" width="74" height="74" fill="#fff"></rect><rect x="963" y="1481" width="74" height="74" fill="#fff"></rect><rect x="1037" y="1481" width="74" height="74" fill="#fff"></rect><rect x="1259" y="1481" width="74" height="74" fill="#fff"></rect><rect x="1333" y="1481" width="74" height="74" fill="#fff"></rect><rect x="1481" y="1481" width="74" height="74" fill="#fff"></rect><rect x="815" y="1555" width="74" height="74" fill="#fff"></rect><rect x="963" y="1555" width="74" height="74" fill="#fff"></rect><rect x="1111" y="1555" width="74" height="74" fill="#fff"></rect><rect x="1259" y="1555" width="74" height="74" fill="#fff"></rect><rect x="1333" y="1555" width="74" height="74" fill="#fff"></rect><rect x="815" y="1629" width="74" height="74" fill="#fff"></rect><rect x="889" y="1629" width="74" height="74" fill="#fff"></rect><rect x="1185" y="1629" width="74" height="74" fill="#fff"></rect><rect x="1333" y="1629" width="74" height="74" fill="#fff"></rect><rect x="1407" y="1629" width="74" height="74" fill="#fff"></rect><rect x="1481" y="1629" width="74" height="74" fill="#fff"></rect><rect x="1629" y="1629" width="74" height="74" fill="#fff"></rect><rect x="815" y="1703" width="74" height="74" fill="#fff"></rect><rect x="1185" y="1703" width="74" height="74" fill="#fff"></rect><rect x="1333" y="1703" width="74" height="74" fill="#fff"></rect><rect x="1407" y="1703" width="74" height="74" fill="#fff"></rect><rect x="1481" y="1703" width="74" height="74" fill="#fff"></rect><svg version="1.1" id="Ebene_1" x="223" y="223" width="518" height="518" viewBox="0 0 699.988 699.986" enable-background="new 0 0 699.988 699.986" xml:space="preserve" shape-rendering="auto">
<path fill="#fff" d="M600.99,0h-100h-99.997h-0.001h-99.997h-99.998h-99.998H1v99.998v99.998v99.998v99.999v99.997v99.998v99.998  h99.999h99.998h99.998h99.997h0.001h99.997h100h99.998v-99.998V499.99v-99.997v-99.999v-99.998V99.998V0H600.99z M600.99,199.996  v99.998v99.999v99.997v99.998h-100h-99.997h-0.001h-99.997h-99.998h-99.998V499.99v-99.997v-99.999v-99.998V99.998h99.998h99.998  h99.997h0.001h99.997h100V199.996z"></path>
</svg>
<svg version="1.0" id="Ebene_1" x="223" y="223" width="518" height="518" viewBox="0 0 699.988 699.988" enable-background="new 0 0 699.988 699.988" xml:space="preserve" shape-rendering="auto">
<polygon fill="#fff" points="399.994,199.997 399.992,199.997 299.996,199.997 199.998,199.997 199.998,299.994 199.998,399.994   199.998,499.991 299.996,499.991 399.992,499.991 399.994,499.991 499.99,499.991 499.99,399.994 499.99,299.994 499.99,199.997 "></polygon>
</svg>
<svg version="1.1" id="Ebene_1" x="1259" y="223" width="518" height="518" viewBox="0 0 699.988 699.986" enable-background="new 0 0 699.988 699.986" xml:space="preserve" shape-rendering="auto">
<path fill="#fff" d="M600.99,0h-100h-99.997h-0.001h-99.997h-99.998h-99.998H1v99.998v99.998v99.998v99.999v99.997v99.998v99.998  h99.999h99.998h99.998h99.997h0.001h99.997h100h99.998v-99.998V499.99v-99.997v-99.999v-99.998V99.998V0H600.99z M600.99,199.996  v99.998v99.999v99.997v99.998h-100h-99.997h-0.001h-99.997h-99.998h-99.998V499.99v-99.997v-99.999v-99.998V99.998h99.998h99.998  h99.997h0.001h99.997h100V199.996z"></path>
</svg>
<svg version="1.0" id="Ebene_1" x="1259" y="223" width="518" height="518" viewBox="0 0 699.988 699.988" enable-background="new 0 0 699.988 699.988" xml:space="preserve" shape-rendering="auto">
<polygon fill="#fff" points="399.994,199.997 399.992,199.997 299.996,199.997 199.998,199.997 199.998,299.994 199.998,399.994   199.998,499.991 299.996,499.991 399.992,499.991 399.994,499.991 499.99,499.991 499.99,399.994 499.99,299.994 499.99,199.997 "></polygon>
</svg>
<svg version="1.1" id="Ebene_1" x="223" y="1259" width="518" height="518" viewBox="0 0 699.988 699.986" enable-background="new 0 0 699.988 699.986" xml:space="preserve" shape-rendering="auto">
<path fill="#fff" d="M600.99,0h-100h-99.997h-0.001h-99.997h-99.998h-99.998H1v99.998v99.998v99.998v99.999v99.997v99.998v99.998  h99.999h99.998h99.998h99.997h0.001h99.997h100h99.998v-99.998V499.99v-99.997v-99.999v-99.998V99.998V0H600.99z M600.99,199.996  v99.998v99.999v99.997v99.998h-100h-99.997h-0.001h-99.997h-99.998h-99.998V499.99v-99.997v-99.999v-99.998V99.998h99.998h99.998  h99.997h0.001h99.997h100V199.996z"></path>
</svg>
<svg version="1.0" id="Ebene_1" x="223" y="1259" width="518" height="518" viewBox="0 0 699.988 699.988" enable-background="new 0 0 699.988 699.988" xml:space="preserve" shape-rendering="auto">
<polygon fill="#fff" points="399.994,199.997 399.992,199.997 299.996,199.997 199.998,199.997 199.998,299.994 199.998,399.994   199.998,499.991 299.996,499.991 399.992,499.991 399.994,499.991 499.99,499.991 499.99,399.994 499.99,299.994 499.99,199.997 "></polygon>
</svg>
</svg>