<svg xmlns="http://www.w3.org/2000/svg" viewBox="122.4 14.4 547.199 547.199" fill="#ffffff">
<path d="M201.583,95.313c-106.15,107.305-105.574,280.953,1.731,387.104c107.305,106.151,280.953,105.574,387.104-1.73
	c106.151-107.305,105.574-280.953-1.73-387.104C481.382-12.568,307.733-11.991,201.583,95.313L201.583,95.313z M553.613,236.678
	l-168.21,170.166c-14.343,14.343-37.814,14.343-52.158,0l-6.52-6.521l-19.559-19.559l-54.766-54.114
	c-14.343-14.343-14.343-37.814,0-52.158s37.814-14.343,52.158,0l54.766,54.115l142.13-143.435c14.343-14.343,37.813-14.343,52.158,0
	C567.956,198.864,567.956,222.335,553.613,236.678z"/>
</svg>
