<svg version="1.1" id="Layer_1" xmlns="http://www.w3.org/2000/svg" xmlns:xlink="http://www.w3.org/1999/xlink" x="0px" y="0px"
	 width="302.981px" height="251.108px" viewBox="245.458 161.949 302.981 251.108"
	 enable-background="new 245.458 161.949 302.981 251.108" xml:space="preserve">
<path fill="#fff" d="M548.321,183.743c-4.199,44.117-22.366,151.175-31.612,200.587c-3.911,20.907-11.612,27.918-19.067,28.604
	c-16.199,1.491-28.505-10.707-44.197-20.994c-24.556-16.097-38.428-26.117-62.265-41.824c-27.545-18.151-9.688-28.125,6.01-44.438
	c4.108-4.267,75.495-69.199,76.877-75.089c0.172-0.737,0.338-3.488-1.298-4.932c-1.636-1.445-4.039-0.955-5.777-0.562
	c-2.462,0.56-41.69,26.488-117.684,77.785c-11.134,7.646-21.219,11.371-30.256,11.176c-9.962-0.215-29.124-5.632-43.37-10.264
	c-17.472-5.679-31.359-8.682-30.15-18.327c0.63-5.024,7.549-10.163,20.756-15.413c81.334-35.436,135.569-58.798,162.706-70.087
	c77.481-32.228,93.581-37.826,104.075-38.013c2.309-0.038,7.469,0.533,10.812,3.246c2.223,1.932,3.641,4.628,3.971,7.556
	C548.418,176.387,548.575,180.073,548.321,183.743z"/>
</svg>

