<?xml version="1.0" encoding="utf-8"?>
<!-- Generator: Adobe Illustrator 24.3.0, SVG Export Plug-In . SVG Version: 6.00 Build 0)  -->
<svg version="1.1" id="Layer_1" xmlns="http://www.w3.org/2000/svg" xmlns:xlink="http://www.w3.org/1999/xlink" x="0px" y="0px"
	 viewBox="0 0 37.2 35.4" style="enable-background:new 0 0 37.2 35.4;" xml:space="preserve">
<style type="text/css">
	.st0{fill:#17AAE2;}
	.st1{fill:#1674BB;}
	.st2{fill:#061537;}
	.st3{fill:#FEFEFE;}
	.st4{fill:#010101;}
	.st5{fill:#575757;}
</style>
<g>
	<rect x="5.6" y="5" class="st0" width="17.2" height="17.2"/>
</g>
<g>
	<path class="st1" d="M23.1,30.1c-4.2,0-7.6-3.4-7.6-7.6c0-4.2,3.4-7.6,7.6-7.6s7.6,3.4,7.6,7.6C30.7,26.7,27.3,30.1,23.1,30.1z"/>
	<path class="st2" d="M23.1,15.9c3.6,0,6.6,3,6.6,6.6c0,3.6-3,6.6-6.6,6.6c-3.6,0-6.6-3-6.6-6.6C16.5,18.9,19.4,15.9,23.1,15.9
		 M23.1,13.9L23.1,13.9c-4.7,0-8.6,3.8-8.6,8.6v0c0,4.7,3.8,8.6,8.6,8.6h0c4.7,0,8.6-3.8,8.6-8.6v0C31.7,17.8,27.8,13.9,23.1,13.9
		L23.1,13.9z"/>
</g>
<path class="st3" d="M-998.9,220.3c0-81.9,0-163.9-0.1-245.8c0-3.2,0.3-4.2,4-4.2c164.1,0.1,328.2,0.1,492.2,0
	c3.2,0,3.8,0.7,3.8,3.8c-0.1,164.1-0.1,328.1,0,492.2c0,2.9-0.3,4-3.7,4c-164.2-0.1-328.5-0.1-492.7,0c-3.7,0-3.5-1.4-3.5-4.1
	C-998.9,384.2-998.9,302.2-998.9,220.3z M-529.6,460.2c-0.9,1.2-2.8,1.8-2.5,3.9c1.9,0.1,3.8,0.5,5.6-0.3c-0.4-1.5-2.4-0.9-2.3-2.5
	c0.8-0.4,1.2-1.2,0.6-1.9C-528.8,458.9-529.2,459.7-529.6,460.2z M-803,218.1c1.1,0,2.1,0,3.2-0.1c4.9,0.2,9.8,0.5,14.7-0.2
	c4.1,0.8,8.2,0.5,12.3,0.1c1.3,0.1,2.7,0.2,4,0.2c13.1,0.3,18.1-4.8,18-17.7c-0.4-40.1-0.2-80.3-0.2-120.4c0-12-4.2-16.2-16.2-16.2
	c-40.8,0-81.6,0-122.4,0c-11.4,0-15.6,4.3-15.6,15.7c0,29,0,58,0,86.9c0,12.7,0,25.3,0,38c0,6,2.2,10.7,8.3,12.6
	c4.3,1.9,8.7,0.8,13.1,0.9c11.6,0,23.2,0,34.9,0.1c4.7,0,9.4,0,14.1-0.1c8.3,0,16.5-0.1,24.8-0.1c0.7,0,1.5,0,2.2,0
	C-806.2,218.1-804.6,218.1-803,218.1z M-550.3,459.9c-1.3,0.6-2,3-3.4,2.4c-1.3-0.6-1.4-2.5-1.3-4.2c0.2-3.5-2.2-3.1-5.1-2.1
	c6-0.2,0.1,4.3,2.9,5.8c0.9,0.4-2.5-0.2-2.7,2.9c4.2-2,8.1,0.5,12.3-0.6c-0.1-1.6-3.4-1.4-1.5-3.5c-0.1-0.4-0.1-0.8-0.2-1.2
	C-549.6,459.5-550,459.7-550.3,459.9z M-639.6,228.9c-4.7-2.9-9.9-4.3-15.4-4.8c-0.5-0.7-1.3-0.7-2.1-0.7c-2.9-0.5-5.8-1.3-8.8-0.9
	c-0.8,0-1.5,0-2.3,0c-2.6,0-5.2,0-7.7,0c-1.3-0.5-2.4-0.3-3.1,0.9c-12.8,0.5-24.1,5.1-34.3,12.7c-1.3,0.2-2.2,0.8-2.9,1.8
	c-4.1,2.5-7.4,5.9-10.5,9.4c-22,24-26.5,59.3-11.1,88.2c15.2,28.6,47.4,45,78.9,40.3c34.3-5.2,60.1-30.8,65.6-65.3
	c5.3-32.7-12.3-65.4-43.3-80.8C-637.4,228.8-638.5,229-639.6,228.9z M-642.8,164.8c-0.4-0.3-0.9-0.6-1.3-0.8c0-13.1,0-26.2,0-39.3
	c0-9-4.5-13.4-13.5-13.4c-17.1,0-34.3,0-51.4,0c-8.4,0-13.8,4.7-13.7,11.8c0.1,6.9,5.4,11.3,13.6,11.4c12.6,0,25.3,0,37.9,0
	c1.6,0,3.9-1,3.9,2.2c0,9.2,0,18.4,0,29.1c-3.2-3.3-5.3-5.7-7.6-7.8c-5.2-4.7-12.1-4.7-16.6-0.1c-4.6,4.6-4.6,11.5,0.3,16.5
	c9,9.2,18,18.2,27.2,27.2c5,4.9,11.3,4.8,16.4-0.1c9.2-8.9,18.3-17.9,27.3-27c4.9-4.9,4.9-12,0.4-16.6c-4.5-4.6-11.5-4.7-16.6,0.1
	C-638.8,160-640.7,162.5-642.8,164.8z M-826.3,280.3c0.5-0.3,1-0.7,1.5-1c1.8,2.1,3.4,4.4,5.4,6.4c5.3,5.3,12.1,5.6,16.9,1
	c4.7-4.5,4.8-11.9-0.3-17c-8.8-9.1-17.8-18-26.8-26.9c-5.2-5.1-11.7-5-16.9,0.1c-8.9,8.7-17.8,17.6-26.5,26.5
	c-5.1,5.3-5.3,12.3-0.7,17c4.8,4.9,11.6,4.6,17.3-0.7c2.1-1.9,3.6-4.5,6.8-5.9c0,14-0.1,27.5,0,41c0,8,4.5,12.6,12.3,12.6
	c16.8,0.1,33.7,0,50.5,0c4.8,0,8.4-2.1,10.6-6.2c4.1-7.7-1.5-16.7-10.6-16.9c-12-0.2-24-0.1-36,0c-2.8,0-3.7-0.7-3.6-3.6
	C-826.2,297.9-826.3,289.1-826.3,280.3z M-562.4,457.1c0.1,0.3,1.2-1.5-0.7-2c-1.7-0.4-2,1.4-2.7,2.4c-0.5,0.7-0.8,1.5-1.3,2.1
	c-0.3,0.3-0.8,0.6-1.2,0.5c-0.8-0.1-1.1-0.9-0.6-1.5c1.1-1.6,0.4-2.4-0.9-3.2c-0.7,1.8-2.6-1.3-3.1,0.8c-0.4,1.7-0.7,3.4-1.1,5.2
	c2-0.7,2.8,1.3,4.1,2c0.3-3.8,2.7-1.8,4.3-1.4C-562.5,462.9-561.4,461.7-562.4,457.1z M-539,463.9c1.8,0.5,3.4,0.6,5.2-0.1
	c-1.8-2.1-1.2-4.6-1.3-7c0-1.2-0.6-1.9-1.8-1.6c-1.2,0.3-1.8,0.6-0.7,2.3C-536.3,459.6-537,462-539,463.9z M-541,459
	c-0.6-1.2,1.2-3.9-1.6-3.7c-2.3,0.2-3.1,3-3.4,4.8c-0.4,2.1,2.2,1.4,3.3,1.7C-539.9,462.7-541.6,460-541,459z"/>
<path class="st4" d="M-785.1,217.9c-4.9,0.7-9.8,0.4-14.7,0.2c-1-3-2.1-5.9-3.1-8.9c-0.3-1-0.9-1.8-2.1-1.8c-1.2,0-1.7,0.7-2,1.8
	c-1,3-2,6-3,8.9c-8.3,0-16.5,0.1-24.8,0.1c-0.1-7-0.1-13.9-0.3-20.9c0-1.5,0.7-3.8-1.9-3.9c-6.8-0.2-13.7-0.1-21.1-0.1
	c1.5,3.6,2.8,6.3,3.6,9.1c1.6,5.3,5.5,9.9,5.5,15.8c-11.6,0-23.2,0-34.9-0.1c0.3-1.1,0.4-2.3,0.8-3.3c2.2-5.4,4.5-10.7,6.7-16
	c2.2-5.4,2.2-5.5-3.4-5.5c-4.1,0-8.3,0.2-12.4-0.1c-3.6-0.2-5,0.7-4.8,4.6c0.3,6.4,0.1,12.9,0.1,19.4c-6.2-2-8.3-6.6-8.3-12.6
	c0-12.7,0-25.3,0-38c0-29,0-58,0-86.9c0-11.4,4.3-15.7,15.6-15.7c40.8,0,81.6,0,122.4,0c12.1,0,16.2,4.2,16.2,16.2
	c0,40.1-0.3,80.3,0.2,120.4c0.1,12.9-4.9,18-18,17.7c-1.3,0-2.7-0.1-4-0.2c-0.3-4.4,0.7-9-0.9-14.1c-1.6,1.8-1.3,3.3-1.2,4.7
	c0.3,4.2,0.1,7.5-5.6,6.9C-782.1,215.3-784.3,215.8-785.1,217.9z"/>
<path class="st4" d="M-675.8,222.6c2.6,0,5.2,0,7.7,0c0,3.7-0.1,7.3,0.1,11c0.3,4.6,3.3,5.8,7.8,2.8c-5.2,0.4-6.1-2.3-5.8-6.3
	c0.2-2.5,0.1-5,0.2-7.5c3-0.3,5.9,0.4,8.8,0.9c0,2-0.1,4,0.2,5.9c0.7,4.4,3,7.8,7.7,8.6c4.6,0.9,8-1.1,10.3-5.2
	c0.6-1.1,0.9-2.5,2.3-3.1c31,15.4,48.6,48.2,43.3,80.8c-5.6,34.5-31.4,60.1-65.6,65.3c-31.5,4.8-63.7-11.7-78.9-40.3
	c-15.3-28.9-10.8-64.2,11.1-88.2c3.2-3.5,6.4-6.9,10.5-9.4c3.3-0.1,7,1.3,10.3-2.6c-3,0.3-5.2,0.5-7.4,0.7
	c10.2-7.6,21.5-12.2,34.3-12.7c-0.2,0.7,0,1.3,0.6,1.7c2.7,2.2,4.4,4.9,2.2,8.1c-2.1,3.1-5.5,3.2-8.9,2.5c-1.5-0.3-2.9-1.6-4.7-0.8
	c2.5,3.4,9.1,4.3,13.2,1.8c3.8-2.3,4.8-6.7,2.5-10.9C-674.9,224.9-676.2,224.1-675.8,222.6z"/>
<path class="st2" d="M30.1,8.4c0.1-0.1,0.3-0.3,0.4-0.4c0.3-0.3,0.8-0.3,1,0c0.3,0.3,0.3,0.7,0,1c-0.6,0.6-1.1,1.1-1.7,1.7
	c-0.3,0.3-0.7,0.3-1,0C28.1,10.2,27.6,9.6,27,9c-0.3-0.3-0.3-0.8,0-1c0.3-0.3,0.7-0.3,1,0c0.1,0.1,0.3,0.3,0.5,0.5
	c0-0.7,0-1.3,0-1.8c0-0.2-0.1-0.1-0.2-0.1c-0.8,0-1.6,0-2.4,0c-0.5,0-0.8-0.3-0.9-0.7C25,5.3,25.3,5,25.9,5C27,5,28,5,29.1,5
	C29.7,5,30,5.3,30,5.9C30,6.7,30,7.5,30.1,8.4C30,8.4,30,8.4,30.1,8.4z"/>
<path class="st2" d="M9,29.5c-0.1,0.1-0.3,0.3-0.4,0.4c-0.3,0.3-0.3,0.8,0,1c0.3,0.3,0.7,0.3,1,0c0.6-0.6,1.1-1.1,1.7-1.7
	c0.3-0.3,0.3-0.7,0-1c-0.6-0.6-1.1-1.2-1.7-1.7c-0.3-0.3-0.8-0.3-1,0c-0.3,0.3-0.3,0.7,0,1C8.7,27.6,8.8,27.8,9,28
	c-0.7,0-1.3,0-1.8,0C7,28,7,27.8,7,27.7c0-0.8,0-1.6,0-2.4c0-0.5-0.3-0.8-0.7-0.9c-0.4,0-0.7,0.3-0.7,0.9c0,1.1,0,2.2,0,3.2
	c0,0.6,0.3,0.9,0.8,0.9C7.3,29.4,8.1,29.4,9,29.5C8.9,29.5,8.9,29.5,9,29.5z"/>
<path class="st4" d="M-826.3,280.3c0,8.8,0.1,17.6-0.1,26.4c-0.1,2.8,0.8,3.6,3.6,3.6c12-0.2,24-0.2,36,0
	c9.1,0.1,14.7,9.1,10.6,16.9c-2.2,4.2-5.8,6.2-10.6,6.2c-16.8,0-33.7,0-50.5,0c-7.8,0-12.2-4.6-12.3-12.6c-0.1-13.5,0-27,0-41
	c-3.2,1.4-4.7,3.9-6.8,5.9c-5.7,5.3-12.5,5.6-17.3,0.7c-4.6-4.7-4.4-11.7,0.7-17c8.7-8.9,17.6-17.8,26.5-26.5
	c5.2-5.1,11.7-5.2,16.9-0.1c9.1,8.8,18,17.8,26.8,26.9c5,5.2,4.9,12.5,0.3,17c-4.9,4.6-11.6,4.3-16.9-1c-2-1.9-3.6-4.2-5.4-6.4
	C-825.3,279.7-825.8,280-826.3,280.3z"/>
<path class="st5" d="M-849,218.2c0-5.9-3.9-10.4-5.5-15.8c-0.8-2.8-2.2-5.5-3.6-9.1c7.4,0,14.2-0.1,21.1,0.1
	c2.5,0.1,1.8,2.3,1.9,3.9c0.1,7,0.2,13.9,0.3,20.9C-839.6,218.1-844.3,218.1-849,218.2z"/>
<path class="st5" d="M-897,217.2c0-6.5,0.3-12.9-0.1-19.4c-0.2-3.9,1.2-4.9,4.8-4.6c4.1,0.3,8.3,0.1,12.4,0.1c5.6,0,5.7,0.1,3.4,5.5
	c-2.2,5.4-4.5,10.7-6.7,16c-0.4,1-0.5,2.2-0.8,3.3C-888.2,217.9-892.7,219-897,217.2z"/>
<path class="st4" d="M-655,224.1c5.5,0.5,10.7,1.9,15.4,4.8c-0.4,0.7-0.9,1.4-1.1,2.2c-1.1,3.4-3.5,5.2-7,5.1
	c-3.8-0.2-6-2.6-6.8-6.1C-654.9,228.1-654.8,226.1-655,224.1z"/>
<path class="st5" d="M-675.8,222.6c-0.3,1.5,1,2.4,1.6,3.5c2.3,4.1,1.3,8.5-2.5,10.9c-4.1,2.5-10.7,1.6-13.2-1.8
	c1.8-0.8,3.2,0.5,4.7,0.8c3.5,0.8,6.8,0.6,8.9-2.5c2.2-3.2,0.6-6-2.2-8.1c-0.6-0.5-0.8-1-0.6-1.7
	C-678.2,222.2-677.1,222.1-675.8,222.6z"/>
<path class="st5" d="M-562.4,457.1c1,4.5-0.1,5.7-3.3,4.9c-1.6-0.4-4-2.4-4.3,1.4c-1.4-0.7-2.1-2.7-4.1-2c0.3-1.7,0.6-3.5,1.1-5.2
	c0.5-2.1,2.5,1,3.1-0.8c1.3,0.8,2.1,1.6,0.9,3.2c-0.4,0.6-0.2,1.3,0.6,1.5c0.4,0.1,1-0.2,1.2-0.5c0.5-0.6,0.8-1.5,1.3-2.1
	c0.8-1,1-2.8,2.7-2.4C-561.3,455.6-562.4,457.4-562.4,457.1z"/>
<path class="st5" d="M-655,224.1c0.1,2,0.1,4,0.5,5.9c0.8,3.6,3,6,6.8,6.1c3.5,0.2,5.9-1.7,7-5.1c0.3-0.8,0.7-1.5,1.1-2.2
	c1,0.1,2.2-0.1,2.9,0.9c-1.4,0.6-1.7,1.9-2.3,3.1c-2.2,4.1-5.7,6-10.3,5.2c-4.6-0.9-7-4.2-7.7-8.6c-0.3-1.9-0.1-4-0.2-5.9
	C-656.3,223.4-655.5,223.4-655,224.1z"/>
<path class="st5" d="M-785.1,217.9c0.8-2.1,3-2.5,4.5-2.4c5.8,0.6,6-2.7,5.6-6.9c-0.1-1.3-0.3-2.9,1.2-4.7c1.5,5.1,0.5,9.7,0.9,14.1
	C-776.9,218.4-781,218.7-785.1,217.9z"/>
<path class="st5" d="M-549.1,460.5c-1.9,2.1,1.4,1.9,1.5,3.5c-4.2,1.1-8.1-1.4-12.3,0.6c0.2-3.2,3.6-2.5,2.7-2.9
	c-2.9-1.5,3.1-6-2.9-5.8c2.9-1,5.2-1.4,5.1,2.1c-0.1,1.8-0.1,3.7,1.3,4.2c1.4,0.6,2.1-1.8,3.4-2.4
	C-549.9,460.1-549.5,460.3-549.1,460.5z"/>
<path class="st5" d="M-810,218c1-3,2.1-5.9,3-8.9c0.3-1.1,0.8-1.8,2-1.8c1.2,0,1.7,0.8,2.1,1.8c1,3,2.1,6,3.1,8.9
	c-1.1,0-2.1,0-3.2,0.1c0.4-2.9-0.9-5.4-2.3-8.6c-1,3.3-1.7,5.9-2.5,8.5C-808.6,218-809.3,218-810,218z"/>
<path class="st5" d="M-665.9,222.5c0,2.5,0,5-0.2,7.5c-0.3,3.9,0.7,6.7,5.8,6.3c-4.5,3.1-7.5,1.8-7.8-2.8c-0.3-3.6-0.1-7.3-0.1-11
	C-667.4,222.5-666.6,222.5-665.9,222.5z"/>
<path class="st5" d="M-539,463.9c2.1-1.9,2.8-4.4,1.4-6.4c-1.1-1.7-0.5-2,0.7-2.3c1.2-0.3,1.8,0.4,1.8,1.6c0.1,2.4-0.5,4.9,1.3,7
	C-535.6,464.5-537.2,464.4-539,463.9z"/>
<path class="st4" d="M-807.8,218.1c0.8-2.6,1.5-5.2,2.5-8.5c1.4,3.2,2.7,5.6,2.3,8.6C-804.6,218.1-806.2,218.1-807.8,218.1z"/>
<path class="st5" d="M-541,459c-0.6,1.1,1.1,3.7-1.7,2.9c-1-0.3-3.7,0.3-3.3-1.7c0.4-1.9,1.1-4.7,3.4-4.8
	C-539.8,455.1-541.6,457.8-541,459z"/>
<path class="st5" d="M-713.2,236.2c2.2-0.2,4.4-0.4,7.4-0.7c-3.3,3.9-7,2.4-10.3,2.6C-715.5,237-714.5,236.4-713.2,236.2z"/>
<path class="st5" d="M-528.8,461.3c-0.1,1.5,1.9,1,2.3,2.5c-1.8,0.8-3.7,0.4-5.6,0.3c-0.3-2.2,1.6-2.7,2.5-3.9
	C-529.3,460.6-529.1,461-528.8,461.3z"/>
<path class="st5" d="M-529.6,460.2c0.3-0.5,0.8-1.3,1.4-0.7c0.6,0.7,0.2,1.4-0.6,1.9C-529.1,461-529.3,460.6-529.6,460.2z"/>
<path class="st5" d="M-550.3,459.9c0.3-0.2,0.6-0.4,1-0.6c0.1,0.4,0.1,0.8,0.2,1.2C-549.5,460.3-549.9,460.1-550.3,459.9z"/>
</svg>
