<?xml version="1.0" encoding="utf-8"?>
<!-- Generator: Adobe Illustrator 26.3.1, SVG Export Plug-In . SVG Version: 6.00 Build 0)  -->
<svg version="1.1" id="Layer_1" xmlns="http://www.w3.org/2000/svg" xmlns:xlink="http://www.w3.org/1999/xlink" x="0px" y="0px"
	 viewBox="0 0 184 52" style="enable-background:new 0 0 184 52;" xml:space="preserve">
<style type="text/css">
	.st0{fill:#FFFFFF;}
</style>
<g id="그룹_67">
	<g id="그룹_67-2">
		<path id="패스_59" class="st0" d="M78.1,25.8c0.1-2.8-1.1-5.6-3.3-7.4c-2.4-2-5.4-3-8.5-2.8H54.8v5.1h11.5
			c1.6-0.1,3.1,0.5,4.3,1.5c1.1,1,1.8,2.4,1.7,3.9c0,1.5-0.6,2.9-1.7,3.8c-1.2,1-2.8,1.5-4.3,1.4h-5.6v-7.7h-5.8v12.8h11.5
			c3.1,0.1,6.1-1,8.5-3C77,31.5,78.2,28.7,78.1,25.8z"/>
		<path id="패스_60" class="st0" d="M85.2,25.8c-0.1,2.9,1.2,5.7,3.3,7.6c2.3,2.1,5.4,3.1,8.5,3h10.1v-5.1H97
			c-1.6,0.1-3.1-0.5-4.3-1.4c-1.1-0.9-1.8-2.3-1.7-3.8c0-1.5,0.6-2.9,1.7-3.9c1.2-1,2.7-1.6,4.3-1.5h10.1v-5.1H97
			c-3.1-0.1-6.1,0.9-8.5,2.8C86.3,20.3,85.1,23,85.2,25.8L85.2,25.8z"/>
		<path id="패스_61" class="st0" d="M158.9,15.6H153v12.2l-12.6-11.4c-0.6-0.6-1.5-0.9-2.3-0.9c-0.7,0-1.4,0.2-1.9,0.7
			c-0.4,0.5-0.7,1.1-0.7,1.8v18.3h5.8V24.2L154,35.5c0.7,0.7,1.6,1.1,2.6,1c1.5,0,2.3-0.9,2.3-2.7L158.9,15.6L158.9,15.6z"/>
		<path id="패스_62" class="st0" d="M184,15.6h-23v5.1h8.6v15.7h5.8V20.7h8.6L184,15.6z"/>
	</g>
	<path id="패스_63" class="st0" d="M126.2,20.7l4.8-5.1h-20.8v20.8H130v-5.1h-14v-2.9h14v-4.9h-14v-2.8L126.2,20.7z"/>
	<path id="패스_64" class="st0" d="M83.3,20.2h-2.7l-2-5.5h6.8L83.3,20.2z"/>
	<g id="그룹_70">
		<path id="패스_65" class="st0" d="M23.4,9.8l3.9-2.2V2.2L23.4,0V9.8z"/>
		<path id="패스_66" class="st0" d="M9.2,33.1v-15l12.9-7.5V0L0.7,12.4C0.3,12.6,0,13.1,0,13.5v24.8l0,0.1L9.2,33.1z"/>
		<path id="패스_67" class="st0" d="M35.7,34.1l-13,7.5L9.9,34.2l-9.2,5.3l21.4,12.3c0.4,0.2,0.9,0.2,1.3,0l21.5-12.4l0,0
			L35.7,34.1z"/>
		<path id="패스_68" class="st0" d="M44.9,12.4l-8.5-4.9v5.3l-9.1,5.3l9.1,5.3V33l9.2,5.3V13.5C45.5,13.1,45.3,12.6,44.9,12.4z"/>
		<path id="패스_69" class="st0" d="M18.2,23.3l0,10.5l8.9-5.1V18.2L18.2,23.3z"/>
	</g>
</g>
</svg>
