<svg id="Layer_1" data-name="Layer 1" xmlns="http://www.w3.org/2000/svg" viewBox="0 0 37.17 35.38"><defs><style>.cls-1{fill:none;}.cls-2{fill:#0075be;}.cls-3{fill:#00ace8;}.cls-4{fill:#0b1434;}</style></defs><path class="cls-1" d="M14.62,17.79l2.19,2,2.25,2.09a8,8,0,0,0,1.86-.17l-3.17-2.93-3.1-2.87A8.92,8.92,0,0,0,14.62,17.79Z"/><path class="cls-1" d="M13.09,23.82l1.45,1.35A17.81,17.81,0,0,0,14,23a18.08,18.08,0,0,0-2.25-.4Z"/><path class="cls-1" d="M15.4,21.4a15.39,15.39,0,0,0,1.8.34L16,20.65l-1.1-1A15.93,15.93,0,0,0,15.4,21.4Z"/><path class="cls-1" d="M22,14.21l1.06,1a15.51,15.51,0,0,0-.44-1.57A15.51,15.51,0,0,0,21,13.3Z"/><path class="cls-1" d="M16,13.69a2.36,2.36,0,0,0-.61.47,2.25,2.25,0,0,0-.36.53l3.51,3.25,3.59,3.32a2.51,2.51,0,0,0,.5-.4,2.37,2.37,0,0,0,.42-.64l-3.56-3.3Z"/><path class="cls-1" d="M19.12,13.13a9,9,0,0,0-1.89.13l3,2.81L23.37,19a8.54,8.54,0,0,0,0-1.89l-2.16-2Z"/><path class="cls-1" d="M24,12.06a16.9,16.9,0,0,0,2.52.43L25,11,23.42,9.58A18.16,18.16,0,0,0,24,12.06Z"/><path class="cls-1" d="M30.05,12.25,26.68,9.14,23.39,6.09a6.52,6.52,0,0,0-.16,1.74l2.51,2.32,2.51,2.32-.07.08A6.54,6.54,0,0,0,30.05,12.25Z"/><path class="cls-1" d="M12.3,24.67l-2.39-2.2a6.7,6.7,0,0,0-1.77.24l3.22,3,3.3,3a7,7,0,0,0,.1-1.79Z"/><path class="cls-2" d="M21.2,15.06l.79-.85-1-.91a14.12,14.12,0,0,0-1.89-.17Z"/><path class="cls-3" d="M21.2,15.06l2.16,2a14.88,14.88,0,0,0-.31-1.87l-1.06-1Z"/><path class="cls-2" d="M19.48,16.92l.78-.85-3-2.81a4.22,4.22,0,0,0-1.24.43Z"/><path class="cls-3" d="M19.48,16.92,23,20.22A4.08,4.08,0,0,0,23.37,19l-3.11-2.88Z"/><path class="cls-2" d="M12.3,24.67l.79-.85-1.38-1.27a13.33,13.33,0,0,0-1.8-.08Z"/><path class="cls-3" d="M12.3,24.67,14.76,27a12.92,12.92,0,0,0-.22-1.78l-1.45-1.35Z"/><path class="cls-2" d="M10.57,26.54l.79-.85-3.22-3A3.24,3.24,0,0,0,7,23.25Z"/><path class="cls-3" d="M10.57,26.54l3.64,3.36a3.43,3.43,0,0,0,.45-1.16l-3.3-3Z"/><path class="cls-2" d="M17.75,18.79l.78-.85L15,14.69a4.21,4.21,0,0,0-.37,1.23Z"/><path class="cls-3" d="M20.92,21.72a3.9,3.9,0,0,0,1.2-.46l-3.59-3.32-.78.85Z"/><path class="cls-2" d="M16,20.65l.79-.85-2.19-2a15,15,0,0,0,.3,1.84Z"/><path class="cls-3" d="M17.2,21.74a12.51,12.51,0,0,0,1.86.15L16.81,19.8l-.79.85Z"/><path class="cls-2" d="M26.68,9.14l.79-.85L23.9,5a3.06,3.06,0,0,0-.51,1.11Z"/><path class="cls-3" d="M30.05,12.25a3,3,0,0,0,1.06-.59L27.47,8.29l-.79.85Z"/><path class="cls-2" d="M25,11l.79-.85L23.23,7.83a12.83,12.83,0,0,0,.19,1.75Z"/><path class="cls-3" d="M26.56,12.49a12.47,12.47,0,0,0,1.62.06l.07-.08-2.51-2.32L25,11Z"/><path class="cls-4" d="M32.52,12.68l1.95-2.11a.44.44,0,0,0,0-.62l-.64-.6a.45.45,0,0,0-.62.07l-1.95,2.1-.16.14a3,3,0,0,1-1.06.59,6.54,6.54,0,0,1-1.87.3,12.47,12.47,0,0,1-1.62-.06A16.9,16.9,0,0,1,24,12.06a18.16,18.16,0,0,1-.62-2.48,12.83,12.83,0,0,1-.19-1.75,6.52,6.52,0,0,1,.16-1.74A3.06,3.06,0,0,1,23.9,5,1.83,1.83,0,0,1,24,4.82L26,2.71a.44.44,0,0,0,0-.62l-.64-.6a.45.45,0,0,0-.62.07l-1.95,2.1c-2,2.11-1.41,5.74-.84,7.9-2.2-.4-5.86-.67-7.81,1.44s-1.4,5.74-.83,7.89c-2.2-.39-5.86-.66-7.81,1.45l-1.95,2.1a.44.44,0,0,0,0,.62l.64.6a.44.44,0,0,0,.62-.06l2-2.11A1.61,1.61,0,0,1,7,23.25a3.24,3.24,0,0,1,1.12-.54,6.7,6.7,0,0,1,1.77-.24,13.33,13.33,0,0,1,1.8.08A18.08,18.08,0,0,1,14,23a17.81,17.81,0,0,1,.58,2.22A12.92,12.92,0,0,1,14.76,27a7,7,0,0,1-.1,1.79,3.43,3.43,0,0,1-.45,1.16,2.37,2.37,0,0,1-.23.3l-2,2.1a.44.44,0,0,0,0,.62l.64.6a.45.45,0,0,0,.62-.06l2-2.11c1.95-2.1,1.4-5.73.84-7.89,2.19.4,5.85.66,7.8-1.44s1.41-5.74.84-7.9C26.91,14.52,30.57,14.78,32.52,12.68Zm-9.16,4.38a8.54,8.54,0,0,1,0,1.89A4.08,4.08,0,0,1,23,20.22a2.37,2.37,0,0,1-.42.64,2.51,2.51,0,0,1-.5.4,3.9,3.9,0,0,1-1.2.46,8,8,0,0,1-1.86.17,12.51,12.51,0,0,1-1.86-.15,15.39,15.39,0,0,1-1.8-.34,15.93,15.93,0,0,1-.48-1.77,15,15,0,0,1-.3-1.84,8.92,8.92,0,0,1,0-1.87A4.21,4.21,0,0,1,15,14.69a2.25,2.25,0,0,1,.36-.53,2.36,2.36,0,0,1,.61-.47,4.22,4.22,0,0,1,1.24-.43,9,9,0,0,1,1.89-.13A14.12,14.12,0,0,1,21,13.3a15.51,15.51,0,0,1,1.6.32,15.51,15.51,0,0,1,.44,1.57A14.88,14.88,0,0,1,23.36,17.06Z"/></svg>