<svg id="Layer_1" data-name="Layer 1" xmlns="http://www.w3.org/2000/svg" viewBox="0 0 37.17 35.38"><defs><style>.cls-1{fill:#0b1434;}.cls-2{fill:#0075be;}.cls-3{fill:#00ace8;}.cls-4{fill:#fff;}</style></defs><path class="cls-1" d="M27.09,22.19h0V2.73H6.86V29.81H21.79a5.66,5.66,0,0,1,5.3-7.62ZM10.28,6.57H25.43V8.38H10.28Zm-1.72,4.1H25.43v1.81H8.56Zm0,4.1H25.43v1.81H8.56Zm12.68,10H8.56V23H21.24ZM8.56,20.68V18.87H25.43v1.81Z"/><rect class="cls-2" x="10.28" y="6.57" width="15.15" height="1.81"/><rect class="cls-2" x="8.56" y="10.67" width="16.87" height="1.81"/><rect class="cls-2" x="8.56" y="14.77" width="16.87" height="1.81"/><rect class="cls-2" x="8.56" y="18.87" width="16.87" height="1.81"/><rect class="cls-2" x="8.56" y="22.97" width="12.67" height="1.81"/><path class="cls-3" d="M27.1,23.64a4.24,4.24,0,1,0,4.27,4.2A4.24,4.24,0,0,0,27.1,23.64Zm3,5.14H28v2.08h-1.8V28.78H24.14V27h2.09V24.89H28V27h2.09Z"/><path class="cls-1" d="M27.09,22.19a5.69,5.69,0,1,0,5.73,5.64,5.69,5.69,0,0,0-5.73-5.64Zm4.28,5.65a4.24,4.24,0,1,1-4.27-4.2A4.26,4.26,0,0,1,31.37,27.84Z"/><polygon class="cls-4" points="28.03 30.86 28.03 28.78 30.12 28.78 30.12 26.97 28.03 26.97 28.03 24.89 26.23 24.89 26.23 26.97 24.14 26.97 24.14 28.78 26.23 28.78 26.23 30.86 28.03 30.86"/></svg>