<svg id="Layer_1" data-name="Layer 1" xmlns="http://www.w3.org/2000/svg" xmlns:xlink="http://www.w3.org/1999/xlink" viewBox="0 0 358.53 108.59"><defs><style>.cls-1{fill:#fff;}.cls-2{fill-rule:evenodd;fill:url(#New_Gradient_Swatch_2);}</style><linearGradient id="New_Gradient_Swatch_2" x1="25.06" y1="-14.83" x2="67.79" y2="111.82" gradientUnits="userSpaceOnUse"><stop offset="0" stop-color="#273498"/><stop offset="0.53" stop-color="#0074c2"/><stop offset="1" stop-color="#00abe7"/></linearGradient></defs><path class="cls-1" d="M160.63,63.39H131.16a9.19,9.19,0,0,0,3.77,5.72,12.46,12.46,0,0,0,7.38,2.1,14.84,14.84,0,0,0,5.4-.91,12.94,12.94,0,0,0,4.37-2.86l6,6.52q-5.51,6.3-16.07,6.3a25.42,25.42,0,0,1-11.65-2.57,18.86,18.86,0,0,1-7.82-7.13A19.6,19.6,0,0,1,119.8,60.2a19.9,19.9,0,0,1,2.71-10.31A19.12,19.12,0,0,1,130,42.72a23.1,23.1,0,0,1,21-.11,18,18,0,0,1,7.27,7.06,21.09,21.09,0,0,1,2.64,10.68C160.84,60.49,160.77,61.51,160.63,63.39ZM134.2,50.87A9.21,9.21,0,0,0,131,56.8H150.2A9.36,9.36,0,0,0,147,50.9a9.53,9.53,0,0,0-6.37-2.21A9.74,9.74,0,0,0,134.2,50.87Z"/><path class="cls-1" d="M183,77.18a25.13,25.13,0,0,1-9.84-9.34,25.71,25.71,0,0,1-3.59-13.5,25.71,25.71,0,0,1,3.59-13.5A25.2,25.2,0,0,1,183,31.5a29.29,29.29,0,0,1,14.08-3.36A29.63,29.63,0,0,1,209,30.45,24,24,0,0,1,218,37.11l-7.53,7a16.2,16.2,0,0,0-12.74-5.93,17,17,0,0,0-8.4,2.06,14.59,14.59,0,0,0-5.75,5.75,16.9,16.9,0,0,0-2.07,8.4,16.87,16.87,0,0,0,2.07,8.4,14.59,14.59,0,0,0,5.75,5.75,16.87,16.87,0,0,0,8.4,2.07,16.13,16.13,0,0,0,12.74-6l7.53,7a23.53,23.53,0,0,1-9,6.73A29.85,29.85,0,0,1,197,80.55,29.14,29.14,0,0,1,183,77.18Z"/><path class="cls-1" d="M258,44.46q4.85,4.31,4.85,13V79.68H252.27V74.83q-3.18,5.43-11.87,5.43a18.46,18.46,0,0,1-7.78-1.52,11.7,11.7,0,0,1-5-4.2,11,11,0,0,1-1.73-6.08,10.13,10.13,0,0,1,4.09-8.54Q234,56.8,242.57,56.8h9a7.18,7.18,0,0,0-2.24-5.68c-1.49-1.33-3.74-2-6.73-2a19.4,19.4,0,0,0-6.12,1,16.16,16.16,0,0,0-5.1,2.64l-4.06-7.89a24.53,24.53,0,0,1,7.64-3.47,33.85,33.85,0,0,1,9.16-1.24Q253.14,40.15,258,44.46Zm-9.63,26.86a7.3,7.3,0,0,0,3.18-3.95v-4H243.8q-6.95,0-7,4.56a4.06,4.06,0,0,0,1.7,3.44,7.71,7.71,0,0,0,4.67,1.27A9.87,9.87,0,0,0,248.36,71.32Z"/><path class="cls-1" d="M280.28,79.06a24.7,24.7,0,0,1-7.38-3L276.66,68a23.77,23.77,0,0,0,6.3,2.71,26,26,0,0,0,7.24,1q7.17,0,7.17-3.54a2.51,2.51,0,0,0-2-2.39,29.14,29.14,0,0,0-6-1.23,57.41,57.41,0,0,1-7.89-1.67,12.13,12.13,0,0,1-5.39-3.33q-2.28-2.38-2.28-6.8A10.63,10.63,0,0,1,276,46.2a13.65,13.65,0,0,1,6.22-4.45,26.65,26.65,0,0,1,9.67-1.6,38.11,38.11,0,0,1,8.21.91,22.67,22.67,0,0,1,6.77,2.5l-3.76,8a22.5,22.5,0,0,0-11.22-2.9,11.32,11.32,0,0,0-5.43,1,3,3,0,0,0-1.81,2.6,2.59,2.59,0,0,0,1.95,2.54,34.5,34.5,0,0,0,6.23,1.37,69,69,0,0,1,7.81,1.7,11.86,11.86,0,0,1,5.29,3.3,9.36,9.36,0,0,1,2.24,6.66A10.26,10.26,0,0,1,306,74.32a13.92,13.92,0,0,1-6.33,4.38,28.18,28.18,0,0,1-9.88,1.56A37.69,37.69,0,0,1,280.28,79.06Z"/><path class="cls-1" d="M354.08,44.5q4.46,4.34,4.45,12.88v22.3H347.24V59.12q0-4.63-2-6.91a7.42,7.42,0,0,0-5.86-2.28,9,9,0,0,0-6.8,2.64Q330,55.21,330,60.42V79.68H318.72V26H330V44.79a15.09,15.09,0,0,1,5.43-3.44,19.59,19.59,0,0,1,6.95-1.2Q349.64,40.15,354.08,44.5Z"/><path class="cls-2" d="M24.92,37.05c6.72-3.89,13.5-7.78,20.22-11.67a6.37,6.37,0,0,1,6.53,0l10,5.71a.89.89,0,0,1,0,1.51L37.23,46.66a2,2,0,0,0-1,1.76v11.8a1.89,1.89,0,0,0,1,1.69l10.23,5.9a1.81,1.81,0,0,0,1.95,0L91.59,43.52c7.16-4.14,7.16-16.07,0-20.21L53.67,1.46a10.12,10.12,0,0,0-10.48,0L5.27,23.31A10.37,10.37,0,0,0,0,32.41C0,47,.06,61.6,0,76.16a10.39,10.39,0,0,0,5.27,9.11l37.92,21.91a10.44,10.44,0,0,0,10.48,0L91.59,85.27a10.24,10.24,0,0,0,5.21-9.11v-19L51.67,83.26a6.42,6.42,0,0,1-6.53,0L25,71.58a6.37,6.37,0,0,1-3.27-5.65V42.64a6.44,6.44,0,0,1,3.2-5.59Z"/></svg>
