<svg id="Layer_1" data-name="Layer 1" xmlns="http://www.w3.org/2000/svg" viewBox="0 0 37.17 35.38"><defs><style>.cls-1{fill:#0b1434;}.cls-2{fill:#17aae2;}.cls-3{fill:#1674bb;}</style></defs><path class="cls-1" d="M36.09,22.51v0c-2.51,0-4.05-1.53-5.89-2.82a8.32,8.32,0,0,0-5-1.75c-1,0-1.8,0-2.5,0H17.59a1.36,1.36,0,0,0,0,2.71h4.79A2,2,0,0,1,23,24.42l-1.86.5c-.63.15-1.23.31-1.79.47l-.12,0-4.78,1.25a2.47,2.47,0,0,1-.74-.06L6.19,21.73l-1.37-1h0l-.21-.11a1.2,1.2,0,0,0-.31-.13A1.31,1.31,0,0,0,4,20.44a1.43,1.43,0,0,0-.29,0,2.58,2.58,0,0,0-.4,0,2.18,2.18,0,0,0-2,2.16A2.14,2.14,0,0,0,2,24.15H2a2.08,2.08,0,0,0,.53.39l.52.38L14.9,33.51h0l.14.06a2.66,2.66,0,0,0,.85.15,2.07,2.07,0,0,0,.5-.05h.06c4-1,12.3-3.13,16.18-4.08l.28-.11a15.45,15.45,0,0,1,3.18-.54v-.57h0V22.51Z"/><path class="cls-2" d="M12.37,16.32l.52-1.67c.39-1.18.77-2.38,1.17-3.56a.51.51,0,0,0-.22-.67c-1.4-1-2.78-2-4.16-3l-.29-.22c.12-.14.26-.07.38-.07,1.65,0,3.31,0,5,0,.46,0,.67-.1.81-.57.51-1.69,1.08-3.37,1.64-5.07.18.1.18.28.23.43.51,1.58,1,3.16,1.53,4.75.11.34.24.47.62.46,1.68,0,3.37,0,5.05,0h.56L23.28,8.5c-.89.64-1.78,1.3-2.68,1.93a.49.49,0,0,0-.23.65c.55,1.59,1.06,3.2,1.58,4.8a.66.66,0,0,1,.07.48l-1.12-.8c-1.12-.81-2.25-1.62-3.36-2.45a.45.45,0,0,0-.65,0l-4.08,3A.71.71,0,0,1,12.37,16.32Z"/><path class="cls-3" d="M4.05,16.34c.09-.29.18-.56.27-.83.19-.6.38-1.19.58-1.78a.26.26,0,0,0-.11-.34L2.71,11.88l-.14-.1c.05-.07.13,0,.19,0H5.24a.33.33,0,0,0,.4-.28c.26-.85.54-1.69.82-2.54.09.05.09.14.11.21.26.8.52,1.59.77,2.38,0,.17.12.24.31.23h2.81c-.36.25-.65.47-1,.69l-1.34,1c-.13.09-.17.16-.11.32q.4,1.2.78,2.4a.31.31,0,0,1,0,.24c-.19-.14-.38-.26-.56-.4L6.64,14.74a.23.23,0,0,0-.33,0c-.67.5-1.35,1-2,1.48A.31.31,0,0,1,4.05,16.34Z"/><path class="cls-3" d="M25.59,16.34c.09-.29.18-.56.27-.83.19-.6.38-1.19.58-1.78a.26.26,0,0,0-.11-.34l-2.08-1.51-.15-.1c.06-.07.13,0,.19,0h2.49a.33.33,0,0,0,.4-.28c.26-.85.54-1.69.82-2.54.09.05.09.14.11.21.26.8.52,1.59.77,2.38.05.17.12.24.31.23H32c-.36.25-.65.47-.95.69l-1.34,1c-.13.09-.17.16-.11.32q.41,1.2.78,2.4a.31.31,0,0,1,0,.24c-.19-.14-.38-.26-.56-.4l-1.68-1.22a.23.23,0,0,0-.33,0c-.67.5-1.36,1-2,1.48C25.75,16.27,25.71,16.34,25.59,16.34Z"/></svg>