<svg id="Layer_1" data-name="Layer 1" xmlns="http://www.w3.org/2000/svg" viewBox="0 0 37.17 35.38"><defs><style>.cls-1{fill:#0b1434;}.cls-2{fill:#1674bb;}</style></defs><path class="cls-1" d="M36,22.68v0c-2.51,0-4.05-1.53-5.9-2.82a8.27,8.27,0,0,0-5-1.75c-1,0-1.79,0-2.49,0H17.45a1.36,1.36,0,0,0,0,2.71h4.79a2,2,0,0,1,.65,3.77l-1.86.5c-.63.15-1.23.31-1.79.47l-.12,0-4.78,1.25a2.44,2.44,0,0,1-.74-.06L6,21.9l-1.36-1h0l-.21-.11a1.69,1.69,0,0,0-.31-.13,1.31,1.31,0,0,0-.27-.06,1.53,1.53,0,0,0-.3,0,2.58,2.58,0,0,0-.39,0,2.18,2.18,0,0,0-2,2.16,2.14,2.14,0,0,0,.65,1.54h0a2.32,2.32,0,0,0,.54.39l.52.38,11.83,8.58h0l.14.06a2.66,2.66,0,0,0,.85.15,2.07,2.07,0,0,0,.5-.05h.06c4-1,12.3-3.13,16.17-4.08l.28-.11A15.65,15.65,0,0,1,36,29.09v-.57h0V22.68Z"/><path class="cls-2" d="M16.28,1.84a7.23,7.23,0,1,0,7.23,7.23,7.23,7.23,0,0,0-7.23-7.23Zm1,5.53L16.51,7A.46.46,0,0,0,16,7l-1.49.86a.47.47,0,0,0-.23.4V9.92a.49.49,0,0,0,.24.42l1.48.85a.46.46,0,0,0,.48,0l3.31-1.91v1.39a.73.73,0,0,1-.38.67L16.66,13a.76.76,0,0,1-.77,0l-2.78-1.61a.76.76,0,0,1-.39-.67V7.46a.76.76,0,0,1,.39-.66l2.78-1.61a.76.76,0,0,1,.77,0L19.44,6.8a.89.89,0,0,1,0,1.48l-3.1,1.78a.14.14,0,0,1-.15,0l-.75-.43a.16.16,0,0,1-.07-.13V8.63a.17.17,0,0,1,.07-.13l1.8-1a.07.07,0,0,0,0-.09Z"/></svg>