<svg id="Layer_1" data-name="Layer 1" xmlns="http://www.w3.org/2000/svg" viewBox="0 0 37.17 35.38"><defs><style>.cls-1{fill:#1674bb;}.cls-2{fill:#0b1434;}</style></defs><path class="cls-1" d="M18.61,5.72A12.14,12.14,0,1,0,30.76,17.85,12.13,12.13,0,0,0,18.61,5.72ZM20.23,15,19,14.29a.81.81,0,0,0-.8,0l-2.5,1.44a.79.79,0,0,0-.39.69v2.87a.78.78,0,0,0,.4.69l2.48,1.44a.79.79,0,0,0,.81,0l5.57-3.22v2.35a1.27,1.27,0,0,1-.64,1.12l-4.67,2.7a1.29,1.29,0,0,1-1.29,0l-4.67-2.7a1.26,1.26,0,0,1-.65-1.12V15.16A1.25,1.25,0,0,1,13.3,14L18,11.35a1.25,1.25,0,0,1,1.29,0L23.93,14a1.5,1.5,0,0,1,0,2.49l-5.21,3a.23.23,0,0,1-.25,0l-1.26-.73a.24.24,0,0,1-.12-.21V17.12a.27.27,0,0,1,.12-.22l3-1.73a.11.11,0,0,0,0-.15Z"/><path class="cls-2" d="M32.67,23.42v0c-1.62.37-2.83-.39-4.21-.95A5.5,5.5,0,0,0,25,22c-.63.15-1.16.27-1.61.39l-3.29.74a.89.89,0,1,0,.4,1.74l1.86-.42,1.22-.28A1.36,1.36,0,0,1,25,25.26a1.34,1.34,0,0,1-.42,1.29l-1.13.59c-.39.19-.75.38-1.09.57l-.07,0-2.9,1.5a1.78,1.78,0,0,1-.48.08l-5.58-2.06-1-.43h0l-.15-.05-.22,0h-.18l-.19,0a1.06,1.06,0,0,0-.25.09,1.42,1.42,0,0,0-.33,2.57h0a1.18,1.18,0,0,0,.4.17l.39.17,8.88,3.8h0l.1,0a1.78,1.78,0,0,0,.56,0,1.51,1.51,0,0,0,.32-.11h0c2.43-1.25,7.46-3.81,9.82-5l.17-.11a10.53,10.53,0,0,1,2-.81l-.08-.37h0l-.12-.5-.71-3.15Z"/><path class="cls-2" d="M4.32,11.69v0c1.63-.29,2.81.52,4.16,1.14a5.47,5.47,0,0,0,3.46.54c.64-.11,1.17-.22,1.63-.31l3.31-.6a.89.89,0,1,0-.32-1.76l-1.88.34-1.23.22a1.33,1.33,0,0,1-1.35-1.1,1.31,1.31,0,0,1,.48-1.27l1.15-.55c.39-.17.77-.34,1.11-.52l.08,0c1.3-.61,2.7-1.27,3-1.38a1.64,1.64,0,0,1,.48,0l5.49,2.29,1,.48h0l.15,0,.22.05h.18l.2,0a1.17,1.17,0,0,0,.25-.07,1.43,1.43,0,0,0,.44-2.56h0a1.64,1.64,0,0,0-.4-.19l-.38-.18L16.8,2h0l-.1,0a2.18,2.18,0,0,0-.57,0,2.07,2.07,0,0,0-.33.1h0c-2.49,1.14-7.62,3.49-10,4.57l-.17.1a11.14,11.14,0,0,1-2,.73l.06.36h0l.09.5.58,3.18Z"/></svg>