<svg id="Layer_1" data-name="Layer 1" xmlns="http://www.w3.org/2000/svg" viewBox="0 0 37.17 35.38"><defs><style>.cls-1{fill:#0b1434;}.cls-2{fill:#17aae2;}.cls-3{fill:#061537;}.cls-4{fill:#1674bb;}</style></defs><path class="cls-1" d="M36.28,22.51v0c-2.51,0-4-1.53-5.9-2.82a8.27,8.27,0,0,0-5-1.75c-1,0-1.79,0-2.49,0H17.78a1.36,1.36,0,0,0,0,2.71h4.79a2,2,0,0,1,.65,3.77l-1.86.5c-.63.15-1.23.31-1.79.47l-.12,0-4.78,1.25a2.44,2.44,0,0,1-.74-.06L6.38,21.73,5,20.74H5l-.21-.11a1.2,1.2,0,0,0-.31-.13,1.31,1.31,0,0,0-.27-.06,1.45,1.45,0,0,0-.3,0,2.58,2.58,0,0,0-.39,0,2.18,2.18,0,0,0-2,2.16,2.14,2.14,0,0,0,.65,1.54h0a2.32,2.32,0,0,0,.54.39l.52.38,11.84,8.58h0l.14.06a2.66,2.66,0,0,0,.85.15,2.07,2.07,0,0,0,.5-.05h.06c4-1,12.3-3.13,16.18-4.08l.27-.11a15.65,15.65,0,0,1,3.19-.54v-.57h0V22.51Z"/><path class="cls-2" d="M11.07,6.14a1,1,0,0,1,.32-.21l4.49-2.59c.12-.07.21-.12.35,0L21,6.05s.09,0,.1.11L19,7.35,16.27,8.94a.31.31,0,0,1-.35,0C14.33,8,12.73,7.11,11.13,6.19Z"/><path class="cls-3" d="M15.24,16.29l-.88-.51-4-2.28c-.12-.07-.2-.13-.19-.29V7.71a.82.82,0,0,1,0-.14l.64.37q2.07,1.2,4.15,2.39a.4.4,0,0,1,.24.4c0,1.76,0,3.52,0,5.28Z"/><path class="cls-4" d="M16.9,16.25V10.67a.28.28,0,0,1,.14-.29c1.6-.91,3.18-1.83,4.77-2.75l.13,0v.27c0,1.76,0,3.52,0,5.28a.4.4,0,0,1-.24.4l-4.51,2.6A.55.55,0,0,1,16.9,16.25Z"/></svg>