<svg id="Layer_1" data-name="Layer 1" xmlns="http://www.w3.org/2000/svg" viewBox="0 0 37.17 35.38"><defs><style>.cls-1{fill:#00ace8;}.cls-2{fill:#0b1434;}</style></defs><path class="cls-1" d="M17.82,1.13H13a.14.14,0,0,0-.13.09.2.2,0,0,0,0,.17l2.4,3a.16.16,0,0,0,.11.05.11.11,0,0,0,.1-.05l2.44-3a.2.2,0,0,0,0-.17A.14.14,0,0,0,17.82,1.13Z"/><path class="cls-1" d="M15.15,5h-5a.14.14,0,0,0-.12.09.15.15,0,0,0,0,.17l7.47,9.47a.13.13,0,0,0,.17,0,.14.14,0,0,0,.06-.17L15.28,5.14A.15.15,0,0,0,15.15,5Z"/><path class="cls-1" d="M24.18,1.13h-5a.14.14,0,0,0-.13.09.17.17,0,0,0,0,.17l2.58,3a.14.14,0,0,0,.1,0,.12.12,0,0,0,.1,0c.49-.6,1.81-2.23,2.45-3a.17.17,0,0,0,0-.17A.17.17,0,0,0,24.18,1.13Z"/><path class="cls-1" d="M27.11,5H22a.13.13,0,0,0-.13.11l-2.37,9.53a.17.17,0,0,0,.06.18.14.14,0,0,0,.18,0l7.51-9.53a.14.14,0,0,0,0-.16A.13.13,0,0,0,27.11,5Z"/><path class="cls-2" d="M18.48,1.37a.14.14,0,0,0-.1,0l-2.45,3a.15.15,0,0,0,0,.17.14.14,0,0,0,.12.09h5a.14.14,0,0,0,.13-.09.17.17,0,0,0,0-.17l-2.59-3A.12.12,0,0,0,18.48,1.37Z"/><path class="cls-2" d="M24.78,1.37a.12.12,0,0,0-.1,0l-2.45,3a.17.17,0,0,0,0,.17.17.17,0,0,0,.13.09h5a.14.14,0,0,0,.13-.09.17.17,0,0,0,0-.17l-2.59-3A.12.12,0,0,0,24.78,1.37Z"/><path class="cls-2" d="M12.23,1.37a.14.14,0,0,0-.1,0l-2.45,3a.2.2,0,0,0,0,.17.14.14,0,0,0,.13.09h5A.14.14,0,0,0,15,4.57a.17.17,0,0,0,0-.17l-2.58-3A.16.16,0,0,0,12.23,1.37Z"/><path class="cls-1" d="M15.91,5.06a.14.14,0,0,0-.11.06.15.15,0,0,0,0,.13L18.51,15.5a.14.14,0,0,0,.27,0L21.32,5.25a.14.14,0,0,0,0-.13.14.14,0,0,0-.11-.06Z"/><path class="cls-2" d="M35.94,22.68v0c-2.51,0-4-1.53-5.89-2.82a8.29,8.29,0,0,0-5-1.75c-1,0-1.8,0-2.5,0H17.44a1.36,1.36,0,0,0,0,2.71h4.8a2,2,0,0,1,1.7,2,2,2,0,0,1-1.05,1.77l-1.87.5c-.63.15-1.23.31-1.79.47l-.12,0-4.78,1.25a2.5,2.5,0,0,1-.74-.06L6,21.9l-1.37-1h0l-.2-.11a1.79,1.79,0,0,0-.32-.13,1.18,1.18,0,0,0-.27-.06,1.36,1.36,0,0,0-.29,0,2.34,2.34,0,0,0-.39,0,2.18,2.18,0,0,0-2,2.16,2.14,2.14,0,0,0,.65,1.54h0a2.5,2.5,0,0,0,.53.39l.52.38,11.84,8.58h0l.15.06a2.55,2.55,0,0,0,.84.15,2.21,2.21,0,0,0,.51-.05h.06c4-1,12.29-3.13,16.17-4.08l.28-.11a15.68,15.68,0,0,1,3.18-.54v-.57h0V22.68Z"/></svg>