<?xml version="1.0" encoding="UTF-8"?><svg id="Layer_1" xmlns="http://www.w3.org/2000/svg" viewBox="0 0 37.17 35.38"><defs><style>.cls-1{fill:#061537;}.cls-2{fill:#b4d8f2;}.cls-3{fill:#1674bb;}.cls-4{fill:#17aae2;}.cls-5{fill:#293993;}</style></defs><path class="cls-3" d="M32.32,9.16c.17,.12,.18,.35,.32,.49v.49c-.19,.53-.72,.66-1.13,.94-.08,.06-.17,.12-.26,.14-.45,.14-.51,.45-.51,.89-.02,1.55-.78,2.66-2.1,3.43-1.7,.99-3.4,1.97-5.1,2.95-.02,.01-.05,.01-.08,.02,0-.4,0-.79,0-1.19,0-.16,.02-.26,.18-.34,.29-.15,.56-.32,.84-.48,1.09-.63,2.18-1.27,3.28-1.89,.89-.5,1.64-1.13,2.04-2.09,.26-.62,.42-1.25,.31-1.93-.02-.13,.05-.17,.14-.23,.69-.4,1.38-.8,2.07-1.2Z"/><path class="cls-4" d="M32.32,9.16c-.69,.4-1.38,.8-2.07,1.2-.09,.05-.16,.1-.14,.23,.11,.68-.05,1.31-.31,1.93-.4,.96-1.15,1.6-2.04,2.09-1.1,.61-2.19,1.26-3.28,1.89-.28,.16-.55,.34-.84,.48-.16,.08-.19,.19-.18,.34,0,.4,0,.79,0,1.19,0,.76,0,1.52,0,2.28,0,.09-.03,.18,.05,.25-.03,.12-.06,.24-.06,.37,0,.96,0,1.92,0,2.88,0,.37,.15,.53,.49,.53,.33,0,.48-.17,.48-.54,0-.9,.02-1.8,0-2.7-.02-.59,.19-1.02,.66-1.35,.54,.17,.86,.61,.86,1.16,0,1.36,.02,2.71,0,4.07-.02,.93-.37,1.74-.99,2.43-.38,.42-.79,.78-1.32,1-.14,.06-.17,.16-.16,.3,0,.47,0,.93,0,1.4,0,.53-.4,.91-.92,.91-1.73,0-3.45,0-5.18,0,0-.78,0-1.57,0-2.35,0-.16-.05-.24-.19-.31-1.47-.79-2.23-2.02-2.24-3.7,0-2.19,0-4.37,0-6.56,0-.29,.02-.57,.11-.85,.38,.19,.75,.39,1.09,.64,0,1.24,0,2.48,0,3.71,0,.31,.24,.6,.5,.6,.3,0,.48-.22,.48-.59,0-1.06,0-2.12,0-3.18,.06,.03,.11,.05,.17,.08,.43,.19,.78,.57,1.29,.58,0,.65,0,1.31,0,1.96,0,.26,.26,.56,.48,.56,.27,0,.49-.23,.49-.53,0-.76,0-1.52,0-2.28,.46-.56,.46-1.13,.06-1.72,.13-.02,.21,.07,.32,.12,.38,.17,.69,.48,1.14,.49,0,1.24,0,2.48,0,3.72,0,.34,.19,.58,.46,.58,.29,0,.51-.24,.51-.58,0-1.36,0-2.71,0-4.07,.28-.37,.42-.77,.27-1.23-.12-.37-.39-.62-.71-.81,.36,.02,.7-.01,.99-.26,.19-.1,.28-.3,.42-.46,.03,.04,.05,.1,.09,.13,.19,.12,.17,.48,.42,.45,.21-.02,.42-.19,.61-.32,.28-.19,.62-.3,.87-.53,.21-.19,.23-.43,.08-.63-.16-.21-.37-.27-.62-.16-.15,.07-.28,.16-.43,.23-.33,.17-.61,.41-.97,.52,.05-.55-.19-.96-.62-1.28,.26-.15,.52-.28,.77-.44,.24-.15,.3-.42,.17-.66-.13-.22-.39-.33-.62-.2-.43,.23-.87,.46-1.26,.75-.48-.25-.95-.51-1.41-.82,.35,.07,.68,.05,.98-.15,.38-.19,.51-.54,.59-.92,.28-.03,.49-.21,.7-.37,.19-.14,.22-.47,.1-.63-.14-.2-.43-.31-.66-.17-.15,.09-.28,.22-.47,.24-.08-.07-.16-.14-.25-.2-.35-.22-.7-.43-1.06-.64,.05-.13,.23-.11,.28-.24,.93-.46,1.81-1.03,2.72-1.53,.3-.16,.41-.42,.33-.64-.13-.35-.46-.45-.81-.25-.8,.46-1.6,.91-2.39,1.39-.47,.29-.93,.33-1.41,.05-.18-.44,.16-1.07,.54-1.3,1.12-.66,2.24-1.32,3.38-1.95,1.45-.8,2.89-.71,4.28,.17,.15,.1,.26,.1,.41,.01,.4-.24,.82-.45,1.21-.7,.43-.27,.95-.1,1.2,.33,.38,.65,.76,1.3,1.14,1.95,.45,.78,.91,1.57,1.36,2.35,.04,.06,.06,.13,.08,.2Z"/><path class="cls-1" d="M21.04,18.19c-.44,0-.76-.31-1.14-.49-.1-.05-.19-.14-.32-.12h0l-.07-.06c-.21-.13-.42-.27-.64-.4-1.12-.65-2.25-1.31-3.37-1.95-.46-.26-.92-.53-1.39-.77-.36-.18-.68,.03-.7,.42-.01,.26,.16,.39,.34,.5,1.55,.9,3.1,1.8,4.66,2.68,.54,.31,1,.65,.94,1.36-.24,.2-.52,.23-.81,.23-.51-.02-.86-.39-1.29-.58-.06-.03-.11-.05-.17-.08-.31-.21-.62-.41-.97-.55-.34-.25-.71-.45-1.09-.64-.25-.17-.5-.35-.8-.43-.14-.18-.33-.28-.55-.32h0l-.04-.05c-.92-.54-1.84-1.08-2.76-1.62-.24-.14-.54-.06-.69,.17-.15,.22-.09,.48,.15,.66,.06,.05,.13,.09,.2,.13,.62,.36,1.25,.71,1.86,1.07,.31,.18,.65,.31,.9,.58,.22,.24,.24,.55,.32,.83v.05c-.51,.38-1.03,.41-1.58,.08-1.07-.63-2.16-1.22-3.22-1.86-1.43-.87-2.08-2.16-1.99-3.82,0-.17-.04-.24-.16-.31-.39-.22-.78-.45-1.17-.67-.52-.29-.67-.78-.37-1.3,.86-1.49,1.73-2.98,2.59-4.47,.67,.47,1.4,.84,2.1,1.24,.11,.06,.18,0,.27-.05,.94-.6,1.94-.82,3.04-.6,.63,.13,1.17,.44,1.71,.75,1.68,.97,3.36,1.95,5.05,2.9,.53,.3,.99,.61,1.1,1.25,0,0,.01,.01,.02,.02-.3,.2-.64,.22-.98,.15-.45-.18-.84-.47-1.26-.7-.77-.43-1.54-.89-2.31-1.32-.13-.07-.26-.15-.43-.1-.18,.06-.33,.16-.36,.35-.04,.25,.03,.46,.27,.59,.3,.16,.6,.33,.89,.5,1.6,.92,3.19,1.85,4.8,2.77,.52,.3,.91,.67,.9,1.32-.29,.25-.63,.29-.99,.26-.21,0-.33-.17-.49-.26-.89-.5-1.77-1.02-2.66-1.53-.89-.51-1.77-1.02-2.66-1.53-.3-.17-.58-.1-.71,.14-.15,.28-.04,.58,.26,.74,.53,.3,1.06,.6,1.59,.91,1.23,.71,2.47,1.42,3.7,2.15,.37,.22,.8,.36,1.05,.76,.14,.23,.14,.49,.26,.72-.26,.18-.54,.3-.87,.28Z"/><path class="cls-5" d="M21.04,11.98s-.02-.01-.02-.02c-.11-.64-.57-.96-1.1-1.25-1.69-.95-3.37-1.93-5.05-2.9-.54-.31-1.08-.62-1.71-.75-1.1-.23-2.11,0-3.04,.6-.09,.05-.16,.12-.27,.05-.7-.41-1.43-.78-2.1-1.24,.05-.15,.14-.29,.24-.42,.3-.35,.72-.43,1.12-.2,.44,.24,.88,.49,1.31,.75,.12,.07,.19,.06,.31-.01,1.42-.91,2.88-.95,4.35-.11,1.29,.74,2.58,1.48,3.87,2.22,.23,.14,.47,.28,.7,.41l.36,.19c.35,.21,.71,.42,1.06,.64,.09,.06,.17,.13,.25,.2,.22,.27,.32,.58,.33,.92-.09,.38-.22,.73-.59,.92Z"/><path class="cls-3" d="M13.64,18.82v-.05c.4-.31,.51-.79,.33-1.35,.12,.03,.18-.08,.28-.11,.3,.08,.55,.27,.8,.43-.09,.28-.11,.56-.11,.85,0,2.19,0,4.37,0,6.56,0,1.68,.77,2.91,2.24,3.7,.14,.07,.19,.15,.19,.31,0,.78,0,1.56,0,2.35-.21,0-.41,.03-.62-.03-.38-.12-.62-.44-.62-.84,0-.49,0-.97,0-1.46,0-.17-.05-.25-.2-.33-1.13-.59-1.86-1.5-2.15-2.74-.05-.22-.08-.46-.08-.69,0-2.1,0-4.19,0-6.29,0-.1,.04-.22-.06-.3Z"/><path class="cls-3" d="M19.64,9.1c-.23-.14-.47-.28-.7-.41-.04-.21-.24-.37-.22-.6,.48,.28,.94,.23,1.41-.05,.79-.48,1.59-.93,2.39-1.39,.35-.2,.68-.1,.81,.25,.08,.22-.03,.47-.33,.64-.91,.5-1.79,1.06-2.72,1.53-.21,.09-.43,0-.64,.05Z"/><path class="cls-3" d="M25.09,20.23c-.47,.33-.68,.77-.66,1.35,.03,.9,0,1.8,0,2.7,0,.37-.15,.54-.48,.54-.34,0-.49-.16-.49-.53,0-.96,0-1.92,0-2.88,0-.13,.03-.25,.06-.37,.16-.64,.9-1.03,1.57-.81Z"/><path class="cls-5" d="M22.55,15.54c.02-.65-.37-1.02-.9-1.32-1.6-.92-3.2-1.85-4.8-2.77-.29-.17-.59-.34-.89-.5-.24-.13-.32-.33-.27-.59,.04-.2,.18-.3,.36-.35,.17-.05,.3,.03,.43,.1,.77,.44,1.54,.89,2.31,1.32,.42,.24,.81,.52,1.26,.7,.45,.3,.92,.57,1.41,.82,.3,.21,.62,.39,.95,.54,.43,.32,.67,.73,.62,1.28l-.07,.3c-.14,.16-.22,.36-.42,.46Z"/><path class="cls-5" d="M21.9,17.91c-.11-.23-.11-.5-.26-.72-.25-.4-.68-.54-1.05-.76-1.23-.73-2.47-1.43-3.7-2.15-.53-.3-1.06-.61-1.59-.91-.3-.17-.41-.46-.26-.74,.13-.24,.41-.31,.71-.14,.89,.5,1.77,1.02,2.66,1.53,.89,.51,1.77,1.03,2.66,1.53,.16,.09,.28,.25,.49,.26,.32,.19,.59,.44,.71,.81,.16,.46,0,.86-.27,1.23l-.1,.06Z"/><path class="cls-5" d="M19.37,19.36c.06-.71-.39-1.05-.94-1.36-1.56-.88-3.11-1.78-4.66-2.68-.18-.11-.35-.24-.34-.5,.02-.39,.34-.6,.7-.42,.47,.24,.93,.51,1.39,.77,1.13,.65,2.25,1.3,3.37,1.95,.22,.13,.42,.27,.64,.4l.07,.06h0c.4,.58,.4,1.16-.06,1.71l-.15,.06Z"/><path class="cls-3" d="M21.9,17.91l.1-.06c0,1.36,0,2.71,0,4.07,0,.34-.22,.58-.51,.58-.27,0-.46-.24-.46-.58,0-1.24,0-2.48,0-3.72,.33,.02,.61-.1,.87-.28Z"/><path class="cls-3" d="M16.13,18.38c.35,.14,.66,.34,.97,.55,0,1.06,0,2.12,0,3.18,0,.37-.17,.58-.48,.59-.25,0-.5-.28-.5-.6,0-1.24,0-2.48,0-3.71Z"/><path class="cls-3" d="M19.37,19.36l.15-.06c0,.76,0,1.52,0,2.28,0,.3-.22,.53-.49,.53-.22,0-.48-.3-.48-.56,0-.65,0-1.31,0-1.96,.29,0,.58-.03,.81-.23Z"/><path class="cls-3" d="M22.97,15.08l.07-.3c.35-.11,.64-.35,.97-.52,.14-.07,.28-.16,.43-.23,.24-.12,.46-.06,.62,.16,.15,.2,.13,.43-.08,.63-.25,.24-.58,.35-.87,.53-.19,.13-.4,.3-.61,.32-.25,.03-.24-.34-.42-.45-.04-.03-.06-.08-.09-.13Z"/><path class="cls-3" d="M22.42,13.49c-.34-.15-.65-.33-.95-.54,.39-.3,.83-.52,1.26-.75,.23-.12,.5-.02,.62,.2,.13,.23,.07,.51-.17,.66-.25,.16-.51,.29-.77,.44Z"/><path class="cls-3" d="M21.64,11.05c0-.34-.1-.65-.33-.92,.19-.02,.32-.15,.47-.24,.23-.14,.51-.03,.66,.17,.12,.16,.09,.49-.1,.63-.21,.16-.42,.33-.7,.37Z"/><path class="cls-2" d="M19.64,9.1c.21-.04,.43,.04,.64-.05-.05,.13-.23,.11-.28,.24-.12-.06-.24-.13-.36-.19Z"/><path class="cls-5" d="M13.97,17.42c.18,.56,.06,1.04-.33,1.35-.08-.29-.1-.6-.32-.83-.25-.27-.59-.4-.9-.58-.61-.37-1.24-.72-1.86-1.07-.07-.04-.14-.08-.2-.13-.24-.18-.3-.44-.15-.66,.15-.23,.45-.31,.69-.17,.92,.54,1.84,1.08,2.76,1.62l.04,.05h0c.12,.13,.21,.27,.28,.43Z"/><path class="cls-2" d="M13.7,16.99l-.04-.05,.04,.05Z"/><path class="cls-4" d="M19.58,17.59l-.07-.06,.07,.06Z"/></svg>