<svg id="Layer_1" data-name="Layer 1" xmlns="http://www.w3.org/2000/svg" viewBox="0 0 814.57 278.73"><defs><style>.cls-1{fill:#a7a9ac;}.cls-2{opacity:0.09;}.cls-3,.cls-7{fill:#f1f2f2;}.cls-4{fill:#939598;}.cls-5,.cls-6{fill:#d1d3d4;}.cls-6{fill-rule:evenodd;}.cls-7{font-size:14px;}.cls-7,.cls-8{font-family:Poppins-Light, Poppins;font-weight:300;}.cls-8{font-size:18px;}.cls-10,.cls-8{fill:#cd0bc3;}.cls-9{fill:#ff21d0;}</style></defs><path class="cls-1" d="M734.85,67.35V226.76H585.94V67.35H734.85m.5-.5H585.44V227.26H735.35V66.85Z"/><path class="cls-1" d="M447.78,67.35V226.76H68.38V67.35h379.4m.5-.5H67.88V227.26h380.4V66.85Z"/><g class="cls-2"><rect class="cls-3" x="99.52" y="98.49" width="317.12" height="97.13"/><path class="cls-4" d="M416.39,98.74v96.63H99.77V98.74H416.39m.5-.5H99.27v97.63H416.89V98.24Z"/></g><g class="cls-2"><rect class="cls-3" x="617.08" y="98.49" width="86.64" height="97.13"/><path class="cls-4" d="M703.46,98.74v96.63H617.33V98.74h86.13m.5-.5H616.83v97.63H704V98.24Z"/></g><path class="cls-5" d="M240.29,156.07H214.07a8.18,8.18,0,0,0,3.35,5.09A11.06,11.06,0,0,0,224,163a13.19,13.19,0,0,0,4.8-.81,11.44,11.44,0,0,0,3.9-2.54l5.35,5.8q-4.9,5.6-14.3,5.6a22.52,22.52,0,0,1-10.37-2.29,16.73,16.73,0,0,1-7-6.34,17.52,17.52,0,0,1-2.45-9.21,17.71,17.71,0,0,1,2.42-9.18,17,17,0,0,1,6.63-6.38,19.53,19.53,0,0,1,9.44-2.29,19.33,19.33,0,0,1,9.21,2.19,16,16,0,0,1,6.47,6.28,18.74,18.74,0,0,1,2.35,9.51C240.48,153.49,240.42,154.4,240.29,156.07Zm-23.51-11.14a8.19,8.19,0,0,0-2.83,5.28H231a8.33,8.33,0,0,0-2.84-5.25,8.49,8.49,0,0,0-5.67-2A8.64,8.64,0,0,0,216.78,144.93Z"/><path class="cls-5" d="M260.23,168.34a22.32,22.32,0,0,1-8.76-8.31,24.2,24.2,0,0,1,0-24,22.18,22.18,0,0,1,8.76-8.31,26,26,0,0,1,12.53-3,26.36,26.36,0,0,1,10.59,2.06,21.27,21.27,0,0,1,8,5.93l-6.7,6.18a14.41,14.41,0,0,0-11.34-5.28,15,15,0,0,0-7.47,1.84,13,13,0,0,0-5.12,5.12,16.08,16.08,0,0,0,0,14.94,13,13,0,0,0,5.12,5.12,15,15,0,0,0,7.47,1.84,14.33,14.33,0,0,0,11.34-5.35l6.7,6.19a21,21,0,0,1-8,6,26.59,26.59,0,0,1-10.63,2.06A25.82,25.82,0,0,1,260.23,168.34Z"/><path class="cls-5" d="M326.92,139.23q4.32,3.83,4.32,11.56v19.77h-9.4v-4.31q-2.83,4.83-10.57,4.83a16.4,16.4,0,0,1-6.92-1.35,10.28,10.28,0,0,1-4.48-3.74,9.72,9.72,0,0,1-1.54-5.41A9,9,0,0,1,302,153q3.63-2.78,11.23-2.77h8a6.41,6.41,0,0,0-2-5.06c-1.34-1.18-3.33-1.77-6-1.77a17.49,17.49,0,0,0-5.44.87,14.63,14.63,0,0,0-4.54,2.35l-3.61-7a21.83,21.83,0,0,1,6.8-3.09,30.41,30.41,0,0,1,8.15-1.1C319.92,135.39,324.05,136.67,326.92,139.23Zm-8.56,23.89a6.49,6.49,0,0,0,2.83-3.51v-3.54H314.3q-6.18,0-6.18,4.06a3.61,3.61,0,0,0,1.51,3.06,6.82,6.82,0,0,0,4.15,1.13A8.72,8.72,0,0,0,318.36,163.12Z"/><path class="cls-5" d="M346.76,170a22,22,0,0,1-6.57-2.68l3.35-7.21a21,21,0,0,0,5.61,2.41,23.18,23.18,0,0,0,6.44.94q6.38,0,6.38-3.16a2.24,2.24,0,0,0-1.74-2.12,25.74,25.74,0,0,0-5.35-1.1,51.33,51.33,0,0,1-7-1.48,10.94,10.94,0,0,1-4.8-3,8.45,8.45,0,0,1-2-6.06,9.47,9.47,0,0,1,1.9-5.83,12.37,12.37,0,0,1,5.54-4,23.76,23.76,0,0,1,8.6-1.42,33.49,33.49,0,0,1,7.31.81,20.61,20.61,0,0,1,6,2.22l-3.35,7.15a20,20,0,0,0-10-2.58,10.14,10.14,0,0,0-4.83.91,2.63,2.63,0,0,0-1.61,2.32,2.3,2.3,0,0,0,1.74,2.25,30.14,30.14,0,0,0,5.54,1.22,59.93,59.93,0,0,1,6.95,1.52,10.4,10.4,0,0,1,4.71,2.93,8.3,8.3,0,0,1,2,5.92,9.16,9.16,0,0,1-1.93,5.74,12.35,12.35,0,0,1-5.64,3.89,25,25,0,0,1-8.79,1.39A33.6,33.6,0,0,1,346.76,170Z"/><path class="cls-5" d="M412.43,139.26q4,3.87,4,11.46v19.84H406.34V152.27q0-4.12-1.8-6.15a6.62,6.62,0,0,0-5.22-2,8,8,0,0,0-6.05,2.35q-2.26,2.35-2.26,7v17.13H381V122.77h10v16.75a13.34,13.34,0,0,1,4.84-3.06,17.44,17.44,0,0,1,6.18-1.07A14.25,14.25,0,0,1,412.43,139.26Z"/><path class="cls-6" d="M122,131.71c6-3.46,12-6.92,18-10.39a5.71,5.71,0,0,1,5.81,0l8.88,5.09a.78.78,0,0,1,0,1.34l-21.73,12.51a1.78,1.78,0,0,0-.89,1.56v10.5a1.71,1.71,0,0,0,.89,1.51l9.11,5.25a1.59,1.59,0,0,0,1.73,0l37.54-21.61c6.37-3.69,6.37-14.3,0-18L147.53,100a9,9,0,0,0-9.33,0l-33.74,19.44a9.22,9.22,0,0,0-4.69,8.1c0,13,0,26,0,38.93a9.22,9.22,0,0,0,4.69,8.1l33.74,19.5a9.31,9.31,0,0,0,9.33,0l33.74-19.5a9.1,9.1,0,0,0,4.64-8.1V149.59l-40.17,23.24a5.71,5.71,0,0,1-5.81,0L122,162.44a5.7,5.7,0,0,1-2.9-5V136.68a5.72,5.72,0,0,1,2.85-5Z"/><path class="cls-6" d="M639.5,131.71c6-3.46,12-6.92,18-10.39a5.71,5.71,0,0,1,5.81,0l8.88,5.09a.79.79,0,0,1,0,1.34l-21.73,12.51a1.76,1.76,0,0,0-.89,1.56v10.5a1.69,1.69,0,0,0,.89,1.51l9.11,5.25a1.59,1.59,0,0,0,1.73,0l37.54-21.61c6.36-3.69,6.36-14.3,0-18L665.09,100a9,9,0,0,0-9.33,0L622,119.48a9.22,9.22,0,0,0-4.69,8.1c0,13,0,26,0,38.93a9.22,9.22,0,0,0,4.69,8.1l33.74,19.5a9.31,9.31,0,0,0,9.33,0l33.74-19.5a9.09,9.09,0,0,0,4.63-8.1V149.59L663.3,172.83a5.71,5.71,0,0,1-5.81,0l-17.93-10.39a5.71,5.71,0,0,1-2.91-5V136.68a5.74,5.74,0,0,1,2.85-5Z"/><text class="cls-7" transform="translate(28.65 88.99)">1/3 Y</text><text class="cls-7" transform="translate(68.31 54.89)">1/3 Y</text><text class="cls-7" transform="translate(545.77 88.99)">1/3 Y</text><text class="cls-7" transform="translate(585.44 54.89)">1/3 Y</text><text class="cls-8" transform="translate(78.83 148.02)">Y</text><text class="cls-8" transform="translate(594.63 148.02)">Y</text><path class="cls-9" d="M99.27,67.35V98.24H68.38V67.35H99.27m.5-.5H67.88V98.74H99.77V66.85Z"/><path class="cls-10" d="M447.78,67.35V98.24H416.89V67.35h30.89m.5-.5H416.39V98.74h31.89V66.85Z"/><path class="cls-10" d="M616.83,67.35V98.24H585.94V67.35h30.89m.5-.5H585.44V98.74h31.89V66.85Z"/><path class="cls-10" d="M99.27,195.87v30.89H68.38V195.87H99.27m.5-.5H67.88v31.89H99.77V195.37Z"/><path class="cls-10" d="M447.78,195.87v30.89H416.89V195.87h30.89m.5-.5H416.39v31.89h31.89V195.37Z"/><path class="cls-10" d="M616.83,195.87v30.89H585.94V195.87h30.89m.5-.5H585.44v31.89h31.89V195.37Z"/><path class="cls-10" d="M734.85,67.35V98.24H704V67.35h30.89m.5-.5H703.46V98.74h31.89V66.85Z"/><path class="cls-10" d="M734.85,195.87v30.89H704V195.87h30.89m.5-.5H703.46v31.89h31.89V195.37Z"/></svg>

