<svg id="Layer_1" data-name="Layer 1" xmlns="http://www.w3.org/2000/svg" xmlns:xlink="http://www.w3.org/1999/xlink" viewBox="0 0 390.24 323.51"><defs><style>.cls-1{fill:#fff;fill-rule:evenodd;}.cls-10,.cls-11,.cls-12,.cls-13,.cls-14,.cls-15,.cls-16,.cls-17,.cls-2,.cls-3,.cls-4,.cls-5,.cls-6,.cls-7,.cls-8,.cls-9{opacity:0.36;}.cls-2{fill:url(#New_Gradient_Swatch_4);}.cls-3{fill:url(#New_Gradient_Swatch_4-2);}.cls-4{fill:url(#New_Gradient_Swatch_4-3);}.cls-5{fill:url(#New_Gradient_Swatch_4-4);}.cls-6{fill:url(#New_Gradient_Swatch_4-5);}.cls-7{fill:url(#New_Gradient_Swatch_4-6);}.cls-8{fill:url(#New_Gradient_Swatch_4-7);}.cls-9{fill:url(#New_Gradient_Swatch_4-8);}.cls-10{fill:url(#New_Gradient_Swatch_4-9);}.cls-11{fill:url(#New_Gradient_Swatch_4-10);}.cls-12{fill:url(#New_Gradient_Swatch_4-11);}.cls-13{fill:url(#New_Gradient_Swatch_4-12);}.cls-14{fill:url(#New_Gradient_Swatch_4-13);}.cls-15{fill:url(#New_Gradient_Swatch_4-14);}.cls-16{fill:url(#New_Gradient_Swatch_4-15);}.cls-17{fill:url(#New_Gradient_Swatch_4-16);}.cls-18{fill:#f1f2f2;}</style><linearGradient id="New_Gradient_Swatch_4" x1="140.11" y1="15.58" x2="141.8" y2="305.59" gradientUnits="userSpaceOnUse"><stop offset="0" stop-color="#fff" stop-opacity="0.1"/><stop offset="0.01" stop-color="#fff" stop-opacity="0.16"/><stop offset="0.07" stop-color="#fff" stop-opacity="0.35"/><stop offset="0.12" stop-color="#fff" stop-opacity="0.53"/><stop offset="0.18" stop-color="#fff" stop-opacity="0.67"/><stop offset="0.24" stop-color="#fff" stop-opacity="0.79"/><stop offset="0.3" stop-color="#fff" stop-opacity="0.88"/><stop offset="0.36" stop-color="#fff" stop-opacity="0.95"/><stop offset="0.43" stop-color="#fff" stop-opacity="0.99"/><stop offset="0.53" stop-color="#fff"/><stop offset="0.59" stop-color="#fff" stop-opacity="0.98"/><stop offset="0.65" stop-color="#fff" stop-opacity="0.94"/><stop offset="0.71" stop-color="#fff" stop-opacity="0.86"/><stop offset="0.78" stop-color="#fff" stop-opacity="0.75"/><stop offset="0.84" stop-color="#fff" stop-opacity="0.6"/><stop offset="0.9" stop-color="#fff" stop-opacity="0.43"/><stop offset="0.97" stop-color="#fff" stop-opacity="0.22"/><stop offset="1" stop-color="#fff" stop-opacity="0.1"/></linearGradient><linearGradient id="New_Gradient_Swatch_4-2" x1="163.33" y1="15.23" x2="165.02" y2="305.24" xlink:href="#New_Gradient_Swatch_4"/><linearGradient id="New_Gradient_Swatch_4-3" x1="178.82" y1="15.23" x2="180.51" y2="305.24" xlink:href="#New_Gradient_Swatch_4"/><linearGradient id="New_Gradient_Swatch_4-4" x1="206.67" y1="15.19" x2="208.36" y2="305.2" xlink:href="#New_Gradient_Swatch_4"/><linearGradient id="New_Gradient_Swatch_4-5" x1="243.9" y1="15.23" x2="245.59" y2="305.24" xlink:href="#New_Gradient_Swatch_4"/><linearGradient id="New_Gradient_Swatch_4-6" x1="313" y1="35.36" x2="17.93" y2="202.04" xlink:href="#New_Gradient_Swatch_4"/><linearGradient id="New_Gradient_Swatch_4-7" x1="324.6" y1="55.89" x2="29.52" y2="222.58" xlink:href="#New_Gradient_Swatch_4"/><linearGradient id="New_Gradient_Swatch_4-8" x1="332.02" y1="69.03" x2="36.95" y2="235.71" xlink:href="#New_Gradient_Swatch_4"/><linearGradient id="New_Gradient_Swatch_4-9" x1="344.87" y1="91.77" x2="49.79" y2="258.45" xlink:href="#New_Gradient_Swatch_4"/><linearGradient id="New_Gradient_Swatch_4-10" x1="352.39" y1="105.09" x2="57.32" y2="271.78" xlink:href="#New_Gradient_Swatch_4"/><linearGradient id="New_Gradient_Swatch_4-11" x1="364.25" y1="126.08" x2="69.17" y2="292.77" xlink:href="#New_Gradient_Swatch_4"/><linearGradient id="New_Gradient_Swatch_4-12" x1="16.37" y1="121.26" x2="321.02" y2="296.39" xlink:href="#New_Gradient_Swatch_4"/><linearGradient id="New_Gradient_Swatch_4-13" x1="28.21" y1="100.67" x2="332.85" y2="275.8" xlink:href="#New_Gradient_Swatch_4"/><linearGradient id="New_Gradient_Swatch_4-14" x1="35.77" y1="87.51" x2="340.42" y2="262.64" xlink:href="#New_Gradient_Swatch_4"/><linearGradient id="New_Gradient_Swatch_4-15" x1="56.19" y1="51.98" x2="360.84" y2="227.11" xlink:href="#New_Gradient_Swatch_4"/><linearGradient id="New_Gradient_Swatch_4-16" x1="68.17" y1="31.14" x2="372.82" y2="206.27" xlink:href="#New_Gradient_Swatch_4"/></defs><path class="cls-1" d="M167.63,144.16c7.19-4.17,14.45-8.33,21.64-12.5a6.84,6.84,0,0,1,7,0L207,137.78a.94.94,0,0,1,0,1.61L180.8,154.44a2.15,2.15,0,0,0-1.07,1.88V169a2,2,0,0,0,1.07,1.81l11,6.32a2,2,0,0,0,2.08,0l45.16-26c7.66-4.43,7.66-17.2,0-21.64l-40.59-23.38a10.82,10.82,0,0,0-11.22,0L146.6,129.44a11.12,11.12,0,0,0-5.65,9.75c0,15.65.07,31.25,0,46.84a11.09,11.09,0,0,0,5.65,9.74l40.59,23.45a11.14,11.14,0,0,0,11.22,0L239,195.77a11,11,0,0,0,5.58-9.74V165.66l-48.32,28a6.84,6.84,0,0,1-7,0l-21.57-12.5a6.83,6.83,0,0,1-3.49-6.05V150.14a6.87,6.87,0,0,1,3.42-6Z"/><path class="cls-2" d="M141,306.6a.12.12,0,0,1-.12-.13V15.35a.12.12,0,0,1,.12-.12.12.12,0,0,1,.13.12V306.47A.13.13,0,0,1,141,306.6Z"/><path class="cls-3" d="M164.18,306.6a.13.13,0,0,1-.13-.13V15.35a.12.12,0,0,1,.13-.12.12.12,0,0,1,.12.12V306.47A.12.12,0,0,1,164.18,306.6Z"/><path class="cls-4" d="M179.67,306.6a.12.12,0,0,1-.12-.13V15.35a.12.12,0,0,1,.12-.12.12.12,0,0,1,.13.12V306.47A.13.13,0,0,1,179.67,306.6Z"/><path class="cls-5" d="M207.51,305.47a.12.12,0,0,1-.13-.12V14.23a.13.13,0,0,1,.13-.13.12.12,0,0,1,.12.13V305.35A.12.12,0,0,1,207.51,305.47Z"/><path class="cls-6" d="M244.75,306.6a.13.13,0,0,1-.13-.13V15.35a.12.12,0,0,1,.13-.12.12.12,0,0,1,.12.12V306.47A.12.12,0,0,1,244.75,306.6Z"/><path class="cls-7" d="M15.28,205.52a.11.11,0,0,1-.11-.06.13.13,0,0,1,0-.17L313,33.35a.12.12,0,0,1,.17,0,.13.13,0,0,1-.05.17L15.34,205.5Z"/><path class="cls-8" d="M27.2,225.87a.11.11,0,0,1-.11-.06.13.13,0,0,1,0-.17L325,53.67a.12.12,0,0,1,.17,0,.13.13,0,0,1-.05.17l-297.86,172A.07.07,0,0,1,27.2,225.87Z"/><path class="cls-9" d="M34.91,238.84a.11.11,0,0,1-.1-.06.12.12,0,0,1,0-.17l297.86-172a.13.13,0,1,1,.13.22L35,238.83Z"/><path class="cls-10" d="M48.27,261.3a.12.12,0,0,1-.11-.07.13.13,0,0,1,0-.17l297.87-172a.13.13,0,0,1,.12.22l-297.86,172Z"/><path class="cls-11" d="M56.09,274.45a.14.14,0,0,1-.11-.06.13.13,0,0,1,.05-.17l297.88-172a.13.13,0,0,1,.17,0,.12.12,0,0,1,0,.17l-297.88,172Z"/><path class="cls-12" d="M68.42,295.17a.11.11,0,0,1-.11-.06.13.13,0,0,1,0-.17L366.22,123a.13.13,0,0,1,.17,0,.14.14,0,0,1-.05.18l-297.86,172Z"/><path class="cls-13" d="M319.47,296l-.06,0L15.94,120.78a.12.12,0,1,1,.13-.21l303.46,175.2a.13.13,0,0,1,.05.17A.14.14,0,0,1,319.47,296Z"/><path class="cls-14" d="M332.83,276.28h-.06L29.3,101.06a.13.13,0,0,1-.05-.17.13.13,0,0,1,.18,0l303.46,175.2a.13.13,0,0,1,.05.17A.14.14,0,0,1,332.83,276.28Z"/><path class="cls-15" d="M341.31,263.65h-.06L37.92,88.51a.13.13,0,0,1-.05-.17.12.12,0,0,1,.17,0L341.37,263.42a.13.13,0,0,1,.05.17A.13.13,0,0,1,341.31,263.65Z"/><path class="cls-16" d="M364.45,229.69l-.06,0L60.88,54.44a.13.13,0,0,1,.12-.22L364.51,229.45a.13.13,0,0,1,.05.17A.14.14,0,0,1,364.45,229.69Z"/><path class="cls-17" d="M377.89,209.69h-.06L74.39,34.49a.13.13,0,0,1,0-.18.13.13,0,0,1,.17,0L378,209.46a.12.12,0,0,1,.05.17A.11.11,0,0,1,377.89,209.69Z"/><circle class="cls-18" cx="152.85" cy="185.63" r="11.9"/><circle class="cls-18" cx="192.85" cy="208.84" r="11.9"/><circle class="cls-18" cx="233" cy="185.78" r="11.75"/><circle class="cls-18" cx="153.13" cy="140.18" r="12.46"/><circle class="cls-18" cx="232.46" cy="140.15" r="12.7"/><circle class="cls-18" cx="193.6" cy="117.58" r="13.09"/></svg>
