<svg id="Layer_1" data-name="Layer 1" xmlns="http://www.w3.org/2000/svg" viewBox="0 0 37.17 35.38"><defs><style>.cls-1{fill:#061537;}.cls-2{fill:#1674bb;}.cls-3{fill:#fff;}</style></defs><path class="cls-1" d="M30.94,7.42V28.75s0,.05,0,.08a2,2,0,0,1-2.12,1.61H8.4a2.41,2.41,0,0,1-1-.21,2,2,0,0,1-1.14-1.9V7.64A1.84,1.84,0,0,1,7,6.21a5.74,5.74,0,0,1,1-.48H29.25l.24.09a1.76,1.76,0,0,1,1.08.78A5.54,5.54,0,0,1,30.94,7.42ZM18.55,28.12a10,10,0,1,0-10-10.07A10.08,10.08,0,0,0,18.55,28.12ZM7.76,7.73a.49.49,0,0,0,.47.51.5.5,0,0,0,.51-.5.48.48,0,0,0-.49-.48A.46.46,0,0,0,7.76,7.73Zm21.16-.47a.48.48,0,0,0-.49.48.49.49,0,1,0,1,0A.47.47,0,0,0,28.92,7.26ZM8.24,28.91a.49.49,0,1,0,0-1,.48.48,0,0,0-.48.49A.48.48,0,0,0,8.24,28.91Zm20.68,0a.49.49,0,0,0,0-1,.5.5,0,0,0-.5.5A.48.48,0,0,0,28.92,28.91Z"/><path class="cls-2" d="M17.83,15.15c.11,0,.16-.05.21,0,.48.05.63-.25.76-.65a7,7,0,0,1,1.7-2.93,3.74,3.74,0,0,1,2.4-1.15,1.12,1.12,0,0,1,.64.17,8.57,8.57,0,0,1,2.17,2,.51.51,0,0,1,.06.59.47.47,0,0,1-.51.25,5.29,5.29,0,0,0-3.78,1.06c-.45.31-.88.67-1.34,1a4.42,4.42,0,0,0,.52.41.33.33,0,0,0,.25,0c.7-.27,1.37-.59,2.08-.81a4.5,4.5,0,0,1,3.09.06,6.58,6.58,0,0,1,.74.4,1.38,1.38,0,0,1,.66,1,10,10,0,0,1,.07,2.62.52.52,0,0,1-.37.51.49.49,0,0,1-.57-.2,5.44,5.44,0,0,0-3.74-2c-.44-.07-.88-.1-1.33-.16,0,.24,0,.44.08.64s.11.13.18.16c.68.3,1.39.55,2,.89A4.41,4.41,0,0,1,26,21.26a5.22,5.22,0,0,1,.29,1.18.89.89,0,0,1-.14.57,8.55,8.55,0,0,1-2,2.21.48.48,0,0,1-.57.05.47.47,0,0,1-.26-.5,5.4,5.4,0,0,0-1.19-4c-.28-.39-.59-.76-.89-1.14-.15.19-.29.33-.4.5a.4.4,0,0,0,0,.26c.27.69.59,1.37.81,2.08a4.44,4.44,0,0,1-.06,3.09,6.23,6.23,0,0,1-.41.76,1.37,1.37,0,0,1-1,.64,10,10,0,0,1-2.62.07.52.52,0,0,1-.51-.36.51.51,0,0,1,.19-.58,5.44,5.44,0,0,0,2-3.74c.06-.37.09-.75.14-1.12V21c-.09,0-.16,0-.23,0-.42,0-.56.2-.67.56a7.57,7.57,0,0,1-1.51,2.77,3.84,3.84,0,0,1-2.64,1.38,1.09,1.09,0,0,1-.61-.15,8.43,8.43,0,0,1-2.19-2,.51.51,0,0,1,.46-.83,5.25,5.25,0,0,0,3.82-1.09c.44-.3.85-.65,1.29-1a4.93,4.93,0,0,0-.5-.39.3.3,0,0,0-.26,0,10.47,10.47,0,0,1-2.26.87,4.49,4.49,0,0,1-3.24-.27,6.77,6.77,0,0,1-.66-.43c-.35-.25-.37-.64-.44-1A9.73,9.73,0,0,1,9.61,17a.53.53,0,0,1,.36-.5.49.49,0,0,1,.58.19,5.48,5.48,0,0,0,3.74,2c.44.07.88.11,1.34.16,0-.21-.06-.38-.07-.56s-.07-.2-.2-.24a9.82,9.82,0,0,1-2.44-1.12,4.34,4.34,0,0,1-2-2.74,1.44,1.44,0,0,1,.26-1.26A10,10,0,0,1,13,11c.25-.19.46-.24.66-.11a.55.55,0,0,1,.25.6,4.73,4.73,0,0,0,.64,3,9.82,9.82,0,0,0,1.46,2,5.57,5.57,0,0,0,.39-.49.31.31,0,0,0,0-.26,10.68,10.68,0,0,1-.86-2.24,4.43,4.43,0,0,1,.26-3.24c.09-.18.21-.34.31-.51A1.3,1.3,0,0,1,17,9.19a10.14,10.14,0,0,1,2.64-.08.53.53,0,0,1,.52.36.51.51,0,0,1-.21.61,5.24,5.24,0,0,0-1.89,3.44C18,14.05,17.91,14.58,17.83,15.15Zm.74,5.45a2.52,2.52,0,1,0-2.5-2.53A2.54,2.54,0,0,0,18.57,20.6Z"/><circle class="cls-2" cx="18.49" cy="18.12" r="2.81"/><path class="cls-3" d="M18.06,17.76a.08.08,0,0,0,0,.07v.49a.1.1,0,0,0,0,.07l.42.24a.07.07,0,0,0,.09,0l1.73-1a.5.5,0,0,0,0-.83l-1.56-.9a.42.42,0,0,0-.43,0l-1.56.9a.44.44,0,0,0-.21.38V19a.44.44,0,0,0,.21.38l1.56.9a.42.42,0,0,0,.43,0l1.56-.9a.43.43,0,0,0,.22-.38v-.78l-1.86,1.08a.32.32,0,0,1-.27,0l-.83-.48a.28.28,0,0,1-.13-.24V17.6a.25.25,0,0,1,.13-.23l.83-.48a.26.26,0,0,1,.27,0l.41.23h0s0,0,0,.05Z"/></svg>