<svg id="Layer_1" data-name="Layer 1" xmlns="http://www.w3.org/2000/svg" viewBox="0 0 37.17 35.38"><defs><style>.cls-1{fill:#17aae2;}.cls-2{fill:#0b1434;}.cls-3{fill:#1674bb;}.cls-4{fill:#fff;}</style></defs><path class="cls-1" d="M7.52,24.84a19.94,19.94,0,0,0,3.3-3.77A11.24,11.24,0,0,1,14,17.56c2.79-1.69,6.91,2.67,9,1.79,1.78-.74,3.17-3.52,3.58-4.42l-7-12.2a1.15,1.15,0,0,0-2,0L9.66,16.46,5.28,24.05l-.47.82A4.54,4.54,0,0,0,7.52,24.84Z"/><path class="cls-2" d="M35.43,30.18,28.6,18.35l-1.1-1.89-.88-1.53c-.41.9-1.8,3.68-3.58,4.42-2.14.88-6.26-3.48-9-1.79a11.24,11.24,0,0,0-3.17,3.51,19.94,19.94,0,0,1-3.3,3.77,4.54,4.54,0,0,1-2.71,0L1.74,30.18a1.15,1.15,0,0,0,1,1.73H34.43A1.15,1.15,0,0,0,35.43,30.18Z"/><path class="cls-3" d="M22.1,19.66a3.39,3.39,0,1,1,3.39-3.38A3.39,3.39,0,0,1,22.1,19.66Z"/><path class="cls-4" d="M22.1,13.14A3.14,3.14,0,1,1,19,16.28a3.14,3.14,0,0,1,3.13-3.14m0-.5a3.64,3.64,0,1,0,3.64,3.64,3.64,3.64,0,0,0-3.64-3.64Z"/></svg>