<svg id="Layer_1" data-name="Layer 1" xmlns="http://www.w3.org/2000/svg" viewBox="0 0 37.17 35.38"><defs><style>.cls-1{fill:#061537;}.cls-2{fill:#1674bb;}.cls-3{fill:#17aae2;}</style></defs><path class="cls-1" d="M31.15,25.66a3.07,3.07,0,0,1-.25.55,1.48,1.48,0,0,1-1.25.67H27c-.22,0-.28-.07-.27-.29,0-1.22,0-2.45,0-3.67a7.37,7.37,0,0,0-2.06-5.34l0-.07a2.73,2.73,0,0,1,1.68-.71,10.68,10.68,0,0,1,2.19,0,3.22,3.22,0,0,1,2.65,2.67.36.36,0,0,0,0,.11Z"/><path class="cls-1" d="M18.33,28.45H13.77A1.74,1.74,0,0,1,12,27a1.23,1.23,0,0,1,0-.19c0-1.12-.05-2.24,0-3.36a7.73,7.73,0,0,1,.52-3.16,5.78,5.78,0,0,1,4.29-3.44,11.67,11.67,0,0,1,2.95-.11A5.2,5.2,0,0,1,22.84,18a5.91,5.91,0,0,1,2.38,4.8c0,1.28,0,2.56,0,3.84a1.6,1.6,0,0,1-1.75,1.81c-1.71.05-3.43.07-5.14.1Z"/><path class="cls-2" d="M18.59,6.57a4.27,4.27,0,1,1-4.25,4.33A4.26,4.26,0,0,1,18.59,6.57Z"/><path class="cls-1" d="M12.61,17.55a6.94,6.94,0,0,0-1.79,3.09,11.44,11.44,0,0,0-.32,2.91c0,1.05,0,2.09,0,3.14v.17l-.32,0c-.87,0-1.74,0-2.62,0a1.45,1.45,0,0,1-1.52-1.53V20.09a3.29,3.29,0,0,1,3.07-3.3,7.34,7.34,0,0,1,2.29.1A2.43,2.43,0,0,1,12.61,17.55Z"/><path class="cls-3" d="M10,9.71a2.7,2.7,0,1,1-2.69,2.72A2.69,2.69,0,0,1,10,9.71Z"/><path class="cls-3" d="M27.23,9.71a2.7,2.7,0,1,1-2.69,2.66A2.7,2.7,0,0,1,27.23,9.71Z"/></svg>