<svg id="Layer_1" data-name="Layer 1" xmlns="http://www.w3.org/2000/svg" viewBox="0 0 1168 95"><path d="M-1,10.37V32.28H12.35V42.35L2,42.88v10H-1V277.76H1168V32h-10.52V21.19h-10.89V10.69h-10.32V20.88H1125.5V10.69h-21.28V31.58h-21.14V21.39h-21.35V11.06H1030V31.63h-21.19V21.38H998.43V42.52h10.2V52.89h-21V21.37H977.22V32.05h-10.6V52.93H955.85V32.06H945.07V10.89H924.38c-.19,3.52-.36,6.76-.53,10H913.2v-10H902.77V21.18H892.41V11.05H870.88v9.84H849.63V.23H839.17V21.38h-10.4c-.11,3.57-.23,7.15-.34,10.74h-21V21.38H796.69V0H786.38V21.53H764.93V42.32H754.31V32.06H744V42.74H722.74v10.2H712V42.75H701.21V32.25H691.1c-.18,3.49-.35,6.74-.52,10H680V21.12H669.9c-.19-3.62-.36-6.86-.57-10.68H658.94V0H648.17v10.3H627.45c-.16-3.49-.31-6.72-.47-10H584.64V32.06H574.29v10.2H552.92V21.38h-53.1V31.52H479.06V10.86l9.92-.55V0h-20.7V42.29H457.39V21.18H447.07V.28H436.15V10.69H425.87V31.54H415V21.62H393.78v9.92H351.2V10.93H340.79V21.38H330.44v10.8h10.39V42.56H319.42V31.77H287.79V10.69H277.4V20.9H245.82v-10H256V0H224.38V31.83H213.9V42.2H203V21.38h-10.8V31.66H181.76V21.38H171.38V42.21H149.93V10.94H139.3V31.51H118.57V10.83l9.87-.49V.39h-21V10.75H97V21.19l-10.39.19V32.22H75.7v10.1H65.09V31.69H54.49V10.86l-10.61-.57V0H33.54V10.89H22.61v10H1.33V10.37ZM1115.3,43h10.08V32.23H1136V42.38h21V53H1115.3Zm-42.67-.25h10.13V53h-10.13Zm-10.57-10.36h10.41V42.56h-10.41Zm-10.31,10.35h10.15V52.93h-10.15Zm-21.32,11.06h10v10h-10ZM913.58,42.73H923.7V53H913.58ZM903.32,32.36h10.1v10.2h-10.1Zm-21.23-11h10.15V42.22H882.09Zm-.82,32.28v10H860.79v-10Zm-52.7-21.34h42.22v9.89H828.57Zm-41.93-.22h9.78V52.92h-9.78ZM744.18,64.3H754v10h-9.86ZM648.73,21.72h10.43v10.1h10.05V42.3H648.73Zm-.09,32h10.08v9.84H648.64ZM627.55,21.56h9.86V42.42h-9.86Zm-21.46.14h10.15V31.91H606.09ZM595.51,32.07h10.41V42.56H595.51ZM585.2,42.72h10.15V52.93H585.2Zm-53-10.49h9.88v10h-9.88Zm-21.2.12h9.86v10H511ZM479.17,43.14h10.1V52.9h-10.1ZM436.75,21.35H446.9v10.2H436.75ZM383.83,42.77h9.68V53h-9.68Zm-22.13,0V53H341V42.73Zm-63,.3h10.08v9.84H298.73ZM256.2,32.37h20.73V42.56H256.2ZM245.89,42.72H256V52.93H245.89Zm-53.3,10.72h10.09V63.65H192.59ZM182.3,43.05h10.12V53.27H182.3ZM107.24,21.36V31.58H97.12V21.36ZM44.36,53.62h9.86V74.48H44.36ZM22.93,32.13H33.14c.2-3.84.36-7.08.54-10.57h9.94v21H22.93ZM12.49,42.51l10.27.21V52.9H12.49Z"/></svg>

