<svg id="Layer_1" data-name="Layer 1" xmlns="http://www.w3.org/2000/svg" viewBox="0 0 37.17 35.38"><defs><style>.cls-1{fill:#1674bb;}.cls-2{fill:#0b1434;}</style></defs><path class="cls-1" d="M18.58,9.85a8.23,8.23,0,1,0,8.23,8.23,8.24,8.24,0,0,0-8.23-8.23Zm1.1,6.29-.84-.47a.52.52,0,0,0-.54,0l-1.69,1a.55.55,0,0,0-.27.47v1.94a.55.55,0,0,0,.27.48l1.69,1a.52.52,0,0,0,.54,0l3.78-2.18v1.59a.86.86,0,0,1-.44.76L19,22.5a.87.87,0,0,1-.88,0L15,20.67a.89.89,0,0,1-.44-.76V16.25A.86.86,0,0,1,15,15.5l3.17-1.83a.87.87,0,0,1,.88,0l3.17,1.83a1,1,0,0,1,0,1.68l-3.54,2a.14.14,0,0,1-.17,0l-.85-.49a.16.16,0,0,1-.08-.14v-1a.16.16,0,0,1,.08-.14l2.05-1.18a.08.08,0,0,0,0-.1Z"/><path d="M33.82,19.1c-.08.54-.14,1.08-.23,1.61a15,15,0,0,1-3.82,7.72,14.55,14.55,0,0,1-8.7,4.68A15.2,15.2,0,0,1,6.91,28l-.24-.27v1.82H4.88c0-.1,0-.19,0-.27,0-1.47,0-2.94,0-4.4,0-.25.06-.32.31-.32,1.48,0,3,0,4.46,0v1.8H7.93a13.56,13.56,0,0,0,13.8,4.77,13.13,13.13,0,0,0,7.84-5.33A13.41,13.41,0,0,0,32,16.63l1.75-.2.11.59Z"/><path class="cls-2" d="M19.59,2.85c.54.08,1.08.14,1.62.24a15.1,15.1,0,0,1,8.43,4.53c.17.17.33.34.49.52h.07V6.45H32c0,.11,0,.21,0,.31,0,1.38,0,2.77,0,4.16,0,.25-.07.32-.32.32-1.41,0-2.82,0-4.23,0h-.28V9.43h1.58l0-.08A13.49,13.49,0,0,0,16,4.9,13.5,13.5,0,0,0,5.24,19.81L3.46,20c0-.43-.09-.85-.11-1.27A15.06,15.06,0,0,1,6.71,8.56a15,15,0,0,1,8.58-5.34c.67-.15,1.35-.21,2-.31l.19-.06Z"/></svg>