<svg id="Layer_1" data-name="Layer 1" xmlns="http://www.w3.org/2000/svg" viewBox="0 0 37.17 35.38"><defs><style>.cls-1{fill:#00ace8;}.cls-2{fill:#0075be;}.cls-3{fill:#fff;}.cls-4{fill:#0b1434;}</style></defs><path class="cls-1" d="M26,25a.86.86,0,0,0-.1.41.89.89,0,0,0,.47.79.91.91,0,0,0,.42.11.89.89,0,0,0,.78-.48,1.74,1.74,0,0,1,2.36-.71,1.68,1.68,0,0,1,.55.47,16.08,16.08,0,0,0,2-8,16.67,16.67,0,0,0-1.46-7,1.58,1.58,0,0,1-.36.2,1.91,1.91,0,0,1-.65.12,1.75,1.75,0,0,1-1.63-1.1h0a.9.9,0,0,0-.83-.56,1,1,0,0,0-.34.06.9.9,0,0,0-.56.84,1.06,1.06,0,0,0,.06.34h0a1.83,1.83,0,0,1,.13.64,1.76,1.76,0,0,1-1.1,1.63,1.87,1.87,0,0,1-.65.12,1.75,1.75,0,0,1-1.63-1.1.42.42,0,1,1,.79-.31.91.91,0,0,0,.84.57.78.78,0,0,0,.33-.07A.91.91,0,0,0,26,11.1a.78.78,0,0,0-.07-.33h0a1.82,1.82,0,0,1-.12-.65,1.74,1.74,0,0,1,1.1-1.62,1.64,1.64,0,0,1,.65-.13,1.75,1.75,0,0,1,1.62,1.1.91.91,0,0,0,.84.57.78.78,0,0,0,.33-.07.81.81,0,0,0,.29-.19,9.81,9.81,0,0,0-3.38-3.73,6,6,0,0,0-3.13-.9,3.43,3.43,0,0,0-1.57.31,2.33,2.33,0,0,0-.89.85,4.44,4.44,0,0,0-.42,1,9.91,9.91,0,0,0-.35,1.8,29.78,29.78,0,0,0-.13,3.14c0,1.6.06,3.4.06,5.31V18a.89.89,0,0,0,1.65-.45,1.74,1.74,0,1,1,3.48,0,.89.89,0,0,0,1.78,0,.42.42,0,1,1,.84,0,1.74,1.74,0,1,1-3.47,0,.89.89,0,0,0-1.78,0,1.74,1.74,0,0,1-1.74,1.74,1.79,1.79,0,0,1-.77-.19c0,1.33-.05,2.6-.05,3.76A25.65,25.65,0,0,0,21,26.29a6.41,6.41,0,0,0,.67,2.33,2.39,2.39,0,0,0,.75.82,3.06,3.06,0,0,0,1.76.43A6,6,0,0,0,27.29,29,9,9,0,0,0,30,26.38v0a.86.86,0,0,0-.43-.54.83.83,0,0,0-.42-.11.89.89,0,0,0-.79.47h0a1.72,1.72,0,0,1-1.53.92,1.84,1.84,0,0,1-.82-.2,1.77,1.77,0,0,1-.92-1.54,1.72,1.72,0,0,1,.21-.81h0a.92.92,0,0,0,.1-.42.88.88,0,0,0-.89-.89.88.88,0,0,0-.78.47.43.43,0,0,1-.58.17.43.43,0,0,1-.17-.57,1.72,1.72,0,0,1,1.53-.92,1.84,1.84,0,0,1,.82.2A1.74,1.74,0,0,1,26,25Z"/><path class="cls-2" d="M10.29,15.77A1.74,1.74,0,0,1,12,17.51a.89.89,0,0,0,1.78,0A1.72,1.72,0,0,1,16.32,16c0-1.33,0-2.6,0-3.76a27.72,27.72,0,0,0-.17-3.48,6.49,6.49,0,0,0-.67-2.32,2.22,2.22,0,0,0-.75-.82A3.11,3.11,0,0,0,13,5.15a6,6,0,0,0-3.13.9A9.08,9.08,0,0,0,7.21,8.64l0,0a.93.93,0,0,0,.44.54.9.9,0,0,0,.42.1.88.88,0,0,0,.78-.47h0a1.74,1.74,0,0,1,2.36-.71,1.73,1.73,0,0,1,.91,1.53,1.71,1.71,0,0,1-.2.82h0a.94.94,0,0,0-.11.42.9.9,0,0,0,.47.79.92.92,0,0,0,.42.1.89.89,0,0,0,.79-.47.43.43,0,0,1,.75.4,1.77,1.77,0,0,1-1.54.92,1.75,1.75,0,0,1-1.53-2.56.91.91,0,0,0,.11-.42.88.88,0,0,0-.47-.78.83.83,0,0,0-.42-.11.89.89,0,0,0-.79.47h0a1.72,1.72,0,0,1-1.53.92,1.84,1.84,0,0,1-.82-.2,1.86,1.86,0,0,1-.56-.48,16.14,16.14,0,0,0-2,8,16.55,16.55,0,0,0,1.46,7,1.58,1.58,0,0,1,.36-.2,1.64,1.64,0,0,1,.65-.13,1.75,1.75,0,0,1,1.62,1.1.91.91,0,0,0,.84.57.78.78,0,0,0,.33-.07.89.89,0,0,0,.57-.83,1,1,0,0,0-.06-.34h0a1.64,1.64,0,0,1-.13-.65,1.75,1.75,0,0,1,1.1-1.62,1.64,1.64,0,0,1,.65-.13,1.75,1.75,0,0,1,1.62,1.1h0a.42.42,0,0,1-.78.32A.89.89,0,0,0,12,23a1,1,0,0,0-.34.06.9.9,0,0,0-.56.84,1,1,0,0,0,.06.34h0a1.64,1.64,0,0,1,.13.65,1.75,1.75,0,0,1-1.1,1.62,1.82,1.82,0,0,1-.65.12A1.74,1.74,0,0,1,8,25.55.89.89,0,0,0,7.12,25a1,1,0,0,0-.34.06,1,1,0,0,0-.28.2A9.69,9.69,0,0,0,9.88,29a6,6,0,0,0,3.13.91,3.37,3.37,0,0,0,1.56-.32,2.17,2.17,0,0,0,.89-.84,3.9,3.9,0,0,0,.43-1A9.84,9.84,0,0,0,16.23,26a29.9,29.9,0,0,0,.13-3.14c0-1.61-.06-3.41-.06-5.31,0-.16,0-.3,0-.46a.9.9,0,0,0-1.66.46,1.74,1.74,0,1,1-3.47,0,.89.89,0,0,0-1.78,0,.43.43,0,0,1-.85,0A1.74,1.74,0,0,1,10.29,15.77Z"/><path class="cls-3" d="M30.05,10.88a1.91,1.91,0,0,0,.65-.12,1.58,1.58,0,0,0,.36-.2.36.36,0,0,1,0-.09c-.11-.24-.23-.47-.35-.69a.81.81,0,0,1-.29.19.78.78,0,0,1-.33.07.91.91,0,0,1-.84-.57,1.75,1.75,0,0,0-1.62-1.1,1.64,1.64,0,0,0-.65.13,1.74,1.74,0,0,0-1.1,1.62,1.82,1.82,0,0,0,.12.65h0a.78.78,0,0,1,.07.33.91.91,0,0,1-.57.84.78.78,0,0,1-.33.07.91.91,0,0,1-.84-.57.42.42,0,1,0-.79.31,1.75,1.75,0,0,0,1.63,1.1,1.87,1.87,0,0,0,.65-.12,1.76,1.76,0,0,0,1.1-1.63,1.83,1.83,0,0,0-.13-.64h0a1.06,1.06,0,0,1-.06-.34.9.9,0,0,1,.56-.84,1,1,0,0,1,.34-.06.9.9,0,0,1,.83.56h0A1.75,1.75,0,0,0,30.05,10.88Z"/><path class="cls-3" d="M27.77,17.51a.89.89,0,0,1-1.78,0,1.74,1.74,0,1,0-3.48,0,.89.89,0,0,1-1.65.45c0,.37,0,.74,0,1.1a1.79,1.79,0,0,0,.77.19,1.74,1.74,0,0,0,1.74-1.74.89.89,0,0,1,1.78,0,1.74,1.74,0,1,0,3.47,0,.42.42,0,1,0-.84,0Z"/><path class="cls-3" d="M25.27,24.55a1.72,1.72,0,0,0-.21.81A1.77,1.77,0,0,0,26,26.9a1.84,1.84,0,0,0,.82.2,1.72,1.72,0,0,0,1.53-.92h0a.89.89,0,0,1,.79-.47.83.83,0,0,1,.42.11.86.86,0,0,1,.43.54,9.54,9.54,0,0,0,.52-.82,1.68,1.68,0,0,0-.55-.47,1.74,1.74,0,0,0-2.36.71.89.89,0,0,1-.78.48.91.91,0,0,1-.42-.11.89.89,0,0,1-.47-.79A.86.86,0,0,1,26,25h0a1.74,1.74,0,0,0-.71-2.36,1.84,1.84,0,0,0-.82-.2,1.72,1.72,0,0,0-1.53.92.43.43,0,0,0,.17.57.43.43,0,0,0,.58-.17.88.88,0,0,1,.78-.47.88.88,0,0,1,.89.89.92.92,0,0,1-.1.42Z"/><path class="cls-4" d="M19,26.17a11.8,11.8,0,0,0,.43,2.16,5.69,5.69,0,0,0,.62,1.4,4.21,4.21,0,0,0,1.66,1.55,5.29,5.29,0,0,0,2.45.53,7.93,7.93,0,0,0,4.13-1.19,12,12,0,0,0,4.48-5.24,18.38,18.38,0,0,0,1.69-7.87,17.54,17.54,0,0,0-2.91-10,11,11,0,0,0-3.26-3.13A8,8,0,0,0,24.16,3.2,5.13,5.13,0,0,0,21.33,4,4.4,4.4,0,0,0,20,5.43a8.26,8.26,0,0,0-.91,3,28.86,28.86,0,0,0-.19,3.73c0,1.65.06,3.44.06,5.31s-.06,3.66-.06,5.31A32.13,32.13,0,0,0,19,26.17Zm1.8-14a29.78,29.78,0,0,1,.13-3.14,9.91,9.91,0,0,1,.35-1.8,4.44,4.44,0,0,1,.42-1,2.33,2.33,0,0,1,.89-.85,3.43,3.43,0,0,1,1.57-.31,6,6,0,0,1,3.13.9,9.81,9.81,0,0,1,3.38,3.73c.12.22.24.45.35.69a.36.36,0,0,0,0,.09,16.67,16.67,0,0,1,1.46,7,16.08,16.08,0,0,1-2,8,9.54,9.54,0,0,1-.52.82h0A9,9,0,0,1,27.29,29a6,6,0,0,1-3.13.91,3.06,3.06,0,0,1-1.76-.43,2.39,2.39,0,0,1-.75-.82A6.41,6.41,0,0,1,21,26.29a25.65,25.65,0,0,1-.18-3.47c0-1.16,0-2.43.05-3.76,0-.36,0-.73,0-1.1v-.45C20.86,15.6,20.8,13.8,20.8,12.2Z"/><path class="cls-4" d="M18.16,8.85a11.13,11.13,0,0,0-.42-2.17,6.25,6.25,0,0,0-.62-1.39,4.23,4.23,0,0,0-1.66-1.56A5.32,5.32,0,0,0,13,3.2,8,8,0,0,0,8.87,4.39,12.13,12.13,0,0,0,4.39,9.64a18.52,18.52,0,0,0-1.68,7.87,17.58,17.58,0,0,0,2.9,10,10.88,10.88,0,0,0,3.26,3.13A7.94,7.94,0,0,0,13,31.81a5,5,0,0,0,2.82-.75,4.19,4.19,0,0,0,1.37-1.47,8.52,8.52,0,0,0,.92-3,29,29,0,0,0,.18-3.73c0-1.65-.05-3.44-.05-5.31s.05-3.66.05-5.31A32,32,0,0,0,18.16,8.85ZM9,17.93a.42.42,0,0,0,.42-.42.89.89,0,0,1,1.78,0,1.74,1.74,0,1,0,3.47,0,.9.9,0,0,1,1.66-.46c0,.16,0,.3,0,.46,0,1.9.06,3.7.06,5.31A29.9,29.9,0,0,1,16.23,26a9.84,9.84,0,0,1-.34,1.79,3.9,3.9,0,0,1-.43,1,2.17,2.17,0,0,1-.89.84,3.37,3.37,0,0,1-1.56.32A6,6,0,0,1,9.88,29,9.69,9.69,0,0,1,6.5,25.24a1,1,0,0,1,.28-.2A1,1,0,0,1,7.12,25a.89.89,0,0,1,.84.57,1.74,1.74,0,0,0,1.62,1.09,1.82,1.82,0,0,0,.65-.12,1.75,1.75,0,0,0,1.1-1.62,1.64,1.64,0,0,0-.13-.65h0a1,1,0,0,1-.06-.34.9.9,0,0,1,.56-.84A1,1,0,0,1,12,23a.89.89,0,0,1,.84.57.42.42,0,0,0,.78-.32h0A1.75,1.75,0,0,0,12,22.16a1.64,1.64,0,0,0-.65.13,1.75,1.75,0,0,0-1.1,1.62,1.64,1.64,0,0,0,.13.65h0a1,1,0,0,1,.06.34.89.89,0,0,1-.57.83.78.78,0,0,1-.33.07.91.91,0,0,1-.84-.57,1.75,1.75,0,0,0-1.62-1.1,1.64,1.64,0,0,0-.65.13,1.58,1.58,0,0,0-.36.2,16.55,16.55,0,0,1-1.46-6.95,16.14,16.14,0,0,1,2-8,1.86,1.86,0,0,0,.56.48,1.84,1.84,0,0,0,.82.2,1.72,1.72,0,0,0,1.53-.92h0a.89.89,0,0,1,.79-.47.83.83,0,0,1,.42.11.88.88,0,0,1,.47.78.91.91,0,0,1-.11.42,1.75,1.75,0,0,0,1.53,2.56,1.77,1.77,0,0,0,1.54-.92.43.43,0,0,0-.75-.4.89.89,0,0,1-.79.47.92.92,0,0,1-.42-.1.9.9,0,0,1-.47-.79.94.94,0,0,1,.11-.42h0a1.71,1.71,0,0,0,.2-.82,1.73,1.73,0,0,0-.91-1.53,1.74,1.74,0,0,0-2.36.71h0a.88.88,0,0,1-.78.47.9.9,0,0,1-.42-.1.93.93,0,0,1-.44-.54l0,0A9.08,9.08,0,0,1,9.88,6.05,6,6,0,0,1,13,5.15a3.11,3.11,0,0,1,1.76.43,2.22,2.22,0,0,1,.75.82,6.49,6.49,0,0,1,.67,2.32,27.72,27.72,0,0,1,.17,3.48c0,1.16,0,2.43,0,3.76a1.72,1.72,0,0,0-2.51,1.55.89.89,0,0,1-1.78,0,1.74,1.74,0,1,0-3.48,0A.42.42,0,0,0,9,17.93Z"/></svg>