<?xml version="1.0" encoding="UTF-8"?><svg id="Layer_1" xmlns="http://www.w3.org/2000/svg" viewBox="0 0 190.39 55.15"><defs><style>.cls-1{font-size:27.34px;}.cls-1,.cls-2{fill:#fff;}.cls-3{letter-spacing:.04em;}.cls-3,.cls-4{font-family:FiraSans-Book, 'Fira Sans';}.cls-5{font-family:FiraSans-Thin, 'Fira Sans';letter-spacing:.05em;}.cls-2{fill-rule:evenodd;}.cls-4{letter-spacing:.05em;}</style></defs><path class="cls-2" d="M164.45,26.16c7.72,0,15.43,0,23.15,0,.05,0,.09,0,.14,0,.17-.03,.24,.03,.22,.21,0,.08-.07,.2,.06,.24,.11,.03,.18-.04,.24-.13,.31-.41,.86-.55,1.35-.38,.07,.03,.13,.09,.21,.07,.11,.1,.23,.21,.34,.31,0,.02,.01,.05,.02,.06,.36,.63,.24,1.27-.31,1.67-.5,.37-1.19,.26-1.65-.27-.07-.08-.13-.14-.23-.1-.1,.04-.05,.14-.04,.2,.04,.22-.07,.24-.25,.24-.61-.01-1.21-.01-1.82-.01-.19,0-.45-.07-.56,.03-.12,.11-.02,.38-.04,.57-.02,.18,.05,.21,.22,.21,.8,0,1.6,0,2.4,0,.14,0,.19,.03,.18,.18-.01,.21,0,.43,0,.65,0,.57,0,.57-.53,.74-.19,.06-.23,.15-.24,.33-.02,.25,.07,.37,.31,.41,.08,.01,.16,.06,.24,.08,.17,.03,.24,.12,.23,.3-.02,.27,0,.54,0,.81,0,.67-.03,1.35,.01,2.02-.04,.05-.08,.09-.13,.14-.13-.06-.27-.03-.4-.03-.58,0-1.15-.01-1.73,0-.17,0-.2-.05-.2-.21,.01-.63,0-1.26,.01-1.89,0-.16-.05-.2-.19-.19-.25,.01-.51,0-.76,0-.14,0-.16,.04-.16,.17,0,.64,0,1.28,0,1.91,0,.16-.04,.21-.2,.21-.52-.01-1.05-.01-1.57,0-.16,0-.19-.05-.19-.19,0-.63,0-1.26,.01-1.89,0-.16-.04-.21-.2-.2-.25,.01-.49,.01-.74,0-.15,0-.18,.04-.18,.18,0,.64,0,1.28,0,1.91,0,.15-.03,.2-.19,.19-.69-.01-1.38-.01-2.08,0-.14,0-.18-.04-.18-.18,0-.94,.01-1.88,0-2.81,0-.13,.04-.19,.17-.23,.13-.03,.25-.09,.37-.12,.19-.03,.22-.13,.23-.32,.01-.25-.07-.36-.31-.43-.46-.13-.46-.14-.46-.63,0-.24,.01-.48,0-.71,0-.15,.04-.19,.19-.19,.8,0,1.6,0,2.4,.01,.18,0,.23-.05,.21-.22-.02-.2,.09-.46-.05-.57-.12-.1-.37-.03-.56-.03-5.53-.03-11.07-.05-16.6-.08"/><path class="cls-2" d="M19.1,.87c-.51,.57-1.07,.95-1.85,1.11-1.34,.28-2.65,.67-3.18,2.21-.15,.44-.53,.77-1.12,.8-.4,.02-.76,.28-1.11,.52-.61,.41-1,1.11-1.75,1.33-1.02,.3-1.55,1.01-1.77,2.03-.07,.36-.26,.69-.38,1.04-.2,.58-.63,.85-1.21,.86-.56,.01-1.01,.25-1.46,.55-.92,.61-1.44,1.48-1.77,2.5-.19,.59-.53,1-1.17,1.15-.91,.22-1.45,.84-1.7,1.74-.13,.47-.31,.92-.45,1.38-.48,1.62-.06,3.08,1.34,4.04,1.49,1.01,3.23,1.55,4.95,1.92,1.58,.34,3.26,.37,5.14,.34,.83-.1,1.88,.09,2.94,.18,1.07,.1,2.18,.1,3.19,.56,.19,.09,.53,.1,.47,.4-.05,.24-.35,.28-.58,.29-2.28,.07-4.56,.09-6.83-.27-.68-.11-1.36-.27-2.05-.32-1.41-.11-2.73,.29-4.05,.74-1.04,.36-1.73,1.03-1.99,2.12-.19,.79-.38,1.57-.58,2.35-.27,1.06-.29,2.06,.59,2.88,.73,.68,.75,1.48,.42,2.34-.51,1.36-.25,2.52,.8,3.54,.47,.45,.76,1.03,.91,1.68,.12,.49,.26,.99,.56,1.41,.94,1.29,2.22,2.27,3.24,3.49,.76,.91,1.76,1.61,2.16,2.82,.16,.5,.67,.75,1.18,.88,.4,.11,.8,.23,1.21,.3,.58,.1,.97,.4,1.12,.99,.12,.46,.44,.74,.85,.94,.67,.32,1.34,.62,2.07,.8,1.03,.25,2.06,.52,3.08,.81,.37,.1,.78,.18,.93,.63,.32,.92,1.06,1.33,2.07,1.18,1.29-.2,1.79-1.18,2.25-2.22,.79-1.81,1.13-3.75,1.74-5.61,.56-1.71,1.1-3.43,1.79-5.09,1.26-3,2.91-5.78,4.7-8.48,1.14-1.72,2.39-3.35,3.87-4.79,.6-.58,1.24-1.06,2.03-1.21,.03-.25,.09-.49,.18-.71-.28-.06-.52-.18-.74-.39-2.85-2.64-5.56-5.41-7.78-8.62-.77-1.12-1.55-2.28-1.92-3.58-.5-1.76-1.17-3.45-1.67-5.21-.57-1.99-1.42-3.91-2.21-5.83-.42-1.03-1.16-1.81-2.23-2.24-.62-.25-1.23-.53-1.85-.8-1.23-.53-1.5-.48-2.41,.53ZM3.28,33.04c-.04-.17,.06-.26,.2-.31,.23-.1,.46-.24,.71-.28,2.07-.32,4.06-.92,6.06-1.51,.08-.02,.17,0,.26,0,0,.03,.02,.07,.03,.1-1.21,.44-2.39,.95-3.62,1.29-.96,.27-1.91,.53-2.83,.89-.15,.06-.31,.11-.46,.12-.18,0-.29-.13-.34-.3Zm.65,1.4c-.1-.24-.06-.52,.24-.63,.34-.13,.69-.28,1.04-.36,1.85-.42,3.59-1.17,5.35-1.86,.25-.1,.52-.16,.8-.24,.06,.35-.22,.34-.37,.41-2.16,.98-4.37,1.86-6.59,2.69-.15,.06-.36,.26-.47,0Zm0,1.06c-.12-.32,.38-.39,.63-.49,1.56-.64,3.13-1.25,4.69-1.89,.74-.3,1.47-.63,2.21-.95,.02,.05,.04,.1,.07,.15-.49,.25-.96,.56-1.48,.74-1.86,.64-3.51,1.76-5.39,2.36-.24,.08-.58,.5-.74,.09Zm6.38-1.77c-2.32,.88-4.41,2.25-6.75,3.24,.4-.68,5.46-3.12,6.75-3.24Zm-6.46,4.37c-.23-.38-.03-.6,.31-.77,1.8-.88,3.59-1.75,5.39-2.63,.89-.44,1.7-1.02,2.66-1.31,.19-.06,.38-.13,.57-.19-1.77,.94-3.42,2.03-5.14,2.98-1.04,.58-2.02,1.27-3.03,1.9-.24,.15-.49,.45-.75,.03Zm1.09,1.37c-.11-.25-.52-.48-.1-.83,.3-.26,.66-.42,.97-.64,1.42-.98,2.95-1.77,4.42-2.68,1.25-.78,2.59-1.4,3.88-2.1,1.16-.62,2.32-1.23,3.47-1.85,.42-.23,.85-.42,1.34-.48-1.07,.58-2.07,1.25-3.12,1.84-1.78,1-3.49,2.12-5.19,3.25-1.72,1.15-3.42,2.33-5.12,3.51-.22,.15-.41,.29-.55-.03Zm.57,1.48c-.17-.17-.12-.39-.01-.58,.29-.54,.86-.75,1.32-1.08,1.74-1.24,3.5-2.46,5.28-3.63,1.53-1.01,3.1-1.96,4.67-2.91,.18-.11,.37-.29,.67-.2-1.05,.72-2.05,1.44-3.09,2.1-1.54,.98-2.97,2.09-4.43,3.17-1.31,.97-2.58,2-3.88,3-.14,.11-.3,.37-.52,.14Zm.64,1.24c-.23-.31-.3-.54,.06-.81,1.1-.84,2.17-1.72,3.28-2.53,2.14-1.57,4.27-3.14,6.45-4.65,1.41-.98,2.89-1.88,4.34-2.8,.21-.13,.43-.25,.82-.22-1.09,.64-2.01,1.36-2.97,2.01-1.89,1.29-3.68,2.71-5.46,4.13-1.98,1.58-3.91,3.23-5.8,4.92-.29,.26-.47,.29-.72-.04Zm.91,1.06c-.29-.33,.03-.49,.23-.66,2.7-2.42,5.51-4.72,8.39-6.91,1.94-1.48,3.97-2.85,5.96-4.27,.12-.09,.26-.2,.55-.11-1.92,1.3-3.72,2.61-5.46,4.02-2.1,1.7-4.2,3.4-6.17,5.25-.93,.87-1.87,1.72-2.8,2.58-.22,.2-.43,.41-.7,.11Zm1,.92c-.3-.3-.06-.49,.14-.69,3.16-3.01,6.46-5.85,9.9-8.53,.89-.69,1.8-1.37,2.69-2.06,.14-.11,.28-.23,.62-.25-1.3,1.06-2.5,2.01-3.67,3-3.14,2.64-6.13,5.46-8.99,8.41-.21,.22-.42,.4-.7,.12Zm1.01,1.24c-.28-.31-.39-.49-.05-.84,1.64-1.73,3.38-3.35,5.13-4.97,2.2-2.04,4.47-4.01,6.81-5.89,.17-.14,.31-.34,.72-.36-3.23,2.73-6.13,5.59-8.92,8.59-1.02,1.1-1.96,2.27-2.99,3.36-.21,.23-.36,.48-.7,.11Zm1.04,.89c-.32-.29,.01-.56,.19-.77,1.77-2.07,3.63-4.06,5.53-6.01,2.27-2.33,4.7-4.49,7.19-6.6,.19-.16,.36-.36,.77-.4-1.13,1.03-2.15,1.99-3.2,2.92-1.59,1.41-3.04,2.97-4.48,4.52-1.82,1.96-3.59,3.97-5.28,6.04-.18,.22-.38,.59-.71,.29Zm1.45,2.27c-.31-.23-.07-.44,.09-.64,.81-1.01,1.61-2.02,2.43-3.03,2.58-3.18,5.33-6.2,8.24-9.07,1.6-1.57,3.26-3.08,5.02-4.47,.05-.04,.12-.05,.3-.12-.55,.7-1.19,1.12-1.73,1.62-2.69,2.45-5.19,5.06-7.56,7.81-2.11,2.45-4.12,4.99-6.08,7.56-.03,.04-.06,.07-.08,.11-.16,.22-.36,.42-.63,.23Zm1.08,.44c-.26-.23,.03-.36,.14-.5,1.97-2.59,3.99-5.14,6.11-7.61,2.02-2.34,4.15-4.59,6.36-6.75,.05-.04,.11-.07,.17-.1-1.26,1.59-2.67,3.01-3.97,4.55-1.93,2.27-3.68,4.68-5.4,7.1-.73,1.03-1.42,2.1-2.14,3.14-.22,.32-.99,.42-1.27,.16Zm1.84,.7c-.45-.24,.02-.63,.17-.87,1.14-1.87,2.44-3.63,3.72-5.41,1.35-1.87,2.79-3.67,4.38-5.37-1.08,1.43-2.18,2.84-3.23,4.3-1.57,2.17-3.02,4.42-4.38,6.72-.15,.26-.27,.83-.65,.63Zm.69,1.22c-.36-.2-.17-.51-.01-.78,1.3-2.24,2.7-4.41,4.17-6.54,2.04-2.95,4.22-5.79,6.63-8.44,.14-.15,.25-.33,.37-.49,.07,.06,.13,.12,.2,.18-1.04,1.2-2.05,2.43-3.01,3.69-2.05,2.71-3.95,5.51-5.69,8.43-.7,1.17-1.39,2.34-2.08,3.52-.13,.22-.22,.62-.58,.42Zm1.07,.67c-.36-.17-.16-.4-.05-.63,.86-1.71,1.88-3.33,2.89-4.95,1.36-2.19,2.82-4.33,4.32-6.43,.07-.09,.13-.2,.39-.18-.74,1.14-1.45,2.21-2.13,3.3-1.7,2.7-3.22,5.5-4.64,8.35-.04,.08-.08,.17-.11,.25-.13,.3-.35,.44-.66,.29Zm1.37,.37c-.43-.18-.15-.46-.04-.68,2.34-4.84,5.09-9.43,8.29-13.76,.45-.61,.94-1.2,1.42-1.79,.03-.04,.11-.05,.3-.12-1.08,1.41-2.02,2.74-2.89,4.12-1.05,1.66-2.03,3.36-2.95,5.09-1.2,2.24-2.29,4.54-3.29,6.87-.2,.47-.51,.41-.84,.27Zm1.66,.43c-.41-.15-.35-.38-.22-.7,1.3-3.06,2.81-6.02,4.47-8.91,.74-1.28,1.48-2.56,2.29-3.79,.1-.15,.16-.34,.51-.49-1.53,2.42-2.8,4.83-3.9,7.32-.9,2.02-1.85,4.03-2.53,6.14-.09,.28-.17,.6-.62,.43Zm1.48,.45c-.46-.16-.42-.41-.28-.81,.89-2.48,1.89-4.92,3.05-7.28,1.14-2.32,2.33-4.62,3.73-6.79,.09-.13,.14-.3,.47-.42-.53,.93-1.04,1.72-1.46,2.56-1.97,3.93-3.66,7.97-4.81,12.23-.1,.36-.19,.68-.69,.52Zm1.47-1.14c1.21-3.78,2.5-7.53,4.39-11.05,.65-1.22,1.33-2.43,2.02-3.63,.09-.15,.13-.35,.46-.41-3.31,5.54-5.34,11.51-6.93,17.65-.39-.91-.2-1.74,.06-2.57Zm.92,2.73c-.42-.11-.17-.43-.11-.68,.57-2.4,1.26-4.77,2.09-7.09,.82-2.31,1.75-4.57,2.83-6.77,1.17-2.4,2.62-4.61,4.2-6.75,.16-.21,.36-.39,.54-.58-.82,1.43-1.73,2.78-2.55,4.19-1.68,2.89-2.95,5.96-4.07,9.1-.95,2.65-1.74,5.35-2.38,8.09-.07,.29-.22,.58-.55,.5Zm8.65-18.56c-1.88,2.99-3.35,6.17-4.45,9.51-.68,2.06-1.24,4.15-1.86,6.22-.24,.81-.58,1.58-1.09,2.26,2.12-8.32,4.78-16.38,10.66-22.94-1.11,1.62-2.21,3.26-3.26,4.94Zm-3.62-5.8c-.69,.55-1.35,1.08-2.01,1.61-3.05,2.45-5.8,5.22-8.41,8.12-2.15,2.38-4.24,4.82-6.2,7.37-.12,.16-.22,.52-.5,.31-.22-.17-.27-.48-.06-.75,.54-.67,1.04-1.36,1.61-2,2.67-3.03,5.34-6.07,8.31-8.84,2.15-2,4.34-3.95,6.74-5.65,.14-.1,.25-.28,.53-.18Zm-21.78-.25c-1,.16-2,.28-3,.41-.17,.02-.42,.16-.47-.08-.06-.25,.23-.26,.39-.28,1.32-.15,2.65-.28,3.98-.43,.68-.07,1.35-.17,2.02-.25-.93,.41-1.93,.47-2.92,.63Zm-2.55-2.26c1.48,.39,3,.25,4.5,.37,0,.06,0,.11,0,.17-1,.05-2,.11-3,.15-.53,.02-1.05,.05-1.58,.04-.2,0-.45-.06-.35-.37,.06-.19,.13-.43,.41-.36Zm9.06-.61c-.63,.55-7.4,.47-8.7-.18,2.88,.02,5.75,.31,8.7,.18ZM19.64,1.94c-.07-.18-.09-.41-.08-.61,0-.19,.11-.38,.31-.4,.22-.02,.23,.2,.25,.35,.24,1.23,.56,2.46,.91,3.65,.53,1.81,.98,3.65,1.74,5.4,.86,1.99,1.49,4.08,2.62,5.95,.55,.9,.91,1.91,1.55,2.77-.9-.88-1.49-1.97-2.09-3.04-1.13-2-2.18-4.07-2.92-6.25-.59-1.74-1.23-3.47-1.63-5.28-.19-.84-.32-1.72-.65-2.53Zm-.81,.05c.31-.05,.36,.28,.38,.48,.19,2.16,1.17,4.11,1.68,6.18,.33,1.34,.84,2.64,1.59,3.82,.22,.35,.36,.75,.5,1.14,.41,1.11,1.07,2.08,1.67,3.1,.34,.58,.68,1.18,.99,1.78-.89-1.07-1.6-2.25-2.33-3.43-1.54-2.5-2.57-5.21-3.54-7.95-.52-1.47-.97-2.97-1.23-4.52-.05-.28-.02-.56,.29-.61Zm-1.28,.66c.21-.06,.41,.03,.41,.24,.02,.97,.63,1.77,.7,2.74,.04,.56,.32,1.1,.52,1.64,.63,1.64,1.22,3.3,1.94,4.89,.66,1.46,1.45,2.86,2.31,4.23,1.01,1.61,2.15,3.09,3.38,4.53-1.31-1.11-2.39-2.43-3.44-3.78-1.04-1.33-1.88-2.79-2.68-4.25-.66-1.21-1.06-2.56-1.57-3.84-.14-.34-.22-.71-.38-1.04-.79-1.57-.98-3.3-1.37-4.97-.04-.17-.02-.33,.17-.39Zm-1.04,.21c.24-.01,.31,.27,.34,.46,.44,3.24,1.69,6.23,3.05,9.15,1.87,3.99,4.51,7.43,8.03,10.15,.07,.05,.13,.12,.19,.18-1.07-.44-1.9-1.24-2.76-1.99-1.49-1.29-2.76-2.79-3.83-4.43-.72-1.11-1.41-2.25-2.01-3.45-.68-1.37-1.35-2.74-1.8-4.19-.56-1.77-1.16-3.54-1.36-5.4-.02-.18-.17-.47,.16-.49Zm-1.51,1.11c-.06-.31,.11-.53,.36-.69,.17-.1,.32-.1,.36,.14,.47,2.77,1.31,5.44,2.37,8.04,0,.01-.02,.04-.03,.06-.14,0-.17-.14-.21-.23-.86-1.99-1.91-3.89-2.58-5.96-.14-.44-.19-.9-.27-1.35Zm-.76,1.47c-.06-.16-.09-.35,.09-.43,.24-.11,.25,.15,.3,.27,.3,.75,.57,1.52,.89,2.26,1.62,3.73,3.49,7.32,6.15,10.44,.07,.09,.14,.19,.19,.28,.02,.03,0,.09,.02,.29-1.45-1.71-2.73-3.37-3.81-5.17-1.47-2.45-2.83-4.96-3.72-7.7-.03-.09-.07-.17-.1-.26Zm-.99,.13c.26-.09,.44,.11,.53,.34,.2,.47,.4,.94,.57,1.42,.6,1.7,1.5,3.25,2.35,4.84,1.73,3.23,3.95,6.06,6.6,8.56,.73,.69,1.54,1.31,2.32,1.96-2.29-1.37-4.25-3.14-5.94-5.21-1.4-1.7-2.65-3.48-3.73-5.39-1.08-1.91-2.04-3.86-2.77-5.93-.07-.2-.27-.46,.07-.58Zm-.96,.39c.14-.07,.21,.06,.25,.17,.62,1.79,1.39,3.52,2.27,5.19,.04,.07,.1,.17,0,.25-.83-1.17-1.35-2.49-1.92-3.8-.22-.51-.56-.96-.69-1.51-.03-.11-.02-.25,.1-.31Zm-.86,.71c.27-.11,.28,.16,.36,.31,.8,1.61,1.53,3.26,2.42,4.82,1.24,2.16,2.66,4.21,4.36,6.05,.11,.12,.21,.24,.31,.36-1.52-1.3-2.74-2.86-3.88-4.49-1.13-1.63-2.06-3.37-3.02-5.1-.26-.46-.42-.98-.63-1.46-.08-.18-.15-.38,.08-.47Zm-1.39,.93c.1-.19,.32-.28,.53-.29,.3-.02,.33,.28,.42,.48,.9,1.99,1.94,3.9,3.21,5.69,.15,.22,.26,.47,.39,.71l-.17,.1c-.77-1.05-1.57-2.09-2.32-3.17-.66-.94-1.26-1.92-1.88-2.88-.12-.19-.29-.4-.18-.64Zm-.71,1.06c-.14-.19-.26-.39-.05-.54,.27-.19,.25,.15,.33,.27,1.47,2.23,2.91,4.49,4.65,6.53,.07,.08,.16,.17,.05,.36-1.4-1.65-2.79-3.27-3.93-5.09-.33-.52-.69-1.03-1.06-1.53Zm-.64,1.9c-.11-.16-.26-.31-.05-.47,.16-.11,.23,.05,.31,.17,2.13,3.37,4.72,6.36,7.7,9,.03,.03,.04,.08,.05,.12-1.62-1.16-2.98-2.57-4.29-4.02-1.37-1.5-2.56-3.14-3.72-4.81Zm-.53,.47c.12-.1,.25,.07,.32,.18,1.71,2.55,3.69,4.89,5.87,7.07-1.11-.88-2.12-1.88-3.08-2.93-1.08-1.2-2.07-2.47-3.01-3.79-.11-.16-.35-.32-.11-.52Zm-1.39,.43c.26-.12,.53-.31,.79,.05,.51,.71,1,1.43,1.55,2.11,.85,1.05,1.75,2.07,2.63,3.1-1.74-1.54-3.47-3.09-4.97-4.87-.11-.13-.23-.28,0-.38Zm-1.47,.57c.24-.2,.55-.39,.85-.04,1.74,2.06,3.68,3.93,5.69,5.74-.59-.26-1.05-.69-1.56-1.08-1.65-1.26-3.26-2.58-4.8-3.97-.18-.16-.54-.36-.18-.66Zm-.6,1.74c-.34-.22-.41-.53-.17-.82,.27-.32,.45,.05,.6,.19,1.44,1.3,2.93,2.54,4.5,3.68,.11,.08,.2,.18,.29,.27-.04,.05-.07,.1-.11,.16-1.29-.87-2.58-1.75-3.87-2.63-.42-.29-.83-.59-1.25-.87Zm-.73,.53c.22-.37,.39-.03,.55,.07,1.63,1.08,3.24,2.21,4.9,3.25,1.64,1.03,3.28,2.05,5.04,2.88,.16,.07,.37,.09,.44,.31-.27,.11-.44-.09-.63-.18-2.23-1.07-4.42-2.21-6.56-3.45-1.19-.69-2.43-1.31-3.56-2.12-.32-.23-.35-.47-.17-.76Zm.07,1.39c1.56,.98,3.18,1.87,4.79,2.76,1.35,.74,2.73,1.43,4.07,2.21-3.55-1.5-7.06-3.09-10.45-5.04,.62-.52,1.04-.28,1.59,.07Zm-2.18,.88c-.17-.08-.47-.12-.35-.4,.11-.28,.36-.24,.58-.1,1.88,1.17,3.91,2.06,5.89,3.05,.08,.04,.14,.1,.22,.14-.02,.03-.03,.07-.05,.11-1.13-.5-2.25-1-3.38-1.5-.97-.43-1.94-.86-2.9-1.29Zm-.73,.52c.12-.25,.38-.08,.55,0,2.44,1.19,5.01,2.11,7.41,3.39-1.44-.55-2.88-1.07-4.31-1.64-1.09-.44-2.23-.74-3.29-1.27-.2-.1-.5-.19-.36-.48Zm.57,1.92c-.24-.08-.47-.19-.7-.3-.19-.1-.25-.28-.18-.47,.09-.23,.29-.22,.46-.14,.39,.15,.76,.33,1.15,.49,2.68,1.13,5.45,2.05,8.19,3.01,.15,.05,.29,.12,.44,.18l-.06,.15c-1.39-.41-2.79-.8-4.17-1.23-1.72-.54-3.43-1.11-5.14-1.68Zm-.91,.79c-.05-.12-.06-.29,0-.39,.08-.15,.25-.07,.37-.02,1.83,.76,3.74,1.29,5.63,1.88,.87,.28,1.75,.52,2.62,.78-.69,.09-1.32-.13-1.96-.27-1.87-.42-3.73-.86-5.59-1.33-.4-.1-.88-.18-1.07-.65Zm9.46,3.41c-2.82-.45-5.63-1.02-8.39-1.76-.36-.1-.36-.1-.67-.65,4.17,1.34,8.38,1.99,12.54,2.9-1.18-.03-2.33-.3-3.48-.49Zm-3.44,2.95c.89-.64,2.97-.29,4.45,.21-1.47,.02-2.94-.05-4.45-.21Zm30.83-.09c-4-2.59-6.63-6.26-8.42-10.6,1.98,4.19,5.3,7.32,8.42,10.6ZM24.46,3.1c.09,1.12,.43,2.2,.58,3.3,.14,1.03,.45,2.03,.74,3,.67,2.25,1.19,4.56,2.32,6.66,.33,.62,.73,1.21,.84,1.92-2.8-5-4.38-10.42-5.5-16,.73,.15,.95,.43,1.01,1.12Zm-1.72-1.33c.33,.74,.4,1.56,.56,2.34,.19,.92,.38,1.85,.62,2.75,.75,2.81,1.8,5.52,2.9,8.21,.97,2.36,2.28,4.52,3.79,6.57,.08,.1,.22,.17,.15,.41-.77-.65-1.24-1.5-1.78-2.28-2.22-3.13-3.51-6.71-4.74-10.28-.61-1.78-1.19-3.62-1.43-5.53-.09-.69-.36-1.37-.48-2.08-.02-.14-.17-.34,.07-.41,.19-.05,.27,.14,.33,.29Zm-1.11-.46c.18,.85,.32,1.72,.51,2.57,.27,1.19,.61,2.36,.88,3.54,.61,2.7,1.81,5.19,2.77,7.76,.4,1.09,1.04,2.05,1.63,3.04,.15,.25,.28,.52,.42,.78l-.15,.09c-.61-1.07-1.3-2.09-1.86-3.2-1.14-2.28-2.11-4.63-2.94-7.03-.52-1.52-.95-3.08-1.34-4.64-.23-.91-.43-1.84-.7-2.74-.06-.21-.35-.52,.05-.63,.3-.08,.65,.05,.73,.46Z"/><text class="cls-1" transform="translate(44.42 33.05)"><tspan class="cls-4" x="0" y="0">Sa</tspan><tspan class="cls-3" x="32.43" y="0">t</tspan><tspan class="cls-4" x="43.25" y="0">o</tspan><tspan class="cls-5" x="60.51" y="0">chip</tspan></text></svg>