<?xml version="1.0" encoding="utf-8"?>
<!-- Generator: Adobe Illustrator 26.3.1, SVG Export Plug-In . SVG Version: 6.00 Build 0)  -->
<svg version="1.1" id="Layer_1" xmlns="http://www.w3.org/2000/svg" xmlns:xlink="http://www.w3.org/1999/xlink" x="0px" y="0px"
	 viewBox="0 0 37.2 35.4" style="enable-background:new 0 0 37.2 35.4;" xml:space="preserve">
<style type="text/css">
	.st0{fill:#0B1434;}
	.st1{fill:#1674BB;}
</style>
<g>
	<path d="M33.8,18.9c-0.1,0.5-0.1,1.1-0.2,1.6c-0.5,2.9-1.8,5.6-3.8,7.7c-2.3,2.5-5.3,4.2-8.7,4.7c-5.3,0.9-10.7-1-14.2-5.1
		l-0.2-0.3v1.8H4.9c0-0.1,0-0.2,0-0.3c0-1.5,0-2.9,0-4.4c0-0.2,0.1-0.3,0.3-0.3c1.5,0,3,0,4.5,0v1.8H7.9c3.3,4.1,8.7,6,13.8,4.8
		c3.2-0.7,6-2.6,7.8-5.3c1.9-2.7,2.8-5.9,2.4-9.2l1.8-0.2l0.1,0.6L33.8,18.9z"/>
	<path class="st0" d="M19.6,2.6c0.5,0.1,1.1,0.1,1.6,0.2c3.2,0.6,6.2,2.1,8.4,4.5c0.2,0.2,0.3,0.3,0.5,0.5h0.1V6.2H32
		c0,0.1,0,0.2,0,0.3c0,1.4,0,2.8,0,4.2c0,0.2-0.1,0.3-0.3,0.3c-1.4,0-2.8,0-4.2,0h-0.3V9.2h1.6V9.1c-3.1-3.7-8-5.4-12.8-4.5
		C9.1,6.1,4.4,12.6,5.2,19.6l-1.8,0.2c0-0.4-0.1-0.9-0.1-1.3c-0.2-3.7,1-7.3,3.4-10.2c2.2-2.7,5.2-4.6,8.6-5.3
		c0.7-0.2,1.3-0.2,2-0.3l0.2-0.1L19.6,2.6z"/>
</g>
<path class="st1" d="M26,16.5c-0.5-0.1-0.9-0.2-1.4-0.4c-0.1,0-0.2-0.1-0.2-0.2c-0.1-0.2-0.2-0.5-0.3-0.7c0-0.1-0.1-0.2,0-0.3
	c0.3-0.5,0.6-1,0.9-1.4c0.2-0.3,0.1-0.5-0.1-0.8c-0.4-0.4-0.8-0.8-1.1-1.1c-0.3-0.3-0.5-0.3-0.8-0.1c-0.5,0.3-0.9,0.6-1.4,0.8
	c-0.1,0-0.2,0-0.3,0c-0.3-0.1-0.5-0.2-0.8-0.3c-0.1,0-0.2-0.1-0.2-0.2c-0.1-0.5-0.2-0.9-0.4-1.4c-0.1-0.3-0.2-0.5-0.5-0.5
	c-0.6,0-1.2,0-1.8,0c-0.4,0-0.5,0.1-0.6,0.5c-0.1,0.5-0.2,1-0.4,1.4c0,0.1-0.1,0.2-0.2,0.2c-0.2,0.1-0.4,0.2-0.6,0.2
	c-0.1,0.1-0.2,0-0.3,0c-0.5-0.3-0.9-0.6-1.4-0.8c-0.1-0.1-0.2-0.1-0.4-0.2c-0.1,0.1-0.3,0.1-0.4,0.2c-0.4,0.4-0.8,0.8-1.2,1.2
	c-0.3,0.3-0.3,0.5-0.1,0.8c0.3,0.5,0.6,0.9,0.8,1.4c0,0.1,0.1,0.2,0,0.3c-0.1,0.2-0.2,0.5-0.3,0.7c0,0.1-0.1,0.2-0.2,0.2
	c-0.4,0.1-0.9,0.2-1.3,0.4c-0.3,0.1-0.4,0.2-0.4,0.6c0,0.6,0,1.1,0,1.7c0,0.4,0.1,0.5,0.5,0.6c0.4,0.1,0.8,0.2,1.1,0.3
	c0.2,0,0.3,0.1,0.4,0.4c0.1,0.2,0.2,0.4,0.2,0.6c0,0.1,0,0.2,0,0.3c-0.3,0.5-0.5,0.9-0.8,1.4c-0.2,0.3-0.2,0.6,0.1,0.8
	c0.4,0.4,0.7,0.7,1.1,1.1c0.3,0.3,0.5,0.3,0.8,0.1c0.5-0.3,0.9-0.6,1.4-0.8c0.1,0,0.2-0.1,0.3,0c0.3,0.1,0.5,0.2,0.8,0.3
	c0.1,0,0.2,0.1,0.2,0.2c0.1,0.5,0.2,0.9,0.4,1.4c0.1,0.2,0.2,0.4,0.4,0.4c0.6,0,1.2,0,1.8,0c0.4,0,0.5-0.1,0.6-0.5
	c0.1-0.5,0.2-0.9,0.4-1.4c0-0.1,0.1-0.2,0.2-0.2c0.2-0.1,0.4-0.2,0.7-0.3c0.1,0,0.2,0,0.3,0c0.5,0.3,0.9,0.5,1.4,0.8
	c0.3,0.2,0.6,0.2,0.8-0.1c0.4-0.4,0.7-0.7,1.1-1.1c0.2-0.2,0.3-0.5,0.1-0.8c-0.2-0.4-0.4-0.7-0.7-1.1c-0.2-0.3-0.3-0.6-0.1-1
	c0.1-0.1,0.1-0.3,0.2-0.4c0-0.1,0.1-0.2,0.2-0.2c0.5-0.1,0.9-0.2,1.4-0.4c0.3-0.1,0.4-0.2,0.4-0.6c0-0.6,0-1.2,0-1.7
	C26.4,16.8,26.3,16.6,26,16.5z M19.5,16.3l-0.7-0.4c-0.1-0.1-0.3-0.1-0.5,0l-1.4,0.8c-0.1,0.1-0.2,0.2-0.2,0.4v1.6
	c0,0.2,0.1,0.3,0.2,0.4l1.4,0.8c0.1,0.1,0.3,0.1,0.5,0l3.2-1.8v1.3c0,0.3-0.1,0.5-0.4,0.6l-2.7,1.5c-0.2,0.1-0.5,0.1-0.7,0l-2.6-1.5
	c-0.2-0.1-0.4-0.4-0.4-0.6v-3.1c0-0.3,0.1-0.5,0.4-0.6l2.6-1.5c0.2-0.1,0.5-0.1,0.7,0l2.6,1.5c0.4,0.3,0.5,0.8,0.2,1.2
	c-0.1,0.1-0.1,0.2-0.2,0.2l-3,1.7c0,0-0.1,0-0.1,0l-0.7-0.4c0,0-0.1-0.1-0.1-0.1v-0.8c0,0,0-0.1,0.1-0.1L19.5,16.3
	C19.5,16.3,19.5,16.3,19.5,16.3L19.5,16.3z"/>
</svg>
