<svg id="Layer_1" data-name="Layer 1" xmlns="http://www.w3.org/2000/svg" viewBox="0 0 37.17 35.38"><defs><style>.cls-1{fill:#1674bb;}.cls-2{fill:#0b1434;}</style></defs><path class="cls-1" d="M25.46,15a7.65,7.65,0,1,0,7.64,7.64A7.64,7.64,0,0,0,25.46,15Zm1,5.84-.77-.44a.52.52,0,0,0-.51,0l-1.57.9a.52.52,0,0,0-.25.44v1.8a.5.5,0,0,0,.26.44l1.56.91a.52.52,0,0,0,.51,0l3.51-2v1.48a.79.79,0,0,1-.41.7l-2.94,1.7a.79.79,0,0,1-.81,0l-2.95-1.7a.78.78,0,0,1-.4-.7V21a.78.78,0,0,1,.4-.7l2.95-1.7a.79.79,0,0,1,.81,0l2.94,1.7a.93.93,0,0,1,0,1.56l-3.28,1.89a.14.14,0,0,1-.15,0l-.8-.46a.11.11,0,0,1-.07-.13v-.92a.15.15,0,0,1,.07-.14L26.47,21a.07.07,0,0,0,0-.09Z"/><path class="cls-2" d="M3.7,8.28a8.18,8.18,0,0,1,.56-1.4,3.54,3.54,0,0,1,3.2-1.82H30a3.73,3.73,0,0,1,3.75,3.73v7.54a4.88,4.88,0,0,0-.35-.38c-.64-.55-1.28-1.1-1.93-1.62a.49.49,0,0,1-.23-.45v-5a1.24,1.24,0,0,0-1.36-1.36H7.57A1.23,1.23,0,0,0,6.22,8.91v2.38h6.45a3.44,3.44,0,0,1,3.49,2.83,2.4,2.4,0,0,1,.05.46c0,1.22,0,2.44,0,3.66a3.35,3.35,0,0,1-3,3c-1.55.06-3.1,0-4.66,0H6.23c0,.12,0,.23,0,.33v2a1.24,1.24,0,0,0,1.37,1.38h7.49l.77,2.5h-.24c-2.71,0-5.41,0-8.12,0a3.74,3.74,0,0,1-3.73-3.09.75.75,0,0,0-.06-.13ZM11.25,18.8a2.49,2.49,0,1,0-2.53-2.45A2.48,2.48,0,0,0,11.25,18.8Z"/></svg>